<svg width="20" height="20" viewBox="0 0 20 20" fill="none" xmlns="http://www.w3.org/2000/svg">
<rect width="20" height="20" rx="4.11765" fill="url(#paint0_linear_2234_13992)"/>
<path d="M7.99329 11.0918V8.85449C7.99329 8.73099 7.97917 8.62456 7.95813 8.53418C7.95147 8.52789 7.945 8.52165 7.9386 8.51562C7.64205 8.23014 7.38185 8.07131 7.15833 8.03809V7.94141H8.95227V7.96387L11.9161 11.0918V8.85449C11.9161 8.56013 11.856 8.35917 11.7365 8.25293C11.6169 8.1446 11.4341 8.07347 11.1886 8.03809V7.94141H13.1144L16.0988 11.0918V8.85449C16.0988 8.56013 16.0396 8.35917 15.92 8.25293C15.8005 8.14458 15.6177 8.07349 15.3722 8.03809V7.94141H17.0587V8.03809C16.8728 8.05801 16.7344 8.10855 16.6437 8.19043C16.553 8.27009 16.4944 8.36425 16.4679 8.47266C16.4414 8.58107 16.4279 8.70849 16.4279 8.85449V12.8848H16.3048L12.7257 9.12012L12.4005 8.77832C12.3872 8.76947 12.3699 8.75353 12.3478 8.73145C12.3288 8.71251 12.2979 8.68252 12.255 8.6416C12.2478 8.70738 12.2443 8.77854 12.2443 8.85449V12.8848H12.1212L8.54309 9.12012L8.32141 8.8877V12.8848H8.19836L4.62024 9.12012V11.8721C4.62025 12.1021 4.66846 12.2992 4.76575 12.4629C4.86531 12.6244 5.04816 12.7154 5.3136 12.7354V12.8311H3.5675V12.7354C4.05661 12.6955 4.29944 12.455 4.29504 12.0146V8.77832C4.28177 8.76946 4.26346 8.75357 4.24133 8.73145C4.2214 8.71152 4.18814 8.67897 4.14172 8.63477C4.09536 8.59061 4.05329 8.55096 4.01575 8.51562C3.71918 8.23012 3.45901 8.07128 3.23547 8.03809V7.94141H5.00793L7.99329 11.0918Z" fill="white"/>
<path d="M16.1768 5.58838L16.2268 5.89186C16.2715 6.16329 16.4842 6.37603 16.7557 6.42074L17.0591 6.47073L16.7557 6.52072C16.4842 6.56543 16.2715 6.77817 16.2268 7.0496L16.1768 7.35308L16.1268 7.0496C16.0821 6.77817 15.8693 6.56543 15.5979 6.52072L15.2944 6.47073L15.5979 6.42074C15.8693 6.37603 16.0821 6.16329 16.1268 5.89186L16.1768 5.58838Z" fill="url(#paint1_linear_2234_13992)"/>
<g filter="url(#filter0_f_2234_13992)">
<path d="M16.1768 5.58838L16.2268 5.89186C16.2715 6.16329 16.4842 6.37603 16.7557 6.42074L17.0591 6.47073L16.7557 6.52072C16.4842 6.56543 16.2715 6.77817 16.2268 7.0496L16.1768 7.35308L16.1268 7.0496C16.0821 6.77817 15.8693 6.56543 15.5979 6.52072L15.2944 6.47073L15.5979 6.42074C15.8693 6.37603 16.0821 6.16329 16.1268 5.89186L16.1768 5.58838Z" fill="url(#paint2_linear_2234_13992)"/>
</g>
<defs>
<filter id="filter0_f_2234_13992" x="15.0003" y="5.29426" width="2.35288" height="2.35288" filterUnits="userSpaceOnUse" color-interpolation-filters="sRGB">
<feFlood flood-opacity="0" result="BackgroundImageFix"/>
<feBlend mode="normal" in="SourceGraphic" in2="BackgroundImageFix" result="shape"/>
<feGaussianBlur stdDeviation="0.147059" result="effect1_foregroundBlur_2234_13992"/>
</filter>
<linearGradient id="paint0_linear_2234_13992" x1="18.8235" y1="1.47059" x2="1.32353" y2="18.9706" gradientUnits="userSpaceOnUse">
<stop/>
<stop offset="1" stop-opacity="0.75"/>
</linearGradient>
<linearGradient id="paint1_linear_2234_13992" x1="16.1768" y1="5.58838" x2="16.1768" y2="7.35308" gradientUnits="userSpaceOnUse">
<stop stop-color="#884DFF"/>
<stop offset="1" stop-color="#44B1F7"/>
</linearGradient>
<linearGradient id="paint2_linear_2234_13992" x1="16.1768" y1="5.58838" x2="16.1768" y2="7.35308" gradientUnits="userSpaceOnUse">
<stop stop-color="#884DFF"/>
<stop offset="1" stop-color="#44B1F7"/>
</linearGradient>
</defs>
</svg>
