<svg width="13" height="13" viewBox="0 0 13 13" fill="none" xmlns="http://www.w3.org/2000/svg">
<path d="M5.43225 0.484268C5.82091 -0.161552 6.75721 -0.161552 7.14587 0.484268L8.53931 2.79969C8.67894 3.0317 8.90669 3.19717 9.17049 3.25826L11.8032 3.868C12.5375 4.03807 12.8268 4.92854 12.3327 5.49775L10.5612 7.53849C10.3837 7.74298 10.2967 8.01071 10.3201 8.28049L10.5538 10.9727C10.619 11.7237 9.86147 12.274 9.16744 11.98L6.67915 10.9258C6.42982 10.8202 6.14831 10.8202 5.89897 10.9258L3.41069 11.98C2.71665 12.274 1.95917 11.7237 2.02434 10.9727L2.258 8.28049C2.28141 8.01071 2.19442 7.74298 2.01691 7.53849L0.245409 5.49775C-0.2487 4.92854 0.0406322 4.03807 0.774946 3.868L3.40764 3.25826C3.67144 3.19717 3.89919 3.0317 4.03882 2.79969L5.43225 0.484268Z" fill="#FFE57C"/>
</svg>
