<svg width="64" height="64" viewBox="0 0 64 64" fill="none" xmlns="http://www.w3.org/2000/svg">
<rect width="64" height="64" rx="32" fill="#00B4D8"/>
<path d="M36.6443 31.405C36.6443 34.7128 35.7244 37.4626 33.5986 40.0788C31.4728 42.695 27.7396 44.8099 23.8221 44.8099C19.9047 44.8099 16.1715 42.695 14.0457 40.0788C11.9199 37.4626 11 34.7128 11 31.405C11 28.0971 11.9199 25.3474 14.0457 22.7312C16.1715 20.1149 19.9047 18 23.8221 18C27.7396 18 31.4728 20.1149 33.5986 22.7312C35.7244 25.3474 36.6443 28.0971 36.6443 31.405Z" fill="white"/>
<path d="M52.9636 31.405C52.9636 34.7128 52.0437 37.4626 49.9179 40.0788C47.7922 42.695 44.0589 44.8099 40.1415 44.8099C36.2241 44.8099 32.4908 42.695 30.365 40.0788C28.2392 37.4626 27.3193 34.7128 27.3193 31.405C27.3193 28.0971 28.2392 25.3474 30.365 22.7312C32.4908 20.1149 36.2241 18 40.1415 18C44.0589 18 47.7922 20.1149 49.9179 22.7312C52.0437 25.3474 52.9636 28.0971 52.9636 31.405Z" fill="white"/>
<path d="M23.7407 22.6626C25.3258 22.6627 26.6666 23.024 27.7622 23.7466C28.8811 24.4692 29.7321 25.4022 30.3149 26.5444C30.8976 27.6632 31.1889 28.8522 31.189 30.1108C31.189 31.1133 30.9905 31.7549 30.5942 32.0347C30.1979 32.3144 29.6263 32.4546 28.8804 32.4546H19.9985C20.1151 34.0162 20.5348 35.0886 21.2573 35.6714C22.0033 36.2309 22.9362 36.5103 24.0552 36.5103C25.2907 36.5102 26.27 36.1489 26.9927 35.4263C27.5288 34.8902 28.0186 34.5406 28.4614 34.3774C28.9276 34.2144 29.4174 34.319 29.9302 34.6919C30.4662 35.0648 30.7574 35.5429 30.8042 36.1255C30.8741 36.685 30.6293 37.2684 30.0698 37.8745C29.2772 38.7371 28.368 39.3669 27.3423 39.7632C26.3398 40.1362 25.2204 40.3228 23.9849 40.3228C21.5138 40.3227 19.5088 39.5992 17.9702 38.1538C16.4318 36.6851 15.6626 34.4707 15.6626 31.5103C15.6626 29.6688 16.0004 28.095 16.6763 26.7896C17.3757 25.4608 18.3322 24.446 19.5444 23.7466C20.7566 23.0241 22.1556 22.6626 23.7407 22.6626ZM23.8218 26.7427C21.9571 26.7429 21.4907 28.2967 21.4907 29.0737H26.1538C26.1538 27.2087 24.5989 26.7427 23.8218 26.7427Z" fill="#00B4D8"/>
<path d="M40.5957 22.6626C39.0107 22.6626 37.6698 23.0241 36.5742 23.7466C35.4553 24.4693 34.6043 25.4022 34.0215 26.5444C33.4387 27.6633 33.1466 28.8521 33.1465 30.1108C33.1465 31.1132 33.345 31.7549 33.7412 32.0347C34.1375 32.3144 34.7092 32.4546 35.4551 32.4546H44.3369C44.2203 34.0163 43.8008 35.0886 43.0781 35.6714C42.3321 36.2309 41.3993 36.5103 40.2803 36.5103C39.0449 36.5102 38.0654 36.1489 37.3428 35.4263C36.8068 34.8903 36.3168 34.5406 35.874 34.3774C35.4079 34.2145 34.918 34.319 34.4053 34.6919C33.8694 35.0648 33.578 35.543 33.5312 36.1255C33.4613 36.6849 33.7062 37.2684 34.2656 37.8745C35.0582 38.737 35.9675 39.3669 36.9932 39.7632C37.9956 40.1362 39.1151 40.3227 40.3506 40.3228C42.8217 40.3227 44.8266 39.5992 46.3652 38.1538C47.9037 36.6851 48.6728 34.4708 48.6729 31.5103C48.6728 29.6688 48.3351 28.095 47.6592 26.7896C46.9598 25.4609 46.0041 24.4459 44.792 23.7466C43.5799 23.024 42.1807 22.6627 40.5957 22.6626ZM40.5137 26.7427C42.3785 26.7428 42.8447 28.2966 42.8447 29.0737H38.1826C38.1827 27.2087 39.7366 26.7427 40.5137 26.7427Z" fill="#00B4D8"/>
</svg>
