<svg width="24" height="20" viewBox="0 0 24 20" fill="none" xmlns="http://www.w3.org/2000/svg">
<path d="M2.55604 6.91193C3.51369e-05 6.91193 0.108035 -7.03335e-05 5.47204 1.11593C5.97604 1.22393 7.59604 1.36793 9.46804 1.36793H13.824C15.66 1.36793 17.28 1.22393 17.784 1.11593C23.148 -7.03335e-05 23.256 6.91193 20.7 6.91193C18.324 6.91193 16.74 3.20393 14.724 3.20393H14.256C14.256 3.34793 14.292 3.49193 14.292 3.67193V12.3839C14.292 14.8319 15.372 15.7679 15.372 17.7479C15.372 19.3319 13.932 19.8719 11.628 19.8719C9.32404 19.8719 7.88404 19.3319 7.88404 17.7479C7.88404 15.7679 9.00004 14.8319 9.00004 12.3839V3.67193C9.00004 3.49193 9.00004 3.34793 9.03604 3.20393H8.56804C6.51604 3.20393 4.93204 6.91193 2.55604 6.91193Z" fill="#5E84FF"/>
</svg>
