<svg width="150" height="150" viewBox="0 0 150 150" fill="none" xmlns="http://www.w3.org/2000/svg">
<path d="M75 4.14856e-05C116.421 4.8728e-05 150 33.5787 150 75.0001C150 116.421 116.421 150 75 150C33.5786 150 -1.60022e-06 116.421 2.14537e-06 75C9.38771e-06 33.5787 33.5787 3.42433e-05 75 4.14856e-05ZM75 65C69.4772 65 65 69.4772 65 75C65 80.5229 69.4772 85 75 85C80.5228 85 85 80.5229 85 75C85 69.4772 80.5229 65 75 65Z" fill="url(#paint0_linear_1405_31213)"/>
<path d="M111.222 31.8173C112.235 32.7464 113.139 33.7001 113.984 34.67C117.236 38.6928 118.961 43.1377 121.715 49.0427C121.898 49.4459 122.072 49.8275 122.242 50.1979C124.272 57.2749 123.385 58.9067 123.765 67.7674C123.795 68.8072 123.83 69.8468 123.884 70.8716C124.237 78.8927 122.005 86.2274 120.869 89.9434C120.811 90.1279 120.758 90.2962 120.705 90.4622C119.341 94.4276 119.081 94.8654 116.054 99.9691C115.867 100.278 115.688 100.573 115.507 100.868C113.21 104.741 110.452 106.747 107.379 108.766C106.788 109.23 106.138 109.647 105.457 110.067C103.106 111.535 97.9842 114.274 92.9267 116.894C89.4937 118.667 86.0343 120.28 83.4872 121.421C82.7215 121.762 82.0285 122.037 81.4432 122.263C79.5552 122.987 77.5206 123.61 75.4873 124.038L75.4614 124.042C71.5895 124.268 67.8543 124.285 65.2698 123.98C64.4758 123.89 63.7927 123.773 63.2199 123.64L63.2096 123.636C62.9232 123.487 62.6503 123.377 62.4019 123.284C62.1058 123.174 61.97 123.118 61.974 123.106C61.974 123.106 61.974 123.106 61.974 123.106C61.9787 123.092 62.1999 123.144 62.5841 123.282C62.797 123.36 63.0198 123.45 63.2464 123.563C65.1321 123.963 67.8126 124.077 70.8906 123.953C72.7866 123.875 74.1881 123.777 75.441 123.701L75.4155 123.704C77.8203 123.142 79.6932 122.701 83.3714 121.157C84.1865 120.797 85.0966 120.382 86.1197 119.901C88.5885 118.735 90.7314 117.669 92.7665 116.587C97.146 114.17 101.438 112.216 107.076 108.392C107.178 108.31 107.284 108.23 107.39 108.151C111.389 105.677 113.355 103.357 115.034 100.574C116.683 97.8016 118.558 94.9129 120.231 89.7348C120.631 88.5379 121.033 87.2255 121.425 85.7756C123.232 78.8754 123.43 74.8041 123.22 70.9064C122.911 66.8156 123.086 62.7463 122.435 55.4497C122.24 53.8209 122.007 52.1016 121.346 50.615C118.829 45.4459 116.832 39.5274 113.41 35.1628C110.363 31.4901 106.555 28.8996 102.994 27.7452C100.939 27.033 99.0524 26.6403 97.4615 26.411C94.641 25.9999 91.4446 25.8287 88.005 25.7663C80.9845 25.6548 72.9428 25.6461 64.6161 25.673C63.9492 25.676 63.2798 25.6803 62.6044 25.6864C59.1955 25.7046 55.4983 26.7589 52.7542 29.2892C48.8719 32.6285 46.4307 37.5077 44.1216 42.2703C42.2972 46.0999 40.5476 49.9537 38.9072 53.6884C38.5834 54.4284 38.2531 55.1927 37.9261 55.9676C36.563 59.0994 35.3786 62.5571 35.1392 66.2821C34.7636 70.8136 34.5138 75.4789 34.9391 79.7378C35.4195 83.837 35.8096 87.6447 36.4733 90.7444C36.7742 92.2137 37.0427 93.5355 37.3583 94.6629C38.8525 99.8336 40.7266 102.265 42.9344 104.766C44.4373 106.393 46.0792 108.153 48.4696 110.587C50.743 112.836 53.4743 115.814 56.6957 118.097C58.529 119.264 60.2203 120.615 61.7935 121.896C64.0265 123.751 63.4864 123.367 61.1893 121.57C59.5307 120.29 57.9951 119.145 56.5852 118.276C55.1234 117.328 54.0622 116.325 53.2012 115.604C49.8911 112.701 48.5455 111.377 44.7888 107.296C44.0101 106.443 43.315 105.686 42.6797 105C40.2722 102.349 39.0687 100.451 38.0275 98.0746C37.2578 96.1134 36.9584 95.4041 36.0281 90.8413C35.4987 88.4708 35.0485 85.0212 34.4034 79.8025C34.3614 79.4671 34.3255 79.119 34.295 78.7665C33.9478 73.9889 34.2081 69.8477 34.4716 66.2258C34.7217 61.9209 36.0629 58.4613 37.2203 55.6741C38.4951 52.5965 39.5974 50.1265 40.544 48.0107C41.2685 46.399 42.2336 44.2925 43.3786 41.9141C45.4402 37.7485 47.9614 32.4026 52.251 28.7163C54.0097 27.0936 56.2086 26.0314 58.3516 25.4693C59.5922 25.1409 61.0329 24.9269 62.5957 24.9082C69.9529 24.8243 80.0264 24.8261 88.0207 24.9565C91.8437 25.0205 95.1791 25.2531 97.5358 25.5911C100.134 25.9514 101.896 26.4838 103.259 26.9505C106.264 28.0955 107.689 28.7508 111.222 31.8173Z" fill="white"/>
<path d="M102.006 97.2027C101.36 98.032 100.688 98.7745 99.9992 99.469C97.5464 101.78 94.7127 103.115 90.9987 105.09C90.7204 105.235 90.4557 105.372 90.2008 105.505C85.4353 107.071 84.3499 106.352 78.442 106.74C77.9491 106.766 77.4578 106.794 76.9703 106.831C72.0721 107.149 67.5062 105.766 64.7476 104.846C64.1811 104.653 63.6889 104.474 63.2751 104.32C60.8049 103.339 60.5002 102.93 57.7306 101.123C57.5399 100.996 57.3433 100.862 57.1376 100.716C54.8032 99.107 53.6957 97.1907 52.5867 95.4456C52.0365 94.673 51.5911 93.8361 51.1025 92.9149C50.3107 91.4235 48.8143 88.3954 47.3093 85.2689C46.188 82.9329 45.128 80.511 44.3362 78.6308C43.9989 77.8225 43.7421 77.1025 43.5433 76.5348C43.1504 75.407 42.8115 74.2054 42.5662 72.997L42.5629 72.9732C42.3799 70.2048 42.3619 67.4936 42.5526 65.6491C42.603 65.1344 42.6702 64.687 42.7469 64.3093L42.7498 64.2995C42.8465 64.09 42.9162 63.8925 42.9756 63.7141C43.0418 63.5134 43.0794 63.422 43.0916 63.4255C43.0916 63.4255 43.0916 63.4255 43.0916 63.4255C43.1057 63.4296 43.0819 63.5803 43.0025 63.8421C42.9543 63.9984 42.898 64.1633 42.8261 64.3327C42.6081 65.5975 42.5641 67.3745 42.6749 69.4132C42.7592 70.9352 42.8442 71.9795 42.9078 72.9497L42.9046 72.9265C43.2466 74.4611 43.5275 75.8292 44.6006 78.5221C44.7516 78.8836 44.9174 79.2714 45.099 79.6871C45.9949 81.7288 46.8012 83.4444 47.6347 85.1101C49.0229 87.8215 50.2854 90.5446 52.3883 94.2461C52.5834 94.5718 52.7792 94.8819 52.9785 95.151C54.6158 97.871 55.9495 99.3093 58.0464 100.651C59.7627 101.741 61.6579 103.085 64.9596 104.236C65.4303 104.406 65.9295 104.577 66.458 104.746C71.3544 106.248 74.1387 106.37 76.9213 106.155C79.4655 105.888 82.1571 105.945 86.6426 105.44C87.7033 105.289 88.8286 105.1 89.7348 104.634C93.0073 102.81 96.8077 101.307 99.4645 98.9234C101.818 96.7015 103.385 94.0058 104.071 91.5535C104.505 90.0996 104.735 88.7831 104.863 87.6778C105.097 85.6803 105.172 83.4112 105.176 80.9615C105.174 76.3559 105.105 71.1143 105.032 65.6922C105.02 64.8165 105.004 63.9133 104.983 63.0033C104.933 60.6299 104.264 58.0759 102.609 56.1312C100.51 53.4906 97.3761 51.7788 94.3007 50.1808C92.2235 49.1151 90.136 48.0908 88.1056 47.113C87.2836 46.7182 86.4229 46.311 85.537 45.9084C83.5248 44.9664 81.3533 44.1699 78.9911 44.0284C76.0937 43.7965 73.1246 43.6595 70.4473 43.9896C67.8383 44.361 65.4204 44.6656 63.4596 45.1562C62.5182 45.3818 61.6751 45.5824 60.9555 45.8161C57.6466 46.9233 56.1218 48.2935 54.6072 49.8171C53.5495 50.9319 52.422 52.1357 50.8409 53.9208C49.4641 55.5203 47.6326 57.4522 46.2636 59.6607C45.5349 60.9649 44.6778 62.1808 43.862 63.3095C42.7085 64.8741 42.9265 64.4858 44.0212 62.8692C44.8258 61.665 45.5443 60.5589 46.0771 59.5602C46.6247 58.5797 47.2183 57.8457 47.6362 57.2522C49.3927 54.8723 50.1982 53.9083 52.7793 51.2264C53.3742 50.6139 53.8923 50.0711 54.3552 49.5779C55.9401 47.9203 57.1053 47.0063 58.6303 46.2316C59.9076 45.6466 60.3978 45.4221 63.3464 44.7154C64.865 44.3182 67.0668 43.9683 70.3691 43.4623C70.7362 43.4054 71.1179 43.3618 71.5136 43.3268C74.3392 43.1063 76.8292 43.2241 79.0433 43.3725C81.7881 43.5049 84.0441 44.4263 85.8417 45.2235C88.3928 46.3522 90.3475 47.2988 91.9852 48.0916C92.7393 48.4588 93.6555 48.9138 94.6799 49.4437C97.2487 50.8124 100.779 52.5847 103.205 55.6456C104.634 57.3312 105.376 59.4989 105.636 61.4836C105.698 61.9508 105.74 62.4536 105.754 62.9847C105.883 67.8621 105.986 75.1634 105.986 80.9642C105.985 83.6876 105.87 86.0769 105.683 87.744C105.482 89.596 105.16 90.8296 104.876 91.7826C104.229 93.7337 103.832 94.7345 102.006 97.2027Z" fill="white"/>
<path d="M47.5084 122.117C47.5077 121.842 47.2465 121.757 46.9462 121.76C46.6487 121.759 46.2657 121.801 45.8009 121.717C44.8465 121.581 44.6171 121.25 43.5098 121.509C43.4762 121.519 43.4427 121.528 43.4109 121.538C42.9542 121.673 42.59 121.887 42.2879 122.205C42.1368 122.362 42.0066 122.535 41.8773 122.718C41.7375 122.896 41.6475 123.111 41.2996 123.328C41.2256 123.37 41.138 123.404 41.0466 123.422L40.6065 123.513L40.3499 123.067C40.0559 122.645 40.3171 122.415 39.9378 121.729C39.5476 120.996 39.4369 120.485 39.3878 119.753C39.2804 119.019 39.2521 116.833 39.2246 116.031C39.1967 115.765 39.2225 115.491 39.2753 115.227L39.2854 115.178C39.5039 114.596 39.8719 114.238 40.0338 113.913C40.1124 113.768 40.1818 113.655 40.241 113.569C40.266 113.533 40.2962 113.522 40.3196 113.53C40.3196 113.53 40.3196 113.53 40.3196 113.53C40.3488 113.54 40.3676 113.579 40.3533 113.632C40.2856 113.891 40.1787 114.287 40.0844 114.76C40.0312 115.039 39.987 115.212 39.9474 115.364L39.9573 115.315C39.9175 115.694 39.7862 115.983 39.8234 116.774C39.9062 117.934 40.1624 118.566 40.3543 119.879C40.5667 121.027 41.0975 121.235 41.5825 122.435L40.8343 122.054C40.6341 122.106 40.652 122.172 40.7012 122.126C40.7525 122.09 40.8348 122.007 40.9281 121.912C41.7578 121.002 42.3534 120.531 43.0815 120.185C43.575 119.957 44.1238 119.75 45.0225 119.706C45.8226 119.688 46.67 119.726 47.6491 120.168C48.1642 120.403 48.7283 120.937 48.8971 121.567C49.0737 122.186 48.9663 122.695 48.8627 123.084C48.7583 123.551 48.4051 124.183 47.9999 124.439C47.4712 124.811 46.9061 124.899 46.3741 124.946C45.4028 125.025 44.3086 125.044 43.1943 125.004C41.6278 124.958 39.1593 125.142 38.4264 125.745C38.3755 125.79 38.339 125.831 38.3092 125.902C38.0416 126.751 37.9041 127.91 38.3662 128.257C38.7449 128.564 39.3494 128.565 39.6459 128.384C39.6904 128.359 39.7359 128.331 39.7763 128.305C40.6557 127.635 40.8301 127.311 41.2933 126.288C41.5472 125.683 41.9233 124.871 42.2566 124.166C42.4171 123.807 42.5121 123.908 42.4667 124.313C42.3902 124.904 42.1668 125.334 42.1807 125.666C42.1983 126.329 42.1811 126.634 41.6597 127.245C41.1307 127.837 41.1941 128.345 40.8188 128.702C40.63 128.868 40.5053 128.92 40.1686 129.122C39.796 129.31 39.0645 129.774 37.7806 129.158C37.708 129.115 37.6365 129.066 37.5668 129.011C36.8026 128.345 36.7792 127.548 36.7357 127.006C36.7149 126.439 36.7746 125.982 36.8375 125.59C37.0213 124.655 37.7047 124.25 38.0839 124.042C39.1004 123.487 40.9511 123.569 42.3285 123.472C43.3226 123.397 45.0279 123.427 46.2834 123.329C46.7234 123.3 47.0117 123.172 47.0528 123.095C47.0986 123.003 47.1524 122.92 47.2628 122.721C47.3609 122.55 47.4958 122.39 47.5084 122.117Z" fill="white"/>
<path d="M33.2235 122.368C33.0923 122.185 32.7716 122.698 32.5871 122.549C32.4716 122.456 32.4553 122.3 32.3942 122.194C32.3579 122.131 32.3065 122.086 32.2132 122.083C31.9672 122.075 31.8102 121.815 31.6795 121.917C31.5548 122.02 31.6239 121.638 31.4593 121.695C31.2963 121.752 31.2161 121.689 31.0999 121.545C30.9868 121.4 30.572 121.243 30.4039 121.383C30.2353 121.521 30.0852 121.238 29.9843 121.165C29.953 121.143 29.9289 121.113 29.9108 121.084C29.9032 121.071 29.9013 121.046 29.9034 121.021C29.9034 121.021 29.9034 121.021 29.9034 121.021C29.9059 120.99 29.9147 120.961 29.9262 120.958C29.9824 120.944 30.0637 120.901 30.1693 120.798C30.3645 120.607 30.3619 120.838 30.6106 120.756C30.8596 120.676 31.0334 120.48 31.3029 120.659C31.564 120.841 31.744 120.278 32.101 120.7C32.3916 121.075 32.5901 120.684 32.9183 120.622C32.9595 120.614 33.0029 120.611 33.0485 120.617C33.4442 120.664 33.8048 121.134 34.0361 121.18C34.267 121.225 34.5858 121.253 34.8749 121.425C34.9112 121.446 34.9501 121.464 34.9904 121.478L34.9757 121.474C35.2686 121.573 35.6512 121.536 35.93 121.744C36.2489 121.982 36.7039 122.302 36.9012 122.488C37.099 122.674 37.1463 122.717 37.3915 122.716C37.5322 122.716 37.6975 122.811 37.7966 123.008C37.8462 123.107 37.7946 123.205 37.704 123.23C37.5715 123.266 37.4982 123.189 37.4004 123.301C37.2055 123.525 37.1286 123.61 37.0349 123.415C36.9404 123.219 36.7685 123.544 36.6984 123.48C36.6285 123.415 36.6906 123.211 36.2232 123.244C35.7557 123.279 35.5125 123.254 35.3412 123.246C35.1703 123.239 34.8839 122.967 34.6033 122.958C34.5908 122.958 34.5778 122.957 34.5643 122.956L34.5493 122.951C34.2538 122.919 33.769 122.712 33.5313 122.744C33.282 122.778 33.3551 122.551 33.2235 122.368Z" fill="white"/>
<path d="M135.587 87.3643C135.483 87.7272 135.34 88.2057 134.848 88.5167C134.355 88.8079 133.846 88.7769 133.404 88.6366C132.62 88.3605 132.146 87.8571 131.775 87.383C131.441 86.94 131.322 86.7735 131.224 86.6626C131.045 86.558 130.875 86.4725 130.68 86.428C130.477 86.3836 130.253 86.392 130.104 86.5171C129.831 86.7052 129.63 87.4139 129.585 88.023C129.531 88.6426 129.561 89.2007 129.655 89.5314C129.851 90.1963 129.48 90.3097 129.693 91.294C129.752 91.5745 129.795 91.8242 129.816 92.08C129.826 92.1993 129.832 92.3296 129.825 92.4723C129.807 92.6116 129.836 92.7429 129.669 93.0382C129.558 93.2134 129.344 93.3473 129.165 93.3799C128.984 93.4168 128.837 93.3953 128.711 93.3637C128.462 93.2963 128.274 93.1789 128.096 93.0402C127.962 92.9344 127.795 92.7892 127.626 92.5963L127.586 92.549C126.997 91.5464 126.025 89.7893 125.457 89.2106C125.398 89.1496 125.342 89.0863 125.287 89.0223C124.697 88.3628 124.245 87.477 123.892 86.9771C123.771 86.8067 123.684 86.6658 123.623 86.5528C123.597 86.505 123.6 86.4696 123.618 86.4534C123.618 86.4534 123.618 86.4533 123.618 86.4533C123.642 86.433 123.69 86.4424 123.737 86.491C123.97 86.7288 124.332 87.0703 124.794 87.4513C125.358 87.9192 125.506 88.1917 125.814 88.6367C125.977 88.8836 126.171 89.177 126.477 89.589C127.171 90.5296 127.7 91.1287 128.32 92.0431L128.252 91.9621C128.416 92.1274 128.646 92.3074 128.844 92.3931C128.896 92.4173 128.936 92.4204 128.925 92.4244C128.917 92.4242 128.841 92.4665 128.823 92.5034C128.776 92.5904 128.804 92.5448 128.8 92.5001C128.8 92.4612 128.797 92.392 128.79 92.3397C128.775 92.2179 128.75 92.0957 128.721 91.9727C128.662 91.7209 128.587 91.4822 128.517 91.2023C128.382 90.6489 128.236 89.9664 128.321 88.8325C128.442 87.5895 128.449 86.866 128.798 86.0355C129.099 85.1392 130.543 84.5564 131.761 84.9707C131.919 85.0158 132.072 85.0798 132.212 85.1556C133.388 85.8789 133.817 86.8964 134.174 87.0644C134.195 87.084 134.233 87.0974 134.219 87.1038C134.21 87.1088 134.131 87.1349 134.09 87.1829C134.013 87.2966 134.134 87.1827 134.157 86.9859C134.29 86.0661 134.406 85.2473 134.455 84.6685C134.508 84.0334 134.565 83.3052 134.688 82.495C134.752 82.0898 134.827 81.6646 134.969 81.2016C135.045 80.9659 135.122 80.727 135.31 80.4253C135.408 80.2796 135.531 80.0927 135.822 79.9234C136.111 79.7354 136.628 79.7536 136.872 79.8946C137.214 80.0622 137.486 80.2529 137.748 80.449C138.559 81.0663 139.363 81.7494 140.21 82.3604C140.629 82.6607 141.069 82.9534 141.44 83.1096C141.617 83.1915 141.782 83.1894 141.71 83.1968C141.677 83.204 141.62 83.2512 141.623 83.2581C141.622 83.2657 141.651 83.2312 141.677 83.1622C141.722 83.0428 141.756 82.8999 141.781 82.7455C141.93 81.8039 141.642 80.35 141.557 79.0126C141.476 77.7707 141.337 76.6181 141.259 75.8842C141.095 74.3903 141.042 74.0246 140.673 72.6255C140.462 71.8197 140.255 70.6914 140.238 69.7039C140.236 69.2072 140.359 69.3049 140.494 69.7739C140.697 70.46 140.77 71.0466 140.978 71.38C141.396 72.0437 141.564 72.3293 141.6 73.2756C141.635 74.2219 142.075 74.5821 142.14 75.1273C142.192 75.6771 142.031 75.6853 142.615 78.4248C142.645 78.5743 142.674 78.7257 142.7 78.8684C143.109 80.9248 143.582 82.3172 143.225 83.6408C143.166 83.8454 143.084 84.0462 142.941 84.2467C142.791 84.4655 142.478 84.7258 142.108 84.8083C141.739 84.8953 141.414 84.8369 141.152 84.7581C140.624 84.5889 140.226 84.3175 139.834 84.038C139.056 83.4702 138.334 82.8108 137.655 82.3181C137.25 82.0268 136.692 81.587 136.195 81.352C136.238 81.3902 136.497 81.4102 136.605 81.3352C136.712 81.2722 136.695 81.2589 136.679 81.2907C136.636 81.3566 136.568 81.5226 136.517 81.695C136.412 82.0443 136.336 82.4527 136.276 82.8409C136.159 83.6211 136.103 84.3465 136.091 84.8261C136.067 86.1257 135.863 86.1934 135.645 87.1169C135.629 87.1949 135.611 87.2766 135.587 87.3643Z" fill="white"/>
<path d="M142.757 88.3547C142.763 88.3116 142.741 88.2989 142.698 88.2954C142.571 88.2937 142.228 88.3314 142.246 88.18C142.281 87.991 142.593 87.9405 142.517 87.8297C142.446 87.6996 142.678 87.639 142.563 87.5722C142.452 87.4932 142.824 87.6022 142.758 87.5324C142.694 87.4565 142.757 87.443 142.884 87.471C143.014 87.4932 143.141 87.4969 143.039 87.3779C142.94 87.2536 143.169 87.3994 143.225 87.4338C143.243 87.4436 143.265 87.4595 143.287 87.4771C143.297 87.4846 143.315 87.5017 143.333 87.519C143.333 87.519 143.333 87.5191 143.333 87.5191C143.355 87.5406 143.376 87.5624 143.378 87.566C143.387 87.5838 143.416 87.6258 143.493 87.7064C143.642 87.8527 143.465 87.7054 143.539 87.7841C143.616 87.8618 143.805 87.9636 143.687 87.8915C143.558 87.8421 144.109 88.026 143.807 87.8826C143.486 87.7956 144.102 87.8746 144.157 87.6739C144.18 87.5854 144.086 87.4859 143.964 87.426C143.829 87.3582 143.69 87.364 143.643 87.3218C143.555 87.2358 143.381 87.1246 143.224 87.2403C143.162 87.2893 143.083 87.2954 142.964 87.3597L142.727 87.6635C142.696 87.6667 142.658 87.6756 142.737 87.7029C142.872 87.7533 143.058 87.7397 143.179 87.7213C143.301 87.7047 143.329 87.6949 143.255 87.6663C143.213 87.6498 143.253 87.6281 143.409 87.6069C143.488 87.5964 143.597 87.5987 143.649 87.6095C143.725 87.6254 143.674 87.6384 143.811 87.6483C144.083 87.6683 144.187 87.6814 144.028 87.7038C143.869 87.7241 144.228 87.7525 144.186 87.7697C144.143 87.788 143.933 87.764 144.085 87.877C144.235 88.0002 144.254 88.0937 144.277 88.1553C144.292 88.1988 144.2 88.239 144.144 88.2871L143.911 88.5849C143.818 88.6371 143.739 88.6693 143.676 88.7163C143.473 88.8799 143.063 88.7809 142.84 88.7562C142.605 88.7397 142.737 88.5276 142.757 88.3547Z" fill="white"/>
<path d="M136.096 90.956C136.207 91.0335 136.298 90.9468 136.438 90.8774C136.57 90.8063 136.735 90.76 136.794 90.8617C136.794 90.8624 136.794 90.8631 136.795 90.8638C136.894 91.0634 136.655 91.2722 136.782 91.3173C136.908 91.3679 136.769 91.5541 136.898 91.52C137.028 91.4895 136.693 91.6833 136.79 91.6828C136.869 91.6838 136.865 91.7165 136.811 91.7757C136.798 91.7906 136.781 91.8069 136.762 91.8249C136.666 91.9141 136.617 92.0606 136.763 92.0025C136.906 91.9437 136.674 92.0583 136.599 92.108C136.573 92.1216 136.559 92.154 136.567 92.1814C136.57 92.1932 136.58 92.2159 136.59 92.2385C136.59 92.2385 136.59 92.2385 136.59 92.2385C136.603 92.2665 136.612 92.2959 136.605 92.3022C136.575 92.3388 136.477 92.3606 136.355 92.3881C136.119 92.4319 136.311 92.2942 136.181 92.2825C136.053 92.2682 135.845 92.3253 135.943 92.2127C135.944 92.2117 135.945 92.2108 135.945 92.2098C136.029 92.0999 135.528 92.36 135.78 92.1489C136.03 91.9259 135.494 92.2304 135.493 92.3511C135.495 92.3692 135.508 92.3857 135.532 92.4019C135.598 92.4438 135.717 92.4625 135.895 92.443C136.051 92.4272 136.42 92.3437 136.613 92.0127C136.651 91.9475 136.67 91.8995 136.686 91.8608C136.757 91.6609 136.759 91.5631 136.72 91.4087C136.689 91.2693 136.492 91.0216 136.221 90.9902C136.213 90.9939 136.205 90.9995 136.198 91.0074C136.152 91.0799 136.142 90.8869 136.188 91.0212C136.241 91.1574 136.39 91.2979 136.484 91.3875C136.578 91.4784 136.606 91.4951 136.618 91.4066C136.625 91.3556 136.676 91.3732 136.786 91.4896C136.841 91.548 136.894 91.6439 136.902 91.6996C136.913 91.7811 136.866 91.7485 136.916 91.8765C137.016 92.1324 137.045 92.2353 136.933 92.1138C136.823 91.9907 136.955 92.3265 136.91 92.3013C136.863 92.2755 136.79 92.0798 136.708 92.2845C136.617 92.4904 136.514 92.5545 136.447 92.6059C136.373 92.6586 136.198 92.4952 136.042 92.5464C135.997 92.5608 135.936 92.5621 135.864 92.551C135.544 92.4984 135.273 92.1924 135.202 91.9854C135.117 91.768 135.093 91.5824 135.127 91.3394C135.138 91.2677 135.163 91.1917 135.206 91.1163C135.395 90.8111 135.609 90.7877 135.74 90.8014C135.878 90.8199 135.989 90.8886 136.096 90.956Z" fill="white"/>
<path d="M130.964 95.4022C130.857 95.4816 131.349 95.1599 131.284 95.2128C131.22 95.2657 130.961 95.4397 131.025 95.4085C131.088 95.3774 130.916 95.5035 131.025 95.4359C131.134 95.3683 130.812 95.5836 130.887 95.5408C130.961 95.498 130.921 95.529 130.819 95.6031C130.718 95.6773 130.637 95.7502 130.769 95.6692C130.901 95.5882 130.681 95.7425 130.63 95.7812C130.614 95.7932 130.592 95.809 130.569 95.8253C130.56 95.8322 130.539 95.8462 130.518 95.86C130.518 95.86 130.518 95.86 130.518 95.86C130.493 95.877 130.467 95.8936 130.464 95.8955C130.447 95.9043 130.404 95.9295 130.309 95.9885C130.132 96.0985 130.323 95.9704 130.23 96.0224C130.136 96.0745 129.955 96.1887 130.064 96.1034C130.173 96.0182 129.691 96.3371 129.956 96.1431C130.22 95.9492 129.716 96.2835 129.641 96.3161C129.566 96.3487 129.834 96.1483 129.806 96.1563C129.778 96.1644 129.713 96.1938 129.772 96.1392C129.832 96.0846 129.656 96.1837 129.767 96.0933C129.878 96.0028 130.017 95.8869 130.112 95.8126C130.207 95.7383 130.229 95.7214 130.163 95.7551C130.125 95.7745 130.154 95.7467 130.281 95.6555C130.344 95.6096 130.435 95.5497 130.48 95.5231C130.546 95.4843 130.506 95.5155 130.62 95.4417C130.85 95.2941 130.938 95.2377 130.809 95.3303C130.68 95.4229 130.981 95.2251 130.949 95.2508C130.916 95.2765 130.739 95.3944 130.884 95.3172C131.03 95.2399 131.07 95.2242 131.106 95.2076C131.142 95.1909 130.995 95.3041 131.057 95.2756C131.118 95.247 131.078 95.298 131.174 95.2444C131.269 95.1908 131.071 95.3229 130.964 95.4022Z" fill="white"/>
<path d="M21.0402 67.3334C21.257 66.0281 20.7515 64.9434 21.0141 63.3403C21.2901 61.7433 21.6245 61.5469 21.8613 59.7149C22.1051 57.8796 22.7597 56.1219 22.8533 55.3008C22.92 54.7069 23.1446 54.5486 23.3537 54.0957L23.3585 54.0802C23.4497 53.8977 23.5376 53.6757 23.6207 53.3515C23.9116 52.2241 24.1971 51.5684 24.7021 50.6673C24.9482 50.2235 25.4178 49.3251 25.8953 48.4167C26.4238 47.4822 26.9484 46.5338 27.162 45.9938C27.5827 44.9336 28.4546 43.9487 28.8938 43.3081C29.0306 43.1085 29.1483 42.9573 29.245 42.845C29.2859 42.7975 29.3218 42.7851 29.3433 42.7974C29.3433 42.7974 29.3433 42.7974 29.3433 42.7974C29.37 42.8127 29.3744 42.8661 29.3385 42.9368C29.1642 43.2798 28.9222 43.8035 28.6831 44.4483C28.2386 45.6504 27.9669 45.6563 27.2258 47.1969C26.9527 47.7674 26.7404 48.2648 26.5337 48.7481L26.541 48.7337C26.2152 49.5791 25.8833 50.3654 25.3476 51.4895C24.7878 52.6854 24.8015 53.3805 24.5113 54.4587L24.5182 54.4365C24.3927 54.9829 24.1983 55.6252 23.8638 56.5087C22.9014 59.1656 23.4497 59.5884 23.1311 62.3445C22.9396 64.156 22.6325 66.2684 22.4547 68.0025C22.359 68.9227 22.2924 69.7289 22.2804 70.3177C22.2452 72.0149 22.2677 74.2945 22.1823 76.7037C22.0948 79.1143 22.3328 82.0856 22.2737 84.7473C22.2339 86.4749 22.2178 88.674 22.2468 90.4662C22.2629 91.4473 22.2748 92.3061 22.2768 92.918C22.284 94.6644 22.2868 95.0895 22.495 96.7539C22.5698 97.3461 22.6283 98.0823 22.6567 98.8251C22.674 99.273 22.6831 99.7247 22.7275 100.138C22.7541 100.414 22.8013 100.508 22.7492 100.518C22.6792 100.519 22.5485 100.347 22.4632 100.066C22.3252 99.621 22.2799 99.2124 22.2282 98.8666C22.1858 98.5771 22.1384 98.3266 22.058 98.1377C21.7088 97.3082 21.5747 96.9508 21.6477 95.8601C21.7219 94.7696 21.3255 94.2903 21.3203 93.6574C21.3165 93.0763 21.4945 93.0291 21.2196 90.5384C21.1963 90.3301 21.169 90.0808 21.1404 89.8336C20.7854 86.6233 20.7123 84.8723 20.6366 83.6519C20.5636 82.4385 20.7034 79.8942 20.6346 77.913C20.5538 75.9307 20.6757 71.8987 20.6373 70.2668C20.5985 68.9227 20.7591 68.686 20.9284 67.9183C20.9651 67.7514 21.0027 67.561 21.0402 67.3334Z" fill="white"/>
<path d="M18.8375 40.6612C19.0712 40.5577 19.3313 40.5215 19.6179 40.5526C19.9077 40.5944 20.158 40.6622 20.3689 40.7561C20.583 40.8606 20.7286 40.9679 20.8057 41.0781C20.8902 41.1919 20.8477 41.2709 20.6782 41.3151C20.288 41.1064 19.9434 41.0288 19.6443 41.0823C19.3452 41.1357 19.1048 41.2586 18.923 41.4509C18.7369 41.6502 18.611 41.8924 18.5453 42.1776C18.4753 42.4698 18.4727 42.7451 18.5375 43.0033C18.6055 43.2722 18.7461 43.4995 18.9593 43.6852C19.1683 43.8779 19.4587 43.9743 19.8305 43.9746C20.1538 43.8966 20.4843 43.7906 20.8222 43.6564C21.1633 43.5327 21.5027 43.4038 21.8406 43.2696C22.1784 43.1354 22.5158 43.01 22.8526 42.8934C23.1969 42.7804 23.5375 42.6973 23.8745 42.6443C23.8976 42.6375 23.9314 42.6449 23.9756 42.6665C24.0273 42.6917 24.0563 42.7149 24.0627 42.7362C24.0997 42.8177 24.1611 42.9383 24.2468 43.098C24.3324 43.2577 24.4281 43.4404 24.5339 43.6462C24.6397 43.8519 24.7487 44.0683 24.8608 44.2953C24.9803 44.5259 25.093 44.7441 25.1988 44.9498C25.3045 45.1556 25.4003 45.3383 25.4859 45.498C25.5674 45.6647 25.6266 45.7888 25.6637 45.8704C25.7378 46.0334 25.7565 46.1695 25.7198 46.2785C25.679 46.3946 25.5761 46.5347 25.411 46.6989C25.3857 46.6775 25.3361 46.617 25.2621 46.5174C25.1955 46.4215 25.1538 46.3558 25.1369 46.3203C25.0819 46.2209 24.9898 46.04 24.8608 45.7776C24.7391 45.5187 24.6052 45.2403 24.4592 44.9424C24.3206 44.6481 24.1868 44.3697 24.0577 44.1072C23.936 43.8484 23.8535 43.6675 23.81 43.5647C23.7551 43.4654 23.6391 43.436 23.4622 43.4765C23.2853 43.5171 23.0685 43.5926 22.8117 43.7029C22.5549 43.8132 22.2649 43.9391 21.9418 44.0806C21.6261 44.2256 21.304 44.3494 20.9756 44.452C20.6429 44.5615 20.3165 44.6288 19.9963 44.6538C19.6719 44.6859 19.3711 44.6387 19.0938 44.5124C18.8196 44.3967 18.5832 44.1861 18.3845 43.8806C18.1816 43.5821 18.0359 43.1483 17.9472 42.5792C17.9195 42.4024 17.9149 42.2189 17.9334 42.0285C17.9478 41.8451 17.9922 41.6673 18.0666 41.4952C18.1337 41.3194 18.2302 41.158 18.3563 41.0111C18.4824 40.8641 18.6428 40.7475 18.8375 40.6612Z" fill="white"/>
<path d="M21.3442 36.658C21.186 36.4152 21.133 36.2572 21.1853 36.1839C21.2304 36.1065 21.3536 36.0886 21.5548 36.1303C21.7442 36.1745 21.9963 36.2645 22.311 36.4005C22.6209 36.5431 22.9581 36.711 23.3224 36.904C23.682 37.1038 24.0546 37.3205 24.4401 37.5543C24.8257 37.788 25.1947 38.0168 25.5471 38.2406C25.8948 38.4712 26.2082 38.6864 26.4872 38.8865C26.7734 39.0906 26.9921 39.2556 27.1434 39.3813C27.2971 39.5178 27.3691 39.6068 27.3596 39.6484C27.35 39.69 27.2305 39.6675 27.0009 39.5811C27.0192 39.8934 27.015 40.2161 26.9883 40.5492C26.9686 40.8865 26.9159 41.2139 26.83 41.5315C26.7464 41.8599 26.6238 42.1656 26.4622 42.4485C26.2958 42.7382 26.0833 42.9868 25.8247 43.1945C25.7135 43.1675 25.6047 43.1089 25.4983 43.0188C25.3919 42.9286 25.3589 42.8199 25.3995 42.6927C25.4968 42.5985 25.6072 42.4648 25.7307 42.2916C25.8542 42.1184 25.9706 41.927 26.08 41.7173C26.1894 41.5076 26.281 41.2876 26.3549 41.0573C26.4288 40.8269 26.4695 40.6009 26.4771 40.3791C26.487 40.1681 26.453 39.9693 26.3753 39.7826C26.2998 39.6068 26.1628 39.4611 25.9641 39.3455L21.3442 36.658Z" fill="white"/>
<path d="M25.4778 32.1848C25.5153 32.1912 25.5724 32.2061 25.6489 32.2297C25.7322 32.258 25.8188 32.2886 25.9088 32.3215C26.0002 32.3654 26.0848 32.4046 26.1628 32.4391C26.2407 32.4736 26.2931 32.5002 26.32 32.519L30.1761 35.2086C30.2366 35.2509 30.2617 35.3032 30.2514 35.3655C30.2411 35.4278 30.2153 35.4894 30.1742 35.5501C30.133 35.6108 30.0878 35.6637 30.0385 35.7087C29.9839 35.76 29.9452 35.7927 29.9225 35.8067C29.8404 35.7394 29.7085 35.6424 29.5268 35.5157C29.3451 35.389 29.1425 35.2427 28.919 35.0769C28.6902 34.9173 28.4479 34.7483 28.1922 34.5699C27.9312 34.3978 27.6829 34.2296 27.4473 34.0653L26.8316 33.6358C26.6499 33.509 26.5126 33.4183 26.4198 33.3635C26.0323 33.1131 25.73 32.9767 25.5128 32.9543C25.2902 32.9381 25.1318 32.9915 25.0374 33.1145C24.9444 33.2483 24.9094 33.4275 24.9322 33.6521C24.9565 33.8875 25.0149 34.127 25.1076 34.3704C25.2017 34.6248 25.3211 34.8621 25.4658 35.0822C25.6053 35.3086 25.7558 35.4782 25.9173 35.5908L28.5418 37.4215L27.9831 38.0748C27.8389 37.9544 27.6504 37.7981 27.4173 37.6057C27.1843 37.4134 26.9258 37.2132 26.6417 37.0051C26.3523 36.8033 26.0509 36.603 25.7375 36.4042C25.4307 36.2101 25.1241 36.041 24.8177 35.8968C24.5127 35.7635 24.222 35.67 23.9456 35.6163C23.676 35.5673 23.4389 35.5807 23.2343 35.6566C23.0312 35.7434 22.8714 35.9051 22.755 36.1418C22.6453 36.3832 22.5979 36.7276 22.6127 37.1751C22.3899 37.109 22.2403 36.9699 22.1639 36.7577C22.0875 36.5455 22.0579 36.3162 22.0751 36.0699C22.0923 35.8237 22.1505 35.5861 22.2495 35.3571C22.3553 35.1329 22.4809 34.9672 22.6263 34.86C22.649 34.846 22.7025 34.8337 22.7869 34.823C22.8659 34.8185 22.9208 34.8171 22.9517 34.8187C23.0201 34.8267 23.1448 34.8441 23.3259 34.8711C23.5137 34.9027 23.7108 34.936 23.9174 34.9708C24.124 35.0056 24.3212 35.0388 24.509 35.0705C24.6915 35.1084 24.8203 35.1336 24.8954 35.1463C24.8533 35.0573 24.7921 34.9153 24.7118 34.7202C24.6383 34.5298 24.5672 34.3114 24.4987 34.0649C24.4315 33.8293 24.3817 33.586 24.3493 33.3349C24.3184 33.0947 24.3304 32.8796 24.3855 32.6896C24.4473 32.5042 24.5603 32.3595 24.7245 32.2554C24.8954 32.1561 25.1465 32.1326 25.4778 32.1848Z" fill="white"/>
<path d="M27.9154 29.5128C28.2954 29.5596 28.6429 29.685 28.9579 29.8891C29.2792 30.0984 29.5843 30.347 29.8732 30.635C30.1621 30.923 30.4368 31.2309 30.6973 31.5589C30.9578 31.8868 31.2142 32.1957 31.4667 32.4855C31.7255 32.7805 31.9823 33.0371 32.2371 33.2553C32.4983 33.4786 32.7677 33.6245 33.0452 33.693C33.1933 33.7295 33.3046 33.7046 33.3793 33.6182C33.4546 33.5429 33.5258 33.4485 33.5931 33.335C33.6608 33.2325 33.7442 33.1375 33.8432 33.0499C33.9364 32.9682 34.075 32.9391 34.2589 32.9628C34.2785 32.9893 34.2871 33.0384 34.2848 33.1101C34.2945 33.1811 34.2939 33.2279 34.2829 33.2505C33.8444 33.8395 33.3497 34.225 32.7989 34.407C32.2487 34.6 31.685 34.6506 31.1079 34.5588C30.5371 34.4723 29.9789 34.275 29.4332 33.967C28.8818 33.6649 28.3856 33.3131 27.9447 32.9118C27.5038 32.5105 27.1382 32.0916 26.8477 31.6552C26.5636 31.2239 26.3975 30.8361 26.3493 30.4919C26.3011 30.1477 26.3968 29.8787 26.6364 29.685C26.8761 29.4913 27.3024 29.4339 27.9154 29.5128ZM27.7975 30.2369C27.7727 30.2271 27.7299 30.2238 27.6691 30.2269C27.6084 30.2299 27.5445 30.2304 27.4774 30.2283C27.4045 30.232 27.3377 30.2354 27.277 30.2385C27.2226 30.2468 27.1865 30.2541 27.1685 30.2605C27.0878 30.5838 27.1097 30.8908 27.2343 31.1816C27.3589 31.4724 27.5524 31.7404 27.8147 31.9858C28.0713 32.2369 28.3752 32.4635 28.7267 32.6658C29.0787 32.879 29.4382 33.0616 29.8053 33.2136C30.1725 33.3655 30.5318 33.4848 30.8834 33.5716C31.2291 33.6641 31.5275 33.7232 31.7785 33.749C31.7017 33.6758 31.5861 33.5607 31.4318 33.4034C31.2776 33.2462 31.1011 33.0708 30.9023 32.8773C30.7036 32.6838 30.495 32.477 30.2766 32.257C30.0582 32.037 29.8494 31.8247 29.65 31.6203C29.4513 31.4267 29.2748 31.2514 29.1205 31.0941C28.9663 30.9369 28.8507 30.8217 28.7739 30.7486C28.7161 30.691 28.643 30.6314 28.5546 30.5699C28.4667 30.5193 28.376 30.4716 28.2823 30.4269C28.1887 30.3821 28.0982 30.3399 28.0109 30.3003C27.9242 30.2717 27.853 30.2505 27.7975 30.2369Z" fill="white"/>
<path d="M28.8028 22.7351C29.0604 22.7067 29.3015 22.7488 29.5261 22.8615C29.7442 22.9793 29.9475 23.1403 30.136 23.3444C30.3245 23.5485 30.4988 23.7848 30.6589 24.0533C30.8133 24.316 30.9524 24.5804 31.0761 24.8467C31.1998 25.113 31.306 25.3672 31.3947 25.6093C31.4833 25.8514 31.5533 26.0511 31.6045 26.2084C31.6305 26.2815 31.6691 26.3968 31.7203 26.554C31.7715 26.7113 31.8275 26.8909 31.8882 27.0928L32.2674 28.3546C32.328 28.5565 32.3808 28.7386 32.4256 28.901C32.4704 29.0634 32.5026 29.1837 32.5222 29.262C32.7595 29.5627 32.994 29.7614 33.2257 29.858C33.4509 29.9597 33.6594 29.9861 33.8513 29.9371C34.0432 29.8882 34.2145 29.7774 34.3652 29.6049C34.5096 29.4374 34.6288 29.2326 34.7229 28.9906C34.8106 28.7536 34.8693 28.4929 34.899 28.2083C34.928 27.9348 34.9142 27.6642 34.8576 27.3964C34.8674 27.3365 34.8659 27.2125 34.8531 27.0245C34.846 26.8424 34.8324 26.6186 34.8122 26.3531C34.7977 26.0934 34.785 25.8063 34.7739 25.4918C34.7564 25.1824 34.7481 24.8708 34.7492 24.557C34.7496 24.2542 34.7582 23.9656 34.7751 23.6914C34.792 23.4171 34.8308 23.1827 34.8915 22.9881C34.9458 22.7987 35.0213 22.6601 35.1181 22.5724C35.2085 22.4898 35.3274 22.4887 35.4747 22.5692C35.4868 22.5699 35.5104 22.5824 35.5455 22.6065C35.5742 22.6358 35.6028 22.665 35.6315 22.6943C35.6659 22.7294 35.6974 22.7616 35.7261 22.7909C35.7483 22.8253 35.7648 22.8538 35.7756 22.8765C35.8201 22.9452 35.9149 23.0886 36.0598 23.3066C36.1984 23.5298 36.3653 23.7876 36.5605 24.0803C36.7493 24.378 36.9521 24.6959 37.1688 25.0339C37.3856 25.3719 37.5916 25.6872 37.7868 25.9798C37.9756 26.2775 38.1364 26.535 38.2692 26.7523C38.4078 26.9754 38.4961 27.1239 38.5342 27.1978C38.573 27.2607 38.6001 27.3643 38.6156 27.5083C38.6311 27.6524 38.6227 27.7896 38.5903 27.9198C38.5579 28.05 38.4972 28.1454 38.4082 28.2061C38.3127 28.2719 38.1763 28.2609 37.999 28.173C37.9771 28.0341 37.9161 27.8377 37.816 27.5838C37.7158 27.33 37.5928 27.0527 37.4468 26.7521C37.2944 26.4565 37.1277 26.1464 36.9467 25.8216C36.7714 25.5026 36.5951 25.2001 36.4177 24.9141C36.234 24.6331 36.0514 24.3826 35.8701 24.1624C35.6944 23.948 35.5393 23.7955 35.4048 23.7047C35.4624 24.2533 35.508 24.848 35.5417 25.4887C35.5753 26.1295 35.5825 26.7548 35.5632 27.3648C35.5439 27.9748 35.4848 28.5384 35.386 29.0555C35.2807 29.5777 35.1183 29.9891 34.8988 30.2896C34.6728 30.5953 34.3764 30.7591 34.0095 30.7809C33.642 30.8137 33.1802 30.6453 32.6242 30.2758L32.3458 32.1255L31.8461 32.5247C31.6279 32.4069 31.5222 32.2931 31.529 32.1834C31.5293 32.0788 31.57 31.9629 31.6509 31.8357C31.7376 31.7143 31.8313 31.5768 31.9322 31.4232C32.0323 31.2806 32.0732 31.1124 32.0546 30.9186C32.0297 30.7298 31.9151 30.5137 31.7108 30.2701C31.5065 30.0264 31.14 29.7455 30.6113 29.4271C30.235 29.2061 29.8789 28.9533 29.5431 28.6687C29.2009 28.3892 28.9032 28.0793 28.65 27.7391C28.5374 27.5892 28.411 27.3668 28.2707 27.072C28.1184 26.7764 27.983 26.4516 27.8647 26.0976C27.7464 25.7435 27.6562 25.3774 27.5942 24.9993C27.5322 24.6211 27.5264 24.2711 27.5766 23.9493C27.6205 23.6326 27.7406 23.3646 27.9369 23.1452C28.1274 22.92 28.416 22.7833 28.8028 22.7351ZM29.3874 23.6295C29.1183 23.448 28.8975 23.3741 28.7248 23.4076C28.5458 23.4464 28.4138 23.5623 28.3288 23.7553C28.2438 23.9484 28.2068 24.2022 28.2179 24.5167C28.2226 24.8363 28.2777 25.1783 28.3832 25.5426C28.4823 25.912 28.6325 26.2927 28.8337 26.6848C29.0293 27.0711 29.275 27.4329 29.571 27.7701C29.8607 28.1125 30.1987 28.4111 30.5851 28.6657C30.9772 28.9262 31.4165 29.1125 31.9031 29.2245C31.953 29.0073 31.9514 28.7374 31.8981 28.4148C31.8449 28.0923 31.7566 27.7455 31.6332 27.3747C31.5034 27.0089 31.35 26.6307 31.1731 26.2401C31.0018 25.8553 30.8171 25.4917 30.6188 25.1494C30.4085 24.8063 30.1989 24.499 29.9902 24.2276C29.7751 23.9613 29.5742 23.7619 29.3874 23.6295Z" fill="white"/>
<path d="M44.7304 17.0627C45.0727 17.2279 45.3588 17.4578 45.5888 17.7524C45.823 18.0541 46.0291 18.3881 46.2072 18.7545C46.3853 19.1209 46.5435 19.5018 46.6818 19.8974C46.8202 20.2929 46.9609 20.6689 47.1041 21.0255C47.2515 21.3891 47.4096 21.7154 47.5784 22.0044C47.7515 22.3003 47.9574 22.525 48.1963 22.6783C48.3237 22.7601 48.4366 22.7717 48.535 22.713C48.6304 22.665 48.7282 22.5975 48.8284 22.5106C48.9256 22.4343 49.035 22.3701 49.1566 22.318C49.271 22.2695 49.4108 22.2858 49.5762 22.3667C49.586 22.3982 49.5781 22.4478 49.5526 22.5154C49.5386 22.5863 49.5228 22.6307 49.5051 22.6488C48.9006 23.0717 48.3096 23.2826 47.732 23.2815C47.1513 23.2911 46.6044 23.1606 46.0912 22.8899C45.5823 22.6263 45.1212 22.261 44.7081 21.7941C44.2875 21.3308 43.9352 20.8378 43.651 20.3151C43.3668 19.7923 43.1591 19.2767 43.0279 18.7681C42.9011 18.2665 42.871 17.8438 42.9377 17.5001C43.0044 17.1564 43.1821 16.9302 43.4707 16.8213C43.7593 16.7125 44.1792 16.793 44.7304 17.0627ZM44.3836 17.7162C44.3634 17.699 44.3242 17.6822 44.266 17.6659C44.2079 17.6496 44.1476 17.6298 44.0851 17.6065C44.0153 17.5869 43.9514 17.5689 43.8932 17.5526C43.8394 17.5433 43.8029 17.5388 43.784 17.5392C43.6027 17.822 43.5234 18.1219 43.546 18.4389C43.5685 18.7559 43.6633 19.073 43.8302 19.3903C43.9899 19.7112 44.2021 20.0239 44.467 20.3284C44.7288 20.6435 45.0076 20.9318 45.3036 21.1932C45.5996 21.4546 45.8989 21.6825 46.2015 21.8767C46.4967 22.0747 46.7583 22.2258 46.986 22.33C46.9376 22.2358 46.8663 22.0893 46.7724 21.8903C46.6784 21.6913 46.5694 21.468 46.4454 21.2203C46.3214 20.9727 46.1925 20.7092 46.0586 20.43C45.9247 20.1508 45.7973 19.8821 45.6764 19.6237C45.5523 19.3761 45.4433 19.1527 45.3494 18.9538C45.2554 18.7548 45.1842 18.6083 45.1357 18.5141C45.1001 18.4408 45.0507 18.3608 44.9875 18.274C44.9213 18.1979 44.8515 18.1236 44.7779 18.0512C44.7044 17.9788 44.633 17.9099 44.5637 17.8444C44.4914 17.7896 44.4314 17.7468 44.3836 17.7162Z" fill="white"/>
<path d="M47.7396 15.7972C48.0441 15.9968 48.3274 16.2451 48.5895 16.5418C48.8554 16.8459 49.0984 17.1683 49.3186 17.509C49.5388 17.8498 49.7382 18.1948 49.9168 18.5441C50.0877 18.8965 50.2401 19.2215 50.3737 19.5189C50.4947 19.5037 50.6124 19.4458 50.7266 19.3452C50.8408 19.2446 50.9551 19.1263 51.0696 18.9903C51.1878 18.8615 51.3061 18.7239 51.4244 18.5775C51.5428 18.431 51.6609 18.3111 51.7788 18.2178C51.8967 18.1245 52.0182 18.065 52.1431 18.0394C52.268 18.0138 52.3981 18.0522 52.5333 18.1548C52.6648 18.25 52.7112 18.3498 52.6726 18.4542C52.6264 18.5618 52.5367 18.6654 52.4036 18.765C52.2667 18.8751 52.0995 18.9801 51.9022 19.0801C51.7086 19.1873 51.5282 19.2934 51.3611 19.3984C51.1939 19.5034 51.057 19.6047 50.9504 19.7021C50.8475 19.8068 50.8165 19.908 50.8573 20.0058L52.5851 24.3305C52.611 24.3992 52.6029 24.4643 52.5608 24.526C52.5112 24.5909 52.4522 24.6375 52.384 24.666C52.3081 24.6976 52.2344 24.7063 52.1627 24.6921C52.0871 24.6883 52.0307 24.65 51.9935 24.5772L50.1577 20.9861C50.0403 21.0086 49.9379 21.0513 49.8505 21.1142C49.7668 21.1845 49.6849 21.2583 49.6049 21.3358C49.5249 21.4133 49.445 21.482 49.3652 21.5417C49.2777 21.6047 49.1753 21.6474 49.058 21.6698C48.9716 21.6088 48.9401 21.5292 48.9636 21.4311C48.9908 21.3403 49.0254 21.2641 49.0675 21.2024L49.2109 20.9969C49.2758 20.9081 49.3447 20.8087 49.4174 20.699C49.4862 20.5996 49.5569 20.5039 49.6295 20.4119C49.6944 20.323 49.7422 20.2634 49.7726 20.233C49.7281 20.1279 49.6446 19.9465 49.522 19.6887C49.3955 19.4412 49.2597 19.1756 49.1146 18.8918C48.9695 18.6081 48.8319 18.3388 48.7017 18.0841C48.5676 17.8399 48.4708 17.6684 48.4111 17.5697C48.2059 17.2403 47.9777 16.9559 47.7264 16.7164C47.4752 16.4769 47.2176 16.315 46.9537 16.2308C46.6899 16.1467 46.4328 16.1567 46.1825 16.2611C45.9246 16.3687 45.6827 16.6064 45.4567 16.9743C45.3181 16.8291 45.2456 16.6783 45.2393 16.522C45.2331 16.3657 45.2777 16.2191 45.3733 16.0821C45.4726 15.9524 45.6115 15.8371 45.7899 15.7362C45.9684 15.6353 46.1674 15.5656 46.3869 15.527C46.5988 15.4916 46.8237 15.4905 47.0615 15.5238C47.3031 15.5643 47.5291 15.6554 47.7396 15.7972Z" fill="white"/>
<path d="M61.0067 10.6679C61.239 10.7649 61.4388 10.928 61.6061 11.1571C61.7676 11.396 61.8835 11.6245 61.9538 11.8426C62.0182 12.0703 62.0351 12.2506 62.0043 12.3832C61.9758 12.5237 61.8888 12.5479 61.7432 12.456C61.6392 12.0281 61.4679 11.7246 61.2294 11.5454C60.9909 11.3661 60.7396 11.2777 60.4756 11.28C60.2036 11.2843 59.9396 11.3619 59.6836 11.5131C59.4196 11.6661 59.213 11.8561 59.0637 12.083C58.9087 12.3196 58.833 12.5798 58.8364 12.8635C58.8319 13.149 58.9531 13.4265 59.2001 13.6958C59.4729 13.8755 59.7715 14.0409 60.096 14.1919C60.4147 14.3527 60.7362 14.5085 61.0607 14.6596C61.3851 14.8106 61.7027 14.9674 62.0134 15.13C62.3263 15.3004 62.6144 15.4891 62.8779 15.6961C62.8984 15.7081 62.9153 15.7377 62.9286 15.7848C62.9442 15.8398 62.9462 15.877 62.9346 15.8964C62.8985 15.98 62.8495 16.1085 62.7875 16.2818C62.7256 16.4551 62.6532 16.6517 62.5703 16.8717C62.4874 17.0917 62.3988 17.3213 62.3043 17.5607C62.2121 17.8079 62.1245 18.0415 62.0416 18.2615C61.9588 18.4815 61.8864 18.6781 61.8244 18.8514C61.7545 19.0265 61.7014 19.1559 61.6654 19.2396C61.5932 19.4069 61.5043 19.5152 61.3988 19.5647C61.2853 19.616 61.1126 19.6392 60.8806 19.6341C60.8798 19.6009 60.8918 19.5228 60.9168 19.3998C60.944 19.2848 60.9651 19.2088 60.9803 19.1718C61.0177 19.0627 61.0912 18.87 61.2008 18.5937C61.3127 18.3252 61.431 18.0343 61.5557 17.721C61.6827 17.4155 61.801 17.1246 61.9106 16.8483C62.0224 16.5798 62.1022 16.394 62.1498 16.291C62.1873 16.1819 62.1321 16.0775 61.9844 15.9777C61.8366 15.8779 61.6363 15.7735 61.3835 15.6645C61.1307 15.5555 60.8443 15.4334 60.5243 15.298C60.2065 15.1706 59.9003 15.0237 59.6056 14.8574C59.303 14.693 59.036 14.5036 58.8045 14.2892C58.5651 14.0767 58.4003 13.8261 58.31 13.5373C58.214 13.2582 58.2136 12.9403 58.309 12.5836C58.3964 12.2287 58.6225 11.8208 58.9872 11.3601C59.1003 11.2168 59.2339 11.0855 59.388 10.9663C59.534 10.8489 59.6959 10.7571 59.8735 10.691C60.0489 10.617 60.2333 10.5745 60.4265 10.5634C60.6197 10.5522 60.8131 10.5871 61.0067 10.6679Z" fill="white"/>
<path d="M64.2345 10.6522C64.47 10.9209 64.6718 11.232 64.8398 11.5855C65.0093 11.947 65.1519 12.321 65.2676 12.7074C65.3834 13.0938 65.478 13.4794 65.5515 13.8642C65.6169 14.2502 65.6721 14.6048 65.7172 14.9279C65.8371 14.9423 65.9656 14.914 66.1027 14.8431C66.2398 14.7722 66.382 14.684 66.5292 14.5785C66.678 14.481 66.8293 14.3748 66.9831 14.2601C67.137 14.1453 67.2832 14.0564 67.4218 13.9936C67.5605 13.9307 67.6931 13.9017 67.8196 13.9068C67.9461 13.9118 68.0597 13.9808 68.1604 14.1137C68.2596 14.2385 68.2763 14.3474 68.2103 14.4402C68.1362 14.5343 68.0217 14.614 67.8668 14.6795C67.7053 14.7542 67.5164 14.8166 67.3 14.8669C67.0851 14.9252 66.8832 14.9855 66.6943 15.048C66.5054 15.1105 66.3464 15.1765 66.2174 15.2462C66.09 15.3238 66.0321 15.4154 66.0439 15.5208L66.4927 20.1683C66.4984 20.2417 66.4726 20.3035 66.4152 20.3537C66.3497 20.4052 66.2804 20.4367 66.2072 20.4481C66.126 20.4608 66.053 20.4515 65.9885 20.4203C65.9173 20.3984 65.8741 20.3473 65.8588 20.2672L65.1027 16.3114C64.9843 16.3051 64.8746 16.3222 64.7735 16.3628C64.674 16.4113 64.5752 16.4638 64.4772 16.5204C64.3792 16.5769 64.2838 16.6248 64.1908 16.6641C64.0898 16.7046 63.98 16.7217 63.8616 16.7154C63.796 16.6349 63.7881 16.5494 63.8378 16.4591C63.889 16.3769 63.9433 16.3106 64.0007 16.2604L64.1948 16.0939C64.2817 16.0226 64.3751 15.942 64.4751 15.8521C64.5685 15.7715 64.6626 15.6949 64.7576 15.6223C64.8444 15.551 64.9066 15.5042 64.9442 15.4818C64.9308 15.3683 64.9014 15.1707 64.8559 14.8889C64.8039 14.6163 64.7479 14.3238 64.6882 14.0112C64.6284 13.6986 64.5718 13.402 64.5181 13.1214C64.4579 12.8502 64.413 12.6591 64.3834 12.5481C64.2789 12.1764 64.1399 11.8432 63.9664 11.5483C63.7928 11.2534 63.5917 11.033 63.3629 10.8871C63.1341 10.7412 62.8856 10.6891 62.6174 10.7309C62.341 10.774 62.0437 10.9483 61.7255 11.2538C61.6333 11.0783 61.606 10.9134 61.6435 10.759C61.6809 10.6045 61.7643 10.4718 61.8938 10.3609C62.0248 10.2579 62.1896 10.1785 62.3882 10.1228C62.5868 10.0671 62.7963 10.0468 63.0169 10.0619C63.2292 10.0784 63.4445 10.1315 63.6625 10.2213C63.8821 10.3191 64.0728 10.4628 64.2345 10.6522Z" fill="white"/>
<path d="M71.9575 8.99228C72.0632 8.71403 72.1611 8.5714 72.2513 8.56437C72.3408 8.54923 72.4272 8.6325 72.5107 8.8142C72.5852 8.98841 72.6588 9.24042 72.7316 9.57023C72.7962 9.90068 72.8561 10.2683 72.9112 10.6731C72.9582 11.0786 72.9989 11.505 73.0333 11.9524C73.0678 12.3997 73.0966 12.8311 73.1197 13.2466C73.1346 13.6628 73.142 14.0427 73.1417 14.3864C73.1422 14.7382 73.1354 15.0128 73.1212 15.2103C73.0995 15.4165 73.069 15.5294 73.0295 15.5488C72.9901 15.5682 72.9386 15.4618 72.8751 15.2294C72.6312 15.4448 72.3657 15.6496 72.0785 15.8438C71.792 16.0461 71.4943 16.2166 71.1852 16.3552C70.8688 16.5025 70.548 16.6053 70.223 16.6633C69.8898 16.722 69.5631 16.7188 69.2429 16.6537C69.2 16.5507 69.1843 16.4291 69.1957 16.2892C69.2071 16.1492 69.2765 16.0538 69.4039 16.0029C69.5375 16.0171 69.7109 16.0158 69.9241 15.9992C70.1374 15.9826 70.3614 15.9488 70.5962 15.8978C70.831 15.8468 71.0638 15.7755 71.2947 15.6839C71.5256 15.5923 71.7337 15.4779 71.9189 15.3407C72.0967 15.2123 72.239 15.058 72.3457 14.8779C72.4451 14.7065 72.4839 14.5071 72.4622 14.2797L71.9575 8.99228Z" fill="white"/>
<path d="M79.3525 8.9306C79.5148 9.27414 79.6029 9.62136 79.617 9.97225C79.6229 10.3231 79.5999 10.6819 79.5481 11.0488C79.5391 11.163 79.5173 11.3342 79.4829 11.5624C79.4484 11.7907 79.4097 12.0434 79.3667 12.3205C79.3237 12.5977 79.2765 12.8911 79.225 13.2008C79.1736 13.5106 79.1263 13.804 79.0833 14.0812C79.0403 14.3583 79.0016 14.6029 78.9673 14.8148C78.9247 15.0348 78.8948 15.1978 78.8776 15.3038C78.8095 15.6461 78.7376 15.9353 78.662 16.1715C78.578 16.4158 78.4698 16.6028 78.3373 16.7326C78.1965 16.8624 78.0192 16.9308 77.8052 16.9377C77.583 16.9447 77.2995 16.8901 76.9547 16.774C76.9136 16.7656 76.8686 16.7327 76.8196 16.6753C76.7706 16.6261 76.742 16.5892 76.734 16.5647C76.7182 16.4586 76.6905 16.2953 76.6509 16.0748C76.603 15.8542 76.5512 15.601 76.4955 15.3152C76.4398 15.0375 76.3842 14.7435 76.3287 14.4332C76.2649 14.1309 76.2052 13.8369 76.1495 13.5511C76.0938 13.2734 76.0461 13.0243 76.0065 12.8038C75.9586 12.5832 75.9226 12.4199 75.8987 12.3137C75.7792 11.7338 75.6297 11.3291 75.4502 11.0997C75.2707 10.8784 75.0781 10.7631 74.8725 10.7539C74.6668 10.7446 74.4566 10.8087 74.2417 10.9462C74.0186 11.0918 73.7995 11.2415 73.5846 11.3954C73.3696 11.5574 73.167 11.6949 72.977 11.8081C72.787 11.9213 72.6223 11.9408 72.483 11.8666C72.484 11.7116 72.5221 11.5609 72.5971 11.4144C72.6721 11.268 72.7636 11.1298 72.8714 10.9998C72.971 10.878 73.0828 10.7644 73.2069 10.659C73.3311 10.5537 73.4469 10.4646 73.5543 10.3917C74.0171 10.0924 74.4049 9.93544 74.7176 9.92085C75.0222 9.9062 75.2809 9.97697 75.4937 10.1332C75.7066 10.2893 75.878 10.5024 76.0078 10.7723C76.1376 11.0423 76.2551 11.3162 76.3602 11.5942C76.457 11.8721 76.5541 12.1174 76.6514 12.3301C76.7404 12.5508 76.8506 12.6901 76.9818 12.7479C77.0072 12.642 77.062 12.4588 77.146 12.1982C77.2218 11.9375 77.3059 11.6606 77.3984 11.3674C77.4909 11.0742 77.5792 10.7973 77.6632 10.5367C77.7472 10.2761 77.8061 10.0928 77.8397 9.98696C77.8564 9.94626 77.894 9.86896 77.9523 9.75506C78.0025 9.64112 78.0691 9.51503 78.1524 9.37679C78.2355 9.24672 78.331 9.11671 78.4388 8.98676C78.5384 8.86493 78.6419 8.77168 78.7493 8.707C78.8567 8.63417 78.9639 8.61028 79.0707 8.63534C79.1774 8.66041 79.2714 8.75882 79.3525 8.9306ZM78.6864 12.537C78.7036 12.4392 78.7171 12.2598 78.7271 11.9988C78.7289 11.7377 78.7307 11.4604 78.7327 11.1667C78.7347 10.873 78.7366 10.5956 78.7383 10.3346C78.7318 10.0734 78.7207 9.88982 78.705 9.78367C78.4141 10.2145 78.1516 10.7148 77.9173 11.2846C77.6831 11.8625 77.5063 12.4571 77.387 13.0684C77.2594 13.6877 77.2059 14.2993 77.2265 14.9031C77.2471 15.5151 77.3667 16.0705 77.5855 16.5694C77.7271 16.3173 77.8609 15.9998 77.9869 15.6171C78.1129 15.2343 78.2225 14.8433 78.3157 14.4441C78.4088 14.053 78.4895 13.6822 78.5577 13.3318C78.6176 12.9895 78.6605 12.7245 78.6864 12.537Z" fill="white"/>
<path d="M84.4071 9.34306C84.7183 9.6446 84.9544 9.98375 85.1155 10.3605C85.2675 10.7445 85.3714 11.1484 85.4274 11.5721C85.4815 11.5365 85.5606 11.4993 85.6648 11.4604C85.7689 11.4216 85.8762 11.3913 85.9866 11.3696C86.0888 11.347 86.19 11.3324 86.2902 11.326C86.3894 11.3277 86.4616 11.3472 86.5068 11.3845C86.5438 11.421 86.5496 11.4749 86.5243 11.5461C86.4899 11.6247 86.3978 11.7343 86.248 11.8752C86.2286 11.8978 86.1731 11.9456 86.0813 12.0184C85.9814 12.0904 85.8769 12.1661 85.7677 12.2454C85.6576 12.3328 85.5567 12.4129 85.4649 12.4857C85.3722 12.5667 85.3161 12.6185 85.2968 12.6411C85.182 12.8346 85.1016 13.0521 85.0555 13.2934C85.0013 13.5339 84.9583 13.7838 84.9267 14.0429C84.8858 14.3094 84.8373 14.571 84.7811 14.8277C84.7248 15.0844 84.6338 15.3213 84.5078 15.5383C84.4347 15.6621 84.309 15.8095 84.1306 15.9803C83.9432 16.1583 83.7403 16.3266 83.5221 16.4852C83.2956 16.643 83.0717 16.7806 82.8502 16.8978C82.6195 17.0224 82.4285 17.0936 82.2772 17.1113C82.1177 17.1282 82.0117 17.0807 81.959 16.9689C81.8982 16.8563 81.9229 16.6538 82.0332 16.3615C82.1668 16.0141 82.3485 15.6797 82.5784 15.3583C82.7991 15.0442 83.0279 14.7309 83.265 14.4184C83.501 14.114 83.7289 13.8088 83.9486 13.5028C84.1601 13.196 84.323 12.8802 84.4372 12.5555C84.4999 12.3814 84.5471 12.1647 84.5787 11.9056C84.6094 11.6545 84.6114 11.4006 84.5848 11.1438C84.5582 10.887 84.4922 10.6468 84.387 10.4232C84.2807 10.2076 84.1179 10.0479 83.8986 9.94411C83.6485 9.82081 83.3895 9.77041 83.1216 9.79289C82.8537 9.81538 82.5885 9.88323 82.3261 9.99644C82.0555 10.1088 81.7932 10.2548 81.5393 10.4345C81.2843 10.6222 81.0453 10.8156 80.8221 11.0147C80.5989 11.2138 80.3971 11.4068 80.2169 11.5938C80.0356 11.7889 79.8828 11.954 79.7586 12.0892L79.5766 11.8497C79.5252 11.7954 79.5789 11.6614 79.7375 11.4477C79.888 11.2331 80.1039 10.9923 80.3851 10.7252C80.6572 10.4654 80.9752 10.202 81.3393 9.93498C81.7034 9.66794 82.0738 9.45073 82.4505 9.28334C82.8191 9.11513 83.1783 9.02386 83.5281 9.00953C83.8696 8.99439 84.1626 9.10556 84.4071 9.34306ZM84.1789 14.6693C84.1921 14.6297 84.2092 14.5576 84.2302 14.4531C84.2421 14.3559 84.255 14.2506 84.2688 14.1372C84.2827 14.0239 84.2955 13.9186 84.3074 13.8214C84.3111 13.7234 84.3113 13.6537 84.3081 13.6124C83.9917 14.0317 83.6882 14.4811 83.3976 14.9604C83.1071 15.4397 82.8651 15.9279 82.6718 16.4251C82.868 16.3791 83.0523 16.295 83.2246 16.1728C83.3878 16.0579 83.5335 15.9166 83.6617 15.7491C83.7889 15.5896 83.8971 15.4159 83.9864 15.2281C84.0674 15.0394 84.1316 14.8532 84.1789 14.6693Z" fill="white"/>
<path d="M91.9209 10.7894C91.6501 11.6176 91.4443 12.4209 91.3034 13.1993C91.1544 13.9762 91.0387 14.7553 90.9562 15.5366C90.8737 16.318 90.8046 17.1143 90.7488 17.9257C90.693 18.737 90.6158 19.5858 90.5171 20.4719C90.5115 20.4958 90.5062 20.5363 90.5012 20.5934C90.4881 20.6491 90.4741 20.7086 90.4591 20.7722C90.4423 20.8437 90.4274 20.9073 90.4143 20.9629C90.3931 21.0169 90.3797 21.0559 90.3741 21.0797L89.95 20.9984C89.9594 20.8507 89.9754 20.6213 89.998 20.31C90.0124 19.9973 90.0322 19.644 90.0573 19.2503C90.0743 18.8549 90.096 18.4398 90.1223 18.0047C90.1406 17.5681 90.1623 17.153 90.1874 16.7592C90.2044 16.3639 90.2201 16.0099 90.2346 15.6971C90.2491 15.3843 90.257 15.1533 90.2583 15.0041C90.2639 14.9803 90.2661 14.9351 90.2649 14.8684C90.2538 14.8081 90.2476 14.7447 90.2464 14.678C90.2371 14.6098 90.2319 14.5424 90.2306 14.4757C90.2195 14.4154 90.2086 14.3718 90.1981 14.3449C90.1589 14.4038 90.0852 14.5018 89.977 14.6388C89.8588 14.7822 89.7348 14.9327 89.6048 15.0905C89.473 15.2562 89.3489 15.4067 89.2326 15.5422C89.1145 15.6856 89.0277 15.7852 88.9724 15.841C88.7889 16.0466 88.5738 16.2254 88.327 16.3773C88.0802 16.5292 87.8542 16.6104 87.6492 16.6209C87.4441 16.6314 87.2857 16.5512 87.1739 16.3803C87.0522 16.2157 87.0216 15.9151 87.0821 15.4783C87.0984 15.3735 87.1277 15.213 87.17 14.997C87.2043 14.7793 87.2461 14.5299 87.2954 14.2488C87.3428 13.9755 87.3939 13.6864 87.4487 13.3814C87.5036 13.0764 87.5588 12.788 87.6142 12.5164C87.6616 12.2431 87.7065 11.9985 87.7489 11.7824C87.7832 11.5648 87.8125 11.4043 87.8368 11.3011C87.7741 11.1728 87.7403 11.0293 87.7354 10.8706C87.7206 10.7183 87.7502 10.5745 87.8242 10.4392C87.9989 10.4146 88.1353 10.4449 88.2334 10.5302C88.3316 10.6154 88.4079 10.7214 88.4625 10.8482C88.5153 10.9829 88.5531 11.1271 88.576 11.281C88.5989 11.4348 88.6184 11.5673 88.6345 11.6783C88.5473 11.9771 88.4586 12.3006 88.3683 12.6486C88.278 12.9966 88.1989 13.351 88.1309 13.7116C88.053 14.0786 87.9922 14.4448 87.9485 14.81C87.8967 15.1738 87.8698 15.5215 87.8677 15.8532C87.9963 15.9527 88.1402 15.9512 88.2993 15.8489C88.4504 15.745 88.6133 15.5728 88.7881 15.3323C88.9529 15.0983 89.1249 14.8157 89.3041 14.4847C89.4832 14.1538 89.663 13.8021 89.8435 13.4299C90.022 13.0656 90.2006 12.7013 90.3792 12.3369C90.5496 11.9711 90.7117 11.641 90.8654 11.3466C91.011 11.0507 91.1485 10.8072 91.2778 10.6161C91.3991 10.4235 91.5048 10.3151 91.595 10.2909L91.9209 10.7894Z" fill="white"/>
<path d="M103.912 14.3063C104.149 14.109 104.31 14.0265 104.394 14.0587C104.482 14.0836 104.517 14.1929 104.499 14.3865C104.476 14.5698 104.413 14.8205 104.31 15.1386C104.198 15.4537 104.064 15.7992 103.906 16.175C103.74 16.548 103.559 16.9364 103.36 17.3405C103.162 17.7446 102.967 18.1323 102.775 18.5039C102.575 18.8725 102.387 19.2063 102.211 19.5053C102.031 19.8118 101.885 20.048 101.771 20.2138C101.646 20.3842 101.561 20.4694 101.515 20.4695C101.47 20.4697 101.478 20.3551 101.54 20.1259C101.211 20.2096 100.869 20.275 100.512 20.3219C100.152 20.3762 99.7974 20.3979 99.4494 20.3872C99.0904 20.3809 98.7503 20.3339 98.4294 20.2462C98.1007 20.1555 97.8095 20.0138 97.5559 19.821C97.5702 19.7131 97.6184 19.6006 97.7003 19.4836C97.7822 19.3666 97.8933 19.3131 98.0334 19.323C98.1459 19.3921 98.3019 19.4648 98.5016 19.541C98.7012 19.6173 98.9193 19.6831 99.1558 19.7385C99.3923 19.794 99.6375 19.8309 99.8913 19.8494C100.145 19.8678 100.39 19.8567 100.626 19.8161C100.852 19.7799 101.058 19.7061 101.246 19.5947C101.423 19.4878 101.56 19.3307 101.657 19.1235L103.912 14.3063Z" fill="white"/>
<path d="M109.41 17.451C109.409 17.4863 109.4 17.541 109.385 17.6152C109.366 17.6964 109.345 17.7811 109.322 17.8694C109.288 17.9611 109.257 18.0459 109.231 18.1235C109.204 18.2012 109.183 18.2541 109.166 18.2824L106.803 22.3276C106.766 22.3911 106.714 22.4246 106.645 22.4281C106.577 22.4316 106.507 22.421 106.436 22.3963C106.365 22.3715 106.302 22.3415 106.247 22.3062C106.184 22.2673 106.144 22.239 106.126 22.2214C106.187 22.1331 106.273 21.9937 106.385 21.8031C106.496 21.6125 106.625 21.3989 106.773 21.1624C106.913 20.9224 107.062 20.6683 107.218 20.4C107.368 20.1282 107.514 19.8687 107.659 19.6217L108.036 18.9757C108.147 18.7851 108.226 18.6421 108.272 18.5468C108.489 18.1444 108.594 17.8426 108.588 17.6413C108.575 17.4366 108.496 17.3041 108.351 17.244C108.194 17.1875 107.997 17.1927 107.759 17.2597C107.509 17.3302 107.26 17.4325 107.011 17.5666C106.75 17.7041 106.511 17.8612 106.295 18.0376C106.07 18.2105 105.909 18.3817 105.81 18.5511L104.202 21.3044L103.423 20.9334C103.533 20.778 103.675 20.5751 103.85 20.3245C104.024 20.0739 104.204 19.7986 104.389 19.4985C104.566 19.195 104.74 18.8808 104.911 18.5561C105.078 18.2384 105.218 17.926 105.331 17.6188C105.432 17.3152 105.493 17.0328 105.513 16.7716C105.528 16.5174 105.482 16.3055 105.372 16.136C105.251 15.97 105.055 15.8587 104.785 15.8021C104.51 15.7526 104.134 15.7806 103.655 15.8864C103.695 15.671 103.824 15.5069 104.042 15.394C104.26 15.2811 104.502 15.2071 104.769 15.1719C105.036 15.1367 105.299 15.1403 105.559 15.1828C105.815 15.2323 106.01 15.3118 106.145 15.4213C106.163 15.439 106.184 15.4849 106.207 15.5591C106.222 15.6297 106.231 15.6791 106.234 15.7074C106.235 15.7709 106.233 15.8874 106.229 16.0569C106.22 16.2334 106.212 16.4188 106.203 16.613C106.193 16.8071 106.185 16.9925 106.176 17.169C106.161 17.342 106.151 17.4638 106.148 17.5344C106.238 17.478 106.382 17.3933 106.581 17.2804C106.775 17.1746 107 17.0652 107.256 16.9523C107.5 16.843 107.754 16.7477 108.02 16.6666C108.274 16.5891 108.506 16.5556 108.718 16.5663C108.926 16.584 109.097 16.6565 109.231 16.7836C109.361 16.9179 109.421 17.1403 109.41 17.451Z" fill="white"/>
<path d="M112.666 19.3689C112.671 19.7187 112.587 20.0547 112.412 20.377C112.232 20.706 112.008 21.0281 111.738 21.3434C111.469 21.6587 111.175 21.9651 110.858 22.2627C110.541 22.5604 110.244 22.8506 109.967 23.1336C109.685 23.4233 109.445 23.7037 109.246 23.9748C109.042 24.2526 108.924 24.5226 108.891 24.7848C108.873 24.9246 108.916 25.0196 109.021 25.0697C109.114 25.1225 109.227 25.1679 109.36 25.206C109.481 25.2468 109.596 25.3029 109.705 25.3746C109.808 25.4422 109.86 25.5607 109.861 25.7302C109.835 25.753 109.783 25.7703 109.705 25.7822C109.63 25.8048 109.579 25.8134 109.553 25.8079C108.85 25.5299 108.359 25.1618 108.08 24.7035C107.79 24.2479 107.652 23.7524 107.666 23.217C107.676 22.6884 107.808 22.1494 108.061 21.6C108.307 21.0465 108.615 20.533 108.986 20.0593C109.356 19.5856 109.756 19.1759 110.186 18.8302C110.612 18.4912 111.008 18.2665 111.374 18.156C111.74 18.0456 112.045 18.0788 112.291 18.2558C112.536 18.4328 112.661 18.8039 112.666 19.3689ZM111.864 19.4046C111.871 19.3805 111.868 19.3414 111.856 19.2876C111.843 19.2337 111.833 19.1765 111.826 19.116C111.811 19.0513 111.797 18.9921 111.785 18.9383C111.768 18.8911 111.755 18.8601 111.745 18.8453C111.383 18.8361 111.053 18.9157 110.757 19.0843C110.46 19.2528 110.198 19.4787 109.97 19.7618C109.736 20.0408 109.535 20.3577 109.368 20.7123C109.188 21.0695 109.043 21.4276 108.933 21.7864C108.822 22.1452 108.746 22.4907 108.704 22.8228C108.654 23.1509 108.634 23.43 108.643 23.6601C108.711 23.5769 108.819 23.4508 108.967 23.2817C109.114 23.1127 109.279 22.9202 109.459 22.7042C109.639 22.4882 109.833 22.2608 110.039 22.022C110.246 21.7832 110.445 21.5545 110.637 21.3358C110.818 21.1198 110.982 20.9273 111.129 20.7583C111.277 20.5893 111.385 20.4632 111.453 20.38C111.507 20.3169 111.561 20.2397 111.614 20.1484C111.656 20.0598 111.695 19.9691 111.729 19.8764C111.764 19.7837 111.796 19.6943 111.826 19.6083C111.845 19.525 111.857 19.4571 111.864 19.4046Z" fill="white"/>
<path d="M123.37 26.9714C123.116 27.1826 122.857 27.4104 122.592 27.6547C122.314 27.8991 122.046 28.1517 121.787 28.4125C121.528 28.6732 121.281 28.9393 121.047 29.2108C120.8 29.4824 120.581 29.751 120.389 30.0166C120.034 30.498 119.81 30.904 119.716 31.2346C119.61 31.5653 119.625 31.8014 119.76 31.9429C119.883 32.0845 120.111 32.118 120.445 32.0434C120.767 31.9688 121.175 31.7643 121.671 31.4298C121.749 31.3796 121.867 31.2988 122.024 31.1874C122.181 31.076 122.36 30.9506 122.559 30.8114C122.752 30.6666 122.961 30.5135 123.184 30.352C123.395 30.1906 123.601 30.0403 123.8 29.901C123.993 29.7563 124.165 29.6255 124.316 29.5086C124.467 29.3918 124.579 29.3056 124.651 29.2499C124.784 29.1937 124.912 29.2034 125.035 29.2791C125.151 29.3494 125.237 29.4365 125.293 29.5404L120.904 34.1486C120.832 34.2262 120.747 34.271 120.65 34.2829C120.547 34.3004 120.458 34.293 120.385 34.2608C120.306 34.2341 120.25 34.1852 120.219 34.1141C120.188 34.0429 120.206 33.9604 120.272 33.8663L121.351 32.29C120.709 32.538 120.214 32.6774 119.868 32.7083C119.509 32.7392 119.256 32.695 119.109 32.5755C118.962 32.4561 118.893 32.2755 118.903 32.0336C118.913 31.7918 118.962 31.5304 119.05 31.2493C119.127 30.9684 119.224 30.679 119.343 30.3811C119.456 30.0889 119.538 29.8243 119.591 29.5876C118.489 30.1477 117.592 30.4586 116.899 30.5203C116.194 30.5821 115.727 30.452 115.499 30.1301C115.265 29.8027 115.284 29.3081 115.557 28.6461C115.825 27.9897 116.371 27.2152 117.195 26.3227C117.321 26.1841 117.496 26.0066 117.719 25.7902C117.936 25.5793 118.153 25.3739 118.37 25.174C118.587 24.9741 118.78 24.8019 118.949 24.6574C119.112 24.5185 119.205 24.4489 119.229 24.4486L119.54 24.4456L119.554 25.0141C119.204 25.2703 118.869 25.5619 118.55 25.8892C118.219 26.2166 117.909 26.563 117.621 26.9284C117.326 27.2884 117.053 27.6509 116.801 28.0159C116.549 28.381 116.319 28.7266 116.109 29.0528C115.954 29.351 115.919 29.5711 116.006 29.7131C116.086 29.8607 116.233 29.9526 116.447 29.989C116.648 30.0255 116.882 30.015 117.149 29.9575C117.41 29.9055 117.643 29.8345 117.849 29.7446C117.977 29.6939 118.143 29.6236 118.349 29.5337C118.549 29.4384 118.749 29.343 118.948 29.2477C119.148 29.1524 119.324 29.0682 119.475 28.9953C119.627 28.9224 119.714 28.8804 119.739 28.8692C119.872 28.791 120.089 28.646 120.391 28.4343C120.687 28.2171 121.004 27.986 121.342 27.741C121.674 27.4906 121.988 27.2513 122.284 27.0231C122.574 26.8005 122.776 26.642 122.891 26.5475C122.981 26.4642 123.057 26.4387 123.118 26.4711C123.179 26.5035 123.229 26.5579 123.266 26.6345C123.309 26.7165 123.344 26.8288 123.37 26.9714Z" fill="white"/>
<path d="M128.211 32.6485C128.104 32.9805 127.916 33.2712 127.646 33.5207C127.37 33.775 127.053 34.0086 126.695 34.2217C126.337 34.4347 125.96 34.6319 125.563 34.8133C125.166 34.9948 124.79 35.1756 124.436 35.3558C124.075 35.5408 123.757 35.7301 123.48 35.9236C123.198 36.122 122.998 36.3398 122.883 36.577C122.821 36.7035 122.832 36.8068 122.915 36.887C122.987 36.966 123.079 37.0443 123.194 37.1221C123.296 37.1986 123.388 37.2879 123.469 37.39C123.545 37.486 123.556 37.6142 123.503 37.7748C123.471 37.7882 123.416 37.7882 123.338 37.7749C123.259 37.7725 123.208 37.7646 123.185 37.7513C122.605 37.2678 122.256 36.7659 122.137 36.2455C122.007 35.724 122.035 35.2127 122.22 34.7117C122.399 34.2155 122.697 33.7478 123.114 33.3086C123.525 32.8633 123.983 32.4751 124.487 32.1441C124.991 31.813 125.503 31.5519 126.024 31.3606C126.537 31.1742 126.986 31.0864 127.37 31.0971C127.753 31.1077 128.034 31.2352 128.21 31.4795C128.387 31.7237 128.387 32.1134 128.211 32.6485ZM127.436 32.4302C127.45 32.4095 127.46 32.3718 127.466 32.3171C127.471 32.2624 127.48 32.2052 127.492 32.1457C127.499 32.08 127.505 32.0198 127.511 31.9651C127.51 31.9152 127.507 31.8818 127.502 31.8648C127.161 31.7422 126.821 31.7139 126.485 31.7798C126.148 31.8457 125.827 31.9766 125.52 32.1725C125.207 32.3624 124.914 32.5985 124.641 32.8808C124.356 33.1618 124.104 33.4544 123.883 33.7585C123.663 34.0626 123.48 34.3649 123.333 34.6653C123.181 34.9597 123.073 35.2169 123.008 35.437C123.099 35.3798 123.242 35.2946 123.437 35.1814C123.631 35.0682 123.849 34.9379 124.09 34.7907C124.331 34.6434 124.588 34.4894 124.861 34.3287C125.134 34.168 125.397 34.0146 125.65 33.8686C125.891 33.7213 126.109 33.591 126.303 33.4778C126.498 33.3646 126.641 33.2794 126.732 33.2222C126.804 33.1796 126.88 33.1236 126.96 33.0543C127.028 32.9837 127.094 32.9101 127.157 32.8335C127.219 32.7568 127.279 32.6826 127.335 32.6108C127.379 32.5378 127.413 32.4776 127.436 32.4302Z" fill="white"/>
<path d="M131.698 36.2863C132.007 36.2449 132.189 36.2598 132.244 36.3309C132.306 36.3977 132.278 36.5074 132.158 36.6601C132.041 36.8019 131.852 36.979 131.593 37.1913C131.329 37.3971 131.028 37.6163 130.692 37.8487C130.35 38.0746 129.986 38.3051 129.599 38.5401C129.213 38.775 128.838 38.998 128.474 39.209C128.105 39.4134 127.765 39.5949 127.454 39.7534C127.136 39.9163 126.883 40.0375 126.697 40.117C126.498 40.1944 126.38 40.2214 126.341 40.1978C126.302 40.1743 126.37 40.0827 126.546 39.923C126.219 39.8215 125.89 39.6972 125.559 39.5501C125.221 39.4075 124.905 39.2408 124.612 39.0501C124.308 38.8573 124.041 38.6403 123.813 38.3993C123.579 38.1517 123.405 37.881 123.291 37.587C123.361 37.504 123.463 37.4349 123.596 37.3797C123.728 37.3245 123.852 37.3376 123.967 37.4191C124.027 37.5358 124.122 37.6781 124.252 37.8462C124.383 38.0144 124.535 38.1834 124.708 38.3533C124.881 38.5233 125.072 38.6823 125.28 38.8303C125.487 38.9783 125.704 39.0969 125.928 39.1863C126.141 39.2735 126.357 39.3196 126.578 39.3244C126.787 39.3271 126.989 39.267 127.183 39.1441L131.698 36.2863Z" fill="white"/>
<path d="M134.265 40.3942C134.244 40.423 134.215 40.4609 134.177 40.5079C134.127 40.5517 134.079 40.599 134.034 40.6497C133.977 40.6972 133.929 40.7445 133.891 40.7915C133.848 40.8315 133.816 40.8571 133.794 40.8684C133.718 40.9165 133.601 40.9905 133.441 41.0904C133.277 41.1834 133.094 41.2911 132.89 41.4135C132.687 41.5359 132.473 41.6639 132.247 41.7975C132.011 41.9279 131.79 42.0543 131.587 42.1767C131.384 42.2991 131.2 42.4068 131.036 42.4998C130.873 42.5928 130.751 42.6599 130.67 42.7011C130.671 42.7187 130.687 42.7517 130.718 42.8002C130.748 42.8487 130.771 42.878 130.787 42.8881C130.837 42.936 130.923 43.0199 131.047 43.1397C131.166 43.2526 131.295 43.374 131.435 43.504L131.818 43.8842C131.942 44.004 132.026 44.0845 132.071 44.1255L131.875 44.8296L129.913 43.0884L125.503 44.8796C125.215 44.9904 124.934 45.0286 124.662 44.9943C124.389 44.96 124.141 44.8809 123.919 44.7569C123.696 44.633 123.515 44.4831 123.376 44.3073C123.232 44.1246 123.15 43.9471 123.129 43.7749C123.1 43.6064 123.145 43.4552 123.264 43.3212C123.375 43.1909 123.576 43.1109 123.867 43.0812C124.012 43.1439 124.098 43.2102 124.122 43.28C124.142 43.3429 124.138 43.4048 124.108 43.4656C124.067 43.5233 124.016 43.5812 123.956 43.6394C123.896 43.6976 123.855 43.7553 123.833 43.8123C123.777 44.0151 123.807 44.1553 123.923 44.233C124.028 44.3075 124.195 44.3361 124.426 44.3187C124.649 44.3051 124.914 44.2567 125.219 44.1737C125.524 44.0906 125.845 43.9859 126.181 43.8597C126.51 43.7371 126.842 43.6039 127.176 43.46C127.504 43.3198 127.803 43.1893 128.075 43.0684C128.343 42.9406 128.568 42.83 128.751 42.7364L129.08 42.568C129.037 42.407 128.937 42.2565 128.782 42.1164C128.622 41.9695 128.44 41.8337 128.236 41.7092C128.028 41.5778 127.819 41.4516 127.608 41.3309C127.39 41.2138 127.203 41.0941 127.049 40.9716C126.895 40.8492 126.792 40.7235 126.74 40.5945C126.684 40.4586 126.712 40.3114 126.825 40.1528L127.413 40.3048L129.73 41.988L130.034 42.0796C130.053 42.079 130.159 42.0336 130.354 41.9432C130.544 41.8459 130.771 41.7299 131.034 41.5951C131.297 41.4604 131.567 41.3219 131.845 41.1797C132.111 41.0343 132.33 40.9132 132.501 40.8165C132.577 40.7684 132.683 40.6824 132.817 40.5585C132.948 40.4277 133.096 40.3016 133.261 40.1804C133.422 40.0522 133.59 39.9573 133.764 39.8957C133.926 39.831 134.079 39.8441 134.223 39.9351C134.307 39.9926 134.346 40.0691 134.338 40.1645C134.326 40.2531 134.301 40.3296 134.265 40.3942Z" fill="white"/>
<path d="M75 92C65.6112 92 58.0001 84.3888 58 75C58 65.6112 65.6112 58 75 58C84.3889 58 92 65.6112 92 75C92 84.3888 84.3888 92 75 92ZM75 85.0254C80.537 85.0254 85.0254 80.537 85.0254 75C85.0254 69.463 80.537 64.9746 75 64.9746C69.463 64.9747 64.9746 69.463 64.9746 75C64.9747 80.537 69.4631 85.0254 75 85.0254Z" fill="black" fill-opacity="0.1"/>
<defs>
<linearGradient id="paint0_linear_1405_31213" x1="23.5" y1="142.5" x2="136.5" y2="-2.99996" gradientUnits="userSpaceOnUse">
<stop stop-color="#1148AE"/>
<stop offset="0.466346" stop-color="#01A8FF"/>
<stop offset="1" stop-color="#1148AE"/>
</linearGradient>
</defs>
</svg>
