<svg width="18" height="18" viewBox="0 0 18 18" fill="none" xmlns="http://www.w3.org/2000/svg">
<path d="M14 8C12.9391 8 11.9217 7.57857 11.1716 6.82843C10.4214 6.07828 10 5.06087 10 4C10 2.93913 10.4214 1.92172 11.1716 1.17157C11.9217 0.421427 12.9391 0 14 0C15.0609 0 16.0783 0.421427 16.8284 1.17157C17.5786 1.92172 18 2.93913 18 4C18 5.06087 17.5786 6.07828 16.8284 6.82843C16.0783 7.57857 15.0609 8 14 8ZM2 2H7C7.55228 2 8 2.44772 8 3C8 3.55228 7.55228 4 7 4H2.54545C2.24421 4 2 4.24421 2 4.54545V15C2 15.5523 2.44772 16 3 16H13.4545C13.7558 16 14 15.7558 14 15.4545V11C14 10.4477 14.4477 10 15 10C15.5523 10 16 10.4477 16 11V16C16 16.5304 15.7893 17.0391 15.4142 17.4142C15.0391 17.7893 14.5304 18 14 18H2C1.46957 18 0.960859 17.7893 0.585786 17.4142C0.210714 17.0391 0 16.5304 0 16V4C0 3.46957 0.210714 2.96086 0.585786 2.58579C0.960859 2.21071 1.46957 2 2 2Z" fill="#884DFF"/>
</svg>
