<svg width="16" height="13" viewBox="0 0 16 13" fill="none" xmlns="http://www.w3.org/2000/svg">
<path d="M4.18213 12.5C4.18213 12.7761 3.95827 13 3.68213 13C3.40599 13 3.18213 12.7761 3.18213 12.5H3.68213H4.18213ZM3.32858 0.146446C3.52384 -0.0488157 3.84042 -0.0488157 4.03568 0.146446L7.21766 3.32843C7.41293 3.52369 7.41293 3.84027 7.21766 4.03553C7.0224 4.2308 6.70582 4.2308 6.51056 4.03553L3.68213 1.20711L0.853702 4.03553C0.65844 4.2308 0.341857 4.2308 0.146595 4.03553C-0.0486672 3.84027 -0.0486672 3.52369 0.146595 3.32843L3.32858 0.146446ZM3.68213 12.5H3.18213V0.5H3.68213H4.18213V12.5H3.68213Z" fill="#B5B5B5"/>
<path d="M12.1821 0.5C12.1821 0.223858 11.9583 0 11.6821 0C11.406 0 11.1821 0.223858 11.1821 0.5H11.6821H12.1821ZM11.3286 12.8536C11.5238 13.0488 11.8404 13.0488 12.0357 12.8536L15.2177 9.67157C15.4129 9.47631 15.4129 9.15973 15.2177 8.96447C15.0224 8.7692 14.7058 8.7692 14.5106 8.96447L11.6821 11.7929L8.8537 8.96447C8.65844 8.7692 8.34186 8.7692 8.1466 8.96447C7.95133 9.15973 7.95133 9.47631 8.1466 9.67157L11.3286 12.8536ZM11.6821 0.5H11.1821V12.5H11.6821H12.1821V0.5H11.6821Z" fill="#B5B5B5"/>
</svg>
