<svg width="18" height="18" viewBox="0 0 18 18" fill="none" xmlns="http://www.w3.org/2000/svg">
<path d="M2.661 7.30122C2.99691 6.04744 3.69708 4.92142 4.67296 4.06559C5.64885 3.20975 6.85662 2.66253 8.14352 2.49314C9.43042 2.32375 10.7387 2.53979 11.9028 3.11394C13.0669 3.68809 14.0346 4.59457 14.6835 5.71872L14.9348 6.28797M14.9348 6.28797C15.1101 6.259 15.2695 6.16867 15.3845 6.03309C15.4995 5.8975 15.5626 5.72549 15.5625 5.54772V2.43747M14.9348 6.28797C14.8948 6.29447 14.854 6.29772 14.8125 6.29772H11.7022M2.4375 15.5625V12.4522C2.4375 12.2533 2.51652 12.0625 2.65717 11.9219C2.79782 11.7812 2.98859 11.7022 3.1875 11.7022M3.1875 11.7022H6.29775M3.1875 11.7022L3.3165 12.2812C3.96541 13.4054 4.93312 14.3119 6.09723 14.886C7.26134 15.4602 8.56958 15.6762 9.85648 15.5068C11.1434 15.3374 12.3511 14.7902 13.327 13.9344C14.3029 13.0785 15.0031 11.9525 15.339 10.6987" stroke="white" stroke-width="1.5" stroke-linecap="round" stroke-linejoin="round"/>
</svg>
