<svg width="18" height="18" viewBox="0 0 18 18" fill="none" xmlns="http://www.w3.org/2000/svg">
<path d="M9.00089 15C10.3322 14.9998 11.6256 14.5569 12.6775 13.7409C13.7294 12.9249 14.4801 11.7823 14.8113 10.4929C15.1425 9.20351 15.0356 7.84056 14.5072 6.61863C13.9788 5.3967 13.059 4.3852 11.8927 3.74337C10.7264 3.10154 9.37969 2.86583 8.06469 3.07336C6.74969 3.28088 5.54106 3.91985 4.62906 4.88968C3.71706 5.8595 3.15351 7.10509 3.02711 8.43035C2.90072 9.75561 3.21866 11.0853 3.93089 12.21L3.0009 15L5.79089 14.07C6.75061 14.6791 7.8642 15.0017 9.00089 15Z" fill="#333333" fill-opacity="0.3"/>
<path d="M7.98633 2.5791C9.41091 2.35428 10.8703 2.61035 12.1338 3.30566C13.3971 4.00093 14.3934 5.09637 14.9658 6.41992C15.5382 7.74361 15.6547 9.22039 15.2959 10.6172C14.9371 12.0139 14.1237 13.2518 12.9844 14.1357C11.8448 15.0197 10.4432 15.4988 9.00098 15.499C7.84968 15.5007 6.72033 15.1961 5.72852 14.6172L3.15918 15.4746C2.97953 15.5345 2.78138 15.4874 2.64746 15.3535C2.51354 15.2196 2.46648 15.0215 2.52637 14.8418L3.38379 12.2705C2.70064 11.0974 2.40003 9.7382 2.5293 8.38281C2.66623 6.94713 3.27666 5.5975 4.26465 4.54688C5.25256 3.49636 6.56191 2.80398 7.98633 2.5791Z" stroke="#333333" stroke-opacity="0.3" stroke-linecap="round" stroke-linejoin="round"/>
</svg>
