<svg width="14" height="14" viewBox="0 0 14 14" fill="none" xmlns="http://www.w3.org/2000/svg">
<path d="M5.68018 0.571749C6.40099 -0.190582 7.59901 -0.190583 8.31982 0.571748L9.07808 1.37368C9.38242 1.69555 9.78998 1.89552 10.2267 1.93727L11.3149 2.04128C12.3493 2.14015 13.0962 3.09446 12.9607 4.14394L12.8181 5.24795C12.7608 5.69106 12.8615 6.14039 13.1017 6.51431L13.7004 7.44595C14.2694 8.33157 14.0029 9.52157 13.113 10.0679L12.1769 10.6427C11.8012 10.8734 11.5192 11.2337 11.382 11.6582L11.0404 12.7159C10.7156 13.7214 9.6362 14.251 8.66212 13.8828L7.63745 13.4955C7.22618 13.34 6.77382 13.34 6.36255 13.4955L5.33788 13.8828C4.3638 14.251 3.28443 13.7214 2.95964 12.7159L2.61798 11.6582C2.48084 11.2337 2.19881 10.8734 1.82309 10.6427L0.887004 10.0679C-0.00285771 9.52157 -0.269443 8.33157 0.299626 7.44595L0.898257 6.51431C1.13853 6.14039 1.23919 5.69106 1.18195 5.24795L1.03934 4.14395C0.903776 3.09446 1.65073 2.14015 2.68513 2.04128L3.77327 1.93727C4.21002 1.89552 4.61758 1.69555 4.92192 1.37368L5.68018 0.571749Z" fill="#884DFF"/>
<path d="M6.1195 8.39994L9.16788 5.35156C9.23981 5.27962 9.32374 5.24365 9.41966 5.24365C9.51558 5.24365 9.5995 5.27962 9.67144 5.35156C9.74338 5.4235 9.77935 5.50898 9.77935 5.60802C9.77935 5.70705 9.74338 5.79242 9.67144 5.86412L6.37128 9.17327C6.29934 9.24521 6.21541 9.28118 6.1195 9.28118C6.02358 9.28118 5.93965 9.24521 5.86771 9.17327L4.32104 7.6266C4.2491 7.55467 4.21457 7.4693 4.21745 7.3705C4.22033 7.27171 4.25786 7.18622 4.33003 7.11404C4.40221 7.04187 4.4877 7.0059 4.58649 7.00614C4.68529 7.00638 4.77066 7.04235 4.84259 7.11404L6.1195 8.39994Z" fill="white"/>
</svg>
