<svg width="64" height="64" viewBox="0 0 64 64" fill="none" xmlns="http://www.w3.org/2000/svg">
<rect width="64" height="64" rx="20" fill="#00B4D8"/>
<path d="M36.6443 31.405C36.6443 34.7128 35.7244 37.4626 33.5986 40.0788C31.4728 42.695 27.7396 44.8099 23.8221 44.8099C19.9047 44.8099 16.1715 42.695 14.0457 40.0788C11.9199 37.4626 11 34.7128 11 31.405C11 28.0971 11.9199 25.3474 14.0457 22.7312C16.1715 20.1149 19.9047 18 23.8221 18C27.7396 18 31.4728 20.1149 33.5986 22.7312C35.7244 25.3474 36.6443 28.0971 36.6443 31.405Z" fill="white"/>
<path d="M52.9636 31.405C52.9636 34.7128 52.0437 37.4626 49.9179 40.0788C47.7922 42.695 44.0589 44.8099 40.1415 44.8099C36.2241 44.8099 32.4908 42.695 30.365 40.0788C28.2392 37.4626 27.3193 34.7128 27.3193 31.405C27.3193 28.0971 28.2392 25.3474 30.365 22.7312C32.4908 20.1149 36.2241 18 40.1415 18C44.0589 18 47.7922 20.1149 49.9179 22.7312C52.0437 25.3474 52.9636 28.0971 52.9636 31.405Z" fill="white"/>
<path d="M23.7407 22.6621C25.3258 22.6622 26.6666 23.0235 27.7622 23.7461C28.8811 24.4688 29.7321 25.4017 30.3149 26.5439C30.8976 27.6628 31.1889 28.8517 31.189 30.1104C31.189 31.1128 30.9905 31.7544 30.5942 32.0342C30.1979 32.3139 29.6263 32.4541 28.8804 32.4541H19.9985C20.1151 34.0157 20.5348 35.0881 21.2573 35.6709C22.0033 36.2304 22.9362 36.5098 24.0552 36.5098C25.2907 36.5097 26.27 36.1485 26.9927 35.4258C27.5288 34.8898 28.0186 34.5401 28.4614 34.377C28.9276 34.2139 29.4174 34.3185 29.9302 34.6914C30.4662 35.0643 30.7574 35.5425 30.8042 36.125C30.8741 36.6845 30.6293 37.2679 30.0698 37.874C29.2772 38.7366 28.368 39.3664 27.3423 39.7627C26.3398 40.1357 25.2204 40.3223 23.9849 40.3223C21.5138 40.3222 19.5088 39.5987 17.9702 38.1533C16.4318 36.6846 15.6626 34.4702 15.6626 31.5098C15.6626 29.6683 16.0004 28.0945 16.6763 26.7891C17.3757 25.4603 18.3322 24.4455 19.5444 23.7461C20.7566 23.0236 22.1556 22.6621 23.7407 22.6621ZM23.8218 26.7422C21.9571 26.7424 21.4907 28.2962 21.4907 29.0732H26.1538C26.1538 27.2083 24.5989 26.7422 23.8218 26.7422Z" fill="#00B4D8"/>
<path d="M40.5957 22.6621C39.0107 22.6621 37.6698 23.0236 36.5742 23.7461C35.4553 24.4688 34.6043 25.4017 34.0215 26.5439C33.4387 27.6628 33.1466 28.8516 33.1465 30.1104C33.1465 31.1127 33.345 31.7544 33.7412 32.0342C34.1375 32.3139 34.7092 32.4541 35.4551 32.4541H44.3369C44.2203 34.0158 43.8008 35.0881 43.0781 35.6709C42.3321 36.2304 41.3993 36.5098 40.2803 36.5098C39.0449 36.5097 38.0654 36.1484 37.3428 35.4258C36.8068 34.8898 36.3168 34.5401 35.874 34.377C35.4079 34.214 34.918 34.3185 34.4053 34.6914C33.8694 35.0643 33.578 35.5425 33.5312 36.125C33.4613 36.6845 33.7062 37.268 34.2656 37.874C35.0582 38.7365 35.9675 39.3664 36.9932 39.7627C37.9956 40.1357 39.1151 40.3222 40.3506 40.3223C42.8217 40.3222 44.8266 39.5987 46.3652 38.1533C47.9037 36.6846 48.6728 34.4703 48.6729 31.5098C48.6728 29.6683 48.3351 28.0945 47.6592 26.7891C46.9598 25.4604 46.0041 24.4455 44.792 23.7461C43.5799 23.0235 42.1807 22.6622 40.5957 22.6621ZM40.5137 26.7422C42.3785 26.7423 42.8447 28.2962 42.8447 29.0732H38.1826C38.1827 27.2083 39.7366 26.7422 40.5137 26.7422Z" fill="#00B4D8"/>
</svg>
