<svg width="21" height="21" viewBox="0 0 21 21" fill="none" xmlns="http://www.w3.org/2000/svg">
<path d="M19.25 19.25L14.907 14.907M14.907 14.907C15.6499 14.1642 16.2392 13.2822 16.6413 12.3116C17.0433 11.341 17.2502 10.3007 17.2502 9.25011C17.2502 8.19952 17.0433 7.15922 16.6413 6.1886C16.2392 5.21798 15.6499 4.33606 14.907 3.59318C14.1642 2.8503 13.2822 2.26102 12.3116 1.85897C11.341 1.45693 10.3007 1.25 9.25011 1.25C8.19952 1.25 7.15922 1.45693 6.1886 1.85897C5.21798 2.26102 4.33606 2.8503 3.59318 3.59318C2.09287 5.09349 1.25 7.12835 1.25 9.25011C1.25 11.3719 2.09287 13.4067 3.59318 14.907C5.09349 16.4074 7.12835 17.2502 9.25011 17.2502C11.3719 17.2502 13.4067 16.4074 14.907 14.907Z" stroke="url(#paint0_linear_3286_1829)" stroke-width="2.5" stroke-linecap="round" stroke-linejoin="round"/>
<defs>
<linearGradient id="paint0_linear_3286_1829" x1="8.03559" y1="1.25" x2="19.6095" y2="11.892" gradientUnits="userSpaceOnUse">
<stop stop-color="#11A4FF"/>
<stop offset="1" stop-color="#884DFF"/>
</linearGradient>
</defs>
</svg>
