<svg width="52" height="22" viewBox="0 0 52 22" fill="none" xmlns="http://www.w3.org/2000/svg">
<path d="M18.7812 4.74019C18.7812 3.64104 19.6767 2.75 20.7813 2.75H30.9688C32.0733 2.75 32.9688 3.64104 32.9688 4.74019L34.25 16.3431C34.25 17.4423 33.3546 18.3333 32.25 18.3333H19.75C18.6454 18.3333 17.75 17.4423 17.75 16.3431L18.7812 4.74019Z" fill="#535353"/>
<path d="M29.0938 7.35427C29.0938 9.08672 27.7086 10.4911 26 10.4911C24.2914 10.4911 22.9062 9.08672 22.9062 7.35427M19.75 18.3333H32.25C33.3546 18.3333 34.25 17.4423 34.25 16.3431L32.9688 4.74019C32.9688 3.64104 32.0733 2.75 30.9688 2.75H20.7813C19.6767 2.75 18.7812 3.64104 18.7812 4.74019L17.75 16.3431C17.75 17.4423 18.6454 18.3333 19.75 18.3333Z" stroke="#535353" stroke-width="2" stroke-linecap="round" stroke-linejoin="round"/>
<path d="M29.2344 7.26221C29.2344 9.0734 27.7863 10.5417 26 10.5417C24.2137 10.5417 22.7656 9.0734 22.7656 7.26221" stroke="white" stroke-width="2" stroke-linecap="round" stroke-linejoin="round"/>
</svg>
