<svg width="18" height="18" viewBox="0 0 18 18" fill="none" xmlns="http://www.w3.org/2000/svg">
<path d="M1.57117 6.43987C1.56218 6.33632 1.57481 6.23203 1.60827 6.13361C1.64172 6.0352 1.69527 5.94482 1.7655 5.86819C1.83574 5.79157 1.92114 5.73039 2.01628 5.68852C2.11142 5.64666 2.21423 5.62503 2.31817 5.625H3.7503C3.94921 5.625 4.13997 5.70402 4.28063 5.84467C4.42128 5.98532 4.5003 6.17609 4.5003 6.375V13.5C4.5003 13.6989 4.42128 13.8897 4.28063 14.0303C4.13997 14.171 3.94921 14.25 3.7503 14.25H2.93805C2.75033 14.25 2.56942 14.1797 2.43105 14.0529C2.29268 13.926 2.20691 13.7519 2.19067 13.5649L1.57117 6.43987ZM6.7503 6.14062C6.7503 5.82712 6.9453 5.54662 7.22842 5.41312C7.8468 5.12137 8.90017 4.53525 9.3753 3.74287C9.98767 2.72137 10.1032 0.875998 10.1219 0.453373C10.1245 0.394123 10.123 0.334873 10.1309 0.276373C10.2325 -0.456002 11.6459 0.399373 12.1878 1.30387C12.4822 1.79437 12.5197 2.439 12.4889 2.94262C12.4555 3.48112 12.2977 4.00125 12.1428 4.518L11.8128 5.61937H15.8842C16 5.61937 16.1144 5.64621 16.2181 5.6978C16.3219 5.74939 16.4123 5.82432 16.4822 5.91671C16.5521 6.0091 16.5997 6.11644 16.6212 6.23031C16.6427 6.34418 16.6375 6.46147 16.606 6.573L14.5923 13.704C14.5478 13.8613 14.4532 13.9997 14.3229 14.0983C14.1925 14.1968 14.0335 14.2501 13.87 14.25H7.5003C7.30138 14.25 7.11062 14.171 6.96997 14.0303C6.82931 13.8897 6.7503 13.6989 6.7503 13.5V6.14062Z" fill="#333333" fill-opacity="0.3"/>
</svg>
