<svg width="32" height="32" viewBox="0 0 32 32" fill="none" xmlns="http://www.w3.org/2000/svg">
<path d="M21.458 7.75C22.8375 7.75 24.0199 8.17069 24.8535 8.98242C25.6816 9.78885 26.25 11.0631 26.25 12.9375C26.25 15.2672 24.743 17.8503 22.7588 20.2051C20.8016 22.5278 18.5031 24.4863 17.1641 25.5498C16.768 25.8643 16.232 25.8643 15.8359 25.5498C14.4969 24.4863 12.1984 22.5278 10.2412 20.2051C8.25696 17.8503 6.75 15.2672 6.75 12.9375C6.75007 10.0234 8.944 7.75 11.542 7.75C13.3886 7.75013 15.0195 8.88772 15.8203 10.5996C15.9437 10.8634 16.2088 11.0322 16.5 11.0322C16.7912 11.0322 17.0563 10.8634 17.1797 10.5996C17.9805 8.88772 19.6114 7.75013 21.458 7.75Z" fill="#FF5E63" stroke="#FF5E63" stroke-width="1.5" stroke-linecap="round" stroke-linejoin="round"/>
</svg>
