<svg width="10" height="10" viewBox="0 0 10 10" fill="none" xmlns="http://www.w3.org/2000/svg">
<path d="M4.05727 0.408392C4.57214 -0.13613 5.42786 -0.136131 5.94273 0.408392L6.48435 0.9812C6.70173 1.21111 6.99284 1.35394 7.3048 1.38376L8.08205 1.45806C8.82091 1.52868 9.35445 2.21033 9.25762 2.95996L9.15575 3.74854C9.11487 4.06504 9.18677 4.38599 9.35839 4.65308L9.78598 5.31853C10.1925 5.95112 10.002 6.80112 9.36643 7.19138L8.69779 7.60191C8.42943 7.76668 8.22797 8.02406 8.13002 8.3273L7.88597 9.08281C7.65398 9.80101 6.883 10.1793 6.18723 9.9163L5.45532 9.63965C5.16156 9.52861 4.83844 9.52861 4.54468 9.63965L3.81277 9.9163C3.117 10.1793 2.34602 9.80101 2.11403 9.08281L1.86998 8.3273C1.77203 8.02406 1.57057 7.76668 1.30221 7.60191L0.633574 7.19138C-0.00204122 6.80112 -0.192459 5.95112 0.214019 5.31853L0.641612 4.65308C0.813233 4.38599 0.885132 4.06504 0.844248 3.74854L0.742387 2.95996C0.645555 2.21033 1.17909 1.52868 1.91795 1.45806L2.6952 1.38376C3.00716 1.35394 3.29827 1.21111 3.51566 0.981201L4.05727 0.408392Z" fill="white"/>
<path d="M4.37142 5.99961L6.54883 3.82219C6.60022 3.77081 6.66016 3.74512 6.72868 3.74512C6.79719 3.74512 6.85714 3.77081 6.90852 3.82219C6.95991 3.87358 6.9856 3.93464 6.9856 4.00538C6.9856 4.07612 6.95991 4.13709 6.90852 4.18831L4.55126 6.55199C4.49988 6.60337 4.43993 6.62907 4.37142 6.62907C4.30291 6.62907 4.24296 6.60337 4.19157 6.55199L3.08681 5.44723C3.03542 5.39584 3.01076 5.33486 3.01281 5.2643C3.01487 5.19373 3.04167 5.13267 3.09323 5.08111C3.14479 5.02956 3.20585 5.00386 3.27642 5.00403C3.34698 5.00421 3.40796 5.0299 3.45934 5.08111L4.37142 5.99961Z" fill="black" stroke="black" stroke-width="0.3"/>
</svg>
