<svg width="12" height="12" viewBox="0 0 12 12" fill="none" xmlns="http://www.w3.org/2000/svg">
<path d="M4.6826 0.462615C5.27683 -0.154204 6.26444 -0.154205 6.85867 0.462614L7.48376 1.11147C7.73465 1.37191 8.07063 1.53371 8.43067 1.56748L9.32771 1.65164C10.1805 1.73164 10.7962 2.50379 10.6845 3.35296L10.5669 4.24623C10.5197 4.60476 10.6027 4.96832 10.8008 5.27088L11.2943 6.02468C11.7634 6.74126 11.5436 7.70411 10.81 8.14618L10.0384 8.61122C9.72863 8.79787 9.49612 9.08942 9.38307 9.43292L9.10142 10.2887C8.83367 11.1023 7.94386 11.5308 7.14085 11.2329L6.29613 10.9195C5.95709 10.7937 5.58418 10.7937 5.24514 10.9195L4.40042 11.2329C3.59742 11.5308 2.7076 11.1023 2.43986 10.2887L2.1582 9.43292C2.04515 9.08942 1.81264 8.79787 1.50291 8.61122L0.731225 8.14619C-0.00235583 7.70412 -0.222122 6.74126 0.247005 6.02468L0.740502 5.27088C0.938574 4.96832 1.02156 4.60476 0.97437 4.24623L0.856808 3.35296C0.745052 2.50379 1.36082 1.73164 2.21356 1.65164L3.1106 1.56748C3.47064 1.53371 3.80662 1.37191 4.05751 1.11148L4.6826 0.462615Z" fill="#4DA0FF"/>
<path d="M5.05161 6.80483L7.54126 4.31518C7.60002 4.25643 7.66856 4.22705 7.7469 4.22705C7.82523 4.22705 7.89378 4.25643 7.95253 4.31518C8.01129 4.37393 8.04066 4.44375 8.04066 4.52463C8.04066 4.60552 8.01129 4.67524 7.95253 4.73379L5.25724 7.43643C5.19849 7.49518 5.12995 7.52456 5.05161 7.52456C4.97327 7.52456 4.90473 7.49518 4.84597 7.43643L3.58279 6.17324C3.52403 6.11449 3.49583 6.04477 3.49818 5.96408C3.50053 5.88339 3.53118 5.81357 3.59013 5.75463C3.64908 5.69568 3.7189 5.6663 3.79958 5.6665C3.88027 5.66669 3.94999 5.69607 4.00875 5.75463L5.05161 6.80483Z" fill="black"/>
</svg>
