<svg width="179" height="61" viewBox="0 0 179 61" fill="none" xmlns="http://www.w3.org/2000/svg">
<g filter="url(#filter0_d_3070_6767)">
<g filter="url(#filter1_d_3070_6767)">
<mask id="path-1-inside-1_3070_6767" fill="white">
<path d="M153.146 5.7002C163.945 5.70026 172.7 14.4552 172.7 25.2549C172.7 36.0547 163.945 44.8095 153.146 44.8096H96.5L89.6133 54.6006C89.4131 54.8851 88.9924 54.8853 88.7939 54.5996C86.8251 51.7628 83.7014 47.3513 81.8613 45.0146C81.817 44.9584 81.7891 44.8881 81.7734 44.8096H25.2549C14.4551 44.8095 5.7002 36.0547 5.7002 25.2549C5.70026 14.4552 14.4552 5.70026 25.2549 5.7002H153.146Z"/>
</mask>
<path d="M153.146 5.7002C163.945 5.70026 172.7 14.4552 172.7 25.2549C172.7 36.0547 163.945 44.8095 153.146 44.8096H96.5L89.6133 54.6006C89.4131 54.8851 88.9924 54.8853 88.7939 54.5996C86.8251 51.7628 83.7014 47.3513 81.8613 45.0146C81.817 44.9584 81.7891 44.8881 81.7734 44.8096H25.2549C14.4551 44.8095 5.7002 36.0547 5.7002 25.2549C5.70026 14.4552 14.4552 5.70026 25.2549 5.7002H153.146Z" fill="url(#paint0_linear_3070_6767)"/>
<path d="M153.146 5.7002V4.7002V4.7002V5.7002ZM172.7 25.2549H173.7V25.2549L172.7 25.2549ZM153.146 44.8096V45.8096V45.8096V44.8096ZM96.5 44.8096V43.8096H95.9808L95.6821 44.2343L96.5 44.8096ZM89.6133 54.6006L90.4311 55.176L90.4312 55.1759L89.6133 54.6006ZM88.7939 54.5996L87.9724 55.1698L87.9726 55.1701L88.7939 54.5996ZM81.8613 45.0146L82.647 44.396V44.396L81.8613 45.0146ZM81.7734 44.8096L82.7542 44.6142L82.5939 43.8096H81.7734V44.8096ZM25.2549 44.8096L25.2549 45.8096H25.2549V44.8096ZM5.7002 25.2549L4.7002 25.2549V25.2549H5.7002ZM25.2549 5.7002V4.7002H25.2549L25.2549 5.7002ZM153.146 5.7002V6.7002C163.393 6.70026 171.7 15.0074 171.7 25.2549L172.7 25.2549L173.7 25.2549C173.7 13.9029 164.498 4.70027 153.146 4.7002V5.7002ZM172.7 25.2549H171.7C171.7 35.5024 163.393 43.8095 153.146 43.8096V44.8096V45.8096C164.498 45.8095 173.7 36.607 173.7 25.2549H172.7ZM153.146 44.8096V43.8096H96.5V44.8096V45.8096H153.146V44.8096ZM96.5 44.8096L95.6821 44.2343L88.7953 54.0253L89.6133 54.6006L90.4312 55.1759L97.3179 45.3849L96.5 44.8096ZM89.6133 54.6006L88.7954 54.0252C88.9918 53.7461 89.4141 53.7396 89.6153 54.0292L88.7939 54.5996L87.9726 55.1701C88.5706 56.031 89.8344 56.0241 90.4311 55.176L89.6133 54.6006ZM88.7939 54.5996L89.6155 54.0294C87.6481 51.1948 84.5083 46.7596 82.647 44.396L81.8613 45.0146L81.0757 45.6333C82.8945 47.943 86.0021 52.3308 87.9724 55.1698L88.7939 54.5996ZM81.8613 45.0146L82.647 44.396C82.7267 44.4972 82.7487 44.5866 82.7542 44.6142L81.7734 44.8096L80.7927 45.0049C80.8295 45.1896 80.9074 45.4197 81.0757 45.6333L81.8613 45.0146ZM81.7734 44.8096V43.8096H25.2549V44.8096V45.8096H81.7734V44.8096ZM25.2549 44.8096L25.2549 43.8096C15.0074 43.8095 6.7002 35.5024 6.7002 25.2549H5.7002H4.7002C4.7002 36.607 13.9028 45.8095 25.2549 45.8096L25.2549 44.8096ZM5.7002 25.2549L6.7002 25.2549C6.70026 15.0074 15.0074 6.70026 25.2549 6.7002L25.2549 5.7002L25.2549 4.7002C13.9029 4.70026 4.70026 13.9029 4.7002 25.2549L5.7002 25.2549ZM25.2549 5.7002V6.7002H153.146V5.7002V4.7002H25.2549V5.7002Z" fill="black" mask="url(#path-1-inside-1_3070_6767)"/>
<path d="M153.146 5.7002V4.7002V4.7002V5.7002ZM172.7 25.2549H173.7V25.2549L172.7 25.2549ZM153.146 44.8096V45.8096V45.8096V44.8096ZM96.5 44.8096V43.8096H95.9808L95.6821 44.2343L96.5 44.8096ZM89.6133 54.6006L90.4311 55.176L90.4312 55.1759L89.6133 54.6006ZM88.7939 54.5996L87.9724 55.1698L87.9726 55.1701L88.7939 54.5996ZM81.8613 45.0146L82.647 44.396V44.396L81.8613 45.0146ZM81.7734 44.8096L82.7542 44.6142L82.5939 43.8096H81.7734V44.8096ZM25.2549 44.8096L25.2549 45.8096H25.2549V44.8096ZM5.7002 25.2549L4.7002 25.2549V25.2549H5.7002ZM25.2549 5.7002V4.7002H25.2549L25.2549 5.7002ZM153.146 5.7002V6.7002C163.393 6.70026 171.7 15.0074 171.7 25.2549L172.7 25.2549L173.7 25.2549C173.7 13.9029 164.498 4.70027 153.146 4.7002V5.7002ZM172.7 25.2549H171.7C171.7 35.5024 163.393 43.8095 153.146 43.8096V44.8096V45.8096C164.498 45.8095 173.7 36.607 173.7 25.2549H172.7ZM153.146 44.8096V43.8096H96.5V44.8096V45.8096H153.146V44.8096ZM96.5 44.8096L95.6821 44.2343L88.7953 54.0253L89.6133 54.6006L90.4312 55.1759L97.3179 45.3849L96.5 44.8096ZM89.6133 54.6006L88.7954 54.0252C88.9918 53.7461 89.4141 53.7396 89.6153 54.0292L88.7939 54.5996L87.9726 55.1701C88.5706 56.031 89.8344 56.0241 90.4311 55.176L89.6133 54.6006ZM88.7939 54.5996L89.6155 54.0294C87.6481 51.1948 84.5083 46.7596 82.647 44.396L81.8613 45.0146L81.0757 45.6333C82.8945 47.943 86.0021 52.3308 87.9724 55.1698L88.7939 54.5996ZM81.8613 45.0146L82.647 44.396C82.7267 44.4972 82.7487 44.5866 82.7542 44.6142L81.7734 44.8096L80.7927 45.0049C80.8295 45.1896 80.9074 45.4197 81.0757 45.6333L81.8613 45.0146ZM81.7734 44.8096V43.8096H25.2549V44.8096V45.8096H81.7734V44.8096ZM25.2549 44.8096L25.2549 43.8096C15.0074 43.8095 6.7002 35.5024 6.7002 25.2549H5.7002H4.7002C4.7002 36.607 13.9028 45.8095 25.2549 45.8096L25.2549 44.8096ZM5.7002 25.2549L6.7002 25.2549C6.70026 15.0074 15.0074 6.70026 25.2549 6.7002L25.2549 5.7002L25.2549 4.7002C13.9029 4.70026 4.70026 13.9029 4.7002 25.2549L5.7002 25.2549ZM25.2549 5.7002V6.7002H153.146V5.7002V4.7002H25.2549V5.7002Z" fill="url(#paint1_linear_3070_6767)" mask="url(#path-1-inside-1_3070_6767)"/>
</g>
<path d="M20.3682 31.9602H38.3682V13.9602H20.3682V31.9602ZM43.0088 30.8271C41.0411 30.8271 39.6446 29.7607 39.6065 28.2119H41.2696C41.3204 28.9482 42.0567 29.4307 43.0088 29.4307C44.0245 29.4307 44.7481 28.8721 44.7481 28.0596C44.7481 27.2344 44.0371 26.6377 42.8438 26.6377H42.0186V25.3682H42.8438C43.8213 25.3682 44.5069 24.8223 44.4942 24.0225C44.5069 23.248 43.9229 22.7275 43.0215 22.7275C42.1582 22.7275 41.4092 23.21 41.3838 23.9844H39.7969C39.835 22.4355 41.2315 21.3818 43.0342 21.3818C44.9004 21.3818 46.1065 22.5244 46.0938 23.9336C46.1065 24.9619 45.4209 25.7109 44.418 25.9141V25.9902C45.7129 26.168 46.4493 26.9932 46.4366 28.1484C46.4493 29.6973 45.002 30.8271 43.0088 30.8271ZM58.3793 29.3164V30.4717H47.893V29.3164H52.4252V26.9424H53.8217V29.3164H58.3793ZM57.4398 22.0166V23.1592H53.8598C53.955 24.5874 55.4467 25.9014 57.9223 26.2314L57.4018 27.3359C55.4149 27.0566 53.8852 26.1743 53.1234 24.9111C52.3617 26.1743 50.8446 27.0566 48.8578 27.3359L48.3246 26.2314C50.8129 25.9014 52.2982 24.5874 52.4125 23.1592H48.8197V22.0166H52.4252V20.5312H53.8217V22.0166H57.4398ZM65.3455 21.3438V26.7646H59.9119V21.3438H65.3455ZM61.2957 22.4736V25.6475H63.9617V22.4736H61.2957ZM68.5701 20.3535V23.7178H70.1697V24.8984H68.5701V28.7324H67.1609V20.3535H68.5701ZM69.0271 30.459V31.6016H61.2195V27.9199H62.6287V30.459H69.0271ZM81.046 20.3535V31.8301H79.6876V20.3535H81.046ZM78.6847 20.5566V31.2715H77.339V25.8125H76.2472C76.1139 28.0469 75.1554 29.4307 73.7335 29.418C72.2355 29.4307 71.2579 27.8438 71.2579 25.3174C71.2579 22.791 72.2355 21.2295 73.7335 21.2295C75.1236 21.2295 76.0695 22.5244 76.2345 24.6699H77.339V20.5566H78.6847ZM73.7335 22.5625C73.0099 22.5498 72.5528 23.5273 72.5655 25.3174C72.5528 27.1074 73.0099 28.085 73.7335 28.0723C74.4952 28.085 74.9523 27.1074 74.9523 25.3174C74.9523 23.5273 74.4952 22.5498 73.7335 22.5625ZM95.6512 20.3535V24.6699H96.9334V25.8633H95.6512V31.8301H94.2547V20.3535H95.6512ZM87.5516 21.4072V24.1621H88.5164V21.4072H89.6844V29.126H86.3836V21.4072H87.5516ZM87.5516 27.9707H88.5164V25.2793H87.5516V27.9707ZM91.3475 21.4072V24.1621H92.3123V21.4072H93.4803V29.126H90.2049V21.4072H91.3475ZM91.3475 27.9707H92.3123V25.2793H91.3475V27.9707ZM108.343 26.6123V27.7422H97.8566V26.6123H108.343ZM107.302 30.459V31.6016H99.2023V28.4658H100.624V30.459H107.302ZM107.048 20.6582V23.7178H100.586V24.6953H107.277V25.7617H99.1896V22.7021H105.639V21.7627H99.1516V20.6582H107.048ZM121.958 20.3535V24.835H123.659V26.0156H121.958V31.8047H120.549V20.3535H121.958ZM118.924 21.5469C118.924 24.9238 117.527 27.8818 113.706 29.7607L112.906 28.6689C115.699 27.2788 117.21 25.3237 117.502 22.7148H113.528V21.5469H118.924ZM134.155 20.3535V26.5107H132.733V20.3535H134.155ZM127.959 27.0439V28.2246H132.745V27.0439H134.155V31.6904H126.563V27.0439H127.959ZM127.959 30.5479H132.745V29.3291H127.959V30.5479ZM127.896 20.8613C129.66 20.8486 130.981 21.9531 130.981 23.5527C130.981 25.1143 129.66 26.2188 127.896 26.2188C126.118 26.2188 124.798 25.1143 124.798 23.5527C124.798 21.9531 126.118 20.8486 127.896 20.8613ZM127.896 22.042C126.893 22.042 126.169 22.626 126.182 23.5527C126.169 24.4668 126.893 25.0508 127.896 25.0635C128.886 25.0508 129.597 24.4668 129.597 23.5527C129.597 22.626 128.886 22.042 127.896 22.042ZM145.209 20.3535V24.9238H146.973V26.0918H145.209V31.8301H143.812V20.3535H145.209ZM142.923 22.1182V23.248H136.157V22.1182H138.874V20.5186H140.283V22.1182H142.923ZM139.585 23.9971C141.235 23.9971 142.466 25.1143 142.466 26.7012C142.466 28.2881 141.235 29.3926 139.585 29.3926C137.909 29.3926 136.677 28.2881 136.69 26.7012C136.677 25.1143 137.909 23.9971 139.585 23.9971ZM139.585 25.1523C138.683 25.1523 138.036 25.7617 138.036 26.7012C138.036 27.6406 138.683 28.2373 139.585 28.2246C140.461 28.2373 141.108 27.6406 141.121 26.7012C141.108 25.7617 140.461 25.1523 139.585 25.1523ZM157.431 20.3535V31.8301H156.009V20.3535H157.431ZM154.003 21.5723C154.003 24.9873 152.683 27.8945 148.658 29.7988L147.922 28.6689C150.924 27.2407 152.321 25.2983 152.568 22.6895H148.506V21.5723H154.003Z" fill="white"/>
</g>
<defs>
<filter id="filter0_d_3070_6767" x="0.000195503" y="0.000195503" width="178.4" height="60.5138" filterUnits="userSpaceOnUse" color-interpolation-filters="sRGB">
<feFlood flood-opacity="0" result="BackgroundImageFix"/>
<feColorMatrix in="SourceAlpha" type="matrix" values="0 0 0 0 0 0 0 0 0 0 0 0 0 0 0 0 0 0 127 0" result="hardAlpha"/>
<feOffset/>
<feGaussianBlur stdDeviation="2.85"/>
<feComposite in2="hardAlpha" operator="out"/>
<feColorMatrix type="matrix" values="0 0 0 0 0.769231 0 0 0 0 0.876923 0 0 0 0 1 0 0 0 0.7 0"/>
<feBlend mode="normal" in2="BackgroundImageFix" result="effect1_dropShadow_3070_6767"/>
<feBlend mode="normal" in="SourceGraphic" in2="effect1_dropShadow_3070_6767" result="shape"/>
</filter>
<filter id="filter1_d_3070_6767" x="1.4002" y="1.4002" width="175.6" height="57.7138" filterUnits="userSpaceOnUse" color-interpolation-filters="sRGB">
<feFlood flood-opacity="0" result="BackgroundImageFix"/>
<feColorMatrix in="SourceAlpha" type="matrix" values="0 0 0 0 0 0 0 0 0 0 0 0 0 0 0 0 0 0 127 0" result="hardAlpha"/>
<feOffset/>
<feGaussianBlur stdDeviation="2.15"/>
<feComposite in2="hardAlpha" operator="out"/>
<feColorMatrix type="matrix" values="0 0 0 0 0 0 0 0 0 0 0 0 0 0 0 0 0 0 0.25 0"/>
<feBlend mode="normal" in2="BackgroundImageFix" result="effect1_dropShadow_3070_6767"/>
<feBlend mode="normal" in="SourceGraphic" in2="effect1_dropShadow_3070_6767" result="shape"/>
</filter>
<linearGradient id="paint0_linear_3070_6767" x1="5.7002" y1="30.257" x2="172.7" y2="30.257" gradientUnits="userSpaceOnUse">
<stop stop-color="#11A4FF"/>
<stop offset="1" stop-color="#884DFF"/>
</linearGradient>
<linearGradient id="paint1_linear_3070_6767" x1="5.7002" y1="30.257" x2="172.7" y2="30.257" gradientUnits="userSpaceOnUse">
<stop stop-color="#11A4FF"/>
<stop offset="1" stop-color="#884DFF"/>
</linearGradient>
</defs>
</svg>
