<svg width="64" height="64" viewBox="0 0 64 64" fill="none" xmlns="http://www.w3.org/2000/svg">
<rect width="64" height="64" rx="20" fill="white"/>
<rect x="0.25" y="0.25" width="63.5" height="63.5" rx="19.75" stroke="black" stroke-opacity="0.1" stroke-width="0.5"/>
<path d="M32.5 17C23.9396 17 17 23.9396 17 32.5C17 41.0604 23.9396 48 32.5 48C41.0604 48 48 41.0604 48 32.5C48 23.9396 41.0604 17 32.5 17ZM32.5 45.2793C29.0179 45.2793 25.8616 43.8859 23.5567 41.6272L25.6778 39.5126C24.8994 37.9803 23.5719 36.7979 21.9602 36.2011L21.2048 35.9215L21.9603 35.6419C22.8842 35.3001 23.7231 34.7625 24.4196 34.0659C25.1162 33.3694 25.6538 32.5304 25.9957 31.6066L26.2753 30.8511L26.5549 31.6066C27.1527 33.2215 28.3385 34.5509 29.8748 35.3288L41.6551 23.5853C43.8974 25.8877 45.2792 29.0322 45.2792 32.5C45.2792 39.5578 39.5578 45.2793 32.5 45.2793Z" fill="url(#paint0_linear_1405_30811)"/>
<path d="M29.8201 36.7871L29.9679 37.1864C30.1485 37.6745 30.4326 38.1179 30.8007 38.486C31.1688 38.854 31.6121 39.1381 32.1003 39.3188L32.4996 39.4666L32.1004 39.6143C31.6122 39.795 31.1688 40.0791 30.8007 40.4472C30.4326 40.8152 30.1485 41.2586 29.9679 41.7468L29.82 42.1461L29.6724 41.7469C29.4917 41.2587 29.2076 40.8153 28.8395 40.4472C28.4714 40.0791 28.0281 39.795 27.5399 39.6143L27.1406 39.4665L27.5399 39.3189C28.0281 39.1382 28.4714 38.8541 28.8395 38.486C29.2076 38.1179 29.4917 37.6746 29.6723 37.1864L29.8201 36.7871Z" fill="url(#paint1_linear_1405_30811)"/>
<defs>
<linearGradient id="paint0_linear_1405_30811" x1="32.5" y1="16.3075" x2="32.5" y2="49.4106" gradientUnits="userSpaceOnUse">
<stop stop-color="#FD84BE"/>
<stop offset="0.56477" stop-color="#87A9ED"/>
<stop offset="1" stop-color="#EAEBFF"/>
</linearGradient>
<linearGradient id="paint1_linear_1405_30811" x1="29.8201" y1="33.6203" x2="29.8201" y2="47.5373" gradientUnits="userSpaceOnUse">
<stop stop-color="#87A9ED"/>
<stop offset="0.79196" stop-color="#D5DDFB"/>
<stop offset="1" stop-color="#EAEBFF"/>
</linearGradient>
</defs>
</svg>
