<svg width="64" height="64" viewBox="0 0 64 64" fill="none" xmlns="http://www.w3.org/2000/svg">
<rect width="64" height="64" rx="20" fill="#00B4D8"/>
<path d="M36.6443 31.405C36.6443 34.7128 35.7244 37.4626 33.5986 40.0788C31.4728 42.695 27.7396 44.8099 23.8221 44.8099C19.9047 44.8099 16.1715 42.695 14.0457 40.0788C11.9199 37.4626 11 34.7128 11 31.405C11 28.0971 11.9199 25.3474 14.0457 22.7312C16.1715 20.1149 19.9047 18 23.8221 18C27.7396 18 31.4728 20.1149 33.5986 22.7312C35.7244 25.3474 36.6443 28.0971 36.6443 31.405Z" fill="white"/>
<path d="M52.9636 31.405C52.9636 34.7128 52.0437 37.4626 49.9179 40.0788C47.7922 42.695 44.0589 44.8099 40.1415 44.8099C36.2241 44.8099 32.4908 42.695 30.365 40.0788C28.2392 37.4626 27.3193 34.7128 27.3193 31.405C27.3193 28.0971 28.2392 25.3474 30.365 22.7312C32.4908 20.1149 36.2241 18 40.1415 18C44.0589 18 47.7922 20.1149 49.9179 22.7312C52.0437 25.3474 52.9636 28.0971 52.9636 31.405Z" fill="white"/>
<path d="M23.7402 22.6631C25.3253 22.6631 26.6661 23.0245 27.7617 23.7471C28.8806 24.4697 29.7317 25.4027 30.3145 26.5449C30.8971 27.6637 31.1884 28.8527 31.1885 30.1113C31.1885 31.1137 30.99 31.7554 30.5938 32.0352C30.1974 32.3148 29.6258 32.4551 28.8799 32.4551H19.998C20.1146 34.0167 20.5343 35.0891 21.2568 35.6719C22.0029 36.2314 22.9357 36.5107 24.0547 36.5107C25.2902 36.5107 26.2695 36.1494 26.9922 35.4268C27.5283 34.8907 28.0181 34.5411 28.4609 34.3779C28.9271 34.2149 29.4169 34.3195 29.9297 34.6924C30.4657 35.0653 30.7569 35.5434 30.8037 36.126C30.8736 36.6855 30.6288 37.2689 30.0693 37.875C29.2767 38.7376 28.3675 39.3674 27.3418 39.7637C26.3393 40.1367 25.2199 40.3232 23.9844 40.3232C21.5133 40.3232 19.5083 39.5997 17.9697 38.1543C16.4313 36.6856 15.6622 34.4711 15.6621 31.5107C15.6621 29.6693 15.9999 28.0955 16.6758 26.79C17.3752 25.4612 18.3317 24.4464 19.5439 23.7471C20.7561 23.0246 22.1552 22.6631 23.7402 22.6631ZM23.8213 26.7432C21.9566 26.7434 21.4903 28.2971 21.4902 29.0742H26.1533C26.1533 27.2092 24.5984 26.7432 23.8213 26.7432Z" fill="#00B4D8"/>
<path d="M40.5957 22.6631C39.0107 22.6631 37.6698 23.0246 36.5742 23.7471C35.4553 24.4697 34.6043 25.4027 34.0215 26.5449C33.4387 27.6638 33.1466 28.8526 33.1465 30.1113C33.1465 31.1136 33.345 31.7553 33.7412 32.0352C34.1375 32.3149 34.7092 32.4551 35.4551 32.4551H44.3369C44.2203 34.0168 43.8008 35.0891 43.0781 35.6719C42.3321 36.2314 41.3993 36.5107 40.2803 36.5107C39.0449 36.5107 38.0654 36.1494 37.3428 35.4268C36.8068 34.8908 36.3168 34.5411 35.874 34.3779C35.4079 34.215 34.918 34.3195 34.4053 34.6924C33.8694 35.0653 33.578 35.5435 33.5312 36.126C33.4613 36.6854 33.7062 37.2689 34.2656 37.875C35.0582 38.7375 35.9675 39.3673 36.9932 39.7637C37.9956 40.1367 39.1151 40.3232 40.3506 40.3232C42.8217 40.3232 44.8266 39.5997 46.3652 38.1543C47.9037 36.6856 48.6728 34.4712 48.6729 31.5107C48.6728 29.6692 48.3351 28.0955 47.6592 26.79C46.9598 25.4614 46.0041 24.4464 44.792 23.7471C43.5799 23.0245 42.1807 22.6632 40.5957 22.6631ZM40.5137 26.7432C42.3785 26.7433 42.8447 28.2971 42.8447 29.0742H38.1826C38.1827 27.2092 39.7366 26.7432 40.5137 26.7432Z" fill="#00B4D8"/>
</svg>
