<svg width="32" height="32" viewBox="0 0 32 32" fill="none" xmlns="http://www.w3.org/2000/svg">
<path d="M21.4798 6.50439C25.9778 9.10134 27.5192 14.8532 24.9229 19.3514L23.3643 22.051C20.7672 26.5493 15.0148 28.0906 10.5164 25.4935C6.01851 22.8962 4.47769 17.1443 7.07471 12.6462L8.6333 9.94661C11.2306 5.44922 16.9819 3.90791 21.4798 6.50439ZM20.6468 7.94721C16.946 5.81096 12.2132 7.07938 10.0761 10.7796L8.69037 13.1798C10.1241 12.8083 12.9424 12.6048 16.7978 14.8307C20.41 16.9163 21.7186 19.2802 22.1941 20.7439L23.4792 18.5179C25.6153 14.8169 24.3476 10.0839 20.6468 7.94721Z" fill="white"/>
<path d="M18.401 9.78083C17.0329 9.07687 15.1336 9.42107 14.3273 10.0436" stroke="white" stroke-width="1.25" stroke-linecap="round"/>
</svg>
