<svg width="93" height="93" viewBox="0 0 93 93" fill="none" xmlns="http://www.w3.org/2000/svg">
<rect width="93" height="93" rx="46.5" fill="url(#paint0_linear_448_4458)" fill-opacity="0.5"/>
<path d="M41.1667 61.6111L45.9181 53.2047C46.1487 52.7967 46.3512 52.4385 46.5324 52.1217M46.5324 52.1217C47.0939 51.1395 47.4512 50.5544 47.808 50.1153C50.7628 46.4796 56.0322 45.7613 59.8522 48.4736C60.4584 48.904 61.1327 49.5771 62.4733 50.9178M46.5324 52.1217L45.6111 51.8333C43.4857 51.4083 42.4231 51.1957 41.4477 51.2164C38.8375 51.2719 36.3837 52.472 34.7374 54.4983C34.1222 55.2555 33.6376 56.2248 32.6683 58.1635L32.473 58.554L32.2578 58.9177M62.4733 50.9178C62.5 49.6298 62.5 48.1694 62.5 46.5C62.5 39.8338 62.5 36.5007 60.8024 34.1641C60.2541 33.4095 59.5905 32.7459 58.8359 32.1976C56.4993 30.5 53.1662 30.5 46.5 30.5C39.8338 30.5 36.5007 30.5 34.1641 32.1976C33.4095 32.7459 32.7459 33.4095 32.1976 34.1641C30.5 36.5007 30.5 39.8338 30.5 46.5C30.5 53.1662 30.5 56.4993 32.1976 58.8359C32.2175 58.8633 32.2376 58.8905 32.2578 58.9177M62.4733 50.9178C62.3935 54.7731 62.0749 57.0844 60.8024 58.8359C60.2541 59.5905 59.5905 60.2541 58.8359 60.8024C56.4993 62.5 53.1662 62.5 46.5 62.5C39.8338 62.5 36.5007 62.5 34.1641 60.8024C33.4369 60.274 32.7942 59.6385 32.2578 58.9177M41.1667 41.1667C41.1667 43.1303 42.7585 44.7222 44.7222 44.7222C46.6859 44.7222 48.2778 43.1303 48.2778 41.1667C48.2778 39.203 46.6859 37.6111 44.7222 37.6111C42.7585 37.6111 41.1667 39.203 41.1667 41.1667Z" stroke="white" stroke-width="2" stroke-linecap="round"/>
<defs>
<linearGradient id="paint0_linear_448_4458" x1="1.97495" y1="-6.75137e-07" x2="91.025" y2="93" gradientUnits="userSpaceOnUse">
<stop stop-color="white" stop-opacity="0.3"/>
<stop offset="1" stop-color="white" stop-opacity="0.1"/>
</linearGradient>
</defs>
</svg>
