<svg width="36" height="36" viewBox="0 0 36 36" fill="none" xmlns="http://www.w3.org/2000/svg">
<path d="M28.5654 21.2825L27.6263 20.489C27.0569 20.0048 26.7436 19.274 26.781 18.517C26.781 18.3487 26.781 18.1683 26.781 18C26.781 17.8317 26.781 17.6513 26.781 17.483C26.7436 16.726 27.0569 15.9952 27.6263 15.511L28.5654 14.7175C29.011 14.3473 29.1302 13.7016 28.8472 13.1904L27.4854 10.7856C27.1968 10.2835 26.5982 10.0657 26.0649 10.2686L24.891 10.7015C24.1982 10.9667 23.4239 10.882 22.8014 10.473C22.5254 10.2777 22.235 10.1049 21.9327 9.95598C21.2721 9.609 20.8107 8.96248 20.6883 8.21251L20.4887 7.01011C20.3957 6.42207 19.8964 5.99243 19.3148 6.0001H16.6148C16.0332 5.99243 15.5338 6.42207 15.4408 7.01011L15.2413 8.21251C15.1291 8.95301 14.6864 9.59765 14.0438 9.95598C13.7416 10.1049 13.4511 10.2777 13.1751 10.473C12.5526 10.882 11.7783 10.9667 11.0855 10.7015L9.91159 10.2686C9.38514 10.0789 8.80109 10.2951 8.51461 10.7856L7.15284 13.1904C6.86984 13.7016 6.98898 14.3473 7.43459 14.7175L8.37373 15.511C8.94315 15.9952 9.25639 16.726 9.21897 17.483C9.21897 17.6513 9.21897 17.8317 9.21897 18C9.21897 18.1683 9.21897 18.3487 9.21897 18.517C9.25639 19.274 8.94315 20.0048 8.37373 20.489L7.43459 21.2825C6.98898 21.6527 6.86984 22.2984 7.15284 22.8096L8.51461 25.2144C8.80325 25.7165 9.40182 25.9343 9.93507 25.7314L11.109 25.2985C11.8018 25.0333 12.5761 25.118 13.1986 25.527C13.4746 25.7223 13.765 25.8951 14.0673 26.044C14.7279 26.391 15.1893 27.0375 15.3117 27.7875L15.5113 28.9899C15.6043 29.5779 16.1036 30.0076 16.6852 29.9999H19.3852C19.9668 30.0076 20.4662 29.5779 20.5592 28.9899L20.7587 27.7875C20.8811 27.0375 21.3425 26.391 22.0031 26.044C22.3054 25.8951 22.5959 25.7223 22.8718 25.527C23.4944 25.118 24.2686 25.0333 24.9614 25.2985L26.1354 25.7314C26.6479 25.8956 27.2038 25.6827 27.4854 25.2144L28.8472 22.8096C29.1302 22.2984 29.011 21.6527 28.5654 21.2825ZM18 21.6072C16.055 21.6072 14.4782 19.9922 14.4782 18C14.4782 16.0078 16.055 14.3928 18 14.3928C19.945 14.3928 21.5218 16.0078 21.5218 18C21.5218 18.9567 21.1508 19.8742 20.4903 20.5507C19.8298 21.2271 18.934 21.6072 18 21.6072Z" fill="white"/>
</svg>
