<svg width="77" height="22" viewBox="0 0 77 22" fill="none" xmlns="http://www.w3.org/2000/svg">
<path d="M17.1055 20.7871H13.4238L4.41797 7.75977H4.24805V20.7871H0V0.283203H3.73828L12.6875 13.3105H12.8857V0.283203H17.1055V20.7871ZM39.0469 10.5352C39.0469 12.7158 38.6315 14.5991 37.8008 16.1851C36.9701 17.771 35.8278 18.984 34.3741 19.8242C32.9297 20.6549 31.2966 21.0703 29.4746 21.0703C27.6433 21.0703 26.0007 20.6549 24.5469 19.8242C23.0931 18.984 21.9509 17.771 21.1202 16.1851C20.2894 14.5897 19.8741 12.7064 19.8741 10.5352C19.8741 8.35449 20.2894 6.47119 21.1202 4.88525C21.9509 3.29932 23.0931 2.09098 24.5469 1.26025C26.0007 0.420085 27.6433 0 29.4746 0C31.2966 0 32.9297 0.420085 34.3741 1.26025C35.8278 2.09098 36.9701 3.29932 37.8008 4.88525C38.6315 6.47119 39.0469 8.35449 39.0469 10.5352ZM24.2071 10.5352C24.2071 11.9701 24.4195 13.1973 24.8443 14.2168C25.2785 15.2269 25.8921 15.9915 26.6851 16.5107C27.4781 17.0299 28.4079 17.2943 29.4746 17.3037C30.5319 17.2943 31.4523 17.0299 32.2359 16.5107C33.0288 15.9821 33.6377 15.2127 34.0625 14.2026C34.4968 13.1925 34.7139 11.9701 34.7139 10.5352C34.7139 9.10026 34.4968 7.87777 34.0625 6.86768C33.6377 5.84814 33.0288 5.07878 32.2359 4.55957C31.4523 4.04036 30.5319 3.77604 29.4746 3.7666C28.4079 3.77604 27.4781 4.04036 26.6851 4.55957C25.8921 5.07878 25.2785 5.84814 24.8443 6.86768C24.4195 7.87777 24.2071 9.10026 24.2071 10.5352ZM49.2354 15.916H49.4337L54.4464 0.283203H59.1475L52.0675 20.7871H46.6016L39.4932 0.283203H44.2511L49.2354 15.916ZM57.3282 20.7871L64.4366 0.283203H69.9025L76.9825 20.7871H72.423L70.8795 16.0576H63.4596L61.9161 20.7871H57.3282ZM69.8033 12.7441L67.2404 4.89941H67.0988L64.5358 12.7441H69.8033Z" fill="white"/>
</svg>
