<svg width="88" height="22" viewBox="0 0 88 22" fill="none" xmlns="http://www.w3.org/2000/svg">
<path d="M69.5205 20.3194V5.53543C69.5205 4.85099 69.6831 4.23499 70.0082 3.68744C70.3504 3.12277 70.7953 2.67788 71.3428 2.35277C71.9075 2.01055 72.5321 1.83944 73.2165 1.83944H84.2788C84.9633 1.83944 85.5793 2.01055 86.1268 2.35277C86.6915 2.67788 87.1449 3.12277 87.4871 3.68744C87.8294 4.23499 88.0005 4.85099 88.0005 5.53543V20.3194H84.2531V14.2364H73.2165V20.3194H69.5205ZM73.2165 10.5404H84.2531V5.7151C84.2531 5.66377 84.236 5.62954 84.2018 5.61243C84.1847 5.57821 84.1505 5.5611 84.0992 5.5611H73.3705C73.3192 5.5611 73.2764 5.57821 73.2422 5.61243C73.2251 5.62954 73.2165 5.66377 73.2165 5.7151V10.5404Z" fill="white"/>
<path d="M54.2674 20.3194L43.5645 1.83944H47.8508L55.8588 15.7251L63.8667 1.83944H68.1531L57.4501 20.3194H54.2674Z" fill="white"/>
<path d="M0 20.3194V1.83944H3.92699L14.7326 14.7241V1.83944H18.48V20.3194H14.553L3.69599 7.38343V20.3194H0Z" fill="white"/>
<path d="M33.3302 0L33.936 3.67829C34.4779 6.96815 37.0564 9.54666 40.3463 10.0886L44.0246 10.6944L40.3463 11.3003C37.0564 11.8422 34.4779 14.4207 33.936 17.7106L33.3302 21.3889L32.7243 17.7106C32.1824 14.4207 29.6039 11.8422 26.314 11.3003L22.6357 10.6944L26.314 10.0886C29.6039 9.54666 32.1824 6.96815 32.7243 3.67829L33.3302 0Z" fill="#1051EA"/>
</svg>
