<svg width="278" height="572" viewBox="0 0 278 572" fill="none" xmlns="http://www.w3.org/2000/svg">
<g opacity="0.35" clip-path="url(#clip0_3245_28514)">
<mask id="mask0_3245_28514" style="mask-type:luminance" maskUnits="userSpaceOnUse" x="0" y="119" width="278" height="453">
<path d="M277.863 119.084H0.00292969V571.992H277.863V119.084Z" fill="white"/>
</mask>
<g mask="url(#mask0_3245_28514)">
<path d="M13.7067 138.091C13.7067 138.49 13.801 138.875 13.9894 139.247C14.1813 139.616 14.4455 139.941 14.7821 140.222C15.1219 140.504 15.5073 140.718 15.9381 140.866L15.504 141.489C15.0093 141.308 14.5734 141.041 14.1964 140.689C13.8229 140.334 13.5368 139.922 13.3382 139.453C13.1464 139.982 12.8569 140.445 12.4699 140.84C12.0829 141.236 11.6269 141.536 11.1018 141.74L10.6777 141.106C11.122 140.942 11.5141 140.706 11.854 140.398C12.1939 140.09 12.4581 139.733 12.6466 139.327C12.8351 138.918 12.9293 138.486 12.9293 138.03V137.106H13.7067V138.091ZM11.8692 143.932C11.8692 143.593 11.9887 143.304 12.2276 143.062C12.4666 142.817 12.8098 142.631 13.2574 142.504C13.7051 142.376 14.2351 142.313 14.8477 142.313C15.4602 142.313 15.9869 142.376 16.4278 142.504C16.8721 142.631 17.212 142.817 17.4476 143.062C17.6865 143.304 17.806 143.593 17.806 143.932C17.806 144.277 17.6882 144.57 17.4526 144.811C17.217 145.056 16.8771 145.242 16.4329 145.37C15.9886 145.496 15.4602 145.56 14.8477 145.56C14.2318 145.56 13.7 145.496 13.2524 145.37C12.8081 145.242 12.4666 145.056 12.2276 144.811C11.9887 144.567 11.8692 144.273 11.8692 143.932ZM12.6668 143.932C12.6634 144.139 12.7493 144.319 12.9243 144.47C13.0993 144.62 13.35 144.736 13.6764 144.816C14.0063 144.897 14.3967 144.937 14.8477 144.937C15.2987 144.937 15.6874 144.897 16.0138 144.816C16.3437 144.736 16.5961 144.62 16.7711 144.47C16.9495 144.319 17.0387 144.139 17.0387 143.932C17.0387 143.731 16.9495 143.557 16.7711 143.409C16.5961 143.258 16.3437 143.144 16.0138 143.067C15.684 142.986 15.2953 142.947 14.8477 142.947C14.4 142.947 14.0113 142.986 13.6815 143.067C13.3517 143.147 13.0993 143.261 12.9243 143.409C12.7493 143.557 12.6634 143.731 12.6668 143.932ZM16.9377 136.643H17.7252V138.975H19.0782V139.639H17.7252V142.082H16.9377V136.643ZM27.7185 141.619H24.013V142.675H26.7189V145.46H20.5398V142.675H23.2356V141.619H19.5402V140.966H27.7185V141.619ZM20.3075 136.935H26.9411V137.588H25.5578V139.468H26.9108V140.121H20.3378V139.468H21.6908V137.588H20.3075V136.935ZM25.9415 144.816V143.298H21.3273V144.816H25.9415ZM24.7703 139.468V137.588H22.4783V139.468H24.7703Z" fill="#929292"/>
<path opacity="0.65" d="M31.0196 143.965L33.5539 141.422C33.8601 141.107 34.094 140.852 34.2556 140.657C34.4171 140.46 34.54 140.269 34.6241 140.085C34.7116 139.897 34.7553 139.699 34.7553 139.492C34.7553 139.257 34.6965 139.051 34.5787 138.873C34.4609 138.696 34.2993 138.558 34.094 138.461C33.8887 138.364 33.6582 138.315 33.4024 138.315C33.1332 138.315 32.8976 138.369 32.6957 138.476C32.4971 138.583 32.3423 138.734 32.2312 138.929C32.1235 139.12 32.0697 139.344 32.0697 139.602H31.0196C31.0163 139.167 31.1172 138.781 31.3225 138.446C31.5278 138.111 31.8139 137.851 32.1807 137.667C32.5476 137.482 32.9615 137.39 33.4227 137.39C33.8837 137.39 34.2943 137.481 34.6544 137.662C35.0179 137.839 35.3006 138.086 35.5025 138.401C35.7078 138.716 35.8122 139.07 35.8155 139.461C35.8122 139.739 35.7583 140.008 35.654 140.266C35.5496 140.52 35.3713 140.805 35.1189 141.12C34.8664 141.431 34.5097 141.814 34.0486 142.266L32.5644 143.764V143.824H35.9367V144.77H31.0196V143.965ZM39.66 144.87C39.1618 144.87 38.7142 144.786 38.3171 144.619C37.9233 144.451 37.612 144.217 37.3831 143.915C37.1577 143.61 37.0382 143.261 37.0247 142.87H38.1555C38.169 143.077 38.2413 143.261 38.3726 143.422C38.5072 143.58 38.6856 143.702 38.9077 143.79C39.1298 143.873 39.3773 143.915 39.6498 143.915C39.9427 143.915 40.2035 143.866 40.4324 143.769C40.6645 143.669 40.8463 143.528 40.9775 143.347C41.1088 143.166 41.1744 142.96 41.1744 142.729C41.1744 142.487 41.1088 142.274 40.9775 142.09C40.8497 141.902 40.6612 141.757 40.4121 141.653C40.1631 141.546 39.8686 141.492 39.5287 141.492H38.9027V140.587H39.5287C39.8046 140.587 40.0486 140.54 40.2607 140.446C40.4761 140.349 40.6427 140.214 40.7605 140.039C40.8816 139.865 40.9422 139.662 40.9422 139.431C40.9422 139.21 40.89 139.015 40.7857 138.848C40.6814 138.68 40.5333 138.55 40.3414 138.456C40.1496 138.362 39.9258 138.315 39.67 138.315C39.4244 138.315 39.1938 138.359 38.9784 138.446C38.7664 138.533 38.5947 138.659 38.4635 138.823C38.3322 138.984 38.2632 139.17 38.2565 139.381H37.1862C37.1964 138.996 37.3124 138.652 37.5346 138.35C37.76 138.045 38.0613 137.809 38.4382 137.642C38.8152 137.474 39.2292 137.39 39.6801 137.39C40.148 137.39 40.5586 137.479 40.912 137.657C41.2653 137.834 41.5379 138.075 41.7298 138.38C41.9216 138.682 42.0158 139.012 42.0125 139.371C42.0158 139.78 41.9014 140.127 41.6692 140.412C41.437 140.696 41.1206 140.889 40.7201 140.989V141.04C41.0499 141.087 41.3326 141.189 41.5682 141.347C41.8072 141.5 41.9872 141.7 42.1084 141.944C42.2329 142.189 42.2952 142.464 42.2952 142.769C42.2952 143.167 42.1807 143.528 41.9519 143.849C41.7264 144.168 41.4117 144.418 41.0078 144.598C40.6073 144.78 40.158 144.87 39.66 144.87ZM45.8973 144.87C45.4429 144.87 45.0306 144.784 44.6604 144.614C44.2902 144.443 43.9957 144.205 43.777 143.9C43.5582 143.595 43.4404 143.252 43.4236 142.87H44.5039C44.5241 143.074 44.5981 143.258 44.7261 143.422C44.854 143.583 45.0205 143.71 45.2258 143.804C45.4311 143.898 45.655 143.945 45.8973 143.945C46.1901 143.945 46.4509 143.88 46.6798 143.749C46.912 143.618 47.0937 143.439 47.2249 143.211C47.3562 142.98 47.4218 142.722 47.4218 142.437C47.4218 142.146 47.3546 141.884 47.2199 141.653C47.0853 141.419 46.8985 141.236 46.6595 141.105C46.4206 140.971 46.1497 140.903 45.8468 140.899C45.2275 140.899 44.8001 141.114 44.5645 141.542H43.5145L43.989 137.491H48.1286V138.436H44.9078L44.6655 140.477H44.7361C44.891 140.329 45.0896 140.212 45.3319 140.125C45.5776 140.035 45.8367 139.988 46.1093 139.984C46.5636 139.984 46.9725 140.09 47.336 140.301C47.6995 140.509 47.9839 140.797 48.1892 141.165C48.3978 141.531 48.5022 141.944 48.5022 142.407C48.5022 142.879 48.3911 143.303 48.169 143.679C47.9469 144.051 47.6373 144.342 47.2401 144.553C46.8463 144.764 46.3987 144.87 45.8973 144.87ZM57.0112 145.624H56.0925V140.949H54.9717V145.192H54.0732V136.857H54.9717V140.175H56.0925V136.616H57.0112V145.624ZM49.2368 143.05C50.2061 142.501 50.9297 141.852 51.4076 141.105C51.8855 140.358 52.1632 139.505 52.2406 138.546H49.6205V137.762H53.1745C53.1711 139.046 52.912 140.187 52.3971 141.186C51.8821 142.184 51.0139 143.027 49.7922 143.714L49.2368 143.05Z" fill="#333333"/>
<path opacity="0.65" d="M60.0977 138.012L63.3286 141.229L60.0977 144.446" stroke="#333333" stroke-width="1.25162" stroke-linecap="round" stroke-linejoin="round"/>
<path d="M260.092 144.769C260.092 144.946 259.947 145.091 259.769 145.091C259.591 145.091 259.446 144.946 259.446 144.769H259.769H260.092ZM259.54 136.82C259.667 136.695 259.871 136.695 259.998 136.82L262.054 138.868C262.18 138.994 262.18 139.197 262.054 139.323C261.927 139.449 261.723 139.449 261.596 139.323L259.769 137.503L257.942 139.323C257.815 139.449 257.611 139.449 257.484 139.323C257.358 139.197 257.358 138.994 257.484 138.868L259.54 136.82ZM259.769 144.769H259.446V137.048H259.769H260.092V144.769H259.769Z" fill="#B5B5B5"/>
<path d="M265.262 137.048C265.262 136.87 265.117 136.726 264.939 136.726C264.761 136.726 264.616 136.87 264.616 137.048H264.939H265.262ZM264.71 144.996C264.837 145.122 265.041 145.122 265.168 144.996L267.224 142.949C267.35 142.823 267.35 142.62 267.224 142.494C267.097 142.368 266.893 142.368 266.766 142.494L264.939 144.314L263.112 142.494C262.985 142.368 262.781 142.368 262.654 142.494C262.528 142.62 262.528 142.823 262.654 142.949L264.71 144.996ZM264.939 137.048H264.616V144.769H264.939H265.262V137.048H264.939Z" fill="#B5B5B5"/>
<g filter="url(#filter0_d_3245_28514)">
<mask id="mask1_3245_28514" style="mask-type:luminance" maskUnits="userSpaceOnUse" x="10" y="160" width="258" height="326">
<path d="M262.351 160.209H15.5074C12.6524 160.209 10.3379 162.514 10.3379 165.356V480.627C10.3379 483.47 12.6524 485.775 15.5074 485.775H262.351C265.206 485.775 267.52 483.47 267.52 480.627V165.356C267.52 162.514 265.206 160.209 262.351 160.209Z" fill="white"/>
</mask>
<g mask="url(#mask1_3245_28514)">
<path d="M262.351 160.209H15.5074C12.6524 160.209 10.3379 162.514 10.3379 165.356V480.627C10.3379 483.47 12.6524 485.775 15.5074 485.775H262.351C265.206 485.775 267.52 483.47 267.52 480.627V165.356C267.52 162.514 265.206 160.209 262.351 160.209Z" fill="white"/>
<path d="M29.7235 173.719H10.3379V209.107H29.7235V173.719Z" fill="white"/>
<path d="M266.874 173.719H257.827V209.107H266.874V173.719Z" fill="white"/>
<path d="M87.8789 412.426H189.33" stroke="#EFEFEF" stroke-width="2.50325" stroke-linecap="round"/>
<path d="M87.8789 412.426H137.635" stroke="#333333" stroke-width="2.50325" stroke-linecap="round"/>
<path opacity="0.65" d="M20.9541 191.737L24.4387 181.729H27.1181L30.5888 191.737H28.3537L27.5971 189.428H23.9598L23.2032 191.737H20.9541ZM27.0695 187.811L25.8131 183.982H25.7437L24.4873 187.811H27.0695ZM31.5851 181.729H33.6675V190.023H37.999V191.737H31.5851V181.729ZM39.2034 181.729H43.2017C43.9236 181.729 44.5345 181.837 45.0343 182.053C45.5341 182.27 45.9089 182.572 46.1588 182.959C46.4133 183.346 46.5382 183.793 46.5337 184.3C46.5382 184.866 46.374 185.337 46.0408 185.71C45.7076 186.079 45.2703 186.322 44.7289 186.442V186.539C45.1129 186.558 45.4739 186.668 45.8117 186.871C46.1496 187.074 46.4202 187.357 46.6239 187.721C46.8321 188.08 46.9362 188.497 46.9362 188.972C46.9316 189.511 46.7951 189.988 46.5267 190.403C46.2629 190.817 45.8696 191.145 45.3467 191.384C44.8284 191.619 44.2013 191.737 43.4655 191.737H39.2034V181.729ZM43.049 190.023C43.6321 190.027 44.0648 189.919 44.3471 189.698C44.634 189.476 44.7751 189.17 44.7705 188.778C44.7705 188.497 44.7034 188.249 44.5692 188.032C44.435 187.816 44.2407 187.647 43.9861 187.528C43.7362 187.403 43.4424 187.341 43.1045 187.341H41.2859V190.023H43.049ZM42.8963 185.917C43.1878 185.922 43.4493 185.871 43.6807 185.765C43.9167 185.659 44.0995 185.509 44.2291 185.316C44.3587 185.122 44.4235 184.894 44.4235 184.632C44.4281 184.263 44.2985 183.968 44.0347 183.747C43.7709 183.526 43.4053 183.415 42.938 183.415H41.2859V185.917H42.8963ZM56.4288 181.729V188.226C56.4288 188.949 56.2553 189.587 55.9082 190.14C55.5611 190.693 55.0729 191.122 54.4436 191.426C53.8142 191.725 53.0877 191.875 52.264 191.875C51.4402 191.875 50.7137 191.725 50.0843 191.426C49.4596 191.122 48.9737 190.693 48.6266 190.14C48.2842 189.587 48.1129 188.949 48.1129 188.226V181.729H50.1954V188.06C50.1954 188.442 50.281 188.785 50.4523 189.09C50.6281 189.389 50.8711 189.624 51.1811 189.794C51.4958 189.965 51.8567 190.05 52.264 190.05C52.6758 190.05 53.0391 189.965 53.3538 189.794C53.6685 189.624 53.9091 189.389 54.0757 189.09C54.2469 188.785 54.3325 188.442 54.3325 188.06V181.729H56.4288ZM60.5626 181.729L63.3531 188.516H63.4641L66.2546 181.729H68.8367V191.737H66.8096V185.184H66.7269L64.1028 191.696H62.7144L60.0906 185.157H60.0073V191.737H57.9804V181.729H60.5626Z" fill="#333333"/>
<path d="M225.437 186.909H221.268V188.097H224.312V191.23H217.361V188.097H220.393V186.909H216.236V186.174H225.437V186.909ZM217.1 181.639H224.562V182.374H223.006V184.489H224.528V185.224H217.133V184.489H218.656V182.374H217.1V181.639ZM223.437 190.506V188.798H218.247V190.506H223.437ZM222.12 184.489V182.374H219.542V184.489H222.12ZM229.788 182.872C229.788 183.264 229.892 183.649 230.1 184.026C230.308 184.399 230.599 184.73 230.974 185.02C231.353 185.311 231.782 185.533 232.264 185.688L231.82 186.389C231.249 186.204 230.747 185.926 230.315 185.552C229.888 185.179 229.564 184.747 229.344 184.257C229.117 184.8 228.778 185.281 228.328 185.699C227.881 186.114 227.364 186.423 226.777 186.627L226.334 185.926C226.823 185.756 227.26 185.512 227.646 185.196C228.036 184.879 228.341 184.517 228.56 184.11C228.78 183.703 228.89 183.286 228.89 182.86V182.578H226.607V181.842H232.048V182.578H229.788V182.872ZM228.106 187.011H234.649V189.42H229.015V190.54H235.035V191.252H228.129V188.742H233.763V187.735H228.106V187.011ZM231.729 183.562H233.763V181.311H234.649V186.514H233.763V184.297H231.729V183.562ZM244.974 191.366H244.122V181.311H244.974V191.366ZM236.216 188.685C236.675 188.414 237.072 188.042 237.409 187.571C237.746 187.096 238.003 186.566 238.181 185.982C238.359 185.394 238.446 184.794 238.443 184.184V183.234H236.5V182.499H241.157V183.234H239.306V184.184C239.306 184.768 239.391 185.337 239.561 185.891C239.736 186.445 239.986 186.947 240.311 187.396C240.64 187.844 241.032 188.199 241.487 188.459L240.941 189.115C240.453 188.825 240.035 188.423 239.686 187.91C239.338 187.394 239.073 186.81 238.891 186.157C238.706 186.866 238.431 187.499 238.068 188.057C237.708 188.612 237.28 189.043 236.784 189.352L236.216 188.685ZM240.385 184.941H242.089V181.56H242.929V190.845H242.089V185.665H240.385V184.941ZM249.699 181.967C250.222 181.971 250.687 182.072 251.096 182.272C251.509 182.469 251.831 182.745 252.062 183.104C252.297 183.462 252.414 183.871 252.414 184.331C252.414 184.746 252.317 185.121 252.124 185.456C251.935 185.788 251.668 186.057 251.324 186.265C250.982 186.472 250.589 186.602 250.142 186.655V188.369C251.278 188.312 252.27 188.217 253.118 188.085L253.186 188.742C252.474 188.874 251.736 188.971 250.971 189.036C250.206 189.1 249.498 189.139 248.847 189.154C248.196 189.17 247.439 189.179 246.575 189.183L246.451 188.436C247.639 188.436 248.571 188.425 249.245 188.402V186.655C248.794 186.602 248.396 186.472 248.052 186.265C247.711 186.054 247.446 185.782 247.257 185.45C247.068 185.119 246.973 184.746 246.973 184.331C246.973 183.871 247.088 183.464 247.319 183.109C247.551 182.751 247.872 182.472 248.285 182.272C248.701 182.072 249.173 181.971 249.699 181.967ZM247.848 184.331C247.848 184.636 247.925 184.91 248.08 185.151C248.239 185.392 248.459 185.581 248.74 185.716C249.023 185.848 249.343 185.914 249.699 185.914C250.051 185.914 250.367 185.848 250.648 185.716C250.927 185.581 251.145 185.392 251.3 185.151C251.46 184.91 251.539 184.636 251.539 184.331C251.539 184.022 251.46 183.746 251.3 183.505C251.145 183.264 250.927 183.077 250.648 182.945C250.367 182.813 250.051 182.747 249.699 182.747C249.343 182.747 249.023 182.813 248.74 182.945C248.459 183.077 248.239 183.264 248.08 183.505C247.925 183.746 247.848 184.022 247.848 184.331ZM253.788 181.311H254.674V191.388H253.788V181.311Z" fill="#7C7C7C"/>
<path d="M210.656 181.12H204.194C202.945 181.12 201.933 182.128 201.933 183.372V189.806C201.933 191.05 202.945 192.058 204.194 192.058H210.656C211.905 192.058 212.918 191.05 212.918 189.806V183.372C212.918 182.128 211.905 181.12 210.656 181.12Z" fill="white" stroke="#DDDDDD" stroke-width="0.750974"/>
<path opacity="0.65" d="M253.303 440.094H24.5529C22.4116 440.094 20.6758 441.823 20.6758 443.955V471.621C20.6758 473.753 22.4116 475.482 24.5529 475.482H253.303C255.444 475.482 257.18 473.753 257.18 471.621V443.955C257.18 441.823 255.444 440.094 253.303 440.094Z" fill="#333333"/>
<path d="M130.556 454.8H127.376V459.194C128.186 459.187 128.871 459.164 129.43 459.123C129.989 459.084 130.553 459.01 131.121 458.902L131.233 459.686C130.61 459.804 129.994 459.884 129.385 459.928C128.779 459.968 128.025 459.988 127.123 459.988H126.406V454.006H130.556V454.8ZM130.041 456.389H132.555V453.172H133.514V462.2H132.555V457.183H130.041V456.389ZM143.073 461.064H134.794V460.269H138.439V458.42H135.743V453.785H136.703V455.334H141.145V453.785H142.094V458.42H139.388V460.269H143.073V461.064ZM141.145 457.646V456.108H136.703V457.646H141.145ZM151.148 462.18H150.179V453.172H151.148V462.18ZM143.717 459.767C144.902 459.204 145.802 458.519 146.418 457.711C147.034 456.904 147.389 455.967 147.483 454.901H144.151V454.137H148.452C148.452 455.531 148.117 456.769 147.448 457.852C146.782 458.934 145.706 459.831 144.222 460.541L143.717 459.767Z" fill="white"/>
</g>
</g>
<path d="M263.646 496.069H14.2179C12.0767 496.069 10.3408 497.798 10.3408 499.93V527.596C10.3408 529.729 12.0767 531.457 14.2179 531.457H263.646C265.787 531.457 267.523 529.729 267.523 527.596V499.93C267.523 497.798 265.787 496.069 263.646 496.069Z" fill="url(#paint0_linear_3245_28514)"/>
<mask id="mask2_3245_28514" style="mask-type:luminance" maskUnits="userSpaceOnUse" x="19" y="506" width="15" height="15">
<path d="M33.6028 506.686H19.3867V520.841H33.6028V506.686Z" fill="white"/>
</mask>
<g mask="url(#mask2_3245_28514)">
<path d="M33.3074 515.532C32.8361 515.532 32.3841 515.345 32.0508 515.014C31.7176 514.682 31.5304 514.231 31.5304 513.762C31.5304 513.293 31.7176 512.843 32.0508 512.511C32.3841 512.18 32.8361 511.993 33.3074 511.993V509.929C33.3074 509.773 33.245 509.622 33.1339 509.511C33.0228 509.401 32.8721 509.339 32.715 509.339H20.276C20.1189 509.339 19.9682 509.401 19.8571 509.511C19.746 509.622 19.6836 509.773 19.6836 509.929V511.993C20.1549 511.993 20.6069 512.18 20.9402 512.511C21.2734 512.843 21.4606 513.293 21.4606 513.762C21.4606 514.231 21.2734 514.682 20.9402 515.014C20.6069 515.345 20.1549 515.532 19.6836 515.532V517.596C19.6836 517.752 19.746 517.903 19.8571 518.013C19.9682 518.123 20.1189 518.186 20.276 518.186H32.715C32.8721 518.186 33.0228 518.123 33.1339 518.013C33.245 517.903 33.3074 517.752 33.3074 517.596V515.532Z" fill="white" stroke="white" stroke-width="1.25162" stroke-linecap="round" stroke-linejoin="round"/>
<path d="M24.127 516.121L28.8657 511.403" stroke="#FFB23D" stroke-width="1.25162" stroke-linecap="round" stroke-linejoin="round"/>
<path d="M23.834 511.995C23.834 512.23 23.9276 512.454 24.0942 512.62C24.2609 512.786 24.4868 512.88 24.7225 512.88C24.9582 512.88 25.1841 512.786 25.3508 512.62C25.5174 512.454 25.611 512.23 25.611 511.995C25.611 511.76 25.5174 511.536 25.3508 511.37C25.1841 511.204 24.9582 511.11 24.7225 511.11C24.4868 511.11 24.2609 511.204 24.0942 511.37C23.9276 511.536 23.834 511.76 23.834 511.995Z" fill="#FFB43C"/>
<path d="M27.3838 515.533C27.3838 515.767 27.4774 515.992 27.644 516.158C27.8107 516.324 28.0366 516.417 28.2723 516.417C28.508 516.417 28.7339 516.324 28.9006 516.158C29.0672 515.992 29.1608 515.767 29.1608 515.533C29.1608 515.298 29.0672 515.073 28.9006 514.907C28.7339 514.741 28.508 514.648 28.2723 514.648C28.0366 514.648 27.8107 514.741 27.644 514.907C27.4774 515.073 27.3838 515.298 27.3838 515.533Z" fill="#FFB43C"/>
</g>
<path d="M46.2269 512.054H47.5394V512.848H46.2269V515.894H45.2677V509.159H46.2269V512.054ZM39.1289 510.205H41.3502V509.149H42.3094V510.205H44.5206V510.979H39.1289V510.205ZM39.6236 513.11C39.6236 512.771 39.7145 512.473 39.8963 512.215C40.0814 511.957 40.3405 511.759 40.6737 511.622C41.0069 511.481 41.3906 511.411 41.8247 511.411C42.2555 511.411 42.6358 511.481 42.9656 511.622C43.2988 511.759 43.5563 511.957 43.738 512.215C43.9232 512.473 44.0157 512.771 44.0157 513.11C44.0157 513.445 43.9232 513.74 43.738 513.994C43.5563 514.249 43.2988 514.447 42.9656 514.588C42.6358 514.728 42.2555 514.799 41.8247 514.799C41.3906 514.799 41.0069 514.728 40.6737 514.588C40.3405 514.447 40.0814 514.249 39.8963 513.994C39.7145 513.74 39.6236 513.445 39.6236 513.11ZM40.492 515.362H41.4512V517.191H46.6105V517.965H40.492V515.362ZM40.5525 513.11C40.5492 513.301 40.5996 513.469 40.704 513.613C40.8083 513.753 40.9547 513.862 41.1432 513.939C41.3351 514.016 41.5571 514.055 41.8095 514.055C42.2 514.055 42.5147 513.971 42.7536 513.803C42.9926 513.636 43.1137 513.405 43.1171 513.11C43.1137 512.815 42.9943 512.582 42.7587 512.411C42.5231 512.237 42.2117 512.148 41.8247 512.145C41.5689 512.145 41.3435 512.185 41.1482 512.265C40.9564 512.343 40.8083 512.455 40.704 512.602C40.5996 512.746 40.5492 512.915 40.5525 513.11ZM55.4932 514.507H54.534V512.225H52.8478V511.441H54.534V509.149H55.4932V514.507ZM47.951 513.693C48.4087 513.532 48.8092 513.301 49.1525 512.999C49.4957 512.695 49.7583 512.347 49.94 511.959C50.1251 511.567 50.216 511.163 50.2126 510.747V510.546H48.2539V509.772H53.1305V510.546H51.192V510.737C51.1886 511.12 51.2744 511.49 51.4495 511.848C51.6245 512.207 51.8769 512.527 52.2067 512.808C52.5366 513.086 52.9252 513.301 53.3729 513.452L52.8781 514.206C52.3801 514.035 51.9459 513.78 51.5757 513.442C51.2088 513.1 50.9245 512.701 50.7225 512.246C50.524 512.754 50.2294 513.202 49.8391 513.588C49.4486 513.973 48.9876 514.263 48.4558 514.457L47.951 513.693ZM49.4049 516.458C49.4049 516.102 49.526 515.799 49.7684 515.548C50.014 515.293 50.3658 515.099 50.8235 514.965C51.2846 514.828 51.8314 514.759 52.4642 514.759C53.0935 514.759 53.6371 514.828 54.0948 514.965C54.5525 515.099 54.9042 515.293 55.1499 515.548C55.3989 515.799 55.5235 516.102 55.5235 516.458C55.5235 516.813 55.3989 517.116 55.1499 517.368C54.9042 517.622 54.5525 517.816 54.0948 517.951C53.6371 518.088 53.0935 518.157 52.4642 518.157C51.8314 518.157 51.2846 518.088 50.8235 517.951C50.3658 517.816 50.014 517.622 49.7684 517.368C49.526 517.116 49.4049 516.813 49.4049 516.458ZM50.354 516.458C50.3506 516.762 50.534 516.999 50.9042 517.166C51.2778 517.33 51.7978 517.41 52.4642 517.402C53.1238 517.41 53.6388 517.33 54.009 517.166C54.3825 516.999 54.571 516.762 54.5744 516.458C54.571 516.156 54.3859 515.921 54.019 515.754C53.6556 515.586 53.1474 515.502 52.4945 515.502C51.8146 515.502 51.2863 515.585 50.9093 515.749C50.5357 515.913 50.3506 516.149 50.354 516.458ZM61.9224 510.737H61.0641V513.563C61.4983 513.532 61.9156 513.492 62.3161 513.442L62.3767 514.155C61.5622 514.283 60.6956 514.37 59.7768 514.417C58.8614 514.46 57.9005 514.484 56.8942 514.487L56.7831 513.703C57.0053 513.703 57.3755 513.7 57.8938 513.693V510.737H57.0356V509.963H61.9224V510.737ZM58.1563 515.151H59.1155V517.191H64.2749V517.965H58.1563V515.151ZM58.8227 513.673C59.4082 513.653 59.8424 513.636 60.1251 513.622V510.737H58.8227V513.673ZM62.932 509.159H63.8912V511.823H65.2035V512.627H63.8912V515.784H62.932V509.159ZM75.558 518.157H74.5887V509.149H75.558V518.157ZM68.1268 515.744C69.3113 515.181 70.2121 514.496 70.8279 513.688C71.4437 512.881 71.7985 511.944 71.8928 510.878H68.5611V510.114H72.8621C72.8621 511.508 72.5274 512.746 71.8579 513.829C71.1911 514.911 70.1158 515.807 68.6315 516.518L68.1268 515.744ZM82.553 510.637H77.2012V509.923H79.3925V509.088H80.3514V509.923H82.553V510.637ZM76.9085 514.206C77.8778 514.206 78.7056 514.194 79.3925 514.171V513.597C78.8607 513.541 78.4419 513.397 78.1356 513.165C77.8326 512.934 77.6827 512.641 77.6859 512.285C77.6859 512.011 77.7751 511.771 77.9534 511.567C78.1356 511.362 78.3909 511.206 78.7211 511.099C79.0506 510.989 79.4364 510.935 79.8771 510.938C80.3113 510.935 80.6932 510.989 81.0228 511.099C81.3562 511.206 81.6153 511.362 81.8002 511.567C81.9856 511.771 82.078 512.011 82.078 512.285C82.0748 512.641 81.9184 512.934 81.6089 513.165C81.2987 513.397 80.88 513.541 80.3514 513.597V514.135C81.2095 514.091 81.9972 514.025 82.7145 513.934L82.7849 514.598C81.9132 514.742 81.0047 514.837 80.0587 514.884C79.1165 514.928 78.1104 514.95 77.0397 514.95L76.9085 514.206ZM78.2112 515.603H84.37V518.157H83.4111V516.347H78.2112V515.603ZM78.5951 512.285C78.5983 512.493 78.7127 512.657 78.9382 512.778C79.1669 512.899 79.4732 512.959 79.8571 512.959C80.2506 512.959 80.5653 512.899 80.8012 512.778C81.0396 512.657 81.1591 512.493 81.1591 512.285C81.1591 512.068 81.0415 511.897 80.8057 511.773C80.5737 511.645 80.2642 511.585 79.8771 511.592C79.4868 511.585 79.1753 511.644 78.9434 511.767C78.714 511.892 78.5983 512.064 78.5951 512.285ZM83.4111 509.169H84.37V515.201H83.4111V509.169ZM93.2428 515.754H92.2832V512.366H90.5566V511.592H92.2832V509.159H93.2428V515.754ZM85.7102 513.874C86.1651 513.72 86.5619 513.495 86.9018 513.2C87.2449 512.902 87.5079 512.56 87.6895 512.175C87.8711 511.789 87.9622 511.39 87.9622 510.979V510.627H86.0036V509.842H90.8797V510.627H88.9412V510.979C88.9379 511.354 89.0239 511.721 89.199 512.08C89.3773 512.438 89.6313 512.758 89.9615 513.039C90.291 513.321 90.6781 513.536 91.122 513.683L90.6277 514.447C90.1295 514.273 89.6953 514.015 89.325 513.673C88.9547 513.331 88.6691 512.932 88.4669 512.477C88.2685 512.979 87.9738 513.42 87.5835 513.799C87.1965 514.177 86.737 514.46 86.2052 514.648L85.7102 513.874ZM87.3664 515.161H88.3253V517.191H93.4851V517.965H87.3664V515.161ZM98.6521 509.299C99.3318 509.299 99.9121 509.359 100.394 509.476C100.875 509.593 101.243 509.769 101.499 510.003C101.755 510.235 101.883 510.516 101.883 510.848C101.883 511.183 101.755 511.468 101.499 511.702C101.243 511.933 100.875 512.11 100.394 512.23C99.9121 512.347 99.3318 512.406 98.6521 512.406C97.9723 512.406 97.3901 512.347 96.9054 512.23C96.424 512.11 96.0557 511.933 95.7998 511.702C95.5471 511.468 95.4211 511.183 95.4211 510.848C95.4211 510.516 95.5471 510.235 95.7998 510.003C96.0557 509.769 96.424 509.593 96.9054 509.476C97.3901 509.359 97.9723 509.299 98.6521 509.299ZM94.5326 512.959H102.781V513.723H94.5326V512.959ZM95.5219 514.417H101.741V516.528H96.4712V517.332H101.994V518.066H95.5323V515.834H100.792V515.131H95.5219V514.417ZM96.4208 510.848C96.4175 511.126 96.6075 511.337 96.9914 511.481C97.3745 511.622 97.9283 511.692 98.6521 511.692C99.3822 511.692 99.9393 511.622 100.323 511.481C100.707 511.337 100.897 511.126 100.894 510.848C100.897 510.58 100.703 510.372 100.313 510.225C99.9257 510.077 99.3719 510.003 98.6521 510.003C97.9348 510.003 97.3829 510.077 96.9959 510.225C96.6088 510.372 96.4175 510.58 96.4208 510.848ZM112.893 511.23H114.216V512.014H112.893V514.075H111.934V509.119H112.893V511.23ZM105.796 509.913H108.017V509.068H108.976V509.913H111.187V510.667H105.796V509.913ZM106.29 512.487C106.29 512.188 106.38 511.928 106.558 511.708C106.74 511.483 106.997 511.311 107.33 511.19C107.663 511.069 108.05 511.009 108.492 511.009C108.932 511.009 109.317 511.069 109.648 511.19C109.977 511.311 110.231 511.481 110.409 511.702C110.592 511.924 110.682 512.185 110.682 512.487C110.682 512.788 110.592 513.05 110.409 513.27C110.231 513.492 109.977 513.661 109.648 513.778C109.317 513.896 108.932 513.954 108.492 513.954C108.05 513.954 107.663 513.896 107.33 513.778C106.997 513.661 106.74 513.492 106.558 513.27C106.38 513.05 106.29 512.788 106.29 512.487ZM107.047 514.497H112.893V516.589H108.007V517.342H113.207V518.066H107.068V515.915H111.944V515.211H107.047V514.497ZM107.219 512.487C107.216 512.728 107.328 512.917 107.557 513.054C107.787 513.192 108.097 513.261 108.492 513.261C108.882 513.261 109.193 513.192 109.425 513.054C109.661 512.917 109.781 512.728 109.784 512.487C109.781 512.246 109.661 512.054 109.425 511.914C109.193 511.769 108.882 511.695 108.492 511.692C108.097 511.695 107.787 511.769 107.557 511.914C107.328 512.054 107.216 512.246 107.219 512.487ZM122.12 515.704H121.16V509.159H122.12V515.704ZM114.8 511.994C114.8 511.569 114.906 511.186 115.118 510.848C115.329 510.51 115.619 510.245 115.986 510.053C116.352 509.859 116.761 509.762 117.212 509.762C117.664 509.762 118.071 509.859 118.434 510.053C118.801 510.245 119.089 510.51 119.298 510.848C119.51 511.186 119.616 511.569 119.616 511.994C119.616 512.426 119.51 512.813 119.298 513.155C119.089 513.494 118.801 513.758 118.434 513.949C118.071 514.14 117.664 514.236 117.212 514.236C116.761 514.236 116.352 514.14 115.986 513.949C115.619 513.758 115.329 513.494 115.118 513.155C114.906 512.813 114.8 512.426 114.8 511.994ZM115.739 511.994C115.739 512.272 115.801 512.518 115.925 512.733C116.053 512.944 116.23 513.108 116.455 513.225C116.681 513.343 116.933 513.402 117.212 513.402C117.488 513.402 117.738 513.343 117.959 513.225C118.182 513.108 118.357 512.944 118.485 512.733C118.613 512.518 118.677 512.272 118.677 511.994C118.677 511.722 118.613 511.481 118.485 511.27C118.357 511.056 118.182 510.89 117.959 510.773C117.738 510.655 117.488 510.596 117.212 510.596C116.933 510.596 116.681 510.655 116.455 510.773C116.23 510.89 116.053 511.056 115.925 511.27C115.801 511.481 115.739 511.722 115.739 511.994ZM116.203 515.04H117.172V517.191H122.392V517.965H116.203V515.04ZM130.497 512.738H131.901V513.532H130.497V518.146H129.538V509.149H130.497V512.738ZM123.46 515.744C124.591 515.181 125.464 514.494 126.08 513.683C126.699 512.872 127.058 511.941 127.155 510.888H123.914V510.094H128.135C128.128 511.468 127.793 512.703 127.13 513.799C126.467 514.891 125.422 515.787 123.995 516.488L123.46 515.744ZM140.561 517.081H132.282V516.276H135.927V514.698H133.292V511.833H138.603V510.566H133.271V509.782H139.552V512.597H134.241V513.914H139.764V514.698H136.876V516.276H140.561V517.081ZM148.119 514.146H143.888V509.943H148.119V514.146ZM147.18 513.391V510.717H144.827V513.391H147.18ZM144.908 515.111H145.867V517.191H151.027V517.965H144.908V515.111ZM149.684 509.138H150.643V511.833H151.955V512.637H150.643V515.744H149.684V509.138ZM160.818 513.472H159.414V518.146H158.455V509.149H159.414V512.688H160.818V513.472ZM152.71 510.024H153.659V515.09C155.043 515.084 156.382 514.95 157.678 514.689L157.789 515.493C157.055 515.636 156.333 515.739 155.623 515.799C154.913 515.86 154.191 515.888 153.458 515.885H152.71V510.024ZM169.479 517.031H161.199V516.237H163.178V513.884C162.798 513.676 162.503 513.413 162.295 513.095C162.086 512.776 161.984 512.419 161.987 512.024C161.987 511.558 162.128 511.148 162.411 510.793C162.694 510.438 163.087 510.163 163.592 509.968C164.1 509.77 164.676 509.672 165.318 509.672C165.961 509.672 166.537 509.77 167.045 509.968C167.554 510.163 167.949 510.438 168.231 510.793C168.518 511.148 168.661 511.558 168.661 512.024C168.661 512.416 168.56 512.77 168.357 513.085C168.156 513.397 167.87 513.656 167.499 513.864V516.237H169.479V517.031ZM162.916 512.024C162.916 512.343 163.017 512.623 163.218 512.864C163.421 513.105 163.703 513.292 164.067 513.427C164.43 513.557 164.847 513.622 165.318 513.622C165.786 513.622 166.202 513.555 166.566 513.422C166.933 513.287 167.218 513.101 167.424 512.864C167.629 512.623 167.732 512.343 167.732 512.024C167.732 511.706 167.629 511.428 167.424 511.19C167.218 510.948 166.933 510.762 166.566 510.632C166.202 510.501 165.786 510.436 165.318 510.436C164.847 510.436 164.43 510.501 164.067 510.632C163.703 510.762 163.421 510.948 163.218 511.19C163.017 511.428 162.916 511.706 162.916 512.024ZM166.53 516.237V514.236C166.153 514.323 165.749 514.367 165.318 514.367C164.895 514.367 164.497 514.323 164.128 514.236V516.237H166.53ZM171.607 515.201H170.607L170.516 510.024H171.697L171.607 515.201ZM170.395 516.669C170.395 516.538 170.427 516.417 170.491 516.307C170.555 516.196 170.64 516.109 170.748 516.045C170.86 515.979 170.98 515.945 171.112 515.945C171.239 515.945 171.357 515.977 171.465 516.04C171.576 516.104 171.663 516.191 171.727 516.302C171.795 516.412 171.829 516.531 171.829 516.659C171.829 516.786 171.795 516.905 171.727 517.016C171.663 517.123 171.576 517.21 171.465 517.277C171.357 517.341 171.239 517.372 171.112 517.372C170.984 517.372 170.864 517.341 170.754 517.277C170.646 517.213 170.558 517.128 170.491 517.02C170.427 516.913 170.395 516.796 170.395 516.669Z" fill="white"/>
<path d="M223.211 512.638H224.665V513.442H223.211V518.157H222.252V509.149H223.211V512.638ZM216.507 509.903H217.456V512.216H219.849V509.903H220.798V516.016H216.507V509.903ZM219.849 515.232V512.97H217.456V515.232H219.849ZM233.275 517.081H224.996V516.277H228.64V514.699H226.005V511.834H231.316V510.567H225.985V509.783H232.265V512.598H226.954V513.915H232.477V514.699H229.59V516.277H233.275V517.081ZM240.875 512.738H242.279V513.533H240.875V518.147H239.916V509.149H240.875V512.738ZM233.838 515.744C234.969 515.181 235.842 514.494 236.458 513.684C237.078 512.873 237.436 511.941 237.533 510.889H234.292V510.095H238.513C238.506 511.468 238.171 512.704 237.508 513.799C236.845 514.892 235.8 515.788 234.373 516.488L233.838 515.744ZM250.182 518.157H249.213V509.149H250.182V518.157ZM242.751 515.744C243.936 515.181 244.836 514.496 245.451 513.689C246.067 512.881 246.423 511.944 246.517 510.879H243.185V510.115H247.486C247.486 511.509 247.152 512.747 246.481 513.83C245.815 514.912 244.74 515.808 243.256 516.518L242.751 515.744Z" fill="white"/>
<path d="M255.246 510.545L258.477 513.762L255.246 516.979" stroke="white" stroke-width="1.87743" stroke-linecap="round" stroke-linejoin="round"/>
</g>
<rect x="283.333" y="368.084" width="172.724" height="289.125" transform="rotate(90 283.333 368.084)" fill="url(#paint1_linear_3245_28514)"/>
<rect width="172.724" height="289.125" transform="matrix(-4.37114e-08 -1 -1 4.37114e-08 283.125 113.81)" fill="url(#paint2_linear_3245_28514)"/>
</g>
<defs>
<filter id="filter0_d_3245_28514" x="-100.681" y="49.1901" width="479.22" height="547.603" filterUnits="userSpaceOnUse" color-interpolation-filters="sRGB">
<feFlood flood-opacity="0" result="BackgroundImageFix"/>
<feColorMatrix in="SourceAlpha" type="matrix" values="0 0 0 0 0 0 0 0 0 0 0 0 0 0 0 0 0 0 127 0" result="hardAlpha"/>
<feOffset/>
<feGaussianBlur stdDeviation="24.657"/>
<feComposite in2="hardAlpha" operator="out"/>
<feColorMatrix type="matrix" values="0 0 0 0 0 0 0 0 0 0 0 0 0 0 0 0 0 0 0.12 0"/>
<feBlend mode="normal" in2="BackgroundImageFix" result="effect1_dropShadow_3245_28514"/>
<feBlend mode="normal" in="SourceGraphic" in2="effect1_dropShadow_3245_28514" result="shape"/>
</filter>
<linearGradient id="paint0_linear_3245_28514" x1="10.3408" y1="513.763" x2="267.523" y2="513.763" gradientUnits="userSpaceOnUse">
<stop stop-color="#FFB937"/>
<stop offset="1" stop-color="#FF46A0"/>
</linearGradient>
<linearGradient id="paint1_linear_3245_28514" x1="387.452" y1="512.647" x2="283.333" y2="512.647" gradientUnits="userSpaceOnUse">
<stop stop-color="white"/>
<stop offset="1" stop-color="white" stop-opacity="0"/>
</linearGradient>
<linearGradient id="paint2_linear_3245_28514" x1="104.119" y1="144.562" x2="0" y2="144.562" gradientUnits="userSpaceOnUse">
<stop stop-color="white"/>
<stop offset="1" stop-color="white" stop-opacity="0"/>
</linearGradient>
<clipPath id="clip0_3245_28514">
<rect width="277.86" height="571.992" fill="white"/>
</clipPath>
</defs>
</svg>
