<svg width="278" height="463" viewBox="0 0 278 463" fill="none" xmlns="http://www.w3.org/2000/svg">
<g opacity="0.8" clip-path="url(#clip0_3245_28514)">
<mask id="mask0_3245_28514" style="mask-type:luminance" maskUnits="userSpaceOnUse" x="0" y="10" width="278" height="453">
<path d="M277.863 10.084H0.00292969V462.992H277.863V10.084Z" fill="white"/>
</mask>
<g mask="url(#mask0_3245_28514)">
<path d="M13.7067 29.0907C13.7067 29.4897 13.801 29.8751 13.9894 30.2469C14.1813 30.6156 14.4455 30.9405 14.7821 31.2224C15.1219 31.5035 15.5073 31.7178 15.9381 31.8658L15.504 32.4886C15.0093 32.3078 14.5734 32.0414 14.1964 31.6895C13.8229 31.3343 13.5368 30.9219 13.3382 30.4528C13.1464 30.9824 12.8569 31.445 12.4699 31.84C12.0829 32.2357 11.6269 32.5356 11.1018 32.7402L10.6777 32.1064C11.122 31.9423 11.5141 31.7062 11.854 31.398C12.1939 31.0898 12.4581 30.7327 12.6466 30.3274C12.8351 29.9182 12.9293 29.4864 12.9293 29.0303V28.1057H13.7067V29.0907ZM11.8692 34.9316C11.8692 34.5932 11.9887 34.3037 12.2276 34.0624C12.4666 33.8172 12.8098 33.6313 13.2574 33.5039C13.7051 33.3765 14.2351 33.3134 14.8477 33.3134C15.4602 33.3134 15.9869 33.3765 16.4278 33.5039C16.8721 33.6313 17.212 33.8172 17.4476 34.0624C17.6865 34.3037 17.806 34.5932 17.806 34.9316C17.806 35.2771 17.6882 35.5699 17.4526 35.8112C17.217 36.0563 16.8771 36.2422 16.4329 36.3696C15.9886 36.4964 15.4602 36.5601 14.8477 36.5601C14.2318 36.5601 13.7 36.4964 13.2524 36.3696C12.8081 36.2422 12.4666 36.0563 12.2276 35.8112C11.9887 35.5667 11.8692 35.2733 11.8692 34.9316ZM12.6668 34.9316C12.6634 35.1394 12.7493 35.3189 12.9243 35.4695C13.0993 35.6201 13.35 35.7359 13.6764 35.8163C14.0063 35.8967 14.3967 35.9373 14.8477 35.9373C15.2987 35.9373 15.6874 35.8967 16.0138 35.8163C16.3437 35.7359 16.5961 35.6201 16.7711 35.4695C16.9495 35.3189 17.0387 35.1394 17.0387 34.9316C17.0387 34.7309 16.9495 34.5565 16.7711 34.4092C16.5961 34.258 16.3437 34.1441 16.0138 34.0669C15.684 33.9864 15.2953 33.9466 14.8477 33.9466C14.4 33.9466 14.0113 33.9864 13.6815 34.0669C13.3517 34.1473 13.0993 34.2612 12.9243 34.4092C12.7493 34.5565 12.6634 34.7309 12.6668 34.9316ZM16.9377 27.6431H17.7252V29.9754H19.0782V30.6388H17.7252V33.0818H16.9377V27.6431ZM27.7185 32.6192H24.013V33.675H26.7189V36.4597H20.5398V33.675H23.2356V32.6192H19.5402V31.9661H27.7185V32.6192ZM20.3075 27.9345H26.9411V28.5882H25.5578V30.4683H26.9108V31.1213H20.3378V30.4683H21.6908V28.5882H20.3075V27.9345ZM25.9415 35.8163V34.2985H21.3273V35.8163H25.9415ZM24.7703 30.4683V28.5882H22.4783V30.4683H24.7703Z" fill="#929292"/>
<path opacity="0.65" d="M31.0196 34.9652L33.5539 32.4218C33.8601 32.1066 34.094 31.8518 34.2556 31.6575C34.4171 31.4599 34.54 31.2688 34.6241 31.0848C34.7116 30.897 34.7553 30.6994 34.7553 30.4916C34.7553 30.2568 34.6965 30.0509 34.5787 29.8733C34.4609 29.6957 34.2993 29.558 34.094 29.4609C33.8887 29.3637 33.6582 29.3155 33.4024 29.3155C33.1332 29.3155 32.8976 29.3689 32.6957 29.4763C32.4971 29.5831 32.3423 29.7343 32.2312 29.9286C32.1235 30.1197 32.0697 30.3443 32.0697 30.6023H31.0196C31.0163 30.1667 31.1172 29.7813 31.3225 29.4461C31.5278 29.1108 31.8139 28.8509 32.1807 28.6669C32.5476 28.4822 32.9615 28.3902 33.4227 28.3902C33.8837 28.3902 34.2943 28.481 34.6544 28.6618C35.0179 28.8393 35.3006 29.0858 35.5025 29.401C35.7078 29.7157 35.8122 30.0695 35.8155 30.4614C35.8122 30.7393 35.7583 31.0076 35.654 31.2656C35.5496 31.5204 35.3713 31.8055 35.1189 32.1201C34.8664 32.4315 34.5097 32.8137 34.0486 33.266L32.5644 34.7645V34.8243H35.9367V35.7695H31.0196V34.9652ZM39.66 35.8699C39.1618 35.8699 38.7142 35.7862 38.3171 35.6189C37.9233 35.451 37.612 35.2168 37.3831 34.9151C37.1577 34.6101 37.0382 34.2613 37.0247 33.8695H38.1555C38.169 34.0773 38.2413 34.2614 38.3726 34.4222C38.5072 34.5798 38.6856 34.7021 38.9077 34.7896C39.1298 34.8732 39.3773 34.9151 39.6498 34.9151C39.9427 34.9151 40.2035 34.8662 40.4324 34.769C40.6645 34.6686 40.8463 34.5277 40.9775 34.3469C41.1088 34.1661 41.1744 33.9602 41.1744 33.7286C41.1744 33.4873 41.1088 33.2744 40.9775 33.0903C40.8497 32.9025 40.6612 32.7571 40.4121 32.6528C40.1631 32.546 39.8686 32.492 39.5287 32.492H38.9027V31.5873H39.5287C39.8046 31.5873 40.0486 31.5404 40.2607 31.4464C40.4761 31.3493 40.6427 31.2135 40.7605 31.0391C40.8816 30.8654 40.9422 30.6621 40.9422 30.4311C40.9422 30.2098 40.89 30.0155 40.7857 29.8482C40.6814 29.6803 40.5333 29.5497 40.3414 29.4564C40.1496 29.3624 39.9258 29.3155 39.67 29.3155C39.4244 29.3155 39.1938 29.3586 38.9784 29.4461C38.7664 29.5329 38.5947 29.659 38.4635 29.8231C38.3322 29.984 38.2632 30.1699 38.2565 30.3809H37.1862C37.1964 29.9955 37.3124 29.652 37.5346 29.3502C37.76 29.0452 38.0613 28.8091 38.4382 28.6418C38.8152 28.4739 39.2292 28.3902 39.6801 28.3902C40.148 28.3902 40.5586 28.479 40.912 28.6566C41.2653 28.8342 41.5379 29.0755 41.7298 29.3804C41.9216 29.6822 42.0158 30.0123 42.0125 30.3706C42.0158 30.7799 41.9014 31.1267 41.6692 31.4117C41.437 31.6961 41.1206 31.8891 40.7201 31.9895V32.0397C41.0499 32.0866 41.3326 32.1889 41.5682 32.3466C41.8072 32.5003 41.9872 32.6998 42.1084 32.9443C42.2329 33.1894 42.2952 33.4642 42.2952 33.7691C42.2952 34.1674 42.1807 34.5277 41.9519 34.8494C41.7264 35.1679 41.4117 35.4176 41.0078 35.5983C40.6073 35.7798 40.158 35.8699 39.66 35.8699ZM45.8973 35.8699C45.4429 35.8699 45.0306 35.7843 44.6604 35.6138C44.2902 35.4426 43.9957 35.2046 43.777 34.8996C43.5582 34.5946 43.4404 34.2517 43.4236 33.8695H44.5039C44.5241 34.0741 44.5981 34.2581 44.7261 34.4222C44.854 34.5831 45.0205 34.7104 45.2258 34.8044C45.4311 34.8983 45.655 34.9453 45.8973 34.9453C46.1901 34.9453 46.4509 34.8797 46.6798 34.7491C46.912 34.6184 47.0937 34.4389 47.2249 34.2112C47.3562 33.9802 47.4218 33.7222 47.4218 33.4371C47.4218 33.1457 47.3546 32.8845 47.2199 32.6528C47.0853 32.4186 46.8985 32.2359 46.6595 32.1053C46.4206 31.9708 46.1497 31.9026 45.8468 31.8987C45.2275 31.8987 44.8001 32.1136 44.5645 32.5422H43.5145L43.989 28.4912H48.1286V29.4358H44.9078L44.6655 31.4767H44.7361C44.891 31.3293 45.0896 31.2122 45.3319 31.1247C45.5776 31.0347 45.8367 30.9877 46.1093 30.9838C46.5636 30.9838 46.9725 31.09 47.336 31.301C47.6995 31.5088 47.9839 31.7971 48.1892 32.1651C48.3978 32.5306 48.5022 32.9443 48.5022 33.4069C48.5022 33.8792 48.3911 34.3032 48.169 34.6789C47.9469 35.0508 47.6373 35.3423 47.2401 35.5533C46.8463 35.7644 46.3987 35.8699 45.8973 35.8699ZM57.0112 36.624H56.0925V31.9489H54.9717V36.1916H54.0732V27.8575H54.9717V31.1749H56.0925V27.6162H57.0112V36.624ZM49.2368 34.0503C50.2061 33.5008 50.9297 32.8523 51.4076 32.1053C51.8855 31.3576 52.1632 30.5051 52.2406 29.5464H49.6205V28.7621H53.1745C53.1711 30.0457 52.912 31.1871 52.3971 32.1857C51.8821 33.1843 51.0139 34.0271 49.7922 34.7137L49.2368 34.0503Z" fill="#333333"/>
<path opacity="0.65" d="M60.0977 29.0117L63.3286 32.2288L60.0977 35.4458" stroke="#333333" stroke-width="1.25162" stroke-linecap="round" stroke-linejoin="round"/>
<path d="M260.092 35.7689C260.092 35.9464 259.947 36.0906 259.769 36.0906C259.591 36.0906 259.446 35.9464 259.446 35.7689H259.769H260.092ZM259.54 27.8202C259.667 27.6947 259.871 27.6947 259.998 27.8202L262.054 29.8675C262.18 29.9936 262.18 30.1969 262.054 30.323C261.927 30.4485 261.723 30.4485 261.596 30.323L259.769 28.5028L257.942 30.323C257.815 30.4485 257.611 30.4485 257.484 30.323C257.358 30.1969 257.358 29.9936 257.484 29.8675L259.54 27.8202ZM259.769 35.7689H259.446V28.0479H259.769H260.092V35.7689H259.769Z" fill="#B5B5B5"/>
<path d="M265.262 28.0478C265.262 27.8702 265.117 27.7261 264.939 27.7261C264.761 27.7261 264.616 27.8702 264.616 28.0478H264.939H265.262ZM264.71 35.9965C264.837 36.1219 265.041 36.1219 265.168 35.9965L267.224 33.9491C267.35 33.823 267.35 33.6197 267.224 33.4936C267.097 33.3681 266.893 33.3681 266.766 33.4936L264.939 35.3138L263.112 33.4936C262.985 33.3681 262.781 33.3681 262.654 33.4936C262.528 33.6197 262.528 33.823 262.654 33.9491L264.71 35.9965ZM264.939 28.0478H264.616V35.7687H264.939H265.262V28.0478H264.939Z" fill="#B5B5B5"/>
<g filter="url(#filter0_d_3245_28514)">
<mask id="mask1_3245_28514" style="mask-type:luminance" maskUnits="userSpaceOnUse" x="10" y="51" width="258" height="326">
<path d="M262.351 51.209H15.5074C12.6524 51.209 10.3379 53.5135 10.3379 56.3563V371.627C10.3379 374.47 12.6524 376.775 15.5074 376.775H262.351C265.206 376.775 267.52 374.47 267.52 371.627V56.3563C267.52 53.5135 265.206 51.209 262.351 51.209Z" fill="white"/>
</mask>
<g mask="url(#mask1_3245_28514)">
<path d="M262.351 51.209H15.5074C12.6524 51.209 10.3379 53.5135 10.3379 56.3563V371.627C10.3379 374.47 12.6524 376.775 15.5074 376.775H262.351C265.206 376.775 267.52 374.47 267.52 371.627V56.3563C267.52 53.5135 265.206 51.209 262.351 51.209Z" fill="white"/>
<path d="M29.7235 64.7192H10.3379V100.107H29.7235V64.7192Z" fill="white"/>
<path d="M266.874 64.7192H257.827V100.107H266.874V64.7192Z" fill="white"/>
<path d="M87.8789 303.426H189.33" stroke="#EFEFEF" stroke-width="2.50325" stroke-linecap="round"/>
<path d="M87.8789 303.426H137.635" stroke="#333333" stroke-width="2.50325" stroke-linecap="round"/>
<path opacity="0.65" d="M20.9541 82.7368L24.4387 72.7285H27.1181L30.5888 82.7368H28.3537L27.5971 80.4282H23.9598L23.2032 82.7368H20.9541ZM27.0695 78.8107L25.8131 74.9817H25.7437L24.4873 78.8107H27.0695ZM31.5851 72.7285H33.6675V81.0227H37.999V82.7368H31.5851V72.7285ZM39.2034 72.7285H43.2017C43.9236 72.7285 44.5345 72.8373 45.0343 73.0534C45.5341 73.2703 45.9089 73.572 46.1588 73.9587C46.4133 74.346 46.5382 74.7932 46.5337 75.2996C46.5382 75.8664 46.374 76.3368 46.0408 76.7099C45.7076 77.0786 45.2703 77.3225 44.7289 77.4421V77.5393C45.1129 77.5579 45.4739 77.668 45.8117 77.8713C46.1496 78.074 46.4202 78.3571 46.6239 78.7212C46.8321 79.0803 46.9362 79.4972 46.9362 79.972C46.9316 80.5112 46.7951 80.988 46.5267 81.403C46.2629 81.8173 45.8696 82.1448 45.3467 82.3842C44.8284 82.619 44.2013 82.7368 43.4655 82.7368H39.2034V72.7285ZM43.049 81.0227C43.6321 81.0272 44.0648 80.9191 44.3471 80.6978C44.634 80.4765 44.7751 80.1702 44.7705 79.7784C44.7705 79.4972 44.7034 79.2488 44.5692 79.032C44.435 78.8158 44.2407 78.6472 43.9861 78.5276C43.7362 78.4034 43.4424 78.341 43.1045 78.341H41.2859V81.0227H43.049ZM42.8963 76.9171C43.1878 76.9216 43.4493 76.8708 43.6807 76.7653C43.9167 76.6591 44.0995 76.5092 44.2291 76.3162C44.3587 76.1225 44.4235 75.8941 44.4235 75.6316C44.4281 75.2629 44.2985 74.9682 44.0347 74.7469C43.771 74.5256 43.4053 74.4149 42.938 74.4149H41.2859V76.9171H42.8963ZM56.4288 72.7285V79.2257C56.4288 79.9489 56.2553 80.5871 55.9082 81.1405C55.5611 81.6932 55.0729 82.1217 54.4436 82.426C53.8142 82.7252 53.0877 82.8751 52.264 82.8751C51.4402 82.8751 50.7137 82.7252 50.0843 82.426C49.4596 82.1217 48.9737 81.6932 48.6266 81.1405C48.2842 80.5871 48.1129 79.9489 48.1129 79.2257V72.7285H50.1954V79.0597C50.1954 79.4425 50.281 79.7854 50.4523 80.0898C50.6281 80.3889 50.8711 80.6238 51.1811 80.7943C51.4958 80.9648 51.8567 81.0504 52.264 81.0504C52.6758 81.0504 53.0391 80.9648 53.3538 80.7943C53.6685 80.6238 53.9091 80.3889 54.0757 80.0898C54.2469 79.7854 54.3325 79.4425 54.3325 79.0597V72.7285H56.4288ZM60.5626 72.7285L63.3531 79.5158H63.4641L66.2546 72.7285H68.8367V82.7368H66.8096V76.1843H66.7269L64.1028 82.6956H62.7144L60.0906 76.1566H60.0073V82.7368H57.9804V72.7285H60.5626Z" fill="#333333"/>
<path d="M225.437 77.9093H221.268V79.0971H224.312V82.2299H217.361V79.0971H220.393V77.9093H216.236V77.1739H225.437V77.9093ZM217.1 72.6392H224.562V73.374H223.006V75.4888H224.528V76.2243H217.133V75.4888H218.656V73.374H217.1V72.6392ZM223.437 81.506V79.7984H218.247V81.506H223.437ZM222.12 75.4888V73.374H219.542V75.4888H222.12ZM229.788 73.8719C229.788 74.2638 229.892 74.6485 230.1 75.0256C230.308 75.3988 230.599 75.7301 230.974 76.0203C231.353 76.3111 231.782 76.5331 232.264 76.6882L231.82 77.3888C231.249 77.2042 230.747 76.9256 230.315 76.5524C229.888 76.1792 229.564 75.7475 229.344 75.2572C229.117 75.8003 228.778 76.2809 228.328 76.6991C227.881 77.1141 227.364 77.4229 226.777 77.6269L226.334 76.9256C226.823 76.7557 227.26 76.5125 227.646 76.1959C228.036 75.8794 228.341 75.5172 228.56 75.1099C228.78 74.7032 228.89 74.2863 228.89 73.8604V73.5779H226.607V72.8425H232.048V73.5779H229.788V73.8719ZM228.106 78.011H234.649V80.4199H229.015V81.5401H235.035V82.2524H228.129V79.7418H233.763V78.7348H228.106V78.011ZM231.729 74.5617H233.763V72.311H234.649V77.5136H233.763V75.2971H231.729V74.5617ZM244.974 82.3656H244.122V72.311H244.974V82.3656ZM236.216 79.6852C236.675 79.4136 237.072 79.0424 237.409 78.5708C237.746 78.0959 238.003 77.5664 238.181 76.9822C238.359 76.3941 238.446 75.7945 238.443 75.1839V74.2335H236.5V73.4988H241.157V74.2335H239.306V75.1839C239.306 75.7681 239.391 76.3375 239.561 76.8915C239.736 77.4454 239.986 77.9473 240.311 78.3958C240.64 78.8442 241.032 79.1987 241.487 79.4587L240.941 80.115C240.453 79.8248 240.035 79.4233 239.686 78.9105C239.338 78.3938 239.073 77.8096 238.891 77.1572C238.706 77.8662 238.431 78.4994 238.068 79.0572C237.708 79.6118 237.28 80.0429 236.784 80.3524L236.216 79.6852ZM240.385 75.9412H242.089V72.56H242.929V81.8451H242.089V76.665H240.385V75.9412ZM249.699 72.9667C250.222 72.9705 250.687 73.0722 251.096 73.2723C251.509 73.4685 251.831 73.7452 252.062 74.1036C252.297 74.462 252.414 74.8705 252.414 75.3306C252.414 75.7456 252.317 76.1207 252.124 76.4559C251.935 76.7879 251.668 77.0575 251.324 77.2647C250.982 77.4718 250.589 77.6024 250.142 77.6552V79.3686C251.278 79.312 252.27 79.2174 253.118 79.0855L253.186 79.7418C252.474 79.8737 251.736 79.9715 250.971 80.0358C250.206 80.0995 249.498 80.1394 248.847 80.1542C248.196 80.1696 247.439 80.1787 246.575 80.1825L246.451 79.4362C247.639 79.4362 248.571 79.4252 249.245 79.4021V77.6552C248.794 77.6024 248.396 77.4718 248.052 77.2647C247.711 77.0536 247.446 76.7821 247.257 76.4501C247.068 76.1187 246.973 75.7456 246.973 75.3306C246.973 74.8705 247.088 74.4639 247.319 74.1094C247.551 73.751 247.872 73.4724 248.285 73.2723C248.701 73.0722 249.173 72.9705 249.699 72.9667ZM247.848 75.3306C247.848 75.6362 247.925 75.9096 248.08 76.1509C248.239 76.3922 248.459 76.5807 248.74 76.7165C249.023 76.8484 249.343 76.914 249.699 76.914C250.051 76.914 250.367 76.8484 250.648 76.7165C250.927 76.5807 251.145 76.3922 251.3 76.1509C251.46 75.9096 251.539 75.6362 251.539 75.3306C251.539 75.0217 251.46 74.7463 251.3 74.5051C251.145 74.2638 250.927 74.0772 250.648 73.9453C250.367 73.8134 250.051 73.7471 249.699 73.7471C249.343 73.7471 249.023 73.8134 248.74 73.9453C248.459 74.0772 248.239 74.2638 248.08 74.5051C247.925 74.7463 247.848 75.0217 247.848 75.3306ZM253.788 72.311H254.674V82.3881H253.788V72.311Z" fill="#7C7C7C"/>
<path d="M210.656 72.1201H204.194C202.945 72.1201 201.933 73.1283 201.933 74.3721V80.8062C201.933 82.0499 202.945 83.0581 204.194 83.0581H210.656C211.905 83.0581 212.918 82.0499 212.918 80.8062V74.3721C212.918 73.1283 211.905 72.1201 210.656 72.1201Z" fill="white" stroke="#DDDDDD" stroke-width="0.750974"/>
<path opacity="0.65" d="M253.303 331.094H24.5529C22.4116 331.094 20.6758 332.823 20.6758 334.955V362.621C20.6758 364.753 22.4116 366.482 24.5529 366.482H253.303C255.444 366.482 257.18 364.753 257.18 362.621V334.955C257.18 332.823 255.444 331.094 253.303 331.094Z" fill="#333333"/>
<path d="M130.556 345.8H127.376V350.194C128.186 350.187 128.871 350.164 129.43 350.123C129.989 350.084 130.553 350.01 131.121 349.902L131.233 350.686C130.61 350.804 129.994 350.884 129.385 350.928C128.779 350.968 128.025 350.988 127.123 350.988H126.406V345.006H130.556V345.8ZM130.041 347.389H132.555V344.172H133.514V353.2H132.555V348.183H130.041V347.389ZM143.073 352.064H134.794V351.269H138.439V349.42H135.743V344.785H136.703V346.334H141.145V344.785H142.094V349.42H139.388V351.269H143.073V352.064ZM141.145 348.646V347.108H136.703V348.646H141.145ZM151.148 353.18H150.179V344.172H151.148V353.18ZM143.717 350.767C144.902 350.204 145.802 349.519 146.418 348.711C147.034 347.904 147.389 346.967 147.483 345.901H144.151V345.137H148.452C148.452 346.531 148.117 347.769 147.448 348.852C146.782 349.934 145.706 350.831 144.222 351.541L143.717 350.767Z" fill="white"/>
</g>
</g>
<path d="M263.646 387.069H14.2179C12.0767 387.069 10.3408 388.798 10.3408 390.93V418.596C10.3408 420.729 12.0767 422.457 14.2179 422.457H263.646C265.787 422.457 267.523 420.729 267.523 418.596V390.93C267.523 388.798 265.787 387.069 263.646 387.069Z" fill="url(#paint0_linear_3245_28514)"/>
<mask id="mask2_3245_28514" style="mask-type:luminance" maskUnits="userSpaceOnUse" x="19" y="397" width="15" height="15">
<path d="M33.6028 397.686H19.3867V411.841H33.6028V397.686Z" fill="white"/>
</mask>
<g mask="url(#mask2_3245_28514)">
<path d="M33.3074 406.532C32.8361 406.532 32.3841 406.345 32.0508 406.014C31.7176 405.682 31.5304 405.231 31.5304 404.762C31.5304 404.293 31.7176 403.843 32.0508 403.511C32.3841 403.18 32.8361 402.993 33.3074 402.993V400.929C33.3074 400.773 33.245 400.622 33.1339 400.511C33.0228 400.401 32.8721 400.339 32.715 400.339H20.276C20.1189 400.339 19.9682 400.401 19.8571 400.511C19.746 400.622 19.6836 400.773 19.6836 400.929V402.993C20.1549 402.993 20.6069 403.18 20.9402 403.511C21.2734 403.843 21.4606 404.293 21.4606 404.762C21.4606 405.231 21.2734 405.682 20.9402 406.014C20.6069 406.345 20.1549 406.532 19.6836 406.532V408.596C19.6836 408.752 19.746 408.903 19.8571 409.013C19.9682 409.123 20.1189 409.186 20.276 409.186H32.715C32.8721 409.186 33.0228 409.123 33.1339 409.013C33.245 408.903 33.3074 408.752 33.3074 408.596V406.532Z" fill="white" stroke="white" stroke-width="1.25162" stroke-linecap="round" stroke-linejoin="round"/>
<path d="M24.127 407.121L28.8657 402.403" stroke="#FFB23D" stroke-width="1.25162" stroke-linecap="round" stroke-linejoin="round"/>
<path d="M23.834 402.995C23.834 403.23 23.9276 403.454 24.0942 403.62C24.2609 403.786 24.4868 403.88 24.7225 403.88C24.9582 403.88 25.1841 403.786 25.3508 403.62C25.5174 403.454 25.611 403.23 25.611 402.995C25.611 402.76 25.5174 402.536 25.3508 402.37C25.1841 402.204 24.9582 402.11 24.7225 402.11C24.4868 402.11 24.2609 402.204 24.0942 402.37C23.9276 402.536 23.834 402.76 23.834 402.995Z" fill="#FFB43C"/>
<path d="M27.3838 406.533C27.3838 406.767 27.4774 406.992 27.644 407.158C27.8107 407.324 28.0366 407.417 28.2723 407.417C28.508 407.417 28.7339 407.324 28.9006 407.158C29.0672 406.992 29.1608 406.767 29.1608 406.533C29.1608 406.298 29.0672 406.073 28.9006 405.907C28.7339 405.741 28.508 405.648 28.2723 405.648C28.0366 405.648 27.8107 405.741 27.644 405.907C27.4774 406.073 27.3838 406.298 27.3838 406.533Z" fill="#FFB43C"/>
</g>
<path d="M46.2269 403.054H47.5394V403.848H46.2269V406.894H45.2677V400.159H46.2269V403.054ZM39.1289 401.205H41.3502V400.149H42.3094V401.205H44.5206V401.979H39.1289V401.205ZM39.6236 404.11C39.6236 403.771 39.7145 403.473 39.8963 403.215C40.0814 402.957 40.3405 402.759 40.6737 402.622C41.0069 402.481 41.3906 402.411 41.8247 402.411C42.2555 402.411 42.6358 402.481 42.9656 402.622C43.2988 402.759 43.5563 402.957 43.738 403.215C43.9232 403.473 44.0157 403.771 44.0157 404.11C44.0157 404.445 43.9232 404.74 43.738 404.994C43.5563 405.249 43.2988 405.447 42.9656 405.588C42.6358 405.728 42.2555 405.799 41.8247 405.799C41.3906 405.799 41.0069 405.728 40.6737 405.588C40.3405 405.447 40.0814 405.249 39.8963 404.994C39.7145 404.74 39.6236 404.445 39.6236 404.11ZM40.492 406.362H41.4512V408.191H46.6105V408.965H40.492V406.362ZM40.5525 404.11C40.5492 404.301 40.5996 404.469 40.704 404.613C40.8083 404.753 40.9547 404.862 41.1432 404.939C41.3351 405.016 41.5571 405.055 41.8095 405.055C42.2 405.055 42.5147 404.971 42.7536 404.803C42.9926 404.636 43.1137 404.405 43.1171 404.11C43.1137 403.815 42.9943 403.582 42.7587 403.411C42.5231 403.237 42.2117 403.148 41.8247 403.145C41.5689 403.145 41.3435 403.185 41.1482 403.265C40.9564 403.343 40.8083 403.455 40.704 403.602C40.5996 403.746 40.5492 403.915 40.5525 404.11ZM55.4932 405.507H54.534V403.225H52.8478V402.441H54.534V400.149H55.4932V405.507ZM47.951 404.693C48.4087 404.532 48.8092 404.301 49.1525 403.999C49.4957 403.695 49.7583 403.347 49.94 402.959C50.1251 402.567 50.216 402.163 50.2126 401.747V401.546H48.2539V400.772H53.1305V401.546H51.192V401.737C51.1886 402.12 51.2744 402.49 51.4495 402.848C51.6245 403.207 51.8769 403.527 52.2067 403.808C52.5366 404.086 52.9252 404.301 53.3729 404.452L52.8781 405.206C52.3801 405.035 51.9459 404.78 51.5757 404.442C51.2088 404.1 50.9245 403.701 50.7225 403.246C50.524 403.754 50.2294 404.202 49.8391 404.588C49.4486 404.973 48.9876 405.263 48.4558 405.457L47.951 404.693ZM49.4049 407.458C49.4049 407.102 49.526 406.799 49.7684 406.548C50.014 406.293 50.3658 406.099 50.8235 405.965C51.2846 405.828 51.8314 405.759 52.4642 405.759C53.0935 405.759 53.6371 405.828 54.0948 405.965C54.5525 406.099 54.9042 406.293 55.1499 406.548C55.3989 406.799 55.5235 407.102 55.5235 407.458C55.5235 407.813 55.3989 408.116 55.1499 408.368C54.9042 408.622 54.5525 408.816 54.0948 408.951C53.6371 409.088 53.0935 409.157 52.4642 409.157C51.8314 409.157 51.2846 409.088 50.8235 408.951C50.3658 408.816 50.014 408.622 49.7684 408.368C49.526 408.116 49.4049 407.813 49.4049 407.458ZM50.354 407.458C50.3506 407.762 50.534 407.999 50.9042 408.166C51.2778 408.33 51.7978 408.41 52.4642 408.402C53.1238 408.41 53.6388 408.33 54.009 408.166C54.3825 407.999 54.571 407.762 54.5744 407.458C54.571 407.156 54.3859 406.921 54.019 406.754C53.6556 406.586 53.1474 406.502 52.4945 406.502C51.8146 406.502 51.2863 406.585 50.9093 406.749C50.5357 406.913 50.3506 407.149 50.354 407.458ZM61.9224 401.737H61.0641V404.563C61.4983 404.532 61.9156 404.492 62.3161 404.442L62.3767 405.155C61.5622 405.283 60.6956 405.37 59.7768 405.417C58.8614 405.46 57.9005 405.484 56.8942 405.487L56.7831 404.703C57.0053 404.703 57.3755 404.7 57.8938 404.693V401.737H57.0356V400.963H61.9224V401.737ZM58.1563 406.151H59.1155V408.191H64.2749V408.965H58.1563V406.151ZM58.8227 404.673C59.4082 404.653 59.8424 404.636 60.1251 404.622V401.737H58.8227V404.673ZM62.932 400.159H63.8912V402.823H65.2035V403.627H63.8912V406.784H62.932V400.159ZM75.558 409.157H74.5887V400.149H75.558V409.157ZM68.1268 406.744C69.3113 406.181 70.2121 405.496 70.8279 404.688C71.4437 403.881 71.7985 402.944 71.8928 401.878H68.5611V401.114H72.8621C72.8621 402.508 72.5274 403.746 71.8579 404.829C71.1911 405.911 70.1158 406.807 68.6315 407.518L68.1268 406.744ZM82.553 401.637H77.2012V400.923H79.3925V400.088H80.3514V400.923H82.553V401.637ZM76.9085 405.206C77.8778 405.206 78.7056 405.194 79.3925 405.171V404.597C78.8607 404.541 78.4419 404.397 78.1356 404.165C77.8326 403.934 77.6827 403.641 77.6859 403.285C77.6859 403.011 77.7751 402.771 77.9534 402.567C78.1356 402.362 78.3909 402.206 78.7211 402.099C79.0506 401.989 79.4364 401.935 79.8771 401.938C80.3113 401.935 80.6932 401.989 81.0228 402.099C81.3562 402.206 81.6153 402.362 81.8002 402.567C81.9856 402.771 82.078 403.011 82.078 403.285C82.0748 403.641 81.9184 403.934 81.6089 404.165C81.2987 404.397 80.88 404.541 80.3514 404.597V405.135C81.2095 405.091 81.9972 405.025 82.7145 404.934L82.7849 405.598C81.9132 405.742 81.0047 405.837 80.0587 405.884C79.1165 405.928 78.1104 405.95 77.0397 405.95L76.9085 405.206ZM78.2112 406.603H84.37V409.157H83.4111V407.347H78.2112V406.603ZM78.5951 403.285C78.5983 403.493 78.7127 403.657 78.9382 403.778C79.1669 403.899 79.4732 403.959 79.8571 403.959C80.2506 403.959 80.5653 403.899 80.8012 403.778C81.0396 403.657 81.1591 403.493 81.1591 403.285C81.1591 403.068 81.0415 402.897 80.8057 402.773C80.5737 402.645 80.2642 402.585 79.8771 402.592C79.4868 402.585 79.1754 402.644 78.9434 402.767C78.714 402.892 78.5983 403.064 78.5951 403.285ZM83.4111 400.169H84.37V406.201H83.4111V400.169ZM93.2428 406.754H92.2832V403.366H90.5566V402.592H92.2832V400.159H93.2428V406.754ZM85.7102 404.874C86.1651 404.72 86.5619 404.495 86.9018 404.2C87.2449 403.902 87.5079 403.56 87.6895 403.175C87.8711 402.789 87.9622 402.39 87.9622 401.979V401.627H86.0036V400.842H90.8797V401.627H88.9412V401.979C88.9379 402.354 89.0239 402.721 89.199 403.08C89.3773 403.438 89.6313 403.758 89.9615 404.039C90.291 404.321 90.6781 404.536 91.122 404.683L90.6277 405.447C90.1295 405.273 89.6953 405.015 89.325 404.673C88.9547 404.331 88.6691 403.932 88.4669 403.477C88.2685 403.979 87.9738 404.42 87.5835 404.799C87.1965 405.177 86.737 405.46 86.2052 405.648L85.7102 404.874ZM87.3664 406.161H88.3253V408.191H93.4851V408.965H87.3664V406.161ZM98.6521 400.299C99.3318 400.299 99.9121 400.359 100.394 400.476C100.875 400.593 101.243 400.769 101.499 401.003C101.755 401.235 101.883 401.516 101.883 401.848C101.883 402.183 101.755 402.468 101.499 402.702C101.243 402.933 100.875 403.11 100.394 403.23C99.9121 403.347 99.3318 403.406 98.6521 403.406C97.9723 403.406 97.3901 403.347 96.9054 403.23C96.424 403.11 96.0557 402.933 95.7998 402.702C95.5471 402.468 95.4211 402.183 95.4211 401.848C95.4211 401.516 95.5471 401.235 95.7998 401.003C96.0557 400.769 96.424 400.593 96.9054 400.476C97.3901 400.359 97.9723 400.299 98.6521 400.299ZM94.5326 403.959H102.781V404.723H94.5326V403.959ZM95.5219 405.417H101.741V407.528H96.4712V408.332H101.994V409.066H95.5323V406.834H100.792V406.131H95.5219V405.417ZM96.4208 401.848C96.4175 402.126 96.6075 402.337 96.9914 402.481C97.3745 402.622 97.9283 402.692 98.6521 402.692C99.3822 402.692 99.9393 402.622 100.323 402.481C100.707 402.337 100.897 402.126 100.894 401.848C100.897 401.58 100.703 401.372 100.313 401.225C99.9257 401.077 99.3719 401.003 98.6521 401.003C97.9348 401.003 97.3829 401.077 96.9959 401.225C96.6088 401.372 96.4175 401.58 96.4208 401.848ZM112.893 402.23H114.216V403.014H112.893V405.075H111.934V400.119H112.893V402.23ZM105.796 400.913H108.017V400.068H108.976V400.913H111.187V401.667H105.796V400.913ZM106.29 403.487C106.29 403.188 106.38 402.928 106.558 402.708C106.74 402.483 106.997 402.311 107.33 402.19C107.663 402.069 108.05 402.009 108.492 402.009C108.932 402.009 109.317 402.069 109.648 402.19C109.977 402.311 110.231 402.481 110.409 402.702C110.592 402.924 110.682 403.185 110.682 403.487C110.682 403.788 110.592 404.05 110.409 404.27C110.231 404.492 109.977 404.661 109.648 404.778C109.317 404.896 108.932 404.954 108.492 404.954C108.05 404.954 107.663 404.896 107.33 404.778C106.997 404.661 106.74 404.492 106.558 404.27C106.38 404.05 106.29 403.788 106.29 403.487ZM107.047 405.497H112.893V407.589H108.007V408.342H113.207V409.066H107.068V406.915H111.944V406.211H107.047V405.497ZM107.219 403.487C107.216 403.728 107.328 403.917 107.557 404.054C107.787 404.192 108.097 404.261 108.492 404.261C108.882 404.261 109.193 404.192 109.425 404.054C109.661 403.917 109.781 403.728 109.784 403.487C109.781 403.246 109.661 403.054 109.425 402.914C109.193 402.769 108.882 402.695 108.492 402.692C108.097 402.695 107.787 402.769 107.557 402.914C107.328 403.054 107.216 403.246 107.219 403.487ZM122.12 406.704H121.16V400.159H122.12V406.704ZM114.8 402.994C114.8 402.569 114.906 402.186 115.118 401.848C115.329 401.51 115.619 401.245 115.986 401.053C116.352 400.859 116.761 400.762 117.212 400.762C117.664 400.762 118.071 400.859 118.434 401.053C118.801 401.245 119.089 401.51 119.298 401.848C119.51 402.186 119.616 402.569 119.616 402.994C119.616 403.426 119.51 403.813 119.298 404.155C119.089 404.494 118.801 404.758 118.434 404.949C118.071 405.14 117.664 405.236 117.212 405.236C116.761 405.236 116.352 405.14 115.986 404.949C115.619 404.758 115.329 404.494 115.118 404.155C114.906 403.813 114.8 403.426 114.8 402.994ZM115.739 402.994C115.739 403.272 115.801 403.518 115.925 403.733C116.053 403.944 116.23 404.108 116.455 404.225C116.681 404.343 116.933 404.402 117.212 404.402C117.488 404.402 117.738 404.343 117.959 404.225C118.182 404.108 118.357 403.944 118.485 403.733C118.613 403.518 118.677 403.272 118.677 402.994C118.677 402.722 118.613 402.481 118.485 402.27C118.357 402.056 118.182 401.89 117.959 401.773C117.738 401.655 117.488 401.596 117.212 401.596C116.933 401.596 116.681 401.655 116.455 401.773C116.23 401.89 116.053 402.056 115.925 402.27C115.801 402.481 115.739 402.722 115.739 402.994ZM116.203 406.04H117.172V408.191H122.392V408.965H116.203V406.04ZM130.497 403.738H131.901V404.532H130.497V409.146H129.538V400.149H130.497V403.738ZM123.46 406.744C124.591 406.181 125.464 405.494 126.08 404.683C126.699 403.872 127.058 402.941 127.155 401.888H123.914V401.094H128.135C128.128 402.468 127.793 403.703 127.13 404.799C126.467 405.891 125.422 406.787 123.995 407.488L123.46 406.744ZM140.561 408.081H132.282V407.276H135.927V405.698H133.292V402.833H138.603V401.566H133.271V400.782H139.552V403.597H134.241V404.914H139.764V405.698H136.876V407.276H140.561V408.081ZM148.119 405.146H143.888V400.943H148.119V405.146ZM147.18 404.391V401.717H144.827V404.391H147.18ZM144.908 406.111H145.867V408.191H151.027V408.965H144.908V406.111ZM149.684 400.138H150.643V402.833H151.955V403.637H150.643V406.744H149.684V400.138ZM160.818 404.472H159.414V409.146H158.455V400.149H159.414V403.688H160.818V404.472ZM152.71 401.024H153.659V406.09C155.043 406.084 156.382 405.95 157.678 405.689L157.789 406.493C157.055 406.636 156.333 406.739 155.623 406.799C154.913 406.86 154.191 406.888 153.458 406.885H152.71V401.024ZM169.479 408.031H161.199V407.237H163.178V404.884C162.798 404.676 162.503 404.413 162.295 404.095C162.086 403.776 161.984 403.419 161.987 403.024C161.987 402.558 162.128 402.148 162.411 401.793C162.694 401.438 163.087 401.163 163.592 400.968C164.1 400.77 164.676 400.672 165.318 400.672C165.961 400.672 166.537 400.77 167.045 400.968C167.554 401.163 167.949 401.438 168.231 401.793C168.518 402.148 168.661 402.558 168.661 403.024C168.661 403.416 168.56 403.77 168.357 404.085C168.156 404.397 167.87 404.656 167.499 404.864V407.237H169.479V408.031ZM162.916 403.024C162.916 403.343 163.017 403.623 163.218 403.864C163.421 404.105 163.703 404.292 164.067 404.427C164.43 404.557 164.847 404.622 165.318 404.622C165.786 404.622 166.202 404.555 166.566 404.422C166.933 404.287 167.218 404.101 167.424 403.864C167.629 403.623 167.732 403.343 167.732 403.024C167.732 402.706 167.629 402.428 167.424 402.19C167.218 401.948 166.933 401.762 166.566 401.632C166.202 401.501 165.786 401.436 165.318 401.436C164.847 401.436 164.43 401.501 164.067 401.632C163.703 401.762 163.421 401.948 163.218 402.19C163.017 402.428 162.916 402.706 162.916 403.024ZM166.53 407.237V405.236C166.153 405.323 165.749 405.367 165.318 405.367C164.895 405.367 164.497 405.323 164.128 405.236V407.237H166.53ZM171.607 406.201H170.607L170.516 401.024H171.697L171.607 406.201ZM170.395 407.669C170.395 407.538 170.427 407.417 170.491 407.307C170.555 407.196 170.64 407.109 170.748 407.045C170.86 406.979 170.98 406.945 171.112 406.945C171.239 406.945 171.357 406.977 171.465 407.04C171.576 407.104 171.663 407.191 171.727 407.302C171.795 407.412 171.829 407.531 171.829 407.659C171.829 407.786 171.795 407.905 171.727 408.016C171.663 408.123 171.576 408.21 171.465 408.277C171.357 408.341 171.239 408.372 171.112 408.372C170.984 408.372 170.864 408.341 170.754 408.277C170.646 408.213 170.558 408.128 170.491 408.02C170.427 407.913 170.395 407.796 170.395 407.669Z" fill="white"/>
<path d="M223.211 403.638H224.665V404.442H223.211V409.157H222.252V400.149H223.211V403.638ZM216.507 400.903H217.456V403.216H219.849V400.903H220.798V407.016H216.507V400.903ZM219.849 406.232V403.97H217.456V406.232H219.849ZM233.275 408.081H224.996V407.277H228.64V405.699H226.005V402.834H231.316V401.567H225.985V400.783H232.265V403.598H226.954V404.915H232.477V405.699H229.59V407.277H233.275V408.081ZM240.875 403.738H242.279V404.533H240.875V409.147H239.916V400.149H240.875V403.738ZM233.838 406.744C234.969 406.181 235.842 405.494 236.458 404.684C237.078 403.873 237.436 402.941 237.533 401.889H234.292V401.095H238.513C238.506 402.468 238.171 403.704 237.508 404.799C236.845 405.892 235.8 406.788 234.373 407.488L233.838 406.744ZM250.182 409.157H249.213V400.149H250.182V409.157ZM242.751 406.744C243.936 406.181 244.836 405.496 245.451 404.689C246.067 403.881 246.423 402.944 246.517 401.879H243.185V401.115H247.486C247.486 402.509 247.152 403.747 246.481 404.83C245.815 405.912 244.74 406.808 243.256 407.518L242.751 406.744Z" fill="white"/>
<path d="M255.246 401.545L258.477 404.762L255.246 407.979" stroke="white" stroke-width="1.87743" stroke-linecap="round" stroke-linejoin="round"/>
</g>
<rect x="283.333" y="259.084" width="172.724" height="289.125" transform="rotate(90 283.333 259.084)" fill="url(#paint1_linear_3245_28514)"/>
<rect width="172.724" height="289.125" transform="matrix(-4.37114e-08 -1 -1 4.37114e-08 283.125 4.81006)" fill="url(#paint2_linear_3245_28514)"/>
</g>
<defs>
<filter id="filter0_d_3245_28514" x="-100.681" y="-59.8099" width="479.22" height="547.603" filterUnits="userSpaceOnUse" color-interpolation-filters="sRGB">
<feFlood flood-opacity="0" result="BackgroundImageFix"/>
<feColorMatrix in="SourceAlpha" type="matrix" values="0 0 0 0 0 0 0 0 0 0 0 0 0 0 0 0 0 0 127 0" result="hardAlpha"/>
<feOffset/>
<feGaussianBlur stdDeviation="24.657"/>
<feComposite in2="hardAlpha" operator="out"/>
<feColorMatrix type="matrix" values="0 0 0 0 0 0 0 0 0 0 0 0 0 0 0 0 0 0 0.12 0"/>
<feBlend mode="normal" in2="BackgroundImageFix" result="effect1_dropShadow_3245_28514"/>
<feBlend mode="normal" in="SourceGraphic" in2="effect1_dropShadow_3245_28514" result="shape"/>
</filter>
<linearGradient id="paint0_linear_3245_28514" x1="10.3408" y1="404.763" x2="267.523" y2="404.763" gradientUnits="userSpaceOnUse">
<stop stop-color="#FFB937"/>
<stop offset="1" stop-color="#FF46A0"/>
</linearGradient>
<linearGradient id="paint1_linear_3245_28514" x1="387.452" y1="403.647" x2="283.333" y2="403.647" gradientUnits="userSpaceOnUse">
<stop stop-color="white"/>
<stop offset="1" stop-color="white" stop-opacity="0"/>
</linearGradient>
<linearGradient id="paint2_linear_3245_28514" x1="104.119" y1="144.562" x2="0" y2="144.562" gradientUnits="userSpaceOnUse">
<stop stop-color="white"/>
<stop offset="1" stop-color="white" stop-opacity="0"/>
</linearGradient>
<clipPath id="clip0_3245_28514">
<rect width="278" height="463" fill="white"/>
</clipPath>
</defs>
</svg>
