<svg width="278" height="400" viewBox="0 0 278 400" fill="none" xmlns="http://www.w3.org/2000/svg">
<g opacity="0.8" clip-path="url(#clip0_3245_28429)">
<mask id="mask0_3245_28429" style="mask-type:luminance" maskUnits="userSpaceOnUse" x="0" y="10" width="278" height="453">
<path d="M277.863 10.084H0.00292969V462.992H277.863V10.084Z" fill="white"/>
</mask>
<g mask="url(#mask0_3245_28429)">
<path d="M13.7067 29.0907C13.7067 29.4897 13.801 29.8751 13.9894 30.2469C14.1813 30.6156 14.4455 30.9405 14.7821 31.2224C15.1219 31.5035 15.5073 31.7178 15.9381 31.8658L15.504 32.4886C15.0093 32.3078 14.5734 32.0414 14.1964 31.6895C13.8229 31.3343 13.5368 30.9219 13.3382 30.4528C13.1464 30.9824 12.8569 31.445 12.4699 31.84C12.0829 32.2357 11.6269 32.5356 11.1018 32.7402L10.6777 32.1064C11.122 31.9423 11.5141 31.7062 11.854 31.398C12.1939 31.0898 12.4581 30.7327 12.6466 30.3274C12.8351 29.9182 12.9293 29.4864 12.9293 29.0303V28.1057H13.7067V29.0907ZM11.8692 34.9316C11.8692 34.5932 11.9887 34.3037 12.2276 34.0624C12.4666 33.8172 12.8098 33.6313 13.2574 33.5039C13.7051 33.3765 14.2351 33.3134 14.8477 33.3134C15.4602 33.3134 15.9869 33.3765 16.4278 33.5039C16.8721 33.6313 17.212 33.8172 17.4476 34.0624C17.6865 34.3037 17.806 34.5932 17.806 34.9316C17.806 35.2771 17.6882 35.5699 17.4526 35.8112C17.217 36.0563 16.8771 36.2422 16.4329 36.3696C15.9886 36.4964 15.4602 36.5601 14.8477 36.5601C14.2318 36.5601 13.7 36.4964 13.2524 36.3696C12.8081 36.2422 12.4666 36.0563 12.2276 35.8112C11.9887 35.5667 11.8692 35.2733 11.8692 34.9316ZM12.6668 34.9316C12.6634 35.1394 12.7493 35.3189 12.9243 35.4695C13.0993 35.6201 13.35 35.7359 13.6764 35.8163C14.0063 35.8967 14.3967 35.9373 14.8477 35.9373C15.2987 35.9373 15.6874 35.8967 16.0138 35.8163C16.3437 35.7359 16.5961 35.6201 16.7711 35.4695C16.9495 35.3189 17.0387 35.1394 17.0387 34.9316C17.0387 34.7309 16.9495 34.5565 16.7711 34.4092C16.5961 34.258 16.3437 34.1441 16.0138 34.0669C15.684 33.9864 15.2953 33.9466 14.8477 33.9466C14.4 33.9466 14.0113 33.9864 13.6815 34.0669C13.3517 34.1473 13.0993 34.2612 12.9243 34.4092C12.7493 34.5565 12.6634 34.7309 12.6668 34.9316ZM16.9377 27.6431H17.7252V29.9754H19.0782V30.6388H17.7252V33.0818H16.9377V27.6431ZM27.7185 32.6192H24.013V33.675H26.7189V36.4597H20.5398V33.675H23.2356V32.6192H19.5402V31.9661H27.7185V32.6192ZM20.3075 27.9345H26.9411V28.5882H25.5578V30.4683H26.9108V31.1213H20.3378V30.4683H21.6908V28.5882H20.3075V27.9345ZM25.9415 35.8163V34.2985H21.3273V35.8163H25.9415ZM24.7703 30.4683V28.5882H22.4783V30.4683H24.7703Z" fill="#929292"/>
<path opacity="0.65" d="M31.0196 34.9652L33.5539 32.4218C33.8601 32.1066 34.094 31.8518 34.2556 31.6575C34.4171 31.4599 34.54 31.2688 34.6241 31.0848C34.7116 30.897 34.7553 30.6994 34.7553 30.4916C34.7553 30.2568 34.6965 30.0509 34.5787 29.8733C34.4609 29.6957 34.2993 29.558 34.094 29.4609C33.8887 29.3637 33.6582 29.3155 33.4024 29.3155C33.1332 29.3155 32.8976 29.3689 32.6957 29.4763C32.4971 29.5831 32.3423 29.7343 32.2312 29.9286C32.1235 30.1197 32.0697 30.3443 32.0697 30.6023H31.0196C31.0163 30.1667 31.1172 29.7813 31.3225 29.4461C31.5278 29.1108 31.8139 28.8509 32.1807 28.6669C32.5476 28.4822 32.9615 28.3902 33.4227 28.3902C33.8837 28.3902 34.2943 28.481 34.6544 28.6618C35.0179 28.8393 35.3006 29.0858 35.5025 29.401C35.7078 29.7157 35.8122 30.0695 35.8155 30.4614C35.8122 30.7393 35.7583 31.0076 35.654 31.2656C35.5496 31.5204 35.3713 31.8055 35.1189 32.1201C34.8664 32.4315 34.5097 32.8137 34.0486 33.266L32.5644 34.7645V34.8243H35.9367V35.7695H31.0196V34.9652ZM39.66 35.8699C39.1618 35.8699 38.7142 35.7862 38.3171 35.6189C37.9233 35.451 37.612 35.2168 37.3831 34.9151C37.1577 34.6101 37.0382 34.2613 37.0247 33.8695H38.1555C38.169 34.0773 38.2413 34.2614 38.3726 34.4222C38.5072 34.5798 38.6856 34.7021 38.9077 34.7896C39.1298 34.8732 39.3773 34.9151 39.6498 34.9151C39.9427 34.9151 40.2035 34.8662 40.4324 34.769C40.6645 34.6686 40.8463 34.5277 40.9775 34.3469C41.1088 34.1661 41.1744 33.9602 41.1744 33.7286C41.1744 33.4873 41.1088 33.2744 40.9775 33.0903C40.8497 32.9025 40.6612 32.7571 40.4121 32.6528C40.1631 32.546 39.8686 32.492 39.5287 32.492H38.9027V31.5873H39.5287C39.8046 31.5873 40.0486 31.5404 40.2607 31.4464C40.4761 31.3493 40.6427 31.2135 40.7605 31.0391C40.8816 30.8654 40.9422 30.6621 40.9422 30.4311C40.9422 30.2098 40.89 30.0155 40.7857 29.8482C40.6814 29.6803 40.5333 29.5497 40.3414 29.4564C40.1496 29.3624 39.9258 29.3155 39.67 29.3155C39.4244 29.3155 39.1938 29.3586 38.9784 29.4461C38.7664 29.5329 38.5947 29.659 38.4635 29.8231C38.3322 29.984 38.2632 30.1699 38.2565 30.3809H37.1862C37.1964 29.9955 37.3124 29.652 37.5346 29.3502C37.76 29.0452 38.0613 28.8091 38.4382 28.6418C38.8152 28.4739 39.2292 28.3902 39.6801 28.3902C40.148 28.3902 40.5586 28.479 40.912 28.6566C41.2653 28.8342 41.5379 29.0755 41.7298 29.3804C41.9216 29.6822 42.0158 30.0123 42.0125 30.3706C42.0158 30.7799 41.9014 31.1267 41.6692 31.4117C41.437 31.6961 41.1206 31.8891 40.7201 31.9895V32.0397C41.0499 32.0866 41.3326 32.1889 41.5682 32.3466C41.8072 32.5003 41.9872 32.6998 42.1084 32.9443C42.2329 33.1894 42.2952 33.4642 42.2952 33.7691C42.2952 34.1674 42.1807 34.5277 41.9519 34.8494C41.7264 35.1679 41.4117 35.4176 41.0078 35.5983C40.6073 35.7798 40.158 35.8699 39.66 35.8699ZM45.8973 35.8699C45.4429 35.8699 45.0306 35.7843 44.6604 35.6138C44.2902 35.4426 43.9957 35.2046 43.777 34.8996C43.5582 34.5946 43.4404 34.2517 43.4236 33.8695H44.5039C44.5241 34.0741 44.5981 34.2581 44.7261 34.4222C44.854 34.5831 45.0205 34.7104 45.2258 34.8044C45.4311 34.8983 45.655 34.9453 45.8973 34.9453C46.1901 34.9453 46.4509 34.8797 46.6798 34.7491C46.912 34.6184 47.0937 34.4389 47.2249 34.2112C47.3562 33.9802 47.4218 33.7222 47.4218 33.4371C47.4218 33.1457 47.3546 32.8845 47.2199 32.6528C47.0853 32.4186 46.8985 32.2359 46.6595 32.1053C46.4206 31.9708 46.1497 31.9026 45.8468 31.8987C45.2275 31.8987 44.8001 32.1136 44.5645 32.5422H43.5145L43.989 28.4912H48.1286V29.4358H44.9078L44.6655 31.4767H44.7361C44.891 31.3293 45.0896 31.2122 45.3319 31.1247C45.5776 31.0347 45.8367 30.9877 46.1093 30.9838C46.5636 30.9838 46.9725 31.09 47.336 31.301C47.6995 31.5088 47.9839 31.7971 48.1892 32.1651C48.3978 32.5306 48.5022 32.9443 48.5022 33.4069C48.5022 33.8792 48.3911 34.3032 48.169 34.6789C47.9469 35.0508 47.6373 35.3423 47.2401 35.5533C46.8463 35.7644 46.3987 35.8699 45.8973 35.8699ZM57.0112 36.624H56.0925V31.9489H54.9717V36.1916H54.0732V27.8575H54.9717V31.1749H56.0925V27.6162H57.0112V36.624ZM49.2368 34.0503C50.2061 33.5008 50.9297 32.8523 51.4076 32.1053C51.8855 31.3576 52.1632 30.5051 52.2406 29.5464H49.6205V28.7621H53.1745C53.1711 30.0457 52.912 31.1871 52.3971 32.1857C51.8821 33.1843 51.0139 34.0271 49.7922 34.7137L49.2368 34.0503Z" fill="#333333"/>
<path opacity="0.65" d="M60.0977 29.0117L63.3286 32.2288L60.0977 35.4458" stroke="#333333" stroke-width="1.25162" stroke-linecap="round" stroke-linejoin="round"/>
<path d="M260.092 35.7689C260.092 35.9464 259.947 36.0906 259.769 36.0906C259.591 36.0906 259.446 35.9464 259.446 35.7689H259.769H260.092ZM259.54 27.8202C259.667 27.6947 259.871 27.6947 259.998 27.8202L262.054 29.8675C262.18 29.9936 262.18 30.1969 262.054 30.323C261.927 30.4485 261.723 30.4485 261.596 30.323L259.769 28.5028L257.942 30.323C257.815 30.4485 257.611 30.4485 257.484 30.323C257.358 30.1969 257.358 29.9936 257.484 29.8675L259.54 27.8202ZM259.769 35.7689H259.446V28.0479H259.769H260.092V35.7689H259.769Z" fill="#B5B5B5"/>
<path d="M265.262 28.0478C265.262 27.8702 265.117 27.7261 264.939 27.7261C264.761 27.7261 264.616 27.8702 264.616 28.0478H264.939H265.262ZM264.71 35.9965C264.837 36.1219 265.041 36.1219 265.168 35.9965L267.224 33.9491C267.35 33.823 267.35 33.6197 267.224 33.4936C267.097 33.3681 266.893 33.3681 266.766 33.4936L264.939 35.3138L263.112 33.4936C262.985 33.3681 262.781 33.3681 262.654 33.4936C262.528 33.6197 262.528 33.823 262.654 33.9491L264.71 35.9965ZM264.939 28.0478H264.616V35.7687H264.939H265.262V28.0478H264.939Z" fill="#B5B5B5"/>
<g filter="url(#filter0_d_3245_28429)">
<mask id="mask1_3245_28429" style="mask-type:luminance" maskUnits="userSpaceOnUse" x="10" y="51" width="258" height="326">
<path d="M262.351 51.209H15.5074C12.6524 51.209 10.3379 53.5135 10.3379 56.3563V371.627C10.3379 374.47 12.6524 376.775 15.5074 376.775H262.351C265.206 376.775 267.52 374.47 267.52 371.627V56.3563C267.52 53.5135 265.206 51.209 262.351 51.209Z" fill="white"/>
</mask>
<g mask="url(#mask1_3245_28429)">
<path d="M262.351 51.209H15.5074C12.6524 51.209 10.3379 53.5135 10.3379 56.3563V371.627C10.3379 374.47 12.6524 376.775 15.5074 376.775H262.351C265.206 376.775 267.52 374.47 267.52 371.627V56.3563C267.52 53.5135 265.206 51.209 262.351 51.209Z" fill="white"/>
<path d="M29.7235 64.7192H10.3379V100.107H29.7235V64.7192Z" fill="white"/>
<path d="M266.874 64.7192H257.827V100.107H266.874V64.7192Z" fill="white"/>
<path d="M87.8789 303.426H189.33" stroke="#EFEFEF" stroke-width="2.50325" stroke-linecap="round"/>
<path d="M87.8789 303.426H137.635" stroke="#333333" stroke-width="2.50325" stroke-linecap="round"/>
<path opacity="0.65" d="M20.9541 82.7368L24.4387 72.7285H27.1181L30.5888 82.7368H28.3537L27.5971 80.4282H23.9598L23.2032 82.7368H20.9541ZM27.0695 78.8107L25.8131 74.9817H25.7437L24.4873 78.8107H27.0695ZM31.5851 72.7285H33.6675V81.0227H37.999V82.7368H31.5851V72.7285ZM39.2034 72.7285H43.2017C43.9236 72.7285 44.5345 72.8373 45.0343 73.0534C45.5341 73.2703 45.9089 73.572 46.1588 73.9587C46.4133 74.346 46.5382 74.7932 46.5337 75.2996C46.5382 75.8664 46.374 76.3368 46.0408 76.7099C45.7076 77.0786 45.2703 77.3225 44.7289 77.4421V77.5393C45.1129 77.5579 45.4739 77.668 45.8117 77.8713C46.1496 78.074 46.4202 78.3571 46.6239 78.7212C46.8321 79.0803 46.9362 79.4972 46.9362 79.972C46.9316 80.5112 46.7951 80.988 46.5267 81.403C46.2629 81.8173 45.8696 82.1448 45.3467 82.3842C44.8284 82.619 44.2013 82.7368 43.4655 82.7368H39.2034V72.7285ZM43.049 81.0227C43.6321 81.0272 44.0648 80.9191 44.3471 80.6978C44.634 80.4765 44.7751 80.1702 44.7705 79.7784C44.7705 79.4972 44.7034 79.2488 44.5692 79.032C44.435 78.8158 44.2407 78.6472 43.9861 78.5276C43.7362 78.4034 43.4424 78.341 43.1045 78.341H41.2859V81.0227H43.049ZM42.8963 76.9171C43.1878 76.9216 43.4493 76.8708 43.6807 76.7653C43.9167 76.6591 44.0995 76.5092 44.2291 76.3162C44.3587 76.1225 44.4235 75.8941 44.4235 75.6316C44.4281 75.2629 44.2985 74.9682 44.0347 74.7469C43.771 74.5256 43.4053 74.4149 42.938 74.4149H41.2859V76.9171H42.8963ZM56.4288 72.7285V79.2257C56.4288 79.9489 56.2553 80.5871 55.9082 81.1405C55.5611 81.6932 55.0729 82.1217 54.4436 82.426C53.8142 82.7252 53.0877 82.8751 52.264 82.8751C51.4402 82.8751 50.7137 82.7252 50.0843 82.426C49.4596 82.1217 48.9737 81.6932 48.6266 81.1405C48.2842 80.5871 48.1129 79.9489 48.1129 79.2257V72.7285H50.1954V79.0597C50.1954 79.4425 50.281 79.7854 50.4523 80.0898C50.6281 80.3889 50.8711 80.6238 51.1811 80.7943C51.4958 80.9648 51.8567 81.0504 52.264 81.0504C52.6758 81.0504 53.0391 80.9648 53.3538 80.7943C53.6685 80.6238 53.9091 80.3889 54.0757 80.0898C54.2469 79.7854 54.3325 79.4425 54.3325 79.0597V72.7285H56.4288ZM60.5626 72.7285L63.3531 79.5158H63.4641L66.2546 72.7285H68.8367V82.7368H66.8096V76.1843H66.7269L64.1028 82.6956H62.7144L60.0906 76.1566H60.0073V82.7368H57.9804V72.7285H60.5626Z" fill="#333333"/>
<path d="M225.437 77.9093H221.268V79.0971H224.312V82.2299H217.361V79.0971H220.393V77.9093H216.236V77.1739H225.437V77.9093ZM217.1 72.6392H224.562V73.374H223.006V75.4888H224.528V76.2243H217.133V75.4888H218.656V73.374H217.1V72.6392ZM223.437 81.506V79.7984H218.247V81.506H223.437ZM222.12 75.4888V73.374H219.542V75.4888H222.12ZM229.788 73.8719C229.788 74.2638 229.892 74.6485 230.1 75.0256C230.308 75.3988 230.599 75.7301 230.974 76.0203C231.353 76.3111 231.782 76.5331 232.264 76.6882L231.82 77.3888C231.249 77.2042 230.747 76.9256 230.315 76.5524C229.888 76.1792 229.564 75.7475 229.344 75.2572C229.117 75.8003 228.778 76.2809 228.328 76.6991C227.881 77.1141 227.364 77.4229 226.777 77.6269L226.334 76.9256C226.823 76.7557 227.26 76.5125 227.646 76.1959C228.036 75.8794 228.341 75.5172 228.56 75.1099C228.78 74.7032 228.89 74.2863 228.89 73.8604V73.5779H226.607V72.8425H232.048V73.5779H229.788V73.8719ZM228.106 78.011H234.649V80.4199H229.015V81.5401H235.035V82.2524H228.129V79.7418H233.763V78.7348H228.106V78.011ZM231.729 74.5617H233.763V72.311H234.649V77.5136H233.763V75.2971H231.729V74.5617ZM244.974 82.3656H244.122V72.311H244.974V82.3656ZM236.216 79.6852C236.675 79.4136 237.072 79.0424 237.409 78.5708C237.746 78.0959 238.003 77.5664 238.181 76.9822C238.359 76.3941 238.446 75.7945 238.443 75.1839V74.2335H236.5V73.4988H241.157V74.2335H239.306V75.1839C239.306 75.7681 239.391 76.3375 239.561 76.8915C239.736 77.4454 239.986 77.9473 240.311 78.3958C240.64 78.8442 241.032 79.1987 241.487 79.4587L240.941 80.115C240.453 79.8248 240.035 79.4233 239.686 78.9105C239.338 78.3938 239.073 77.8096 238.891 77.1572C238.706 77.8662 238.431 78.4994 238.068 79.0572C237.708 79.6118 237.28 80.0429 236.784 80.3524L236.216 79.6852ZM240.385 75.9412H242.089V72.56H242.929V81.8451H242.089V76.665H240.385V75.9412ZM249.699 72.9667C250.222 72.9705 250.687 73.0722 251.096 73.2723C251.509 73.4685 251.831 73.7452 252.062 74.1036C252.297 74.462 252.414 74.8705 252.414 75.3306C252.414 75.7456 252.317 76.1207 252.124 76.4559C251.935 76.7879 251.668 77.0575 251.324 77.2647C250.982 77.4718 250.589 77.6024 250.142 77.6552V79.3686C251.278 79.312 252.27 79.2174 253.118 79.0855L253.186 79.7418C252.474 79.8737 251.736 79.9715 250.971 80.0358C250.206 80.0995 249.498 80.1394 248.847 80.1542C248.196 80.1696 247.439 80.1787 246.575 80.1825L246.451 79.4362C247.639 79.4362 248.571 79.4252 249.245 79.4021V77.6552C248.794 77.6024 248.396 77.4718 248.052 77.2647C247.711 77.0536 247.446 76.7821 247.257 76.4501C247.068 76.1187 246.973 75.7456 246.973 75.3306C246.973 74.8705 247.088 74.4639 247.319 74.1094C247.551 73.751 247.872 73.4724 248.285 73.2723C248.701 73.0722 249.173 72.9705 249.699 72.9667ZM247.848 75.3306C247.848 75.6362 247.925 75.9096 248.08 76.1509C248.239 76.3922 248.459 76.5807 248.74 76.7165C249.023 76.8484 249.343 76.914 249.699 76.914C250.051 76.914 250.367 76.8484 250.648 76.7165C250.927 76.5807 251.145 76.3922 251.3 76.1509C251.46 75.9096 251.539 75.6362 251.539 75.3306C251.539 75.0217 251.46 74.7463 251.3 74.5051C251.145 74.2638 250.927 74.0772 250.648 73.9453C250.367 73.8134 250.051 73.7471 249.699 73.7471C249.343 73.7471 249.023 73.8134 248.74 73.9453C248.459 74.0772 248.239 74.2638 248.08 74.5051C247.925 74.7463 247.848 75.0217 247.848 75.3306ZM253.788 72.311H254.674V82.3881H253.788V72.311Z" fill="#7C7C7C"/>
<path d="M210.656 72.1201H204.194C202.945 72.1201 201.933 73.1283 201.933 74.3721V80.8062C201.933 82.0499 202.945 83.0581 204.194 83.0581H210.656C211.905 83.0581 212.918 82.0499 212.918 80.8062V74.3721C212.918 73.1283 211.905 72.1201 210.656 72.1201Z" fill="white" stroke="#DDDDDD" stroke-width="0.750974"/>
</g>
</g>
<path d="M263.646 387.069H14.2179C12.0767 387.069 10.3408 388.798 10.3408 390.93V418.596C10.3408 420.729 12.0767 422.457 14.2179 422.457H263.646C265.787 422.457 267.523 420.729 267.523 418.596V390.93C267.523 388.798 265.787 387.069 263.646 387.069Z" fill="url(#paint0_linear_3245_28429)"/>
<mask id="mask2_3245_28429" style="mask-type:luminance" maskUnits="userSpaceOnUse" x="19" y="397" width="15" height="15">
<path d="M33.6028 397.686H19.3867V411.841H33.6028V397.686Z" fill="white"/>
</mask>
<g mask="url(#mask2_3245_28429)">
<path d="M33.3074 406.532C32.8361 406.532 32.3841 406.345 32.0508 406.014C31.7176 405.682 31.5304 405.231 31.5304 404.762C31.5304 404.293 31.7176 403.843 32.0508 403.511C32.3841 403.18 32.8361 402.993 33.3074 402.993V400.929C33.3074 400.773 33.245 400.622 33.1339 400.511C33.0228 400.401 32.8721 400.339 32.715 400.339H20.276C20.1189 400.339 19.9682 400.401 19.8571 400.511C19.746 400.622 19.6836 400.773 19.6836 400.929V402.993C20.1549 402.993 20.6069 403.18 20.9402 403.511C21.2734 403.843 21.4606 404.293 21.4606 404.762C21.4606 405.231 21.2734 405.682 20.9402 406.014C20.6069 406.345 20.1549 406.532 19.6836 406.532V408.596C19.6836 408.752 19.746 408.903 19.8571 409.013C19.9682 409.123 20.1189 409.186 20.276 409.186H32.715C32.8721 409.186 33.0228 409.123 33.1339 409.013C33.245 408.903 33.3074 408.752 33.3074 408.596V406.532Z" fill="white" stroke="white" stroke-width="1.25162" stroke-linecap="round" stroke-linejoin="round"/>
</g>
</g>
<rect x="283.333" y="259.084" width="172.724" height="289.125" transform="rotate(90 283.333 259.084)" fill="url(#paint1_linear_3245_28429)"/>
<rect width="172.724" height="289.125" transform="matrix(-4.37114e-08 -1 -1 4.37114e-08 283.125 4.81006)" fill="url(#paint2_linear_3245_28429)"/>
</g>
<defs>
<filter id="filter0_d_3245_28429" x="-100.681" y="-59.8099" width="479.22" height="547.603" filterUnits="userSpaceOnUse" color-interpolation-filters="sRGB">
<feFlood flood-opacity="0" result="BackgroundImageFix"/>
<feColorMatrix in="SourceAlpha" type="matrix" values="0 0 0 0 0 0 0 0 0 0 0 0 0 0 0 0 0 0 127 0" result="hardAlpha"/>
<feOffset/>
<feGaussianBlur stdDeviation="24.657"/>
<feComposite in2="hardAlpha" operator="out"/>
<feColorMatrix type="matrix" values="0 0 0 0 0 0 0 0 0 0 0 0 0 0 0 0 0 0 0.12 0"/>
<feBlend mode="normal" in2="BackgroundImageFix" result="effect1_dropShadow_3245_28429"/>
<feBlend mode="normal" in="SourceGraphic" in2="effect1_dropShadow_3245_28429" result="shape"/>
</filter>
<linearGradient id="paint0_linear_3245_28429" x1="10.3408" y1="404.763" x2="267.523" y2="404.763" gradientUnits="userSpaceOnUse">
<stop stop-color="#FFB937"/>
<stop offset="1" stop-color="#FF46A0"/>
</linearGradient>
<linearGradient id="paint1_linear_3245_28429" x1="387.452" y1="403.647" x2="283.333" y2="403.647" gradientUnits="userSpaceOnUse">
<stop stop-color="white"/>
<stop offset="1" stop-color="white" stop-opacity="0"/>
</linearGradient>
<linearGradient id="paint2_linear_3245_28429" x1="104.119" y1="144.562" x2="0" y2="144.562" gradientUnits="userSpaceOnUse">
<stop stop-color="white"/>
<stop offset="1" stop-color="white" stop-opacity="0"/>
</linearGradient>
<clipPath id="clip0_3245_28429">
<rect width="278" height="400" fill="white"/>
</clipPath>
</defs>
</svg>
