<svg width="10" height="17" viewBox="0 0 10 17" fill="none" xmlns="http://www.w3.org/2000/svg">
<path d="M4.05727 3.90839C4.57214 3.36387 5.42786 3.36387 5.94273 3.90839L6.48435 4.4812C6.70173 4.71111 6.99284 4.85394 7.3048 4.88376L8.08205 4.95806C8.82091 5.02868 9.35445 5.71033 9.25761 6.45996L9.15575 7.24854C9.11487 7.56504 9.18677 7.88599 9.35839 8.15308L9.78598 8.81853C10.1925 9.45112 10.002 10.3011 9.36643 10.6914L8.69779 11.1019C8.42943 11.2667 8.22797 11.5241 8.13002 11.8273L7.88597 12.5828C7.65398 13.301 6.883 13.6793 6.18723 13.4163L5.45532 13.1396C5.16156 13.0286 4.83844 13.0286 4.54468 13.1396L3.81277 13.4163C3.117 13.6793 2.34602 13.301 2.11403 12.5828L1.86998 11.8273C1.77203 11.5241 1.57058 11.2667 1.30221 11.1019L0.633574 10.6914C-0.00204122 10.3011 -0.192459 9.45112 0.214019 8.81853L0.641612 8.15308C0.813233 7.88599 0.885132 7.56504 0.844248 7.24854L0.742386 6.45996C0.645555 5.71033 1.17909 5.02868 1.91795 4.95806L2.6952 4.88376C3.00716 4.85394 3.29827 4.71111 3.51566 4.4812L4.05727 3.90839Z" fill="white"/>
<path d="M4.37093 9.49961L6.54834 7.32219C6.59973 7.27081 6.65968 7.24512 6.72819 7.24512C6.7967 7.24512 6.85665 7.27081 6.90803 7.32219C6.95942 7.37358 6.98511 7.43464 6.98511 7.50538C6.98511 7.57612 6.95942 7.63709 6.90803 7.68831L4.55077 10.052C4.49939 10.1034 4.43944 10.1291 4.37093 10.1291C4.30242 10.1291 4.24247 10.1034 4.19108 10.052L3.08632 8.94723C3.03493 8.89584 3.01027 8.83486 3.01233 8.7643C3.01438 8.69373 3.04119 8.63267 3.09274 8.58111C3.1443 8.52956 3.20536 8.50386 3.27593 8.50403C3.3465 8.50421 3.40747 8.5299 3.45886 8.58111L4.37093 9.49961Z" fill="black" stroke="black" stroke-width="0.3"/>
</svg>
