<svg width="28" height="27" viewBox="0 0 28 27" fill="none" xmlns="http://www.w3.org/2000/svg">
<rect width="28" height="27" rx="13.5" fill="#DFDFDF" fill-opacity="0.6"/>
<path fill-rule="evenodd" clip-rule="evenodd" d="M8.09366 12.9667C8.14053 9.66 10.7923 7.00001 14.0487 7.00001C15.0682 6.99839 16.0711 7.26456 16.9615 7.77309C17.8519 8.28162 18.6002 9.01552 19.1348 9.90467C19.1987 10.0174 19.2171 10.1513 19.186 10.2778C19.155 10.4042 19.0769 10.5132 18.9685 10.5816C18.8601 10.6499 18.7299 10.6722 18.6057 10.6436C18.4815 10.6151 18.373 10.5379 18.3036 10.4287C17.8563 9.68493 17.2303 9.07113 16.4854 8.64592C15.7405 8.22071 14.9015 7.99832 14.0487 8.00001C11.3247 8.00001 9.11817 10.2187 9.07065 12.9653L9.33101 12.7007C9.42293 12.6072 9.54733 12.555 9.67685 12.5555C9.80636 12.556 9.93037 12.6092 10.0216 12.7033C10.1128 12.7975 10.1638 12.9249 10.1633 13.0575C10.1628 13.1902 10.1109 13.3172 10.019 13.4107L8.9255 14.5213C8.83408 14.6141 8.71056 14.6662 8.58183 14.6662C8.4531 14.6662 8.32958 14.6141 8.23816 14.5213L7.14466 13.4107C7.0991 13.3644 7.06288 13.3095 7.03806 13.2489C7.01324 13.1883 7.00031 13.1234 7.00001 13.0577C6.9997 12.992 7.01203 12.9269 7.0363 12.8661C7.06056 12.8053 7.09627 12.75 7.14141 12.7033C7.18654 12.6567 7.2402 12.6196 7.29933 12.5941C7.35846 12.5687 7.4219 12.5555 7.48603 12.5552C7.55016 12.5549 7.61372 12.5675 7.67308 12.5923C7.73244 12.6172 7.78644 12.6538 7.832 12.7L8.09366 12.9667ZM19.0651 12.478C19.1565 12.3854 19.2799 12.3334 19.4085 12.3334C19.537 12.3334 19.6604 12.3854 19.7518 12.478L20.8492 13.5887C20.896 13.6345 20.9335 13.6894 20.9593 13.7503C20.9852 13.8111 20.999 13.8766 21 13.9429C21.0009 14.0093 20.9889 14.0751 20.9647 14.1367C20.9405 14.1982 20.9046 14.2542 20.8591 14.3014C20.8136 14.3486 20.7594 14.3861 20.6996 14.4116C20.6398 14.4371 20.5756 14.4502 20.5109 14.45C20.4461 14.4499 20.382 14.4366 20.3223 14.4108C20.2626 14.3851 20.2085 14.3474 20.1632 14.3L19.8963 14.03C19.8507 17.34 17.1879 20 13.9211 20C12.8991 20.0023 11.8934 19.7367 11 19.2284C10.1065 18.72 9.35493 17.986 8.8168 17.096C8.78313 17.0401 8.76053 16.9779 8.7503 16.9131C8.74007 16.8483 8.74241 16.782 8.75719 16.7181C8.77197 16.6541 8.79889 16.5938 8.83643 16.5406C8.87396 16.4873 8.92137 16.4422 8.97595 16.4077C9.03052 16.3732 9.0912 16.35 9.15451 16.3395C9.21782 16.3291 9.28252 16.3315 9.34493 16.3466C9.40733 16.3617 9.46622 16.3893 9.51822 16.4278C9.57022 16.4662 9.61432 16.5148 9.64799 16.5707C10.0986 17.3155 10.7279 17.9297 11.4758 18.3549C12.2238 18.7802 13.0656 19.0022 13.9211 19C16.6588 19 18.8744 16.778 18.92 14.0313L18.6544 14.3C18.5623 14.3933 18.4378 14.4452 18.3083 14.4445C18.1788 14.4437 18.0549 14.3903 17.9638 14.296C17.8727 14.2017 17.822 14.0742 17.8227 13.9415C17.8235 13.8088 17.8756 13.6819 17.9677 13.5887L19.0651 12.478Z" fill="black"/>
</svg>
