<svg width="32" height="32" viewBox="0 0 32 32" fill="none" xmlns="http://www.w3.org/2000/svg">
<path d="M8.66211 14.5754C8.66211 13.7086 9.36483 13.0059 10.2317 13.0059V13.0059C11.0985 13.0059 11.8012 13.7086 11.8012 14.5754V25.0392C11.8012 25.9061 11.0985 26.6088 10.2317 26.6088V26.6088C9.36483 26.6088 8.66211 25.9061 8.66211 25.0392V14.5754Z" fill="#A1B4BE"/>
<path d="M9 11.001C9 10.2731 9.48065 9.64078 10.1608 9.47392L24.1488 6.04247C25.0942 5.81055 26 6.55776 26 7.56956L26 22.4304C26 23.4432 25.0926 24.1906 24.1466 23.957L10.1586 20.5028C9.47953 20.3351 9 19.7033 9 18.9763L9 11.001Z" fill="#FFB389"/>
<path d="M5 9.86644C5 8.99959 5.70272 8.29688 6.56957 8.29688H8.66232C9.52917 8.29688 10.2319 8.99959 10.2319 9.86644V20.3302C10.2319 21.1971 9.52917 21.8998 8.66232 21.8998H6.56957C5.70272 21.8998 5 21.1971 5 20.3302V9.86644Z" fill="#B8C8D0"/>
</svg>
