<svg width="32" height="32" viewBox="0 0 32 32" fill="none" xmlns="http://www.w3.org/2000/svg">
<g clip-path="url(#clip0_448_4316)">
<path d="M25.6843 19.009L24.8234 18.2815C24.3015 17.8377 24.0143 17.1679 24.0486 16.4739C24.0486 16.3196 24.0486 16.1543 24.0486 16C24.0486 15.8457 24.0486 15.6804 24.0486 15.5261C24.0143 14.8321 24.3015 14.1622 24.8234 13.7185L25.6843 12.991C26.0928 12.6517 26.202 12.0598 25.9426 11.5912L24.6943 9.38683C24.4297 8.92658 23.881 8.72687 23.3922 8.91289L22.3161 9.30968C21.681 9.55277 20.9713 9.47517 20.4006 9.10026C20.1477 8.92126 19.8814 8.76279 19.6043 8.62631C18.9988 8.30825 18.5758 7.71561 18.4636 7.02813L18.2807 5.92594C18.1954 5.3869 17.7377 4.99306 17.2046 5.00009H14.7295C14.1964 4.99306 13.7387 5.3869 13.6534 5.92594L13.4705 7.02813C13.3677 7.70692 12.9619 8.29784 12.3729 8.62631C12.0958 8.76279 11.8295 8.92126 11.5765 9.10026C11.0059 9.47517 10.2961 9.55277 9.66108 9.30968L8.58497 8.91289C8.10239 8.73902 7.56701 8.93717 7.3044 9.38683L6.05612 11.5912C5.7967 12.0598 5.90592 12.6517 6.31439 12.991L7.17527 13.7185C7.69724 14.1622 7.98437 14.8321 7.95007 15.5261C7.95007 15.6804 7.95007 15.8457 7.95007 16C7.95007 16.1543 7.95007 16.3196 7.95007 16.4739C7.98437 17.1679 7.69724 17.8377 7.17527 18.2815L6.31439 19.009C5.90592 19.3483 5.7967 19.9402 6.05612 20.4088L7.3044 22.6132C7.56899 23.0734 8.11768 23.2731 8.60649 23.0871L9.6826 22.6903C10.3177 22.4472 11.0274 22.5248 11.5981 22.8997C11.851 23.0787 12.1173 23.2372 12.3944 23.3737C12.9999 23.6917 13.4229 24.2844 13.5351 24.9719L13.718 26.0741C13.8033 26.6131 14.261 27.0069 14.7941 26.9999H17.2692C17.8023 27.0069 18.26 26.6131 18.3453 26.0741L18.5282 24.9719C18.6404 24.2844 19.0633 23.6917 19.6689 23.3737C19.946 23.2372 20.2122 23.0787 20.4652 22.8997C21.0358 22.5248 21.7456 22.4472 22.3807 22.6903L23.4568 23.0871C23.9266 23.2376 24.4362 23.0425 24.6943 22.6132L25.9426 20.4088C26.202 19.9402 26.0928 19.3483 25.6843 19.009Z" fill="#A1B4BE"/>
<circle cx="16" cy="16" r="5.5" fill="#7E96A3"/>
<circle cx="15.9993" cy="16.0003" r="1.83333" fill="white"/>
</g>
<defs>
<clipPath id="clip0_448_4316">
<rect width="32" height="32" fill="white"/>
</clipPath>
</defs>
</svg>
