<svg width="24" height="23" viewBox="0 0 24 23" fill="none" xmlns="http://www.w3.org/2000/svg">
<path d="M11.5801 0.5C17.6996 0.5 22.661 5.19968 22.6611 10.9971C22.6611 16.7946 17.6997 21.4941 11.5801 21.4941C10.1222 21.4941 8.73102 21.2251 7.45605 20.7402L3.44238 22.4131C3.2433 22.4959 3.01322 22.4423 2.87207 22.2793C2.73099 22.116 2.71037 21.8794 2.82129 21.6943L4.42969 19.0137C2.02691 17.0881 0.5 14.2121 0.5 10.9971C0.500137 5.19981 5.46077 0.500213 11.5801 0.5Z" fill="#E2E9EB"/>
<path d="M11.5801 0.5V0H11.5801L11.5801 0.5ZM22.6611 10.9971H23.1611V10.9971L22.6611 10.9971ZM11.5801 21.4941L11.5801 21.9941H11.5801V21.4941ZM7.45605 20.7402L7.63378 20.2729C7.51421 20.2274 7.38177 20.2295 7.2637 20.2787L7.45605 20.7402ZM3.44238 22.4131L3.63441 22.8747L3.63474 22.8746L3.44238 22.4131ZM2.87207 22.2793L2.49369 22.6061L2.49412 22.6066L2.87207 22.2793ZM2.82129 21.6943L2.39254 21.4371L2.39239 21.4373L2.82129 21.6943ZM4.42969 19.0137L4.85843 19.2709C4.98711 19.0565 4.93753 18.7799 4.74237 18.6235L4.42969 19.0137ZM0.5 10.9971L0 10.9971V10.9971H0.5ZM11.5801 0.5V1C17.4493 1 22.161 5.50098 22.1611 10.9971L22.6611 10.9971L23.1611 10.9971C23.161 4.89837 17.9499 0 11.5801 0V0.5ZM22.6611 10.9971H22.1611C22.1611 16.4933 17.4494 20.9941 11.5801 20.9941V21.4941V21.9941C17.9499 21.9941 23.1611 17.0959 23.1611 10.9971H22.6611ZM11.5801 21.4941L11.5801 20.9941C10.184 20.9941 8.85305 20.7365 7.63378 20.2729L7.45605 20.7402L7.27833 21.2076C8.60899 21.7136 10.0603 21.9941 11.5801 21.9941L11.5801 21.4941ZM7.45605 20.7402L7.2637 20.2787L3.25003 21.9516L3.44238 22.4131L3.63474 22.8746L7.64841 21.2018L7.45605 20.7402ZM3.44238 22.4131L3.25036 21.9514L3.25002 21.9519L2.87207 22.2793L2.49412 22.6066C2.77719 22.9335 3.23732 23.0399 3.63441 22.8747L3.44238 22.4131ZM2.87207 22.2793L3.25045 21.9525C3.25038 21.9524 3.25039 21.9524 3.25043 21.9524C3.25047 21.9525 3.25048 21.9525 3.25047 21.9525C3.25045 21.9524 3.25034 21.9522 3.2503 21.9517C3.25026 21.9512 3.25032 21.951 3.25031 21.951C3.25031 21.951 3.25029 21.9511 3.25024 21.9512C3.25019 21.9513 3.25016 21.9514 3.25019 21.9513L2.82129 21.6943L2.39239 21.4373C2.17038 21.8079 2.21175 22.2797 2.49369 22.6061L2.87207 22.2793ZM2.82129 21.6943L3.25004 21.9516L4.85843 19.2709L4.42969 19.0137L4.00094 18.7564L2.39254 21.4371L2.82129 21.6943ZM4.42969 19.0137L4.74237 18.6235C2.44814 16.7849 1 14.0481 1 10.9971H0.5H0C0 14.376 1.60568 17.3913 4.11701 19.4038L4.42969 19.0137ZM0.5 10.9971L1 10.9971C1.00013 5.50108 5.7111 1.0002 11.5801 1L11.5801 0.5L11.5801 0C5.21043 0.00022158 0.000143647 4.89854 0 10.9971L0.5 10.9971Z" fill="#E2E9EB"/>
<path d="M10.489 13.1144C10.432 11.0535 10.9951 10.3842 12.0393 9.73079C12.7867 9.23785 13.3546 8.70151 13.3269 7.93723C13.2967 7.10649 12.5836 6.58336 11.7304 6.61432C11.2975 6.63002 10.8887 6.78335 10.5953 7.06404C10.101 7.53682 9.60811 8.18861 8.92462 8.21341C8.21191 8.23927 7.58497 7.65455 7.82024 6.98129C8.34355 5.48377 9.86164 4.719 11.6771 4.65313C14.1477 4.56349 15.9514 5.71252 16.0256 7.75613C16.075 9.11854 15.3604 10.0262 14.2108 10.7167C13.2359 11.3178 12.8109 11.8656 12.8353 13.0292C12.8389 13.1302 12.7601 13.215 12.6591 13.2186L10.6784 13.2905C10.5775 13.2942 10.4927 13.2153 10.489 13.1144ZM11.8583 17.0075C11.0229 17.0379 10.3246 16.431 10.3146 15.6661C10.2691 14.9025 10.9223 14.2632 11.7577 14.2329C12.5398 14.2045 13.2553 14.7941 13.283 15.5584C13.3107 16.3227 12.6404 16.9792 11.8583 17.0075Z" fill="#6D838E"/>
</svg>
