<svg width="12" height="14" viewBox="0 0 12 14" fill="none" xmlns="http://www.w3.org/2000/svg">
<path d="M10 13.3333C9.44444 13.3333 8.97222 13.1389 8.58333 12.75C8.19444 12.3611 8 11.8889 8 11.3333C8 11.2667 8.01667 11.1111 8.05 10.8667L3.36667 8.13333C3.18889 8.3 2.98333 8.43067 2.75 8.52533C2.51667 8.62 2.26667 8.66711 2 8.66667C1.44444 8.66667 0.972222 8.47222 0.583333 8.08333C0.194444 7.69444 0 7.22222 0 6.66667C0 6.11111 0.194444 5.63889 0.583333 5.25C0.972222 4.86111 1.44444 4.66667 2 4.66667C2.26667 4.66667 2.51667 4.714 2.75 4.80867C2.98333 4.90333 3.18889 5.03378 3.36667 5.2L8.05 2.46667C8.02778 2.38889 8.014 2.314 8.00867 2.242C8.00333 2.17 8.00044 2.08933 8 2C8 1.44444 8.19444 0.972222 8.58333 0.583333C8.97222 0.194444 9.44444 0 10 0C10.5556 0 11.0278 0.194444 11.4167 0.583333C11.8056 0.972222 12 1.44444 12 2C12 2.55556 11.8056 3.02778 11.4167 3.41667C11.0278 3.80556 10.5556 4 10 4C9.73333 4 9.48333 3.95267 9.25 3.858C9.01667 3.76333 8.81111 3.63289 8.63333 3.46667L3.95 6.2C3.97222 6.27778 3.98622 6.35289 3.992 6.42533C3.99778 6.49778 4.00044 6.57822 4 6.66667C3.99956 6.75511 3.99689 6.83578 3.992 6.90867C3.98711 6.98156 3.97311 7.05644 3.95 7.13333L8.63333 9.86667C8.81111 9.7 9.01667 9.56955 9.25 9.47533C9.48333 9.38111 9.73333 9.33378 10 9.33333C10.5556 9.33333 11.0278 9.52778 11.4167 9.91667C11.8056 10.3056 12 10.7778 12 11.3333C12 11.8889 11.8056 12.3611 11.4167 12.75C11.0278 13.1389 10.5556 13.3333 10 13.3333Z" fill="#333333"/>
</svg>
