<svg width="201" height="48" viewBox="0 0 201 48" fill="none" xmlns="http://www.w3.org/2000/svg">
<path d="M99.6191 0.525879C99.9968 -0.175096 101.003 -0.175096 101.381 0.525879L106.853 10.6821H196C198.761 10.6821 201 12.9209 201 15.6821V42.1216C201 44.8829 198.761 47.1216 196 47.1216H5C2.23865 47.1216 0.000113448 44.8829 0 42.1216V15.6821C0.000235371 12.9209 2.23872 10.6821 5 10.6821H94.1475L99.6191 0.525879Z" fill="url(#paint0_linear_1927_10923)"/>
<path d="M53.7381 30.7183H52.4393V21.7495H53.7381V30.7183ZM43.6482 27.9565C44.2771 27.7241 44.8217 27.3869 45.282 26.9448C45.7423 26.5028 46.0932 25.9946 46.3348 25.4204C46.5809 24.8462 46.7062 24.2515 46.7107 23.6362V22.4194H48.0369V23.6362C48.0369 24.2332 48.1577 24.8029 48.3992 25.3452C48.6408 25.8875 48.9894 26.366 49.4451 26.7808C49.9008 27.1955 50.4386 27.5099 51.0584 27.7241L50.3885 28.7632C49.6867 28.5034 49.0783 28.1252 48.5633 27.6284C48.0529 27.1271 47.6587 26.5415 47.3807 25.8716C47.1072 26.5916 46.7085 27.2228 46.1844 27.7651C45.6648 28.3029 45.0519 28.7085 44.3455 28.9819L43.6482 27.9565ZM45.7264 29.8706H47.0389V32.6733H54.1072V33.7261H45.7264V29.8706ZM59.7641 23.6909C59.7641 24.2241 59.8826 24.7368 60.1196 25.229C60.3611 25.7212 60.7052 26.1564 61.1518 26.5347C61.5984 26.9129 62.1202 27.2 62.7172 27.396L62.02 28.4214C61.3592 28.189 60.7804 27.8449 60.2836 27.3892C59.7914 26.9289 59.4109 26.3934 59.142 25.7827C58.8732 26.48 58.4812 27.0861 57.9663 27.6011C57.4558 28.116 56.8474 28.5034 56.1411 28.7632L55.4438 27.7241C56.0727 27.5008 56.6127 27.1818 57.0639 26.7671C57.5196 26.3524 57.8683 25.8716 58.1098 25.3247C58.3513 24.7733 58.4744 24.1922 58.4789 23.5815V22.3784H59.7641V23.6909ZM57.0981 31.689C57.0981 31.215 57.2621 30.8071 57.5903 30.4653C57.923 30.1235 58.3969 29.8638 59.0121 29.686C59.6319 29.5083 60.3657 29.4194 61.2133 29.4194C62.0473 29.4194 62.7696 29.5083 63.3803 29.686C63.991 29.8638 64.4581 30.1235 64.7817 30.4653C65.1098 30.8071 65.2739 31.215 65.2739 31.689C65.2739 32.1675 65.1098 32.5776 64.7817 32.9194C64.4581 33.2612 63.991 33.5187 63.3803 33.6919C62.7742 33.8696 62.0519 33.9585 61.2133 33.9585C60.3657 33.9585 59.6319 33.8696 59.0121 33.6919C58.3969 33.5187 57.923 33.2612 57.5903 32.9194C57.2621 32.5776 57.0981 32.1675 57.0981 31.689ZM58.3969 31.689C58.3924 32.09 58.6362 32.3976 59.1284 32.6118C59.6251 32.826 60.3201 32.9377 61.2133 32.9468C62.102 32.9377 62.7901 32.826 63.2778 32.6118C63.7654 32.3976 64.0069 32.09 64.0024 31.689C64.0024 31.4292 63.893 31.2059 63.6743 31.019C63.4555 30.8322 63.1365 30.6909 62.7172 30.5952C62.298 30.495 61.7967 30.4448 61.2133 30.4448C60.6254 30.4448 60.1196 30.495 59.6957 30.5952C59.2765 30.6909 58.9552 30.8322 58.7319 31.019C58.5086 31.2059 58.3969 31.4292 58.3969 31.689ZM63.8657 21.7358H65.1645V24.812H66.9418V25.9058H65.1645V29.1323H63.8657V21.7358ZM78.669 28.6401H73.7198V29.9526H77.3018V33.8354H68.8389V29.9526H72.4346V28.6401H67.4991V27.6011H78.669V28.6401ZM68.5245 22.1187H77.6163V23.1714H75.8389V25.5093H77.5616V26.562H68.5792V25.5093H70.3155V23.1714H68.5245V22.1187ZM76.044 32.7827V30.978H70.1241V32.7827H76.044ZM74.5401 25.5093V23.1714H71.6007V25.5093H74.5401ZM89.6032 34.0132H88.3044V21.7358H89.6032V34.0132ZM79.8825 26.9448C79.8825 26.0881 80.017 25.3361 80.2859 24.689C80.5547 24.0373 80.9284 23.536 81.407 23.1851C81.89 22.8296 82.4392 22.6519 83.0544 22.6519C83.6605 22.6519 84.2029 22.8296 84.6814 23.1851C85.1599 23.536 85.5336 24.0373 85.8025 24.689C86.0759 25.3361 86.2126 26.0881 86.2126 26.9448C86.2126 27.8107 86.0759 28.5695 85.8025 29.2212C85.5336 29.8729 85.1599 30.3742 84.6814 30.7251C84.2029 31.076 83.6605 31.2515 83.0544 31.2515C82.4392 31.2515 81.89 31.076 81.407 30.7251C80.9284 30.3742 80.5547 29.8729 80.2859 29.2212C80.017 28.5695 79.8825 27.8107 79.8825 26.9448ZM81.1404 26.9448C81.1404 27.5828 81.2201 28.1388 81.3796 28.6128C81.5391 29.0868 81.7624 29.4513 82.0495 29.7065C82.3412 29.9618 82.6762 30.0894 83.0544 30.0894C83.4281 30.0894 83.7585 29.9618 84.0456 29.7065C84.3327 29.4513 84.556 29.0868 84.7155 28.6128C84.8751 28.1388 84.9548 27.5828 84.9548 26.9448C84.9548 26.3159 84.8751 25.7668 84.7155 25.2974C84.556 24.8234 84.3327 24.4588 84.0456 24.2036C83.7585 23.9438 83.4281 23.814 83.0544 23.814C82.6762 23.814 82.3412 23.9438 82.0495 24.2036C81.7624 24.4588 81.5391 24.8234 81.3796 25.2974C81.2201 25.7668 81.1404 26.3159 81.1404 26.9448ZM105.88 27.7925H94.6963V26.7534H105.88V27.7925ZM96.0361 28.7632H104.458V31.73H97.3213V32.8237H104.8V33.8491H96.0498V30.7729H103.173V29.7612H96.0361V28.7632ZM96.1592 22.0913H104.431V23.144H97.458V24.8257H104.554V25.8647H96.1592V22.0913ZM109.978 22.6519C110.53 22.6519 111.026 22.8022 111.468 23.103C111.91 23.4038 112.268 23.8299 112.542 24.3813C112.82 24.9328 112.991 25.5822 113.054 26.3296H115.584V21.7358H116.869V34.0132H115.584V27.3823H113.068C113.022 28.1707 112.863 28.8566 112.589 29.4399C112.316 30.0233 111.954 30.4722 111.503 30.7866C111.051 31.0965 110.543 31.2515 109.978 31.2515C109.372 31.2515 108.832 31.076 108.358 30.7251C107.889 30.3742 107.522 29.8729 107.257 29.2212C106.998 28.5695 106.87 27.8107 106.875 26.9448C106.87 26.0881 106.998 25.3361 107.257 24.689C107.522 24.0373 107.889 23.536 108.358 23.1851C108.832 22.8296 109.372 22.6519 109.978 22.6519ZM108.105 26.9448C108.105 27.5828 108.183 28.1388 108.338 28.6128C108.497 29.0868 108.718 29.4513 109.001 29.7065C109.283 29.9618 109.609 30.0894 109.978 30.0894C110.347 30.0894 110.673 29.9618 110.956 29.7065C111.238 29.4513 111.457 29.0868 111.612 28.6128C111.771 28.1388 111.851 27.5828 111.851 26.9448C111.851 26.3159 111.771 25.7668 111.612 25.2974C111.452 24.8234 111.231 24.4588 110.949 24.2036C110.671 23.9438 110.347 23.814 109.978 23.814C109.609 23.814 109.283 23.9438 109.001 24.2036C108.723 24.4588 108.504 24.8234 108.344 25.2974C108.185 25.7668 108.105 26.3159 108.105 26.9448ZM128.254 24.9624H130.004V26.0288H128.254V29.1733H126.955V21.7495H128.254V24.9624ZM118.602 27.6968C119.782 27.6968 120.821 27.6831 121.719 27.6558V26.6372C121.231 26.5734 120.803 26.4412 120.434 26.2407C120.065 26.0356 119.78 25.7759 119.579 25.4614C119.383 25.1424 119.285 24.7892 119.285 24.4019C119.285 23.9507 119.411 23.5519 119.661 23.2056C119.917 22.8592 120.274 22.5926 120.735 22.4058C121.199 22.2144 121.733 22.1187 122.334 22.1187C122.927 22.1187 123.453 22.2144 123.913 22.4058C124.378 22.5926 124.741 22.8592 125 23.2056C125.26 23.5519 125.392 23.9507 125.397 24.4019C125.392 24.7847 125.29 25.1333 125.089 25.4478C124.893 25.7576 124.615 26.0151 124.255 26.2202C123.9 26.4207 123.487 26.5552 123.018 26.6235V27.6079C124.285 27.535 125.347 27.4325 126.203 27.3003L126.313 28.23C125.169 28.4351 123.977 28.5695 122.738 28.6333C121.498 28.6925 120.165 28.7222 118.739 28.7222L118.602 27.6968ZM119.012 32.8647C119.527 32.7007 119.964 32.4705 120.324 32.1743C120.689 31.8735 120.963 31.534 121.145 31.1558C121.332 30.7775 121.427 30.3856 121.432 29.98V29.6929H122.69V29.98C122.694 30.5041 122.833 31.0099 123.107 31.4976C123.385 31.9852 123.79 32.384 124.324 32.6938C124.852 32.3794 125.258 31.9761 125.54 31.4839C125.823 30.9917 125.966 30.4904 125.971 29.98V29.6929H127.229V29.98C127.224 30.3947 127.315 30.7912 127.502 31.1694C127.694 31.5477 127.972 31.8849 128.336 32.1812C128.705 32.4774 129.152 32.7052 129.676 32.8647L129.033 33.8354C128.45 33.6395 127.951 33.3569 127.536 32.9878C127.126 32.6187 126.812 32.188 126.593 31.6958C126.388 32.2062 126.096 32.6574 125.718 33.0493C125.34 33.4412 124.877 33.7397 124.33 33.9448C123.779 33.7397 123.312 33.4412 122.929 33.0493C122.551 32.6619 122.261 32.2131 122.061 31.7026C121.838 32.1903 121.521 32.6164 121.111 32.981C120.705 33.3501 120.22 33.6349 119.655 33.8354L119.012 32.8647ZM120.502 24.4019C120.498 24.6616 120.571 24.8918 120.721 25.0923C120.871 25.2882 121.086 25.4409 121.364 25.5503C121.646 25.6597 121.97 25.7144 122.334 25.7144C122.694 25.7144 123.011 25.6597 123.284 25.5503C123.562 25.4409 123.779 25.2882 123.934 25.0923C124.089 24.8918 124.166 24.6616 124.166 24.4019C124.166 24.1375 124.089 23.9074 123.934 23.7114C123.783 23.5109 123.572 23.3582 123.298 23.2534C123.025 23.144 122.71 23.0894 122.355 23.0894C121.986 23.0894 121.66 23.144 121.377 23.2534C121.095 23.3582 120.876 23.5086 120.721 23.7046C120.571 23.9006 120.498 24.133 120.502 24.4019ZM133.897 22.6519C134.449 22.6519 134.946 22.8022 135.388 23.103C135.83 23.4038 136.187 23.8299 136.461 24.3813C136.739 24.9328 136.91 25.5822 136.974 26.3296H139.503V21.7358H140.788V34.0132H139.503V27.3823H136.987C136.942 28.1707 136.782 28.8566 136.509 29.4399C136.235 30.0233 135.873 30.4722 135.422 30.7866C134.971 31.0965 134.462 31.2515 133.897 31.2515C133.291 31.2515 132.751 31.076 132.277 30.7251C131.808 30.3742 131.441 29.8729 131.177 29.2212C130.917 28.5695 130.789 27.8107 130.794 26.9448C130.789 26.0881 130.917 25.3361 131.177 24.689C131.441 24.0373 131.808 23.536 132.277 23.1851C132.751 22.8296 133.291 22.6519 133.897 22.6519ZM132.024 26.9448C132.024 27.5828 132.102 28.1388 132.257 28.6128C132.416 29.0868 132.637 29.4513 132.92 29.7065C133.202 29.9618 133.528 30.0894 133.897 30.0894C134.267 30.0894 134.592 29.9618 134.875 29.7065C135.157 29.4513 135.376 29.0868 135.531 28.6128C135.691 28.1388 135.77 27.5828 135.77 26.9448C135.77 26.3159 135.691 25.7668 135.531 25.2974C135.372 24.8234 135.151 24.4588 134.868 24.2036C134.59 23.9438 134.267 23.814 133.897 23.814C133.528 23.814 133.202 23.9438 132.92 24.2036C132.642 24.4588 132.423 24.8234 132.264 25.2974C132.104 25.7668 132.024 26.3159 132.024 26.9448ZM153.746 32.4546H142.535V31.3745H145.214V28.1753C144.699 27.8927 144.301 27.535 144.018 27.1021C143.736 26.6691 143.597 26.1838 143.601 25.646C143.601 25.0125 143.793 24.4543 144.175 23.9712C144.558 23.4881 145.091 23.1144 145.775 22.8501C146.463 22.5812 147.242 22.4468 148.113 22.4468C148.983 22.4468 149.763 22.5812 150.451 22.8501C151.139 23.1144 151.674 23.4881 152.057 23.9712C152.445 24.4543 152.638 25.0125 152.638 25.646C152.638 26.1792 152.502 26.66 152.228 27.0884C151.955 27.5122 151.567 27.8654 151.066 28.1479V31.3745H153.746V32.4546ZM144.859 25.646C144.859 26.0789 144.996 26.4595 145.269 26.7876C145.543 27.1157 145.925 27.3709 146.418 27.5532C146.91 27.731 147.475 27.8198 148.113 27.8198C148.746 27.8198 149.309 27.7287 149.801 27.5464C150.298 27.3641 150.685 27.1112 150.963 26.7876C151.241 26.4595 151.38 26.0789 151.38 25.646C151.38 25.2131 151.241 24.8348 150.963 24.5112C150.685 24.1831 150.298 23.9302 149.801 23.7524C149.309 23.5747 148.746 23.4858 148.113 23.4858C147.475 23.4858 146.91 23.5747 146.418 23.7524C145.925 23.9302 145.543 24.1831 145.269 24.5112C144.996 24.8348 144.859 25.2131 144.859 25.646ZM149.753 31.3745V28.6538C149.243 28.7723 148.696 28.8315 148.113 28.8315C147.539 28.8315 147.001 28.7723 146.5 28.6538V31.3745H149.753ZM156.627 29.9663H155.274L155.151 22.9253H156.75L156.627 29.9663ZM154.987 31.9624C154.987 31.7847 155.03 31.6206 155.116 31.4702C155.203 31.3198 155.319 31.2013 155.465 31.1147C155.615 31.0236 155.779 30.978 155.957 30.978C156.13 30.978 156.29 31.0213 156.436 31.1079C156.586 31.1945 156.705 31.313 156.791 31.4634C156.882 31.6138 156.928 31.7756 156.928 31.9487C156.928 32.1219 156.882 32.2837 156.791 32.4341C156.705 32.5799 156.586 32.6984 156.436 32.7896C156.29 32.8761 156.13 32.9194 155.957 32.9194C155.784 32.9194 155.622 32.8761 155.472 32.7896C155.326 32.703 155.208 32.5868 155.116 32.4409C155.03 32.2951 154.987 32.1356 154.987 31.9624Z" fill="white"/>
<defs>
<linearGradient id="paint0_linear_1927_10923" x1="0" y1="21.4189" x2="201" y2="21.4189" gradientUnits="userSpaceOnUse">
<stop offset="0.144231" stop-color="#5BF5AD"/>
<stop offset="1" stop-color="#009DFF"/>
</linearGradient>
</defs>
</svg>
