<svg width="102" height="12" viewBox="0 0 102 12" fill="none" xmlns="http://www.w3.org/2000/svg">
<path d="M41.1306 0.27832C41.6483 0.0880092 42.8374 -0.0266923 43.6891 0.932617L43.8552 1.13965L43.8903 1.18848L43.9128 1.24414C44.0091 1.48081 44.0413 1.84221 43.9841 2.27148C43.9269 2.69972 43.7755 3.23087 43.4704 3.84766C43.43 4.04934 43.3884 4.38662 43.3903 4.78613C43.515 4.3541 43.7149 3.98691 43.9684 3.68164C44.5888 2.93524 45.4642 2.63418 46.0876 2.5791L46.3288 2.56152C48.0403 2.46735 49.1051 3.10181 49.6735 3.79297C49.6783 3.75878 49.6821 3.72496 49.6882 3.69238C49.7656 3.27826 49.9644 2.93783 50.2585 2.7793V2.77832C50.9325 2.39817 51.5307 2.33419 52.0222 2.49023C52.4698 2.63266 52.7669 2.93989 52.9186 3.2168C52.986 3.17818 53.0562 3.1416 53.1227 3.11035C53.3338 3.01129 53.5695 2.92497 53.7233 2.875L53.7458 2.86816L53.7682 2.8623C55.3842 2.50154 56.3682 3.08486 56.6882 3.64941C56.7559 3.75549 56.7971 3.87415 56.8249 3.9873C57.1274 3.50868 57.5 3.19478 57.7849 3.04492V3.0459C58.4406 2.66308 59.1751 2.56585 59.8005 2.58691C60.2749 2.603 60.7119 2.68781 61.0456 2.78516L61.3425 2.88477L61.3766 2.89746L61.4089 2.91602C61.6574 3.05736 61.8658 3.21503 62.0417 3.37891C62.1339 3.18872 62.2734 3.00291 62.4792 2.85449C62.9456 2.51855 63.611 2.4652 64.4577 2.7373L64.5124 2.75488L64.5612 2.78418C64.7627 2.90427 65.0445 3.12603 65.2956 3.42773C65.4719 3.63965 65.6432 3.90598 65.7585 4.2168C65.9046 3.96092 66.0921 3.68044 66.3171 3.43457C66.6686 3.05051 67.2163 2.63139 67.8952 2.71777H67.8942C68.2591 2.75354 68.7667 2.92957 69.112 3.37793C69.4831 3.8602 69.5849 4.5467 69.3054 5.4209L69.2946 5.45215L69.2809 5.48145C69.1639 5.72967 68.946 6.11125 68.6569 6.48438C68.3843 6.83619 68.018 7.21652 67.5837 7.45898C67.3822 7.61964 67.0803 7.88487 66.8161 8.16895C66.6796 8.31575 66.5598 8.46039 66.4704 8.5918C66.381 8.72335 66.3415 8.81498 66.3288 8.86426C66.2977 9.14066 66.2307 9.55249 66.1179 9.9707C66.0014 10.402 65.8207 10.9056 65.5417 11.2617L65.4977 11.3184L65.4391 11.3604C65.1837 11.5428 64.7585 11.7384 64.2682 11.7607C63.7545 11.7839 63.1825 11.6133 62.7057 11.0811L62.6599 11.0303C62.6519 11.0226 62.6425 11.0141 62.6335 11.0049C62.5495 10.9185 62.4441 10.7844 62.3757 10.5859C62.2386 10.1879 62.2927 9.66547 62.6257 8.95898L62.6374 8.9375C62.886 8.47106 63.4576 7.41461 63.6599 7.11328L63.6725 7.09473L63.6843 7.08008C63.6854 7.0781 63.6873 7.07447 63.6891 7.07031C63.6936 7.06037 63.6961 7.05049 63.697 7.04395C63.6973 7.04161 63.698 7.03993 63.6979 7.03906C63.6979 7.03875 63.6976 7.0375 63.697 7.03613C63.696 7.03443 63.6936 7.03108 63.6901 7.02637L63.4411 6.71973C63.206 6.42469 62.9341 6.06415 62.6852 5.70801C62.6631 5.77046 62.6398 5.82935 62.614 5.88281L62.6149 5.88379C62.6139 5.886 62.6121 5.88843 62.611 5.89062C62.6089 5.89498 62.6073 5.90001 62.6052 5.9043L62.6042 5.90332C62.4993 6.12701 62.3396 6.29824 62.1599 6.42969C62.3869 6.6184 62.5534 6.83453 62.6481 7.07812C62.7679 7.38656 62.7542 7.69004 62.6725 7.95312C62.5182 8.4496 62.1188 8.83136 61.8327 9.0332L61.7966 9.05859L61.7565 9.07715C60.308 9.75478 58.7644 9.46503 58.1462 9.22852L58.0934 9.20801L58.0466 9.17676C57.5621 8.8521 57.2039 8.46109 56.9411 8.0625C56.8851 8.30749 56.7792 8.52186 56.6296 8.70117C56.426 8.94479 56.1645 9.0992 55.9089 9.19531C55.4133 9.38142 54.8619 9.37838 54.5026 9.32617C54.1705 9.3063 53.9137 9.13799 53.7468 8.90137C53.5864 8.67372 53.5142 8.39702 53.4802 8.15527C53.4117 7.66809 53.4698 7.11355 53.5388 6.75391C53.5876 6.41267 53.5466 6.23235 53.5163 6.15625C53.5143 6.15125 53.5113 6.14665 53.5095 6.14258C53.1351 6.05892 53.0179 6.13365 53.0095 6.13965C53.0053 6.14301 52.9935 6.15729 52.9958 6.18457C53.1201 7.14695 53.0529 7.84815 52.9831 8.12891L52.9772 8.15039L52.9704 8.1709C52.7922 8.68797 52.4163 8.99087 52.0515 9.15234C51.6981 9.30849 51.3321 9.34476 51.0856 9.3291L51.0729 9.32812C50.3145 9.26025 49.8272 8.90819 49.6257 8.38672C49.6141 8.35679 49.6057 8.32595 49.5964 8.2959C49.23 8.77565 48.7896 9.13139 48.3923 9.29297L48.3405 9.31445L48.2858 9.32324C46.5669 9.60886 45.4361 9.38711 44.6755 8.90039C44.3497 8.69177 44.1106 8.44278 43.9284 8.19629C43.8811 8.37138 43.8052 8.54555 43.6872 8.70605C43.4762 8.99273 43.1645 9.19403 42.7673 9.30273C42.4333 9.41626 41.9073 9.50149 41.3737 9.3877C40.8168 9.26859 40.2472 8.92902 39.9265 8.21289L39.9001 8.15234L39.8893 8.08691C39.8376 7.76279 39.7613 6.94013 39.7946 5.90625C39.6583 5.865 39.472 5.84868 39.2624 5.92383C39.2593 6.086 39.26 6.26733 39.2702 6.43457C39.2788 6.57388 39.293 6.68806 39.3102 6.76758C39.3127 6.77899 39.3159 6.7888 39.3181 6.79688L39.3454 6.82129L39.3884 6.92676C39.5064 7.21305 39.6027 7.67182 39.486 8.13574C39.3593 8.63879 38.9943 9.09077 38.3102 9.30664L38.2858 9.31445L38.2614 9.31934C37.8377 9.40756 37.1786 9.46766 36.5915 9.3291C36.2946 9.25889 35.9798 9.12882 35.7292 8.89258C35.4671 8.64528 35.3058 8.30894 35.2839 7.89746C35.2689 7.61655 35.2874 7.16475 35.3825 6.67188C35.4736 6.20001 35.6414 5.65759 35.944 5.18457C36.015 4.98994 36.1251 4.34516 35.7243 3.58398L35.7116 3.56152L35.7028 3.53809C35.5678 3.20298 35.4295 2.66606 35.4499 2.11133C35.4704 1.55363 35.6582 0.899866 36.2624 0.475586L36.2927 0.455078L36.3249 0.438477C36.591 0.304814 37.0195 0.171472 37.4919 0.177734C37.9154 0.183518 38.3946 0.303262 38.8093 0.651367L38.9831 0.81543L39.0475 0.883789L39.0827 0.970703C39.1892 1.23251 39.3886 1.86456 39.4196 2.50293C39.4789 2.5741 39.5539 2.62874 39.6218 2.64453C39.6607 2.65339 39.7963 2.67277 40.0349 2.45898C40.039 2.15564 40.0748 1.7733 40.1765 1.41699C40.2921 1.01194 40.5501 0.449659 41.1306 0.27832ZM64.0934 3.67285C63.4496 3.47748 63.1697 3.59013 63.0641 3.66602C62.9436 3.75308 62.8884 3.90654 62.8884 4.03613V4.06738C62.8899 4.0738 62.8913 4.08344 62.8952 4.0957C62.9111 4.14561 62.9411 4.21805 62.989 4.3125C63.0844 4.50083 63.2293 4.73467 63.402 4.98926C63.6601 5.36957 63.9642 5.7719 64.2214 6.09473L64.4597 6.3877L64.4636 6.3916V6.39258C64.8754 6.90132 64.6535 7.4411 64.489 7.66992L64.4899 7.6709C64.326 7.91523 63.7973 8.88654 63.5309 9.38574L63.4401 9.5918C63.2632 10.0347 63.3067 10.2182 63.321 10.2598C63.3291 10.2832 63.3387 10.2957 63.3503 10.3076C63.3649 10.3226 63.3621 10.3184 63.3962 10.3506C63.4057 10.3595 63.437 10.3888 63.4665 10.4268C63.4679 10.4286 63.4693 10.4318 63.4714 10.4346C63.7244 10.7058 63.9882 10.7723 64.2233 10.7617C64.4518 10.7512 64.6628 10.6639 64.7985 10.582C64.9314 10.3833 65.0555 10.0713 65.153 9.70996C65.2576 9.32228 65.3184 8.93802 65.3415 8.71094L65.3444 8.68164L65.3503 8.65234C65.401 8.42603 65.5205 8.21092 65.6432 8.03027C65.7704 7.84321 65.9261 7.65779 66.0837 7.48828C66.3988 7.14939 66.7528 6.84014 66.986 6.65625L67.0222 6.62793L67.0641 6.60547C67.3396 6.46181 67.6194 6.18922 67.8659 5.87109C68.0946 5.57586 68.2678 5.27554 68.36 5.08691C68.5581 4.44696 68.4328 4.13622 68.319 3.98828C68.184 3.81303 67.9601 3.72653 67.7897 3.71191L67.7682 3.70996C67.5889 3.68751 67.3437 3.79335 67.0544 4.10938C66.7807 4.40844 66.5627 4.79605 66.4509 5.05566L66.4352 5.09277L66.4128 5.12695C66.2811 5.33275 66.1334 5.51963 65.9587 5.63184C65.8651 5.69182 65.7331 5.7506 65.5739 5.74805C65.4037 5.745 65.2623 5.67332 65.1628 5.58203C64.9958 5.42847 64.9398 5.21685 64.9167 5.1084C64.8933 4.99852 64.8835 4.88489 64.8806 4.78418C64.8348 4.52173 64.6998 4.27617 64.5261 4.06738C64.3713 3.88154 64.2033 3.74623 64.0934 3.67285ZM76.5182 0.15625C77.0653 0.206129 77.5341 0.452595 77.8112 0.670898L77.8542 0.704102L77.8884 0.746094C78.3333 1.28811 78.4174 1.90909 78.3571 2.43066C78.2979 2.94271 78.0978 3.39209 77.9216 3.66406L77.9089 3.68359L77.8952 3.70117C77.8585 3.74832 77.8071 3.85597 77.7692 4.05078C77.7329 4.23795 77.7168 4.46544 77.7165 4.71191C77.7164 4.75313 77.7196 4.79453 77.7204 4.83594C77.8616 4.38414 78.0621 4.02361 78.239 3.79395C78.7219 2.99565 79.5591 2.6899 80.3083 2.60254C80.974 2.52508 81.6436 2.60831 82.1237 2.72363L82.3181 2.77539L82.3513 2.78516L82.3825 2.79883C82.9563 3.05511 83.3688 3.37879 83.6511 3.73242C83.8266 3.4704 84.0822 3.28282 84.3015 3.15723C84.6676 2.94758 85.0808 2.82283 85.363 2.76758C86.4017 2.46889 87.6851 2.64833 88.197 2.76855L88.2614 2.78418L88.319 2.81445C88.9662 3.16131 89.3863 3.59686 89.6501 4.04492C89.7509 3.6065 89.9802 3.2718 90.2184 3.0752L90.2565 3.04297L90.3015 3.01953C91.1458 2.5701 91.886 2.66844 92.4196 2.90918C92.6782 3.02593 92.8908 3.18139 93.0358 3.30273L93.3679 3.19238L93.3923 3.18457L93.4177 3.17871C94.2071 3.00244 94.945 3.20215 95.3288 3.37305C95.3959 3.15068 95.5242 2.97164 95.6813 2.85449L95.6911 2.84668L95.7018 2.83984C95.8677 2.72879 96.0674 2.69461 96.2018 2.67969C96.3545 2.66281 96.5214 2.66242 96.6774 2.66895C96.7559 2.67224 96.8358 2.67699 96.9138 2.68359C96.9294 2.55669 96.9588 2.43557 97.0026 2.32129C97.1196 2.01622 97.3243 1.79647 97.5563 1.64941C97.9845 1.37824 98.5057 1.34996 98.8483 1.38672C99.1717 1.37835 99.4609 1.43604 99.7038 1.57422C99.9643 1.72263 100.134 1.93964 100.235 2.16895C100.329 2.38319 100.364 2.60998 100.366 2.82031C100.704 2.90249 100.974 3.05886 101.177 3.26172C101.454 3.53802 101.58 3.87194 101.61 4.13477C101.681 4.48273 101.668 4.80318 101.557 5.08496C101.442 5.37737 101.24 5.58242 101.015 5.7168C100.602 5.96337 100.102 5.98253 99.777 5.94531V6.44922C99.7906 6.45053 99.8032 6.45397 99.8132 6.4541C100.42 6.4541 100.868 6.65762 101.149 6.99219C101.416 7.30929 101.484 7.68587 101.463 7.95312L101.459 7.99219L101.45 8.03125C101.246 8.86782 100.66 9.30418 100.061 9.49512C99.486 9.67832 98.8777 9.64811 98.486 9.56738V9.56641C97.4364 9.41389 96.7632 9.02385 96.3903 8.50391C96.018 7.98447 95.9989 7.41055 96.113 7.01953L96.1247 6.98145L96.1413 6.94629C96.3645 6.47275 96.449 6.10159 96.4714 5.84375C96.4799 5.74485 96.4765 5.66661 96.4724 5.60742C96.3584 5.55065 96.2546 5.48455 96.1618 5.41211C96.1155 5.69738 95.9261 5.89986 95.737 6.02051C95.5162 6.16122 95.2408 6.2378 94.9929 6.28418C94.4854 6.37901 93.8879 6.38158 93.4958 6.35742L93.4792 6.35645L93.4636 6.35449C93.3889 6.345 93.3434 6.34767 93.32 6.35156C93.3123 6.38572 93.3082 6.44578 93.319 6.53027C93.3275 6.59594 93.3445 6.66242 93.363 6.72168C93.7571 7.2316 93.8606 7.74267 93.7263 8.20215C93.5949 8.65118 93.2661 8.95165 93.0085 9.09961L92.987 9.1123L92.9636 9.12305C92.0516 9.53028 91.3347 9.59299 90.8044 9.34863C90.517 9.21601 90.3257 9.01202 90.2057 8.79492C90.1669 8.86161 90.127 8.92186 90.0876 8.97266L90.0602 9.00879L90.0261 9.03906C89.5048 9.50463 88.9698 9.6544 88.485 9.56543C88.0491 9.48523 87.7289 9.22463 87.5495 8.99121C87.5429 8.99696 87.5358 9.00223 87.53 9.00781C87.4048 9.15812 87.2375 9.24751 87.1159 9.30078C86.9626 9.36786 86.7898 9.41762 86.6286 9.4541C86.305 9.52724 85.9581 9.56364 85.7341 9.57617L85.7038 9.57812L85.6745 9.57617C84.6889 9.51316 84.0506 9.11936 83.7067 8.56348C83.6617 8.49069 83.6241 8.41534 83.5905 8.34082C83.3147 8.73857 82.8653 8.97412 82.4772 9.11035C81.912 9.30861 81.2848 9.37206 80.8757 9.37207C79.6398 9.37191 78.7855 8.78827 78.2966 8.23535C78.0028 8.93683 77.467 9.29395 76.9118 9.42773C76.3476 9.56349 75.7796 9.46919 75.4206 9.34375L75.3835 9.33105L75.3493 9.3125C74.7488 8.99046 74.4291 8.47546 74.2751 7.99121C74.1242 7.51625 74.1224 7.04561 74.1716 6.73828L74.1745 6.71875L74.1784 6.7002C74.2622 6.35094 74.2731 6.13029 74.2643 6.00879C74.2628 5.98699 74.2586 5.96967 74.2565 5.95605L74.2263 5.89355C74.2099 5.88674 74.1734 5.8757 74.1032 5.87109C73.9528 5.86133 73.7725 5.89266 73.6579 5.92676L73.6335 5.93359C73.6319 5.94422 73.6287 5.95587 73.6276 5.96875C73.6248 6.00371 73.6256 6.03699 73.6276 6.0625C73.874 7.07931 73.8899 7.95157 73.86 8.29883L73.8483 8.43652L73.7663 8.54883C73.3308 9.14976 72.7269 9.40222 72.1794 9.47656C71.6434 9.54918 71.1359 9.45705 70.8161 9.34277L70.7907 9.33301C70.023 9.00993 69.7826 8.3119 69.7585 7.70898C69.7349 7.11717 69.905 6.51753 70.0641 6.14258L70.0827 6.09863L70.11 6.05859C70.527 5.43742 70.4624 4.62892 70.3649 4.26953C69.5243 2.88479 69.7698 1.66635 70.1013 1.13965L70.1188 1.11426C70.5179 0.559733 71.1233 0.388836 71.6335 0.370117C72.1348 0.351853 72.6173 0.475287 72.9235 0.59668C73.2132 0.68708 73.385 0.91274 73.4802 1.10059C73.5844 1.3065 73.6418 1.54631 73.6755 1.76562C73.724 2.08236 73.7322 2.425 73.7233 2.71191C73.8988 2.78797 74.0566 2.77829 74.1755 2.74316C74.2303 1.82797 74.5191 1.17643 74.7243 0.901367L74.7399 0.880859L74.7575 0.861328C75.3015 0.271385 75.9454 0.104226 76.5182 0.15625ZM98.7565 2.38184C98.5362 2.35509 98.2615 2.38738 98.0915 2.49512C98.0186 2.54142 97.967 2.59861 97.9362 2.67871C97.9037 2.76359 97.8793 2.91305 97.9274 3.16016L98.0671 3.87598L97.3493 3.74805C97.1737 3.71669 96.8929 3.67877 96.6354 3.66797C96.5063 3.66258 96.3954 3.66464 96.3122 3.67383C96.3014 3.67503 96.2914 3.6765 96.2829 3.67773C96.2819 3.68213 96.2798 3.68708 96.279 3.69238C96.2739 3.72759 96.2723 3.80916 96.3288 3.94141L96.4069 4.09082L96.4362 4.13867L96.4538 4.19238C96.4711 4.24377 96.5301 4.3681 96.6384 4.49219C96.7173 4.58262 96.8134 4.66207 96.9255 4.7168L97.0427 4.7627L97.2507 4.82422L97.3474 5.01953C97.4547 5.23548 97.4999 5.55744 97.4675 5.93066C97.4347 6.30769 97.319 6.774 97.069 7.31836C97.035 7.45576 97.0391 7.69228 97.2028 7.9209C97.3705 8.1547 97.7618 8.45712 98.6559 8.58203L98.6716 8.58398L98.6882 8.58789C98.9607 8.64401 99.3876 8.66069 99.7575 8.54297C100.092 8.43632 100.354 8.23221 100.465 7.83691C100.46 7.78113 100.439 7.70183 100.383 7.63574C100.329 7.57087 100.187 7.4541 99.8132 7.4541C99.6652 7.45399 99.4257 7.42697 99.2116 7.31348C99.0991 7.25377 98.9666 7.15554 98.8747 6.99805C98.7912 6.85488 98.7623 6.69463 98.777 6.5332V5.7168C98.786 5.56166 98.829 5.3724 98.9577 5.20703C99.0671 5.06668 99.2254 4.96174 99.4225 4.92285C99.583 4.89138 99.7452 4.9093 99.8991 4.95215C100.107 4.97472 100.353 4.94737 100.503 4.8584C100.567 4.81997 100.604 4.77559 100.627 4.71875C100.651 4.65731 100.674 4.53606 100.628 4.31836L100.621 4.28711L100.619 4.25391C100.615 4.20245 100.579 4.0774 100.47 3.96875C100.374 3.87265 100.186 3.75586 99.8132 3.75586H99.1628L99.3307 3.12695C99.3792 2.94517 99.3829 2.71654 99.319 2.57129C99.2927 2.51157 99.2583 2.47161 99.2087 2.44336C99.1551 2.41303 99.0462 2.37461 98.8415 2.38477L98.7985 2.38672L98.7565 2.38184ZM87.9001 3.72754C87.4108 3.62377 86.377 3.50874 85.6188 3.73438L85.5934 3.74219L85.5681 3.74707C85.3649 3.78537 85.0529 3.87972 84.7985 4.02539C84.5238 4.1828 84.4476 4.32004 84.4401 4.39746L84.4372 4.43555L84.4274 4.47168C84.3939 4.60677 84.4069 4.75663 84.4548 4.83594C84.4719 4.86407 84.4991 4.89313 84.5573 4.91699C84.6205 4.94275 84.7395 4.96784 84.944 4.9502C85.3751 4.85372 86.1704 4.67326 86.3298 4.62598L86.4245 4.59766L86.5222 4.60742C86.6116 4.61631 86.7321 4.63835 86.8483 4.69141C86.9482 4.7371 87.1691 4.86515 87.2253 5.14551C87.2821 5.42947 87.1253 5.64399 87.0231 5.75195C86.9097 5.87171 86.7521 5.98119 86.5661 6.08691L86.5202 6.11328L86.4704 6.12891C86.0937 6.24834 85.5311 6.46309 85.0729 6.71289C84.8421 6.83876 84.6607 6.9623 84.5436 7.07129C84.4102 7.19567 84.4421 7.22368 84.4421 7.15918V7.21289L84.4313 7.26465C84.3875 7.46857 84.3994 7.78163 84.5573 8.03711C84.6958 8.2611 84.9989 8.52245 85.7097 8.57422C85.8944 8.56226 86.1662 8.53313 86.4079 8.47852C86.5364 8.44944 86.6415 8.41671 86.7145 8.38477C86.7426 8.37245 86.7591 8.36108 86.7682 8.35547L86.7731 8.34961L86.8054 8.31641C86.9244 8.19485 87.1537 8.00748 87.4372 7.94531C87.5925 7.91138 87.7926 7.91008 87.989 8.0127C88.1547 8.09942 88.2692 8.23694 88.3483 8.38867C88.4086 8.46408 88.5235 8.55577 88.6657 8.58203C88.7855 8.604 89.0031 8.59377 89.319 8.32617C89.3791 8.2363 89.4374 8.10366 89.4401 7.97656C89.4423 7.8713 89.4126 7.72816 89.1843 7.5752L89.0309 7.47266L88.9811 7.29395C88.9352 7.12969 88.8818 6.87163 88.8659 6.60742C88.8579 6.47472 88.8586 6.32726 88.8796 6.18262C88.8958 6.07119 88.9286 5.94012 88.9929 5.81348C89.1042 5.40617 89.0934 4.39668 87.9001 3.72754ZM76.4274 1.15234C76.1417 1.12645 75.8215 1.19602 75.5134 1.51855C75.4203 1.66048 75.1648 2.19798 75.1647 3.0498V3.29102L74.9763 3.44141C74.6241 3.72087 73.7448 4.05412 72.8952 3.37109L72.6872 3.2041L72.7097 2.93848C72.7331 2.66591 72.7392 2.25642 72.6872 1.91699C72.6608 1.74493 72.6245 1.62288 72.5886 1.55176C72.5847 1.54414 72.5798 1.53829 72.5768 1.5332L72.5622 1.52734C72.3566 1.44477 72.0079 1.35779 71.6696 1.37012C71.3425 1.38222 71.0957 1.48152 70.9421 1.68359C70.8169 1.89687 70.5674 2.72442 71.2536 3.80957L71.2897 3.86621L71.3093 3.92871C71.4581 4.4075 71.6012 5.57298 70.9753 6.55762C70.8569 6.84536 70.742 7.28032 70.7575 7.66895C70.7728 8.0517 70.9009 8.28801 71.1667 8.40527C71.3602 8.47179 71.6972 8.53334 72.0446 8.48633C72.3479 8.44518 72.6384 8.3248 72.8669 8.07129C72.8742 7.7364 72.8442 7.04886 72.6462 6.25293L72.6384 6.2207L72.6345 6.1875C72.6166 6.02711 72.6175 5.77072 72.7067 5.53027C72.7531 5.40537 72.834 5.25775 72.9743 5.13965C73.1005 5.03364 73.2545 4.97134 73.4225 4.9541C73.6146 4.90215 73.8922 4.85501 74.1686 4.87305C74.4332 4.8904 74.8551 4.98299 75.0798 5.37012C75.138 5.44738 75.1738 5.52912 75.196 5.59375C75.2309 5.6958 75.2524 5.81169 75.2614 5.9375C75.2789 6.18172 75.2519 6.49663 75.1589 6.89648L75.1442 7.04883C75.1368 7.22318 75.1547 7.45579 75.2282 7.6875C75.3198 7.97563 75.4895 8.23831 75.7858 8.41016C76.0157 8.48353 76.3628 8.53166 76.6774 8.45605C76.9767 8.38398 77.2581 8.20287 77.4118 7.75195L77.4147 7.74512L77.4167 7.73828C77.409 7.75885 77.4429 7.65412 77.3874 7.40332C77.3352 7.16748 77.209 6.82897 76.9313 6.40723L76.8757 6.32324L76.8571 6.22363C76.7889 5.85781 76.7158 5.27802 76.7165 4.70996C76.7169 4.42603 76.7353 4.13091 76.7878 3.86035C76.8363 3.61057 76.9221 3.33862 77.0837 3.11719C77.1883 2.95466 77.325 2.65245 77.364 2.31641C77.4 2.00504 77.3495 1.69627 77.1491 1.42676C76.9853 1.30997 76.7183 1.17886 76.4274 1.15234ZM59.7663 3.58691C59.2506 3.56956 58.7163 3.65387 58.2741 3.91699L58.2507 3.93066C57.9725 4.07706 57.2378 4.74513 57.2907 6.07031V6.09082C57.2909 6.51036 57.5419 7.60262 58.5544 8.31055C59.0393 8.47927 60.2112 8.6731 61.2868 8.19043C61.475 8.04952 61.6591 7.84395 61.7175 7.65625C61.7436 7.57213 61.7413 7.50453 61.7165 7.44043C61.6922 7.37806 61.6286 7.27956 61.4675 7.15918C61.2363 7.09822 60.6802 7.06099 60.1569 7.4502L60.1491 7.45605C60.0031 7.56028 59.7692 7.65284 59.4987 7.62109C59.2023 7.58601 58.9374 7.41121 58.7468 7.11328L58.7272 7.08203L58.7116 7.04785C58.6641 6.94158 58.6138 6.77406 58.6188 6.58887C58.6243 6.39304 58.7004 6.10661 58.989 5.93457L59.1393 5.84473L59.3141 5.86914C59.6912 5.92171 60.2787 5.95215 60.7995 5.87793C61.0597 5.84078 61.2801 5.78097 61.4421 5.70117C61.6024 5.62202 61.6725 5.54063 61.7018 5.47559L61.7116 5.4541C61.7779 5.32211 61.8437 5.0552 61.7673 4.75488C61.6968 4.47824 61.4927 4.12448 60.946 3.80469C60.6954 3.71258 60.2585 3.60359 59.7663 3.58691ZM92.5798 4.24512C92.4399 4.11989 91.8202 3.38285 90.8239 3.87695C90.6717 4.03696 90.3363 4.60682 90.9587 5.59082L91.0114 5.67383L91.029 5.77148C91.1072 6.21391 91.2202 7.30178 91.0427 8.20215C91.0589 8.29412 91.1122 8.38901 91.2233 8.44043C91.3672 8.5065 91.7407 8.5654 92.5222 8.22266C92.619 8.16287 92.728 8.05235 92.7663 7.92188C92.7955 7.82182 92.8141 7.61377 92.53 7.27539L92.4743 7.20996L92.445 7.12891C92.3547 6.88687 92.2515 6.46488 92.3581 6.07812C92.4167 5.86568 92.5466 5.64191 92.7907 5.49609C93.0178 5.36063 93.284 5.32961 93.5563 5.35938H93.5573C93.9061 5.38086 94.4135 5.3757 94.8093 5.30176C94.9809 5.26964 95.0973 5.22881 95.1657 5.19434V5.18848L95.197 5.08984C95.2274 4.9945 95.2534 4.82012 95.2214 4.65625C95.1925 4.50865 95.1241 4.39124 94.9772 4.3125C94.7981 4.21663 94.235 4.02706 93.652 4.15137L93.072 4.3457L92.7966 4.43848L92.5798 4.24512ZM46.1794 3.57422L46.1774 3.5752C45.7533 3.61227 45.1502 3.82527 44.738 4.32129C44.3482 4.79055 44.062 5.59438 44.3874 6.96191C44.5464 7.34075 44.7492 7.75952 45.2145 8.05762C45.6867 8.35971 46.5208 8.59128 48.0554 8.34668C48.3454 8.21037 48.7989 7.81705 49.1003 7.2168C49.4047 6.61021 49.5341 5.83385 49.195 4.97168L49.1852 4.94727L49.1784 4.92188C49.0651 4.50927 48.3399 3.37585 46.1794 3.57422ZM42.9929 1.66113C42.5 1.05093 41.7827 1.10442 41.4763 1.2168L41.4489 1.22754L41.4216 1.2334C41.3664 1.24714 41.24 1.33527 41.1384 1.69141C41.0468 2.01264 41.0247 2.39461 41.0358 2.64355L41.0456 2.84961L40.9069 3.00195C40.4318 3.52428 39.907 3.73636 39.3972 3.61914C38.935 3.51243 38.6328 3.16533 38.4899 2.91016L38.4265 2.7959V2.66602C38.4264 2.21096 38.2824 1.70037 38.1882 1.4375C37.9778 1.25101 37.7301 1.18118 37.4782 1.17773C37.2076 1.1742 36.9551 1.24936 36.8063 1.31738C36.5735 1.49752 36.4624 1.78276 36.4489 2.14844C36.4352 2.5242 36.5308 2.91019 36.6237 3.14746C37.1687 4.20453 37.0393 5.17558 36.8552 5.60352L36.8376 5.64551L36.8112 5.68457C36.5861 6.01995 36.4442 6.44537 36.364 6.86133C36.284 7.2756 36.2713 7.64617 36.2819 7.84473C36.2906 8.00813 36.3466 8.09976 36.4157 8.16504C36.4964 8.24099 36.6289 8.30983 36.822 8.35547C37.2059 8.44599 37.6902 8.41263 38.0319 8.34473C38.3713 8.23125 38.4764 8.05011 38.5163 7.8916C38.5615 7.71174 38.5311 7.50633 38.4811 7.35938C38.4465 7.30728 38.4216 7.25733 38.405 7.21777C38.3717 7.13855 38.349 7.05559 38.3327 6.98047C38.3 6.82987 38.2821 6.6585 38.2722 6.49609C38.2521 6.16869 38.2606 5.81226 38.2741 5.58203L38.2888 5.3291L38.5007 5.19141C39.4012 4.60663 40.2668 4.94113 40.6179 5.21973L40.82 5.37988L40.8054 5.6377C40.7501 6.67544 40.8214 7.51805 40.8679 7.85938C41.0389 8.19851 41.2994 8.34967 41.5817 8.41016C41.9022 8.47853 42.2434 8.42531 42.446 8.35645L42.4645 8.35059L42.4831 8.3457C42.7112 8.28741 42.8219 8.19422 42.8815 8.11328C42.9451 8.02672 42.9866 7.90448 42.9929 7.7373C43.0059 7.38545 42.8598 6.9598 42.7038 6.6709L42.6833 6.63281L42.6696 6.5918C42.2642 5.38439 42.3872 4.09962 42.5026 3.58398L42.5163 3.52246L42.5446 3.4668C42.8284 2.90898 42.95 2.45981 42.9929 2.13867C43.0143 1.97817 43.0162 1.85133 43.0095 1.75977C43.0062 1.7159 42.9972 1.68359 42.9929 1.66113ZM82.0036 3.72559C81.6149 3.61843 81.0054 3.5289 80.4235 3.59668C79.8208 3.66698 79.3397 3.89102 79.0837 4.3291L79.0651 4.36133L79.0427 4.38965C78.7457 4.76124 78.2255 5.90208 78.7985 7.21973C78.9684 7.5705 79.6433 8.37185 80.8757 8.37207C81.2074 8.37206 81.7154 8.31768 82.1452 8.16699C82.6026 8.00649 82.8006 7.80206 82.8386 7.61035L82.8434 7.58496L82.8513 7.55859C82.8662 7.5105 82.8714 7.46159 82.8669 7.42676C82.8648 7.41121 82.8615 7.40242 82.86 7.39941C82.8593 7.39788 82.8588 7.39713 82.8581 7.39648C82.8561 7.39486 82.8465 7.38772 82.8249 7.37891C82.8006 7.36908 82.7578 7.35597 82.6911 7.34961C82.5594 7.3372 82.3521 7.35044 82.0446 7.42676C81.8731 7.51428 81.6362 7.59879 81.3688 7.62598C81.0487 7.65844 80.6559 7.61381 80.2907 7.36914L80.2614 7.35059L80.236 7.32715C80.1524 7.25239 80.0025 7.09183 79.9509 6.86816C79.9214 6.74006 79.921 6.57125 80.0095 6.40527C80.0958 6.24345 80.2349 6.14506 80.3649 6.08691L80.4684 6.04102L80.5807 6.04297C81.0298 6.05381 81.7056 6.02412 82.2692 5.90527C82.5534 5.84531 82.778 5.76874 82.9255 5.68457C83.0782 5.59724 83.069 5.55016 83.0651 5.57422L83.0739 5.51758L83.0964 5.46387C83.1546 5.32042 83.1989 5.03104 83.0768 4.71191C82.962 4.41205 82.6795 4.03442 82.0036 3.72559ZM51.7194 3.44336C51.5508 3.38988 51.2417 3.37227 50.7536 3.64648C50.7741 3.63246 50.71 3.67023 50.6716 3.87598C50.6275 4.11218 50.6302 4.53009 50.8298 5.19238H50.8288C50.9434 5.56926 50.9874 6.43166 50.5895 7.49805L50.5866 7.50586C50.5238 7.66631 50.5013 7.87831 50.5583 8.02637C50.593 8.11617 50.6934 8.2881 51.155 8.33105C51.2672 8.3371 51.4652 8.31772 51.6472 8.2373C51.8139 8.16345 51.9445 8.04971 52.0143 7.86914C52.0479 7.71095 52.1138 7.14506 52.0016 6.29297L52.0007 6.28125L51.9997 6.27051C51.9766 6.00177 52.056 5.60418 52.4108 5.33887C52.721 5.10727 53.1401 5.05281 53.6345 5.14648L53.8513 5.19629L53.8669 5.2002C54.399 5.35887 54.6576 6.03006 54.5251 6.91797L54.5241 6.92773L54.5222 6.93848C54.4638 7.241 54.4229 7.67749 54.4704 8.01562C54.4945 8.18724 54.5351 8.2839 54.5641 8.3252C54.5749 8.34055 54.5658 8.331 54.5681 8.33008H54.6042L54.6413 8.33594C54.8954 8.37371 55.2676 8.36853 55.5573 8.25977C55.6961 8.20757 55.7964 8.13902 55.862 8.06055C55.9231 7.98733 55.9753 7.87977 55.985 7.70605L55.986 7.69531L55.987 7.68359C56.0058 7.49866 56.002 6.85683 55.7751 6.09668L55.7409 5.98047L55.7634 5.86133C55.8114 5.60372 55.8689 5.19588 55.8854 4.82129C55.8937 4.63335 55.8908 4.46777 55.8757 4.33984C55.8627 4.23006 55.845 4.18873 55.8454 4.18652L55.8542 4.19727L55.8337 4.17188L55.8181 4.14258C55.7757 4.0682 55.3117 3.54942 54.0075 3.83398C53.8808 3.87616 53.7002 3.94395 53.5475 4.01562C53.4799 4.04741 53.4271 4.07691 53.3903 4.09961L53.3386 4.23828L53.1003 4.30957C52.9586 4.35167 52.7087 4.38621 52.4636 4.27539C52.3296 4.2146 52.2027 4.11202 52.1149 3.96094C52.0573 3.86167 52.0252 3.75407 52.0095 3.64551C51.9553 3.57394 51.8594 3.48797 51.7194 3.44336ZM46.3806 4.58496C46.7075 4.48201 47.0298 4.46202 47.319 4.57227C47.6168 4.68605 47.8036 4.90913 47.9108 5.1377C48.1084 5.55918 48.0773 6.07503 48.0192 6.38672L48.0056 6.45703L47.9743 6.52051C47.8143 6.83804 47.6203 7.09004 47.3825 7.25098C47.1305 7.42107 46.8545 7.46991 46.5925 7.41895C46.1226 7.32706 45.7979 6.94012 45.6462 6.69629L45.613 6.64355L45.5944 6.58398C45.2572 5.52839 45.8869 4.83982 46.2946 4.62109L46.3356 4.59961L46.3806 4.58496ZM89.9401 6.14453L89.9186 6.21387L89.8776 6.27441C89.8892 6.2572 89.8777 6.26517 89.8688 6.32617C89.8607 6.38242 89.8586 6.45748 89.864 6.54688C89.8707 6.65908 89.8902 6.774 89.9099 6.87109C89.9976 6.94507 90.0718 7.02496 90.1364 7.10645C90.1356 6.67897 90.0928 6.27499 90.0534 6.02246C90.0328 5.98782 90.0128 5.95321 89.9938 5.91895C89.9786 6.00037 89.9615 6.07627 89.9401 6.14453ZM84.0368 5.79883C83.9515 6.16765 83.6765 6.40657 83.4206 6.55273C83.4158 6.5554 83.4098 6.55687 83.405 6.55957C83.4536 6.59217 83.5004 6.62826 83.5436 6.66895C83.5532 6.67793 83.562 6.6881 83.571 6.69727C83.6536 6.5514 83.7637 6.43046 83.862 6.33887C84.0283 6.18402 84.2342 6.04345 84.447 5.91895C84.299 5.8894 84.1636 5.84392 84.0436 5.77832C84.0412 5.78509 84.0393 5.79218 84.0368 5.79883Z" fill="white"/>
<path d="M17.5447 0.533203C18.2695 -0.010418 19.0552 0.306694 19.3572 0.533203C19.9609 1.37855 19.8609 2.59599 19.7351 3.09961C19.4331 4.06605 19.5082 5.61713 19.5837 6.27148C19.9461 7.96255 19.7347 8.88896 19.5837 9.14062C18.7985 10.3484 17.897 9.84504 17.5447 9.44238C16.8805 8.47619 17.0168 7.22817 17.1677 6.72461C17.6225 6.06023 17.5083 4.58509 17.3943 3.93066C16.851 1.51589 17.2678 0.659772 17.5447 0.533203ZM7.2771 0.683594C8.12244 -0.282092 8.98789 0.280983 9.31519 0.683594C9.91908 1.43846 9.61759 3.55216 9.46655 4.30762C9.34575 4.91163 9.41622 6.57307 9.46655 7.32812C9.64776 8.95899 9.28996 9.51825 9.08862 9.59375C7.69966 10.1975 7.20126 9.59331 7.12573 9.21582C7.00494 8.37026 7.0754 7.2529 7.12573 6.7998C7.24654 6.19578 7.07504 5.99392 6.97437 5.96875C6.43104 5.72751 6.19461 6.0702 6.14429 6.27148C6.0839 7.41842 5.91807 7.90687 5.84253 8.00781C5.41976 9.51779 3.30049 9.49233 2.2937 9.29102C0.844205 8.92865 0.481283 7.12731 0.481201 6.27148C0.481201 4.33863 1.89075 3.65341 2.59546 3.55273C4.0451 3.12993 5.06223 3.77971 5.3894 4.15723C5.51023 4.45898 5.74188 4.3831 5.84253 4.30762C6.26519 3.58355 6.92396 3.50253 7.20093 3.55273C7.44247 3.49235 7.30159 2.77335 7.20093 2.4209C7.01972 1.45446 7.17643 0.859767 7.2771 0.683594ZM22.4529 6.95117C22.8153 6.91208 23.7113 7.13597 24.114 7.25293C25.7448 7.67567 27.3606 7.32806 27.9646 7.10156C30.1994 6.7996 30.4564 7.88209 30.3054 8.46094C30.0637 9.66886 28.5431 9.61855 27.8132 9.44238C25.8203 9.08009 23.5105 9.29139 22.6042 9.44238C20.9736 9.44238 20.6153 8.63711 20.6404 8.23438C20.4894 7.02633 22.3774 6.95117 22.4529 6.95117ZM11.5808 0.683594C11.9433 0.509798 12.5873 0.712104 12.864 0.834961C13.5283 1.25782 13.493 2.77285 13.3923 3.47754C13.1507 4.50438 12.9395 5.76813 12.864 6.27148C12.8642 7.05639 13.4683 7.05183 13.7703 6.95117C14.4949 6.70966 15.2796 6.69947 15.5818 6.72461C16.6086 6.84541 16.7149 7.78136 16.6394 8.23438C16.3978 9.20076 15.6324 9.19029 15.28 9.06445C14.4948 8.88326 13.8954 8.98895 13.6941 9.06445C13.2109 9.30593 12.1342 9.21611 11.656 9.14062C10.3879 8.89907 10.5734 7.4295 10.825 6.72461C11.3079 5.03429 11.2283 4.30879 11.1277 4.15723C10.8258 3.61383 10.6998 3.12557 10.6746 2.94922C10.5538 1.13715 11.2285 0.683594 11.5808 0.683594ZM3.1228 5.28906C2.89629 5.31423 2.44312 5.6068 2.44312 6.57324C2.46842 6.92571 2.68519 7.61507 3.34937 7.55469C3.62636 7.57965 4.19427 7.40267 4.25464 6.49707C4.30489 6.04404 4.14916 5.16851 3.1228 5.28906ZM21.0935 0.910156C21.7725 0.306611 23.5827 0.607804 23.7361 0.683594C24.7627 0.925154 26.4286 0.885282 27.1335 0.834961C28.1604 0.412145 29.173 0.658787 29.5505 0.834961C30.3352 1.25777 30.0787 2.16854 29.8523 2.57129C29.6711 2.8733 28.2662 2.79816 27.5867 2.72266C26.8622 2.72279 26.9325 3.17587 27.0583 3.40234C27.3605 3.94583 28.2416 4.13206 28.6443 4.15723C29.9726 4.03656 30.1542 4.81113 30.0789 5.21387C30.0185 6.24071 28.5431 6.24596 27.8132 6.12012C26.5449 5.87849 25.8251 5.36516 25.6238 5.13867C25.503 4.9575 25.2713 5.06317 25.1707 5.13867C24.9892 5.38022 24.0388 5.74251 23.5857 5.89355C21.8345 6.43702 21.0944 5.91899 20.9431 5.5918C20.0975 4.44416 21.2951 4.0562 21.9998 4.00586C22.8452 4.00586 23.4594 3.60373 23.6609 3.40234C24.2045 2.79832 23.7864 2.69749 23.5095 2.72266C22.3623 3.20563 21.6229 3.02402 21.3962 2.87305C20.4902 2.02741 20.8167 1.21217 21.0935 0.910156ZM3.50171 0.00390625C3.85413 -0.0212062 4.57413 0.110248 4.63452 0.834961C4.60935 0.935632 4.63427 1.13672 4.93628 1.13672C5.31388 1.13676 6.12928 1.21269 6.37085 1.51465C6.6476 1.81673 6.97427 2.55614 6.06909 3.09961C5.84258 3.20028 5.25334 3.34122 4.70972 3.09961C4.2567 2.97377 3.10877 2.7976 2.14233 3.09961C1.7648 3.20028 0.904007 3.34121 0.481201 3.09961C0.154024 2.87289 -0.333383 2.23922 0.330811 1.51465C0.431613 1.38878 0.889294 1.13675 1.91577 1.13672C2.01644 1.18705 2.2333 1.19736 2.2937 0.834961C2.31887 0.532949 2.59567 -0.0564961 3.50171 0.00390625Z" fill="white"/>
</svg>
