<svg width="74" height="10" viewBox="0 0 74 10" fill="none" xmlns="http://www.w3.org/2000/svg">
<path d="M0.000463572 9.68292C-0.000579465 8.50444 0.000463572 6.00412 0.000463572 6.00412C0.000463572 4.01015 0.00884521 3.02399 0.00184197 2.52713C-0.00534754 2.01559 0.189365 1.92623 0.452285 1.92377C1.01452 1.91061 1.57746 1.90201 2.13984 1.91436C2.47429 1.92282 2.55829 2.12455 2.56518 2.24107C2.58332 2.54845 2.86565 2.63487 3.2135 2.41299C3.62088 2.15311 4.03512 2.10635 4.57913 2.10635C5.9736 2.10635 6.92176 2.8635 7.2575 4.24508C7.3449 4.60483 7.35831 4.77208 7.33551 5.21859C7.26894 6.52205 6.60207 7.44212 5.51366 7.849C4.93645 8.06477 3.86294 8.0522 3.26409 7.69189C3.04725 7.5614 2.85328 7.56974 2.70513 7.71593C2.58407 7.8354 2.58325 7.84275 2.58325 8.78983C2.58325 8.78983 2.59323 9.30445 2.58325 9.64168C2.57934 9.77302 2.42921 9.99143 2.2776 9.99721C1.61546 10.0035 0.953129 9.99721 0.290838 9.99721C0.153566 9.99721 0.000612577 9.81801 0.000463572 9.68292ZM4.10943 5.37787C4.70024 4.822 4.82641 4.54914 4.65963 4.18799C4.52382 3.89381 4.07226 3.82827 3.82494 4.06683C3.74113 4.1477 3.75014 4.21343 3.62628 4.21387C3.5 4.21427 3.50369 4.1477 3.41034 4.06683C3.04602 3.75119 2.58325 3.9631 2.58325 4.44556C2.58325 4.74393 2.74305 5.00532 3.16817 5.40238C3.58039 5.78739 3.67687 5.78489 4.10943 5.37787ZM26.6973 8.12656C25.7342 8.0204 24.8614 7.41216 24.4402 6.55359C24.1484 5.95861 24.0748 5.56269 24.1055 4.75301C24.1236 4.2757 24.1592 4.00225 24.2333 3.77155C24.5229 2.86968 25.1614 2.27158 26.1509 1.97516C26.3789 1.90683 26.6123 1.88598 27.1443 1.8865C28.0754 1.88734 28.5041 2.01979 29.1004 2.49088C29.5525 2.84792 29.9235 3.61342 29.9849 4.31558C30.0119 4.62413 30.0096 4.67063 29.9189 4.75264C29.8259 4.83667 29.819 4.84722 29.4573 4.84589C29.2277 4.84505 28.8482 4.84332 28.1883 4.85104C27.4494 4.85972 27.0679 4.84505 26.82 4.84696C26.6507 4.84825 26.5892 4.90438 26.5559 4.9407C26.4376 5.06972 26.4657 5.25373 26.5995 5.43216C26.7917 5.68822 27.4706 5.76107 27.7223 5.49454C27.8794 5.3282 27.9931 5.32449 28.1833 5.38294C29.1446 5.67848 29.0475 5.67175 29.711 5.90932C29.9768 6.00445 29.9828 6.16751 29.8087 6.52392C29.4741 7.20899 28.8281 7.77114 28.123 7.99096C27.7289 8.11381 27.113 8.17236 26.6973 8.12656ZM27.724 4.18181C27.7888 4.0872 27.7936 4.08099 27.799 3.95082C27.8051 3.8028 27.7575 3.70281 27.6459 3.5964C27.4985 3.4558 27.4498 3.44936 27.1658 3.44936C26.8818 3.44936 26.8347 3.46069 26.6923 3.5964C26.5896 3.69418 26.5427 3.78493 26.5433 3.94763C26.5437 4.09098 26.5571 4.09481 26.6087 4.16847C26.6625 4.24526 26.6839 4.24438 26.8008 4.24364C27.0056 4.24243 27.2938 4.26077 27.5045 4.25077C27.6455 4.24408 27.679 4.24739 27.724 4.18181ZM15.1063 7.75015C15.1063 7.54331 14.9484 7.49439 14.8042 7.49762C14.6187 7.50178 14.5684 7.60147 14.4607 7.66513C13.9949 7.94053 13.6645 7.93895 13.1149 7.93748C11.8566 7.93409 10.9108 7.18885 10.5792 5.93932C10.4481 5.44572 10.4456 4.62251 10.5736 4.13631C10.7744 3.37379 11.2538 2.72798 11.8524 2.41391C12.6138 2.01442 13.6999 2.03456 14.4146 2.39663C14.6684 2.52518 15.113 2.73397 15.1077 2.24214C15.1056 2.0457 15.1961 1.91252 15.4366 1.90017C15.6239 1.89054 15.8044 1.89569 16.1232 1.89962C16.3967 1.90293 16.5444 1.88698 16.6758 1.90304C16.85 1.92432 17.0714 2.02883 17.2664 2.21328C17.4201 2.35863 17.5669 2.53786 17.6267 2.78532C17.653 2.89442 17.6212 3.07998 17.6249 3.27414C17.6355 3.81882 17.6199 4.72014 17.6267 5.34423C17.6403 6.60262 17.6366 7.2602 17.6293 7.6172C17.6229 7.92726 17.6475 7.93373 17.5725 8.03746C17.5018 8.13505 17.4856 8.12869 17.234 8.13141C17.0705 8.13321 16.8131 8.12425 16.3939 8.1309C15.3828 8.147 15.4836 8.14193 15.3296 8.1445C15.12 8.04018 15.1063 7.88513 15.1063 7.75015ZM14.6134 5.30435C14.953 5.01362 15.3887 4.49434 15.0053 4.07202C14.7285 3.77968 14.3826 3.96027 14.3256 4.02236C14.2031 4.15594 14.1602 4.23482 14.0784 4.24004C13.9881 4.24577 13.923 4.15046 13.8505 4.07444C13.6354 3.84874 13.3589 3.85941 13.1577 4.07202C12.863 4.38333 13.0013 4.82998 13.556 5.35846C14.0276 5.80765 14.0917 5.80437 14.6134 5.30435ZM20.4064 7.7099C20.2543 7.39565 19.9633 6.80145 19.3093 5.53718C18.7645 4.48397 18.1951 3.44977 17.6716 2.38601C17.6353 2.31165 17.6334 2.29217 17.6328 2.207C17.6318 2.08415 17.7098 2.00501 17.8056 1.94506C17.8335 1.92759 17.9082 1.90683 18.072 1.91032C18.2178 1.91341 18.3853 1.89984 18.4694 2.04537C18.8757 2.74827 19.1914 3.46094 19.5566 4.16487C20.156 5.31516 20.1812 5.36059 20.2838 5.4759C20.3377 5.53655 20.4299 5.58618 20.4887 5.58618C20.5474 5.58618 20.6491 5.54254 20.6979 5.4759C20.7808 5.3629 20.9918 4.85836 21.2258 4.23835C21.9836 2.23096 22.0439 2.08533 22.1545 1.99699C22.1926 1.96656 22.2362 1.91392 22.4041 1.91403C22.5494 1.9141 22.7368 1.91032 23.2756 1.91032C23.7252 1.91032 23.9043 1.91058 24.0558 1.91002C24.2096 1.90947 24.3191 1.92101 24.3877 2.00835C24.4974 2.14804 24.5131 2.28283 24.3829 2.60693C24.3256 2.74944 23.8561 4.01291 23.3394 5.41462C22.8778 6.66703 22.618 7.4677 22.4665 7.83922C22.3735 8.06723 22.2755 8.14303 22.1045 8.1445C21.7291 8.14781 21.0641 8.14487 20.969 8.14902C20.6916 8.16112 20.5882 8.08528 20.4064 7.7099ZM7.68366 7.54765C7.69141 7.00627 7.70143 5.87727 7.70064 4.02783L7.69908 0.239493C7.69901 0.0535318 7.86708 -2.55229e-05 8.15172 0.00677481C8.29838 0.0102669 8.52658 -0.00241484 8.90129 0.000415568C9.22586 0.00287839 9.47548 0.00732626 9.64077 0.00181247C9.98229 -0.00958269 10.0924 0.0915768 10.1009 0.254454C10.1019 0.272282 10.1124 0.399834 10.1165 0.612299C10.1451 2.08466 10.1257 7.58312 10.1258 7.76184C10.1259 7.93964 9.92276 8.07635 9.77811 8.08072C9.53933 8.088 8.38275 8.07319 8.17068 8.07815C7.76017 8.08763 7.67759 7.97159 7.68366 7.54765Z" fill="white"/>
<path d="M35.0573 3.43066H35.0866L35.8727 2.13184H36.5953L35.5065 3.89941L36.6149 5.66699H35.8776L35.0866 4.37793H35.0573L34.2662 5.66699H33.5338L34.652 3.89941L33.5485 2.13184H34.2809L35.0573 3.43066Z" fill="white"/>
<path d="M50.7363 2.78356V2.14258H51.6818V2.78356H52.945V3.3918H52.2835C52.5807 3.74953 52.7698 4.25626 52.7763 4.84322C52.7698 5.98438 52.128 6.83492 51.2095 6.83492C50.264 6.84147 49.6361 5.98438 49.6361 4.84322C49.6361 4.25626 49.8252 3.74953 50.1224 3.3918H49.501V2.78356H50.7363ZM51.2087 3.40489C50.837 3.40489 50.5399 3.97138 50.5472 4.84322C50.5407 5.6733 50.8305 6.22751 51.2021 6.22751C51.5738 6.22751 51.8644 5.68722 51.8644 4.84322C51.8644 3.93209 51.5943 3.40489 51.2095 3.40489H51.2087ZM54.4635 4.60745V8.2536H53.5516V2.14258H54.4635V3.99921H55.3411V4.60745H54.4635ZM57.0397 5.88942H58.5722C58.984 5.88942 59.2942 5.90988 59.679 5.70686V2.14258H60.5901V3.99921H61.4685V4.60745H60.5901V8.2536H59.679V6.31592C59.3614 6.45754 58.9365 6.49847 58.5517 6.49847H56.533C56.1343 6.49847 55.8314 6.11372 55.8314 5.66102V2.41272H56.7426V5.64055C56.7426 5.79609 56.8441 5.89023 57.0397 5.89023V5.88942ZM63.7033 4.60745H62.1103V3.99921H63.9334C64.0013 3.75608 64.0349 3.5064 64.0349 3.26982V3.08727H62.1103V2.47903H64.9804V3.07335C64.9804 4.92344 63.7181 6.44935 62.0432 6.65237V6.04414C62.8061 5.81492 63.3734 5.25416 63.7041 4.60581L63.7033 4.60745ZM66.8026 4.60745V8.2536H65.8915V2.14258H66.8026V3.99921H67.6802V4.60745H66.8026ZM67.8644 6.7678H73.3336V7.37522H67.8644V6.7678ZM68.5463 2.47985H72.6648V3.08809H69.4574V4.76217C69.4574 4.91771 69.5589 5.01185 69.7611 5.01185H72.664V5.61927H69.2544C68.8492 5.61927 68.5455 5.23452 68.5455 4.78264V2.47985H68.5463Z" fill="white"/>
<path d="M43.3514 1.67062C43.3514 2.12168 43.7165 2.4876 44.1675 2.4876C44.6186 2.4876 44.9845 2.12168 44.9845 1.67062C44.9845 1.60267 44.969 1.53554 44.9411 1.47415C44.8699 1.32598 44.7922 1.25394 44.7995 1.0763C44.8102 0.83644 44.5032 0.833984 44.337 0.833984C44.1569 0.833984 43.9645 0.858543 43.8024 0.940405C43.6699 1.00674 43.5579 1.10794 43.4786 1.23314C43.3993 1.35834 43.3556 1.50279 43.3522 1.65097V1.67062" fill="white"/>
<path d="M48.3129 2.6889C48.254 2.59885 48.1361 2.59885 47.9167 2.63897C47.5942 2.69873 46.6339 2.89356 45.1113 2.94595C44.4114 2.96969 43.6443 2.97133 42.8724 2.90256C42.2412 2.84608 41.0477 2.65452 40.7816 2.62751C40.6383 2.61277 40.3125 2.59067 40.1455 2.72983C39.9253 2.91321 39.9875 3.18581 40.1185 3.40438C40.1185 3.40438 40.4083 3.86936 41.0771 4.00607C42.0488 4.16734 43.5526 4.12477 44.0479 4.06992C45.1498 3.96759 45.9987 3.80878 46.6724 3.62541C46.6724 3.62541 47.5704 3.36754 48.0092 3.12114C48.1746 3.02863 48.4103 2.85017 48.3121 2.6889H48.3129ZM45.0237 4.67734C44.4752 4.38018 43.8228 4.37854 43.2825 4.68798C42.4131 5.1857 42.1086 6.28184 42.6268 7.17659C43.0508 7.8405 43.6173 7.68168 43.7786 7.51386C43.9808 7.28956 43.9046 7.05871 43.7974 6.91463C43.5772 6.64285 43.5551 6.45702 43.5551 6.34242C43.5551 5.99041 43.8408 5.70471 44.1928 5.70471C44.3778 5.70471 44.5571 5.78739 44.6774 5.92901C44.8452 6.12712 44.8657 6.41118 44.8542 6.63794C44.7798 8.00258 44.2247 9.17813 44.1961 9.26408C44.1715 9.3263 44.1289 9.48265 44.2468 9.54651C44.3369 9.59071 44.4425 9.54978 44.5464 9.45809C44.8027 9.23952 45.2979 8.62064 45.5615 8.01322C45.704 7.68578 46.0552 6.81722 45.9406 5.9503C45.8227 5.28148 45.3954 4.87872 45.0245 4.67734H45.0237Z" fill="white"/>
</svg>
