<svg width="208" height="17" viewBox="0 0 208 17" fill="none" xmlns="http://www.w3.org/2000/svg">
<g filter="url(#filter0_i_1919_9564)">
<mask id="path-1-outside-1_1919_9564" maskUnits="userSpaceOnUse" x="0" y="2" width="88" height="14" fill="black">
<rect fill="white" y="2" width="88" height="14"/>
<path d="M2.57031 4.10156L5.90625 12.25H6.0293L9.36523 4.10156H10.8418V14H9.67969V6.52148H9.58398L6.50781 14H5.41406L2.33789 6.52148H2.25586V14H1.09375V4.10156H2.57031ZM21.3965 9.05078C21.3965 10.0762 21.2096 10.974 20.8359 11.7441C20.4622 12.5098 19.9427 13.0999 19.2773 13.5146C18.6165 13.9294 17.8646 14.1367 17.0215 14.1367C16.1738 14.1367 15.4173 13.9294 14.752 13.5146C14.0911 13.0999 13.5739 12.5098 13.2002 11.7441C12.8311 10.974 12.6465 10.0762 12.6465 9.05078C12.6465 8.02539 12.8311 7.12988 13.2002 6.36426C13.5739 5.59408 14.0911 5.00163 14.752 4.58691C15.4173 4.1722 16.1738 3.96484 17.0215 3.96484C17.8646 3.96484 18.6165 4.1722 19.2773 4.58691C19.9427 5.00163 20.4622 5.59408 20.8359 6.36426C21.2096 7.12988 21.3965 8.02539 21.3965 9.05078ZM13.8359 9.05078C13.8359 9.87565 13.9749 10.5843 14.2529 11.1768C14.5309 11.7692 14.9092 12.2181 15.3877 12.5234C15.8708 12.8288 16.4154 12.9837 17.0215 12.9883C17.6276 12.9837 18.1699 12.8288 18.6484 12.5234C19.1315 12.2181 19.512 11.7692 19.79 11.1768C20.068 10.5843 20.207 9.87565 20.207 9.05078C20.207 8.22135 20.068 7.51042 19.79 6.91797C19.512 6.32552 19.1315 5.87663 18.6484 5.57129C18.1699 5.26595 17.6276 5.11328 17.0215 5.11328C16.4154 5.11328 15.8708 5.26595 15.3877 5.57129C14.9092 5.87663 14.5309 6.32552 14.2529 6.91797C13.9749 7.51042 13.8359 8.22135 13.8359 9.05078ZM31.0625 14H29.8867L24.5273 6.28906H24.4316V14H23.2012V4.10156H24.3906L29.75 11.8262H29.8457V4.10156H31.0625V14ZM38.6504 6.58984C38.6185 6.27083 38.5046 5.9974 38.3086 5.76953C38.1126 5.53711 37.8551 5.36165 37.5361 5.24316C37.2171 5.12012 36.8594 5.05859 36.4629 5.05859C36.0345 5.05859 35.6562 5.12923 35.3281 5.27051C35 5.40723 34.7448 5.59863 34.5625 5.84473C34.3802 6.09082 34.2891 6.37109 34.2891 6.68555C34.2936 7.14583 34.4827 7.49902 34.8564 7.74512C35.2301 7.98665 35.679 8.17122 36.2031 8.29883L37.1875 8.57227C37.9531 8.76823 38.6117 9.06901 39.1631 9.47461C39.7145 9.88021 39.9902 10.4909 39.9902 11.3066C39.9902 11.849 39.849 12.3389 39.5664 12.7764C39.2839 13.2093 38.8714 13.5511 38.3291 13.8018C37.7868 14.0524 37.1419 14.1777 36.3945 14.1777C35.6927 14.1777 35.0798 14.0638 34.5557 13.8359C34.0361 13.6035 33.6283 13.2822 33.332 12.8721C33.0358 12.4574 32.8672 11.9766 32.8262 11.4297H34.084C34.1159 11.7852 34.2389 12.0859 34.4531 12.332C34.6673 12.5781 34.943 12.7627 35.2803 12.8857C35.6221 13.0042 35.9935 13.0612 36.3945 13.0566C36.8503 13.0566 37.2581 12.9837 37.6182 12.8379C37.9827 12.6921 38.2676 12.4847 38.4727 12.2158C38.6823 11.9424 38.7871 11.6302 38.7871 11.2793C38.7871 10.974 38.7005 10.7188 38.5273 10.5137C38.3587 10.3086 38.1354 10.1423 37.8574 10.0146C37.5794 9.88704 37.2376 9.76628 36.832 9.65234L35.6152 9.32422C34.804 9.08724 34.1797 8.75911 33.7422 8.33984C33.3092 7.92057 33.0951 7.38737 33.0996 6.74023C33.0996 6.19336 33.2477 5.71029 33.5439 5.29102C33.8402 4.86719 34.248 4.54134 34.7676 4.31348C35.2871 4.08105 35.8659 3.96484 36.5039 3.96484C37.1328 3.96484 37.6979 4.07878 38.1992 4.30664C38.7051 4.53451 39.1038 4.84896 39.3955 5.25C39.6872 5.64648 39.8398 6.0931 39.8535 6.58984H38.6504ZM41.207 4.10156H48.6719V5.19531H45.5684V14H44.3242V5.19531H41.207V4.10156ZM48.3027 14L51.9258 4.10156H53.2246L56.8477 14H55.5488L54.5576 11.2109H50.5791L49.5879 14H48.3027ZM54.1816 10.1309L52.6094 5.70117H52.5273L50.9551 10.1309H54.1816ZM58.1875 4.10156H61.5508C62.3027 4.10156 62.9294 4.23145 63.4307 4.49121C63.9365 4.74642 64.3125 5.10417 64.5586 5.56445C64.8047 6.02018 64.9277 6.54883 64.9277 7.15039C64.9277 7.82487 64.7728 8.40365 64.4629 8.88672C64.1576 9.36523 63.6973 9.71159 63.082 9.92578L65.3105 14H63.875L61.8037 10.1514C61.7536 10.1559 61.6738 10.1582 61.5645 10.1582H59.418V14H58.1875V4.10156ZM61.5098 9.03711C62.2754 9.03711 62.8314 8.87533 63.1777 8.55176C63.5286 8.22819 63.7064 7.76107 63.7109 7.15039C63.7018 5.84701 62.9635 5.19531 61.4961 5.19531H59.418V9.03711H61.5098ZM70.2188 4.10156H73.582C74.3294 4.10156 74.9561 4.23828 75.4619 4.51172C75.9678 4.78516 76.3438 5.15885 76.5898 5.63281C76.8359 6.10221 76.959 6.63997 76.959 7.24609C76.959 7.84766 76.8359 8.3877 76.5898 8.86621C76.3438 9.34017 75.9678 9.71615 75.4619 9.99414C74.9606 10.2676 74.3385 10.4043 73.5957 10.4043H71.4492V14H70.2188V4.10156ZM73.541 9.31055C74.293 9.31055 74.8467 9.1237 75.2021 8.75C75.5576 8.3763 75.7376 7.875 75.7422 7.24609C75.7376 6.61719 75.5553 6.11816 75.1953 5.74902C74.8398 5.37988 74.2839 5.19531 73.5273 5.19531H71.4492V9.31055H73.541ZM85.4355 7.21875C85.3444 6.77669 85.1644 6.39844 84.8955 6.08398C84.6266 5.76497 84.2985 5.52344 83.9111 5.35938C83.5283 5.19531 83.1159 5.11328 82.6738 5.11328C82.0677 5.11328 81.5231 5.26595 81.04 5.57129C80.5615 5.87663 80.1833 6.32552 79.9053 6.91797C79.6273 7.51042 79.4883 8.22135 79.4883 9.05078C79.4883 9.87565 79.6273 10.5843 79.9053 11.1768C80.1833 11.7692 80.5615 12.2181 81.04 12.5234C81.5231 12.8288 82.0677 12.9837 82.6738 12.9883C83.1159 12.9837 83.5283 12.9017 83.9111 12.7422C84.2939 12.5781 84.6198 12.3389 84.8887 12.0244C85.1576 11.71 85.3398 11.334 85.4355 10.8965H86.666C86.5475 11.5573 86.3014 12.1338 85.9277 12.626C85.554 13.1136 85.0846 13.4873 84.5195 13.7471C83.959 14.0068 83.3438 14.1367 82.6738 14.1367C81.8262 14.1367 81.0697 13.9294 80.4043 13.5146C79.7435 13.0999 79.2262 12.5098 78.8525 11.7441C78.4834 10.974 78.2988 10.0762 78.2988 9.05078C78.2988 8.02539 78.4834 7.12988 78.8525 6.36426C79.2262 5.59408 79.7435 5.00163 80.4043 4.58691C81.0697 4.1722 81.8262 3.96484 82.6738 3.96484C83.3438 3.96484 83.959 4.09473 84.5195 4.35449C85.0801 4.6097 85.5472 4.9834 85.9209 5.47559C86.2992 5.96322 86.5475 6.54427 86.666 7.21875H85.4355Z"/>
</mask>
<path d="M2.57031 4.10156L3.49576 3.72269L2.57031 3.10156V4.10156ZM5.90625 12.25L4.9808 12.6289L5.90625 13.25V12.25ZM6.0293 12.25V13.25L6.95474 12.6289L6.0293 12.25ZM9.36523 4.10156V3.10156L8.43979 3.72269L9.36523 4.10156ZM10.8418 4.10156H11.8418L10.8418 3.10156V4.10156ZM10.8418 14V15L11.8418 14H10.8418ZM9.67969 14H8.67969L9.67969 15V14ZM9.67969 6.52148H10.6797L9.67969 5.52148V6.52148ZM9.58398 6.52148V5.52148L8.65917 6.14107L9.58398 6.52148ZM6.50781 14V15L7.43263 14.3804L6.50781 14ZM5.41406 14L4.48924 14.3804L5.41406 15V14ZM2.33789 6.52148L3.26271 6.14107L2.33789 5.52148V6.52148ZM2.25586 6.52148V5.52148L1.25586 6.52148H2.25586ZM2.25586 14V15L3.25586 14H2.25586ZM1.09375 14H0.09375L1.09375 15V14ZM1.09375 4.10156V3.10156L0.09375 4.10156H1.09375ZM2.57031 4.10156L1.64486 4.48044L4.9808 12.6289L5.90625 12.25L6.8317 11.8711L3.49576 3.72269L2.57031 4.10156ZM5.90625 12.25V13.25H6.0293V12.25V11.25H5.90625V12.25ZM6.0293 12.25L6.95474 12.6289L10.2907 4.48044L9.36523 4.10156L8.43979 3.72269L5.10385 11.8711L6.0293 12.25ZM9.36523 4.10156V5.10156H10.8418V4.10156V3.10156H9.36523V4.10156ZM10.8418 4.10156H9.8418V14H10.8418H11.8418V4.10156H10.8418ZM10.8418 14V13H9.67969V14V15H10.8418V14ZM9.67969 14H10.6797V6.52148H9.67969H8.67969V14H9.67969ZM9.67969 6.52148V5.52148H9.58398V6.52148V7.52148H9.67969V6.52148ZM9.58398 6.52148L8.65917 6.14107L5.58299 13.6196L6.50781 14L7.43263 14.3804L10.5088 6.90189L9.58398 6.52148ZM6.50781 14V13H5.41406V14V15H6.50781V14ZM5.41406 14L6.33888 13.6196L3.26271 6.14107L2.33789 6.52148L1.41307 6.90189L4.48924 14.3804L5.41406 14ZM2.33789 6.52148V5.52148H2.25586V6.52148V7.52148H2.33789V6.52148ZM2.25586 6.52148H1.25586V14H2.25586H3.25586V6.52148H2.25586ZM2.25586 14V13H1.09375V14V15H2.25586V14ZM1.09375 14H2.09375V4.10156H1.09375H0.09375V14H1.09375ZM1.09375 4.10156V5.10156H2.57031V4.10156V3.10156H1.09375V4.10156ZM20.8359 11.7441L21.7346 12.1828L21.7356 12.1807L20.8359 11.7441ZM19.2773 13.5146L18.7484 12.666L18.7458 12.6676L19.2773 13.5146ZM14.752 13.5146L14.2204 14.3617L14.223 14.3633L14.752 13.5146ZM13.2002 11.7441L12.2984 12.1764L12.3015 12.1828L13.2002 11.7441ZM13.2002 6.36426L12.3005 5.92772L12.2994 5.92996L13.2002 6.36426ZM14.752 4.58691L14.223 3.73826L14.2204 3.7399L14.752 4.58691ZM19.2773 4.58691L18.7458 5.43393L18.7484 5.43556L19.2773 4.58691ZM20.8359 6.36426L19.9362 6.80079L19.9373 6.80289L20.8359 6.36426ZM15.3877 12.5234L14.8498 13.3664L14.8534 13.3687L15.3877 12.5234ZM17.0215 12.9883L17.014 13.9883H17.029L17.0215 12.9883ZM18.6484 12.5234L18.1141 11.6781L18.1105 11.6804L18.6484 12.5234ZM19.79 11.1768L18.8847 10.752L19.79 11.1768ZM19.79 6.91797L18.8847 7.34276L19.79 6.91797ZM18.6484 5.57129L18.1105 6.4143L18.1141 6.41659L18.6484 5.57129ZM15.3877 5.57129L14.8534 4.72598L14.8498 4.72829L15.3877 5.57129ZM21.3965 9.05078H20.3965C20.3965 9.95451 20.2321 10.6978 19.9363 11.3076L20.8359 11.7441L21.7356 12.1807C22.1871 11.2501 22.3965 10.1978 22.3965 9.05078H21.3965ZM20.8359 11.7441L19.9373 11.3055C19.6385 11.9176 19.2407 12.3591 18.7484 12.666L19.2773 13.5146L19.8063 14.3633C20.6447 13.8407 21.286 13.1019 21.7346 12.1828L20.8359 11.7441ZM19.2773 13.5146L18.7458 12.6676C18.2571 12.9743 17.6923 13.1367 17.0215 13.1367V14.1367V15.1367C18.0369 15.1367 18.976 14.8844 19.8089 14.3617L19.2773 13.5146ZM17.0215 14.1367V13.1367C16.3451 13.1367 15.7747 12.9738 15.2809 12.666L14.752 13.5146L14.223 14.3633C15.0599 14.885 16.0026 15.1367 17.0215 15.1367V14.1367ZM14.752 13.5146L15.2835 12.6676C14.7952 12.3612 14.3985 11.9194 14.0989 11.3055L13.2002 11.7441L12.3015 12.1828C12.7493 13.1001 13.3871 13.8387 14.2204 14.3617L14.752 13.5146ZM13.2002 11.7441L14.102 11.3119C13.8092 10.701 13.6465 9.95618 13.6465 9.05078H12.6465H11.6465C11.6465 10.1962 11.8529 11.2469 12.2984 12.1764L13.2002 11.7441ZM12.6465 9.05078H13.6465C13.6465 8.14519 13.8092 7.40363 14.101 6.79856L13.2002 6.36426L12.2994 5.92996C11.8529 6.85614 11.6465 7.9056 11.6465 9.05078H12.6465ZM13.2002 6.36426L14.0999 6.80079C14.4 6.18224 14.7967 5.73943 15.2835 5.43393L14.752 4.58691L14.2204 3.7399C13.3856 4.26382 12.7478 5.00591 12.3005 5.92772L13.2002 6.36426ZM14.752 4.58691L15.2809 5.43556C15.7747 5.12779 16.3451 4.96484 17.0215 4.96484V3.96484V2.96484C16.0026 2.96484 15.0599 3.21661 14.223 3.73826L14.752 4.58691ZM17.0215 3.96484V4.96484C17.6923 4.96484 18.2571 5.12725 18.7458 5.43393L19.2773 4.58691L19.8089 3.7399C18.976 3.21716 18.0369 2.96484 17.0215 2.96484V3.96484ZM19.2773 4.58691L18.7484 5.43556C19.2392 5.74149 19.637 6.18401 19.9363 6.80079L20.8359 6.36426L21.7356 5.92772C21.2875 5.00414 20.6462 4.26176 19.8063 3.73826L19.2773 4.58691ZM20.8359 6.36426L19.9373 6.80289C20.2321 7.40688 20.3965 8.14686 20.3965 9.05078H21.3965H22.3965C22.3965 7.90393 22.1872 6.85289 21.7346 5.92562L20.8359 6.36426ZM13.8359 9.05078H12.8359C12.8359 9.98538 12.9932 10.8462 13.3476 11.6015L14.2529 11.1768L15.1582 10.752C14.9566 10.3224 14.8359 9.76592 14.8359 9.05078H13.8359ZM14.2529 11.1768L13.3476 11.6015C13.6935 12.3386 14.1885 12.9445 14.8498 13.3664L15.3877 12.5234L15.9256 11.6804C15.6299 11.4917 15.3684 11.1998 15.1582 10.752L14.2529 11.1768ZM15.3877 12.5234L14.8534 13.3687C15.5039 13.7799 16.2331 13.9824 17.014 13.9883L17.0215 12.9883L17.029 11.9883C16.5976 11.9851 16.2376 11.8777 15.922 11.6781L15.3877 12.5234ZM17.0215 12.9883L17.029 13.9883C17.8099 13.9824 18.5385 13.7799 19.1864 13.3664L18.6484 12.5234L18.1105 11.6804C17.8014 11.8777 17.4454 11.9851 17.014 11.9883L17.0215 12.9883ZM18.6484 12.5234L19.1827 13.3687C19.8495 12.9473 20.3484 12.341 20.6953 11.6015L19.79 11.1768L18.8847 10.752C18.6757 11.1974 18.4136 11.4889 18.1141 11.6781L18.6484 12.5234ZM19.79 11.1768L20.6953 11.6015C21.0497 10.8462 21.207 9.98538 21.207 9.05078H20.207H19.207C19.207 9.76592 19.0863 10.3224 18.8847 10.752L19.79 11.1768ZM20.207 9.05078H21.207C21.207 8.11255 21.0501 7.24914 20.6953 6.49318L19.79 6.91797L18.8847 7.34276C19.086 7.77169 19.207 8.33016 19.207 9.05078H20.207ZM19.79 6.91797L20.6953 6.49318C20.3484 5.75373 19.8495 5.14741 19.1827 4.72599L18.6484 5.57129L18.1141 6.41659C18.4136 6.60584 18.6757 6.89731 18.8847 7.34276L19.79 6.91797ZM18.6484 5.57129L19.1864 4.72829C18.5361 4.31339 17.8047 4.11328 17.0215 4.11328V5.11328V6.11328C17.4505 6.11328 17.8037 6.21851 18.1105 6.41429L18.6484 5.57129ZM17.0215 5.11328V4.11328C16.2382 4.11328 15.5062 4.31337 14.8534 4.72599L15.3877 5.57129L15.922 6.41659C16.2353 6.21853 16.5925 6.11328 17.0215 6.11328V5.11328ZM15.3877 5.57129L14.8498 4.72829C14.1885 5.15027 13.6935 5.75614 13.3476 6.49318L14.2529 6.91797L15.1582 7.34276C15.3684 6.8949 15.6299 6.60299 15.9256 6.41429L15.3877 5.57129ZM14.2529 6.91797L13.3476 6.49318C12.9929 7.24914 12.8359 8.11255 12.8359 9.05078H13.8359H14.8359C14.8359 8.33016 14.957 7.77169 15.1582 7.34276L14.2529 6.91797ZM31.0625 14V15L32.0625 14H31.0625ZM29.8867 14L29.0656 14.5707L29.8867 15V14ZM24.5273 6.28906L25.3485 5.71834L24.5273 5.28906V6.28906ZM24.4316 6.28906V5.28906L23.4316 6.28906H24.4316ZM24.4316 14V15L25.4316 14H24.4316ZM23.2012 14H22.2012L23.2012 15V14ZM23.2012 4.10156V3.10156L22.2012 4.10156H23.2012ZM24.3906 4.10156L25.2122 3.53152L24.3906 3.10156V4.10156ZM29.75 11.8262L28.9284 12.3962L29.75 12.8262V11.8262ZM29.8457 11.8262V12.8262L30.8457 11.8262H29.8457ZM29.8457 4.10156V3.10156L28.8457 4.10156H29.8457ZM31.0625 4.10156H32.0625L31.0625 3.10156V4.10156ZM31.0625 14V13H29.8867V14V15H31.0625V14ZM29.8867 14L30.7079 13.4293L25.3485 5.71834L24.5273 6.28906L23.7062 6.85979L29.0656 14.5707L29.8867 14ZM24.5273 6.28906V5.28906H24.4316V6.28906V7.28906H24.5273V6.28906ZM24.4316 6.28906H23.4316V14H24.4316H25.4316V6.28906H24.4316ZM24.4316 14V13H23.2012V14V15H24.4316V14ZM23.2012 14H24.2012V4.10156H23.2012H22.2012V14H23.2012ZM23.2012 4.10156V5.10156H24.3906V4.10156V3.10156H23.2012V4.10156ZM24.3906 4.10156L23.569 4.6716L28.9284 12.3962L29.75 11.8262L30.5716 11.2561L25.2122 3.53152L24.3906 4.10156ZM29.75 11.8262V12.8262H29.8457V11.8262V10.8262H29.75V11.8262ZM29.8457 11.8262H30.8457V4.10156H29.8457H28.8457V11.8262H29.8457ZM29.8457 4.10156V5.10156H31.0625V4.10156V3.10156H29.8457V4.10156ZM31.0625 4.10156H30.0625V14H31.0625H32.0625V4.10156H31.0625ZM38.6504 6.58984L37.6554 6.68935L38.6504 7.58984V6.58984ZM38.3086 5.76953L37.544 6.41416L37.5504 6.42157L38.3086 5.76953ZM37.5361 5.24316L37.1762 6.17624L37.1879 6.18059L37.5361 5.24316ZM35.3281 5.27051L35.7128 6.19365L35.7236 6.18899L35.3281 5.27051ZM34.2891 6.68555H33.289L33.2891 6.69545L34.2891 6.68555ZM34.8564 7.74512L34.3064 8.58032L34.3136 8.58496L34.8564 7.74512ZM36.2031 8.29883L36.4708 7.33531L36.4397 7.32721L36.2031 8.29883ZM37.1875 8.57227L36.9199 9.53578L36.9395 9.54104L37.1875 8.57227ZM39.1631 9.47461L38.5706 10.2802L39.1631 9.47461ZM39.5664 12.7764L40.4039 13.3229L40.4064 13.3189L39.5664 12.7764ZM34.5557 13.8359L34.1473 14.7488L34.1569 14.753L34.5557 13.8359ZM33.332 12.8721L32.5183 13.4533L32.5214 13.4576L33.332 12.8721ZM32.8262 11.4297V10.4297L31.829 11.5045L32.8262 11.4297ZM34.084 11.4297L35.08 11.3403L34.084 10.4297V11.4297ZM35.2803 12.8857L34.9375 13.8252L34.9527 13.8306L35.2803 12.8857ZM36.3945 13.0566V12.0566L36.3832 12.0567L36.3945 13.0566ZM37.6182 12.8379L37.2468 11.9094L37.2427 11.911L37.6182 12.8379ZM38.4727 12.2158L37.679 11.6074L37.6775 11.6094L38.4727 12.2158ZM38.5273 10.5137L37.7549 11.1488L37.7633 11.1589L38.5273 10.5137ZM37.8574 10.0146L38.2746 9.10582L37.8574 10.0146ZM36.832 9.65234L37.1025 8.68955L37.0924 8.68683L36.832 9.65234ZM35.6152 9.32422L35.3348 10.2841L35.3549 10.2897L35.6152 9.32422ZM33.7422 8.33984L33.0465 9.05821L33.0503 9.06183L33.7422 8.33984ZM33.0996 6.74023L34.0996 6.74728V6.74023H33.0996ZM33.5439 5.29102L34.3607 5.86805L34.3636 5.86389L33.5439 5.29102ZM34.7676 4.31348L35.1693 5.22929L35.1759 5.22629L34.7676 4.31348ZM38.1992 4.30664L37.7854 5.21701L37.7885 5.21841L38.1992 4.30664ZM39.3955 5.25L38.5868 5.83818L38.59 5.84257L39.3955 5.25ZM39.8535 6.58984V7.58984L40.8531 6.56233L39.8535 6.58984ZM38.6504 6.58984L39.6454 6.49034C39.5946 5.98161 39.4056 5.5115 39.0668 5.11749L38.3086 5.76953L37.5504 6.42157C37.6035 6.48329 37.6424 6.56006 37.6554 6.68935L38.6504 6.58984ZM38.3086 5.76953L39.0731 5.12493C38.7532 4.74544 38.3453 4.47698 37.8843 4.30574L37.5361 5.24316L37.1879 6.18059C37.3649 6.24633 37.4721 6.32878 37.5441 6.41413L38.3086 5.76953ZM37.5361 5.24316L37.896 4.31016C37.4454 4.13636 36.9631 4.05859 36.4629 4.05859V5.05859V6.05859C36.7557 6.05859 36.9888 6.10387 37.1763 6.17617L37.5361 5.24316ZM36.4629 5.05859V4.05859C35.9251 4.05859 35.408 4.14738 34.9327 4.35202L35.3281 5.27051L35.7236 6.18899C35.9045 6.11109 36.1439 6.05859 36.4629 6.05859V5.05859ZM35.3281 5.27051L34.9435 4.34743C34.4759 4.54228 34.065 4.83635 33.7589 5.2495L34.5625 5.84473L35.3661 6.43995C35.4246 6.36092 35.5241 6.27217 35.7127 6.19358L35.3281 5.27051ZM34.5625 5.84473L33.7589 5.2495C33.4455 5.67271 33.2891 6.16292 33.2891 6.68555H34.2891H35.2891C35.2891 6.57927 35.315 6.50893 35.3661 6.43995L34.5625 5.84473ZM34.2891 6.68555L33.2891 6.69545C33.2969 7.47709 33.6453 8.14491 34.3065 8.58029L34.8564 7.74512L35.4064 6.90995C35.3421 6.86757 35.323 6.83693 35.3159 6.82359C35.3081 6.80913 35.2899 6.76862 35.289 6.67565L34.2891 6.68555ZM34.8564 7.74512L34.3136 8.58496C34.7988 8.89858 35.3561 9.1218 35.9666 9.27044L36.2031 8.29883L36.4397 7.32721C36.002 7.22065 35.6614 7.07472 35.3993 6.90527L34.8564 7.74512ZM36.2031 8.29883L35.9355 9.26235L36.9199 9.53578L37.1875 8.57227L37.4551 7.60875L36.4708 7.33531L36.2031 8.29883ZM37.1875 8.57227L36.9395 9.54104C37.5999 9.71005 38.1371 9.96137 38.5706 10.2802L39.1631 9.47461L39.7556 8.66905C39.0862 8.17665 38.3064 7.8264 37.4355 7.6035L37.1875 8.57227ZM39.1631 9.47461L38.5706 10.2802C38.8149 10.4599 38.9902 10.74 38.9902 11.3066H39.9902H40.9902C40.9902 10.2418 40.6141 9.30052 39.7556 8.66905L39.1631 9.47461ZM39.9902 11.3066H38.9902C38.9902 11.6649 38.9 11.9649 38.7264 12.2338L39.5664 12.7764L40.4064 13.3189C40.7979 12.7128 40.9902 12.033 40.9902 11.3066H39.9902ZM39.5664 12.7764L38.729 12.2298C38.5642 12.4823 38.3085 12.7096 37.9096 12.894L38.3291 13.8018L38.7486 14.7095C39.4343 14.3926 40.0035 13.9363 40.4038 13.3229L39.5664 12.7764ZM38.3291 13.8018L37.9096 12.894C37.5274 13.0706 37.0324 13.1777 36.3945 13.1777V14.1777V15.1777C37.2515 15.1777 38.0461 15.0342 38.7486 14.7095L38.3291 13.8018ZM36.3945 14.1777V13.1777C35.7994 13.1777 35.3274 13.0811 34.9544 12.9189L34.5557 13.8359L34.1569 14.753C34.8321 15.0465 35.586 15.1777 36.3945 15.1777V14.1777ZM34.5557 13.8359L34.964 12.9231C34.5846 12.7534 34.3236 12.537 34.1427 12.2866L33.332 12.8721L32.5214 13.4576C32.9329 14.0275 33.4877 14.4537 34.1473 14.7488L34.5557 13.8359ZM33.332 12.8721L34.1458 12.2908C33.964 12.0363 33.8518 11.7338 33.8234 11.3549L32.8262 11.4297L31.829 11.5045C31.8826 12.2194 32.1077 12.8784 32.5183 13.4533L33.332 12.8721ZM32.8262 11.4297V12.4297H34.084V11.4297V10.4297H32.8262V11.4297ZM34.084 11.4297L33.088 11.5191C33.1369 12.0636 33.3333 12.5686 33.6988 12.9886L34.4531 12.332L35.2074 11.6755C35.1446 11.6033 35.0949 11.5067 35.08 11.3403L34.084 11.4297ZM34.4531 12.332L33.6988 12.9886C34.0349 13.3747 34.4577 13.6501 34.9375 13.8252L35.2803 12.8857L35.623 11.9463C35.4284 11.8753 35.2997 11.7815 35.2074 11.6755L34.4531 12.332ZM35.2803 12.8857L34.9527 13.8306C35.4147 13.9907 35.902 14.0623 36.4059 14.0566L36.3945 13.0566L36.3832 12.0567C36.085 12.0601 35.8295 12.0177 35.6078 11.9409L35.2803 12.8857ZM36.3945 13.0566V14.0566C36.957 14.0566 37.4955 13.9665 37.9936 13.7647L37.6182 12.8379L37.2427 11.911C37.0207 12.001 36.7435 12.0566 36.3945 12.0566V13.0566ZM37.6182 12.8379L37.9896 13.7664C38.4945 13.5644 38.9365 13.2566 39.2678 12.8223L38.4727 12.2158L37.6775 11.6094C37.5986 11.7128 37.471 11.8197 37.2468 11.9094L37.6182 12.8379ZM38.4727 12.2158L39.2663 12.8243C39.6124 12.3728 39.7871 11.8458 39.7871 11.2793H38.7871H37.7871C37.7871 11.4146 37.7522 11.512 37.6791 11.6074L38.4727 12.2158ZM38.7871 11.2793H39.7871C39.7871 10.7723 39.6378 10.2787 39.2914 9.86849L38.5273 10.5137L37.7633 11.1589C37.7689 11.1654 37.7719 11.1705 37.7752 11.1802C37.779 11.1915 37.7871 11.2216 37.7871 11.2793H38.7871ZM38.5273 10.5137L39.2998 9.87857C39.0214 9.53995 38.6693 9.28698 38.2746 9.10582L37.8574 10.0146L37.4403 10.9235C37.6016 10.9975 37.6961 11.0772 37.7549 11.1488L38.5273 10.5137ZM37.8574 10.0146L38.2746 9.10582C37.9352 8.95005 37.541 8.81279 37.1025 8.6896L36.832 9.65234L36.5616 10.6151C36.9342 10.7198 37.2236 10.824 37.4403 10.9235L37.8574 10.0146ZM36.832 9.65234L37.0924 8.68683L35.8756 8.35871L35.6152 9.32422L35.3549 10.2897L36.5717 10.6179L36.832 9.65234ZM35.6152 9.32422L35.8956 8.36434C35.1813 8.15565 34.7189 7.8908 34.4341 7.61786L33.7422 8.33984L33.0503 9.06183C33.6405 9.62743 34.4268 10.0188 35.3348 10.2841L35.6152 9.32422ZM33.7422 8.33984L34.4379 7.62149C34.2168 7.40737 34.0968 7.14366 34.0996 6.74728L33.0996 6.74023L32.0996 6.73319C32.0933 7.63108 32.4017 8.43377 33.0465 9.0582L33.7422 8.33984ZM33.0996 6.74023H34.0996C34.0996 6.38575 34.1917 6.10724 34.3607 5.86805L33.5439 5.29102L32.7272 4.71398C32.3038 5.31333 32.0996 6.00097 32.0996 6.74023H33.0996ZM33.5439 5.29102L34.3636 5.86389C34.5445 5.60499 34.801 5.39077 35.1692 5.22926L34.7676 4.31348L34.3659 3.39769C33.6951 3.69191 33.1358 4.12938 32.7243 4.71814L33.5439 5.29102ZM34.7676 4.31348L35.1759 5.22629C35.5523 5.05793 35.9895 4.96484 36.5039 4.96484V3.96484V2.96484C35.7422 2.96484 35.0219 3.10418 34.3592 3.40066L34.7676 4.31348ZM36.5039 3.96484V4.96484C37.0103 4.96484 37.4313 5.05606 37.7854 5.21701L38.1992 4.30664L38.613 3.39627C37.9645 3.1015 37.2553 2.96484 36.5039 2.96484V3.96484ZM38.1992 4.30664L37.7885 5.21841C38.1551 5.38352 38.4091 5.5939 38.5868 5.83817L39.3955 5.25L40.2042 4.66183C39.7986 4.10401 39.2551 3.68549 38.6099 3.39487L38.1992 4.30664ZM39.3955 5.25L38.59 5.84257C38.7596 6.0732 38.8458 6.32225 38.8539 6.61736L39.8535 6.58984L40.8531 6.56233C40.8339 5.86395 40.6147 5.21977 40.201 4.65743L39.3955 5.25ZM39.8535 6.58984V5.58984H38.6504V6.58984V7.58984H39.8535V6.58984ZM41.207 4.10156V3.10156L40.207 4.10156H41.207ZM48.6719 4.10156H49.6719L48.6719 3.10156V4.10156ZM48.6719 5.19531V6.19531L49.6719 5.19531H48.6719ZM45.5684 5.19531V4.19531L44.5684 5.19531H45.5684ZM45.5684 14V15L46.5684 14H45.5684ZM44.3242 14H43.3242L44.3242 15V14ZM44.3242 5.19531H45.3242L44.3242 4.19531V5.19531ZM41.207 5.19531H40.207L41.207 6.19531V5.19531ZM41.207 4.10156V5.10156H48.6719V4.10156V3.10156H41.207V4.10156ZM48.6719 4.10156H47.6719V5.19531H48.6719H49.6719V4.10156H48.6719ZM48.6719 5.19531V4.19531H45.5684V5.19531V6.19531H48.6719V5.19531ZM45.5684 5.19531H44.5684V14H45.5684H46.5684V5.19531H45.5684ZM45.5684 14V13H44.3242V14V15H45.5684V14ZM44.3242 14H45.3242V5.19531H44.3242H43.3242V14H44.3242ZM44.3242 5.19531V4.19531H41.207V5.19531V6.19531H44.3242V5.19531ZM41.207 5.19531H42.207V4.10156H41.207H40.207V5.19531H41.207ZM48.3027 14L47.3637 13.6563L48.3027 15V14ZM51.9258 4.10156V3.10156L50.9867 3.75784L51.9258 4.10156ZM53.2246 4.10156L54.1637 3.75784L53.2246 3.10156V4.10156ZM56.8477 14V15L57.7867 13.6563L56.8477 14ZM55.5488 14L54.6066 14.3349L55.5488 15V14ZM54.5576 11.2109L55.4999 10.8761L54.5576 10.2109V11.2109ZM50.5791 11.2109V10.2109L49.6368 10.8761L50.5791 11.2109ZM49.5879 14V15L50.5302 14.3349L49.5879 14ZM54.1816 10.1309V11.1309L55.124 9.79637L54.1816 10.1309ZM52.6094 5.70117L53.5518 5.36668L52.6094 4.70117V5.70117ZM52.5273 5.70117V4.70117L51.5849 5.36668L52.5273 5.70117ZM50.9551 10.1309L50.0127 9.79637L50.9551 11.1309V10.1309ZM48.3027 14L49.2418 14.3437L52.8649 4.44528L51.9258 4.10156L50.9867 3.75784L47.3637 13.6563L48.3027 14ZM51.9258 4.10156V5.10156H53.2246V4.10156V3.10156H51.9258V4.10156ZM53.2246 4.10156L52.2855 4.44528L55.9086 14.3437L56.8477 14L57.7867 13.6563L54.1637 3.75784L53.2246 4.10156ZM56.8477 14V13H55.5488V14V15H56.8477V14ZM55.5488 14L56.4911 13.6651L55.4999 10.8761L54.5576 11.2109L53.6154 11.5458L54.6066 14.3349L55.5488 14ZM54.5576 11.2109V10.2109H50.5791V11.2109V12.2109H54.5576V11.2109ZM50.5791 11.2109L49.6368 10.8761L48.6456 13.6651L49.5879 14L50.5302 14.3349L51.5214 11.5458L50.5791 11.2109ZM49.5879 14V13H48.3027V14V15H49.5879V14ZM54.1816 10.1309L55.124 9.79637L53.5518 5.36668L52.6094 5.70117L51.667 6.03567L53.2392 10.4654L54.1816 10.1309ZM52.6094 5.70117V4.70117H52.5273V5.70117V6.70117H52.6094V5.70117ZM52.5273 5.70117L51.5849 5.36668L50.0127 9.79637L50.9551 10.1309L51.8975 10.4654L53.4697 6.03567L52.5273 5.70117ZM50.9551 10.1309V11.1309H54.1816V10.1309V9.13086H50.9551V10.1309ZM58.1875 4.10156V3.10156L57.1875 4.10156H58.1875ZM63.4307 4.49121L62.9706 5.37914L62.9802 5.38402L63.4307 4.49121ZM64.5586 5.56445L63.6767 6.03595L63.6787 6.0396L64.5586 5.56445ZM64.4629 8.88672L63.6212 8.34676L63.6199 8.3488L64.4629 8.88672ZM63.082 9.92578L62.7532 8.98138L62.2047 10.4057L63.082 9.92578ZM65.3105 14V15L66.1879 13.5201L65.3105 14ZM63.875 14L62.9944 14.4739L63.875 15V14ZM61.8037 10.1514L62.6843 9.67745L61.7132 9.15547L61.8037 10.1514ZM59.418 10.1582V9.1582L58.418 10.1582H59.418ZM59.418 14V15L60.418 14H59.418ZM58.1875 14H57.1875L58.1875 15V14ZM63.1777 8.55176L62.4998 7.81657L62.4951 7.82102L63.1777 8.55176ZM63.7109 7.15039L64.7109 7.15785L64.7109 7.1434L63.7109 7.15039ZM59.418 5.19531V4.19531L58.418 5.19531H59.418ZM59.418 9.03711H58.418L59.418 10.0371V9.03711ZM58.1875 4.10156V5.10156H61.5508V4.10156V3.10156H58.1875V4.10156ZM61.5508 4.10156V5.10156C62.1936 5.10156 62.6507 5.21332 62.9706 5.37909L63.4307 4.49121L63.8907 3.60333C63.208 3.24957 62.4119 3.10156 61.5508 3.10156V4.10156ZM63.4307 4.49121L62.9802 5.38402C63.3189 5.55487 63.536 5.77282 63.6767 6.03595L64.5586 5.56445L65.4405 5.09296C65.089 4.43552 64.5542 3.93797 63.8811 3.5984L63.4307 4.49121ZM64.5586 5.56445L63.6787 6.0396C63.8341 6.32737 63.9277 6.68779 63.9277 7.15039H64.9277H65.9277C65.9277 6.40987 65.7753 5.713 65.4385 5.0893L64.5586 5.56445ZM64.9277 7.15039H63.9277C63.9277 7.66756 63.8107 8.05131 63.6212 8.34676L64.4629 8.88672L65.3046 9.42667C65.7348 8.75598 65.9277 7.98217 65.9277 7.15039H64.9277ZM64.4629 8.88672L63.6199 8.3488C63.4529 8.61051 63.1891 8.82962 62.7532 8.98138L63.082 9.92578L63.4108 10.8702C64.2054 10.5936 64.8622 10.12 65.3059 9.42463L64.4629 8.88672ZM63.082 9.92578L62.2047 10.4057L64.4332 14.4799L65.3105 14L66.1879 13.5201L63.9594 9.4459L63.082 9.92578ZM65.3105 14V13H63.875V14V15H65.3105V14ZM63.875 14L64.7556 13.5261L62.6843 9.67745L61.8037 10.1514L60.9231 10.6253L62.9944 14.4739L63.875 14ZM61.8037 10.1514L61.7132 9.15547C61.717 9.15513 61.7074 9.15606 61.6777 9.1569C61.6501 9.15769 61.6128 9.1582 61.5645 9.1582V10.1582V11.1582C61.6775 11.1582 61.7958 11.1562 61.8942 11.1473L61.8037 10.1514ZM61.5645 10.1582V9.1582H59.418V10.1582V11.1582H61.5645V10.1582ZM59.418 10.1582H58.418V14H59.418H60.418V10.1582H59.418ZM59.418 14V13H58.1875V14V15H59.418V14ZM58.1875 14H59.1875V4.10156H58.1875H57.1875V14H58.1875ZM61.5098 9.03711V10.0371C62.3809 10.0371 63.2434 9.85888 63.8604 9.28249L63.1777 8.55176L62.4951 7.82102C62.4193 7.89177 62.1699 8.03711 61.5098 8.03711V9.03711ZM63.1777 8.55176L63.8556 9.28693C64.4632 8.72669 64.7049 7.96333 64.7109 7.15785L63.7109 7.15039L62.711 7.14293C62.7079 7.55881 62.5941 7.72969 62.4999 7.81659L63.1777 8.55176ZM63.7109 7.15039L64.7109 7.1434C64.705 6.30434 64.4578 5.5043 63.8122 4.93438C63.1888 4.38409 62.3573 4.19531 61.4961 4.19531V5.19531V6.19531C62.1023 6.19531 62.3737 6.33238 62.4886 6.43378C62.5813 6.51556 62.7077 6.69306 62.711 7.15738L63.7109 7.15039ZM61.4961 5.19531V4.19531H59.418V5.19531V6.19531H61.4961V5.19531ZM59.418 5.19531H58.418V9.03711H59.418H60.418V5.19531H59.418ZM59.418 9.03711V10.0371H61.5098V9.03711V8.03711H59.418V9.03711ZM70.2188 4.10156V3.10156L69.2188 4.10156H70.2188ZM76.5898 5.63281L75.7023 6.09363L75.7042 6.09714L76.5898 5.63281ZM76.5898 8.86621L77.4773 9.32703L77.4791 9.32356L76.5898 8.86621ZM75.4619 9.99414L75.9408 10.872L75.9435 10.8705L75.4619 9.99414ZM71.4492 10.4043V9.4043L70.4492 10.4043H71.4492ZM71.4492 14V15L72.4492 14H71.4492ZM70.2188 14H69.2188L70.2188 15V14ZM75.7422 7.24609L76.7422 7.25334V7.23885L75.7422 7.24609ZM75.1953 5.74902L74.475 6.44268L74.4794 6.44724L75.1953 5.74902ZM71.4492 5.19531V4.19531L70.4492 5.19531H71.4492ZM71.4492 9.31055H70.4492L71.4492 10.3105V9.31055ZM70.2188 4.10156V5.10156H73.582V4.10156V3.10156H70.2188V4.10156ZM73.582 4.10156V5.10156C74.2117 5.10156 74.6639 5.21709 74.9864 5.39143L75.4619 4.51172L75.9374 3.63201C75.2482 3.25947 74.4472 3.10156 73.582 3.10156V4.10156ZM75.4619 4.51172L74.9864 5.39143C75.3303 5.57731 75.5557 5.8112 75.7023 6.09363L76.5898 5.63281L77.4773 5.172C77.1318 4.50651 76.6053 3.99301 75.9374 3.63201L75.4619 4.51172ZM76.5898 5.63281L75.7042 6.09714C75.865 6.4039 75.959 6.77831 75.959 7.24609H76.959H77.959C77.959 6.50164 77.8069 5.80053 77.4755 5.16848L76.5898 5.63281ZM76.959 7.24609H75.959C75.959 7.70758 75.8657 8.08781 75.7006 8.40886L76.5898 8.86621L77.4791 9.32356C77.8062 8.68758 77.959 7.98773 77.959 7.24609H76.959ZM76.5898 8.86621L75.7023 8.4054C75.5549 8.68942 75.3274 8.92701 74.9803 9.11776L75.4619 9.99414L75.9435 10.8705C76.6081 10.5053 77.1326 9.99092 77.4773 9.32703L76.5898 8.86621ZM75.4619 9.99414L74.9831 9.11625C74.6663 9.28904 74.2201 9.4043 73.5957 9.4043V10.4043V11.4043C74.457 11.4043 75.255 11.2461 75.9408 10.872L75.4619 9.99414ZM73.5957 10.4043V9.4043H71.4492V10.4043V11.4043H73.5957V10.4043ZM71.4492 10.4043H70.4492V14H71.4492H72.4492V10.4043H71.4492ZM71.4492 14V13H70.2188V14V15H71.4492V14ZM70.2188 14H71.2188V4.10156H70.2188H69.2188V14H70.2188ZM73.541 9.31055V10.3105C74.4405 10.3105 75.3102 10.0873 75.9267 9.43921L75.2021 8.75L74.4776 8.06079C74.3831 8.16008 74.1454 8.31055 73.541 8.31055V9.31055ZM75.2021 8.75L75.9267 9.43921C76.494 8.84286 76.7362 8.07753 76.7422 7.25334L75.7422 7.24609L74.7422 7.23885C74.7391 7.67247 74.6213 7.90975 74.4776 8.06079L75.2021 8.75ZM75.7422 7.24609L76.7422 7.23885C76.7362 6.41164 76.4896 5.64388 75.9112 5.05081L75.1953 5.74902L74.4794 6.44724C74.6211 6.59245 74.7391 6.82273 74.7422 7.25334L75.7422 7.24609ZM75.1953 5.74902L75.9156 5.05538C75.2976 4.41357 74.4262 4.19531 73.5273 4.19531V5.19531V6.19531C74.1415 6.19531 74.3821 6.34619 74.475 6.44267L75.1953 5.74902ZM73.5273 5.19531V4.19531H71.4492V5.19531V6.19531H73.5273V5.19531ZM71.4492 5.19531H70.4492V9.31055H71.4492H72.4492V5.19531H71.4492ZM71.4492 9.31055V10.3105H73.541V9.31055V8.31055H71.4492V9.31055ZM85.4355 7.21875L84.4561 7.42069L85.4355 8.21875V7.21875ZM84.8955 6.08398L84.1309 6.72847L84.1355 6.73387L84.8955 6.08398ZM83.9111 5.35938L83.5172 6.27853L83.5211 6.28019L83.9111 5.35938ZM81.04 5.57129L80.5057 4.72598L80.5021 4.72829L81.04 5.57129ZM81.04 12.5234L80.5021 13.3664L80.5057 13.3687L81.04 12.5234ZM82.6738 12.9883L82.6663 13.9883L82.6841 13.9882L82.6738 12.9883ZM83.9111 12.7422L84.2958 13.6653L84.3051 13.6613L83.9111 12.7422ZM85.4355 10.8965V9.89648L84.4586 10.6828L85.4355 10.8965ZM86.666 10.8965L87.6503 11.073L86.666 9.89648V10.8965ZM85.9277 12.626L86.7215 13.2343L86.7242 13.2307L85.9277 12.626ZM84.5195 13.7471L84.1019 12.8385L84.0991 12.8398L84.5195 13.7471ZM80.4043 13.5146L79.8727 14.3617L79.8753 14.3633L80.4043 13.5146ZM78.8525 11.7441L77.9507 12.1764L77.9539 12.1828L78.8525 11.7441ZM78.8525 6.36426L77.9529 5.92772L77.9518 5.92996L78.8525 6.36426ZM80.4043 4.58691L79.8753 3.73826L79.8727 3.7399L80.4043 4.58691ZM84.5195 4.35449L84.0991 5.26182L84.1052 5.26461L84.5195 4.35449ZM85.9209 5.47559L85.1244 6.08033L85.1308 6.0885L85.9209 5.47559ZM86.666 7.21875V8.21875L87.6509 7.04572L86.666 7.21875ZM85.4355 7.21875L86.4149 7.01681C86.2929 6.42474 86.044 5.88841 85.6555 5.4341L84.8955 6.08398L84.1355 6.73387C84.2848 6.90847 84.3959 7.12865 84.4561 7.42069L85.4355 7.21875ZM84.8955 6.08398L85.6601 5.43951C85.289 4.99916 84.8321 4.66345 84.3011 4.43856L83.9111 5.35938L83.5211 6.28019C83.7649 6.38343 83.9643 6.53079 84.1309 6.72846L84.8955 6.08398ZM83.9111 5.35938L84.3051 4.44023C83.7902 4.21959 83.2429 4.11328 82.6738 4.11328V5.11328V6.11328C82.9889 6.11328 83.2664 6.17103 83.5172 6.27852L83.9111 5.35938ZM82.6738 5.11328V4.11328C81.8906 4.11328 81.1585 4.31337 80.5057 4.72599L81.04 5.57129L81.5743 6.41659C81.8877 6.21853 82.2449 6.11328 82.6738 6.11328V5.11328ZM81.04 5.57129L80.5021 4.72829C79.8408 5.15027 79.3458 5.75614 79 6.49318L79.9053 6.91797L80.8106 7.34276C81.0207 6.8949 81.2822 6.60299 81.5779 6.41429L81.04 5.57129ZM79.9053 6.91797L79 6.49318C78.6453 7.24914 78.4883 8.11255 78.4883 9.05078H79.4883H80.4883C80.4883 8.33016 80.6093 7.77169 80.8106 7.34276L79.9053 6.91797ZM79.4883 9.05078H78.4883C78.4883 9.98538 78.6456 10.8462 79 11.6015L79.9053 11.1768L80.8106 10.752C80.609 10.3224 80.4883 9.76592 80.4883 9.05078H79.4883ZM79.9053 11.1768L79 11.6015C79.3458 12.3386 79.8408 12.9445 80.5021 13.3664L81.04 12.5234L81.5779 11.6804C81.2822 11.4917 81.0207 11.1998 80.8106 10.752L79.9053 11.1768ZM81.04 12.5234L80.5057 13.3687C81.1562 13.7799 81.8854 13.9824 82.6663 13.9883L82.6738 12.9883L82.6813 11.9883C82.25 11.9851 81.89 11.8777 81.5743 11.6781L81.04 12.5234ZM82.6738 12.9883L82.6841 13.9882C83.2462 13.9824 83.7866 13.8774 84.2957 13.6653L83.9111 12.7422L83.5265 11.8191C83.27 11.926 82.9856 11.985 82.6635 11.9883L82.6738 12.9883ZM83.9111 12.7422L84.3051 13.6613C84.828 13.4372 85.2794 13.1062 85.6487 12.6743L84.8887 12.0244L84.1286 11.3745C83.9602 11.5715 83.7599 11.719 83.5172 11.823L83.9111 12.7422ZM84.8887 12.0244L85.6487 12.6743C86.0334 12.2244 86.2845 11.6951 86.4124 11.1102L85.4355 10.8965L84.4586 10.6828C84.3952 10.9729 84.2817 11.1956 84.1286 11.3745L84.8887 12.0244ZM85.4355 10.8965V11.8965H86.666V10.8965V9.89648H85.4355V10.8965ZM86.666 10.8965L85.6817 10.72C85.5887 11.2389 85.4013 11.6656 85.1313 12.0213L85.9277 12.626L86.7242 13.2307C87.2015 12.602 87.5064 11.8757 87.6503 11.073L86.666 10.8965ZM85.9277 12.626L85.134 12.0177C84.8606 12.3744 84.5209 12.6458 84.1019 12.8385L84.5195 13.7471L84.9372 14.6557C85.6483 14.3288 86.2475 13.8528 86.7215 13.2343L85.9277 12.626ZM84.5195 13.7471L84.0991 12.8398C83.6811 13.0334 83.211 13.1367 82.6738 13.1367V14.1367V15.1367C83.4765 15.1367 84.2369 14.9802 84.94 14.6544L84.5195 13.7471ZM82.6738 14.1367V13.1367C81.9974 13.1367 81.427 12.9738 80.9333 12.666L80.4043 13.5146L79.8753 14.3633C80.7123 14.885 81.6549 15.1367 82.6738 15.1367V14.1367ZM80.4043 13.5146L80.9359 12.6676C80.4476 12.3612 80.0508 11.9194 79.7512 11.3055L78.8525 11.7441L77.9539 12.1828C78.4016 13.1001 79.0394 13.8387 79.8727 14.3617L80.4043 13.5146ZM78.8525 11.7441L79.7543 11.3119C79.4615 10.701 79.2988 9.95618 79.2988 9.05078H78.2988H77.2988C77.2988 10.1962 77.5053 11.2469 77.9508 12.1764L78.8525 11.7441ZM78.2988 9.05078H79.2988C79.2988 8.14519 79.4616 7.40363 79.7533 6.79856L78.8525 6.36426L77.9518 5.92996C77.5052 6.85614 77.2988 7.9056 77.2988 9.05078H78.2988ZM78.8525 6.36426L79.7522 6.80079C80.0524 6.18224 80.4491 5.73943 80.9359 5.43393L80.4043 4.58691L79.8727 3.7399C79.0379 4.26382 78.4001 5.00591 77.9529 5.92772L78.8525 6.36426ZM80.4043 4.58691L80.9333 5.43556C81.427 5.12779 81.9974 4.96484 82.6738 4.96484V3.96484V2.96484C81.6549 2.96484 80.7123 3.21661 79.8753 3.73826L80.4043 4.58691ZM82.6738 3.96484V4.96484C83.211 4.96484 83.6811 5.06811 84.0991 5.2618L84.5195 4.35449L84.94 3.44718C84.2369 3.12134 83.4765 2.96484 82.6738 2.96484V3.96484ZM84.5195 4.35449L84.1052 5.26461C84.5145 5.45097 84.8505 5.7195 85.1245 6.0803L85.9209 5.47559L86.7173 4.87088C86.2439 4.24729 85.6456 3.76843 84.9339 3.44438L84.5195 4.35449ZM85.9209 5.47559L85.1308 6.0885C85.3987 6.43392 85.5876 6.85971 85.6811 7.39178L86.666 7.21875L87.6509 7.04572C87.5074 6.22883 87.1996 5.49251 86.711 4.86267L85.9209 5.47559ZM86.666 7.21875V6.21875H85.4355V7.21875V8.21875H86.666V7.21875Z" fill="#00F2FF" mask="url(#path-1-outside-1_1919_9564)"/>
</g>
<path d="M108.094 4.10156H109.324V8.50391H114.561V4.10156H115.805V14H114.561V9.58398H109.324V14H108.094V4.10156ZM117.131 14L120.754 4.10156H122.053L125.676 14H124.377L123.386 11.2109H119.407L118.416 14H117.131ZM123.01 10.1309L121.438 5.70117H121.355L119.783 10.1309H123.01ZM125.307 4.10156H132.771V5.19531H129.668V14H128.424V5.19531H125.307V4.10156ZM139.812 6.58984C139.781 6.27083 139.667 5.9974 139.471 5.76953C139.275 5.53711 139.017 5.36165 138.698 5.24316C138.379 5.12012 138.021 5.05859 137.625 5.05859C137.197 5.05859 136.818 5.12923 136.49 5.27051C136.162 5.40723 135.907 5.59863 135.725 5.84473C135.542 6.09082 135.451 6.37109 135.451 6.68555C135.456 7.14583 135.645 7.49902 136.019 7.74512C136.392 7.98665 136.841 8.17122 137.365 8.29883L138.35 8.57227C139.115 8.76823 139.774 9.06901 140.325 9.47461C140.877 9.88021 141.152 10.4909 141.152 11.3066C141.152 11.849 141.011 12.3389 140.729 12.7764C140.446 13.2093 140.034 13.5511 139.491 13.8018C138.949 14.0524 138.304 14.1777 137.557 14.1777C136.855 14.1777 136.242 14.0638 135.718 13.8359C135.198 13.6035 134.79 13.2822 134.494 12.8721C134.198 12.4574 134.029 11.9766 133.988 11.4297H135.246C135.278 11.7852 135.401 12.0859 135.615 12.332C135.829 12.5781 136.105 12.7627 136.442 12.8857C136.784 13.0042 137.156 13.0612 137.557 13.0566C138.012 13.0566 138.42 12.9837 138.78 12.8379C139.145 12.6921 139.43 12.4847 139.635 12.2158C139.844 11.9424 139.949 11.6302 139.949 11.2793C139.949 10.974 139.863 10.7188 139.689 10.5137C139.521 10.3086 139.298 10.1423 139.02 10.0146C138.742 9.88704 138.4 9.76628 137.994 9.65234L136.777 9.32422C135.966 9.08724 135.342 8.75911 134.904 8.33984C134.471 7.92057 134.257 7.38737 134.262 6.74023C134.262 6.19336 134.41 5.71029 134.706 5.29102C135.002 4.86719 135.41 4.54134 135.93 4.31348C136.449 4.08105 137.028 3.96484 137.666 3.96484C138.295 3.96484 138.86 4.07878 139.361 4.30664C139.867 4.53451 140.266 4.84896 140.558 5.25C140.849 5.64648 141.002 6.0931 141.016 6.58984H139.812ZM150.627 4.10156V10.6504C150.627 11.3249 150.467 11.931 150.148 12.4688C149.829 13.002 149.378 13.4212 148.795 13.7266C148.212 14.0273 147.537 14.1777 146.771 14.1777C146.006 14.1777 145.331 14.0273 144.748 13.7266C144.165 13.4212 143.714 13.002 143.395 12.4688C143.076 11.931 142.916 11.3249 142.916 10.6504V4.10156H144.146V10.5547C144.146 11.0332 144.251 11.4593 144.461 11.833C144.671 12.2067 144.974 12.5007 145.37 12.7148C145.771 12.9245 146.238 13.0293 146.771 13.0293C147.305 13.0293 147.77 12.9245 148.166 12.7148C148.562 12.5007 148.866 12.2067 149.075 11.833C149.285 11.4593 149.392 11.0332 149.396 10.5547V4.10156H150.627ZM160.676 14H159.5L154.141 6.28906H154.045V14H152.814V4.10156H154.004L159.363 11.8262H159.459V4.10156H160.676V14ZM162.863 4.10156H168.865V5.19531H164.094V8.50391H168.551V9.58398H164.094V12.9062H168.934V14H162.863V4.10156ZM175.797 4.10156L179.133 12.25H179.256L182.592 4.10156H184.068V14H182.906V6.52148H182.811L179.734 14H178.641L175.564 6.52148H175.482V14H174.32V4.10156H175.797ZM187.486 14H186.256V4.10156H187.486V14ZM189.674 4.10156H190.904V8.99609H191.027L195.43 4.10156H197.043L192.9 8.57227L197.043 14H195.539L192.135 9.41992L190.904 10.8145V14H189.674V4.10156ZM206.08 4.10156V10.6504C206.08 11.3249 205.921 11.931 205.602 12.4688C205.283 13.002 204.831 13.4212 204.248 13.7266C203.665 14.0273 202.99 14.1777 202.225 14.1777C201.459 14.1777 200.785 14.0273 200.201 13.7266C199.618 13.4212 199.167 13.002 198.848 12.4688C198.529 11.931 198.369 11.3249 198.369 10.6504V4.10156H199.6V10.5547C199.6 11.0332 199.704 11.4593 199.914 11.833C200.124 12.2067 200.427 12.5007 200.823 12.7148C201.224 12.9245 201.691 13.0293 202.225 13.0293C202.758 13.0293 203.223 12.9245 203.619 12.7148C204.016 12.5007 204.319 12.2067 204.528 11.833C204.738 11.4593 204.845 11.0332 204.85 10.5547V4.10156H206.08Z" fill="#FF0091"/>
<path d="M108.094 4.10156V3.60156L107.594 4.10156H108.094ZM109.324 4.10156H109.824L109.324 3.60156V4.10156ZM109.324 8.50391H108.824L109.324 9.00391V8.50391ZM114.561 8.50391V9.00391L115.061 8.50391H114.561ZM114.561 4.10156V3.60156L114.061 4.10156H114.561ZM115.805 4.10156H116.305L115.805 3.60156V4.10156ZM115.805 14V14.5L116.305 14H115.805ZM114.561 14H114.061L114.561 14.5V14ZM114.561 9.58398H115.061L114.561 9.08398V9.58398ZM109.324 9.58398V9.08398L108.824 9.58398H109.324ZM109.324 14V14.5L109.824 14H109.324ZM108.094 14H107.594L108.094 14.5V14ZM108.094 4.10156V4.60156H109.324V4.10156V3.60156H108.094V4.10156ZM109.324 4.10156H108.824V8.50391H109.324H109.824V4.10156H109.324ZM109.324 8.50391V9.00391H114.561V8.50391V8.00391H109.324V8.50391ZM114.561 8.50391H115.061V4.10156H114.561H114.061V8.50391H114.561ZM114.561 4.10156V4.60156H115.805V4.10156V3.60156H114.561V4.10156ZM115.805 4.10156H115.305V14H115.805H116.305V4.10156H115.805ZM115.805 14V13.5H114.561V14V14.5H115.805V14ZM114.561 14H115.061V9.58398H114.561H114.061V14H114.561ZM114.561 9.58398V9.08398H109.324V9.58398V10.084H114.561V9.58398ZM109.324 9.58398H108.824V14H109.324H109.824V9.58398H109.324ZM109.324 14V13.5H108.094V14V14.5H109.324V14ZM108.094 14H108.594V4.10156H108.094H107.594V14H108.094ZM117.131 14L116.661 13.8281L117.131 14.5V14ZM120.754 4.10156V3.60156L120.284 3.9297L120.754 4.10156ZM122.053 4.10156L122.522 3.9297L122.053 3.60156V4.10156ZM125.676 14V14.5L126.145 13.8281L125.676 14ZM124.377 14L123.906 14.1674L124.377 14.5V14ZM123.386 11.2109L123.857 11.0435L123.386 10.7109V11.2109ZM119.407 11.2109V10.7109L118.936 11.0435L119.407 11.2109ZM118.416 14V14.5L118.887 14.1674L118.416 14ZM123.01 10.1309V10.6309L123.481 9.96361L123.01 10.1309ZM121.438 5.70117L121.909 5.53393L121.438 5.20117V5.70117ZM121.355 5.70117V5.20117L120.884 5.53393L121.355 5.70117ZM119.783 10.1309L119.312 9.96361L119.783 10.6309V10.1309ZM117.131 14L117.6 14.1719L121.223 4.27342L120.754 4.10156L120.284 3.9297L116.661 13.8281L117.131 14ZM120.754 4.10156V4.60156H122.053V4.10156V3.60156H120.754V4.10156ZM122.053 4.10156L121.583 4.27342L125.206 14.1719L125.676 14L126.145 13.8281L122.522 3.9297L122.053 4.10156ZM125.676 14V13.5H124.377V14V14.5H125.676V14ZM124.377 14L124.848 13.8326L123.857 11.0435L123.386 11.2109L122.915 11.3784L123.906 14.1674L124.377 14ZM123.386 11.2109V10.7109H119.407V11.2109V11.7109H123.386V11.2109ZM119.407 11.2109L118.936 11.0435L117.945 13.8326L118.416 14L118.887 14.1674L119.878 11.3784L119.407 11.2109ZM118.416 14V13.5H117.131V14V14.5H118.416V14ZM123.01 10.1309L123.481 9.96361L121.909 5.53393L121.438 5.70117L120.966 5.86842L122.539 10.2981L123.01 10.1309ZM121.438 5.70117V5.20117H121.355V5.70117V6.20117H121.438V5.70117ZM121.355 5.70117L120.884 5.53393L119.312 9.96361L119.783 10.1309L120.254 10.2981L121.827 5.86842L121.355 5.70117ZM119.783 10.1309V10.6309H123.01V10.1309V9.63086H119.783V10.1309ZM125.307 4.10156V3.60156L124.807 4.10156H125.307ZM132.771 4.10156H133.271L132.771 3.60156V4.10156ZM132.771 5.19531V5.69531L133.271 5.19531H132.771ZM129.668 5.19531V4.69531L129.168 5.19531H129.668ZM129.668 14V14.5L130.168 14H129.668ZM128.424 14H127.924L128.424 14.5V14ZM128.424 5.19531H128.924L128.424 4.69531V5.19531ZM125.307 5.19531H124.807L125.307 5.69531V5.19531ZM125.307 4.10156V4.60156H132.771V4.10156V3.60156H125.307V4.10156ZM132.771 4.10156H132.271V5.19531H132.771H133.271V4.10156H132.771ZM132.771 5.19531V4.69531H129.668V5.19531V5.69531H132.771V5.19531ZM129.668 5.19531H129.168V14H129.668H130.168V5.19531H129.668ZM129.668 14V13.5H128.424V14V14.5H129.668V14ZM128.424 14H128.924V5.19531H128.424H127.924V14H128.424ZM128.424 5.19531V4.69531H125.307V5.19531V5.69531H128.424V5.19531ZM125.307 5.19531H125.807V4.10156H125.307H124.807V5.19531H125.307ZM139.812 6.58984L139.315 6.6396L139.812 7.08984V6.58984ZM139.471 5.76953L139.088 6.09185L139.092 6.09555L139.471 5.76953ZM138.698 5.24316L138.518 5.7097L138.524 5.71188L138.698 5.24316ZM136.49 5.27051L136.683 5.73208L136.688 5.72975L136.49 5.27051ZM135.451 6.68555H134.951L134.951 6.6905L135.451 6.68555ZM136.019 7.74512L135.744 8.16272L135.747 8.16504L136.019 7.74512ZM137.365 8.29883L137.499 7.81707L137.484 7.81302L137.365 8.29883ZM138.35 8.57227L138.216 9.05412L138.226 9.05665L138.35 8.57227ZM140.325 9.47461L140.029 9.87739L140.325 9.47461ZM140.729 12.7764L141.147 13.0496L141.149 13.0476L140.729 12.7764ZM135.718 13.8359L135.514 14.2924L135.518 14.2945L135.718 13.8359ZM134.494 12.8721L134.087 13.1627L134.089 13.1648L134.494 12.8721ZM133.988 11.4297V10.9297L133.49 11.4671L133.988 11.4297ZM135.246 11.4297L135.744 11.385L135.246 10.9297V11.4297ZM136.442 12.8857L136.271 13.3555L136.279 13.3582L136.442 12.8857ZM137.557 13.0566V12.5566L137.551 12.5567L137.557 13.0566ZM138.78 12.8379L138.595 12.3736L138.593 12.3745L138.78 12.8379ZM139.635 12.2158L139.238 11.9116L139.237 11.9126L139.635 12.2158ZM139.689 10.5137L139.303 10.8313L139.307 10.8363L139.689 10.5137ZM139.02 10.0146L139.228 9.56023L139.02 10.0146ZM137.994 9.65234L138.129 9.17095L138.124 9.16959L137.994 9.65234ZM136.777 9.32422L136.637 9.80426L136.647 9.80697L136.777 9.32422ZM134.904 8.33984L134.556 8.69903L134.558 8.70084L134.904 8.33984ZM134.262 6.74023L134.762 6.74376V6.74023H134.262ZM134.706 5.29102L135.114 5.57954L135.116 5.57745L134.706 5.29102ZM135.93 4.31348L136.131 4.77138L136.134 4.76989L135.93 4.31348ZM139.361 4.30664L139.154 4.76183L139.156 4.76252L139.361 4.30664ZM140.558 5.25L140.153 5.54409L140.155 5.54628L140.558 5.25ZM141.016 6.58984V7.08984L141.515 6.57609L141.016 6.58984ZM139.812 6.58984L140.31 6.54009C140.269 6.12622 140.117 5.75445 139.85 5.44351L139.471 5.76953L139.092 6.09555C139.216 6.24035 139.293 6.41545 139.315 6.6396L139.812 6.58984ZM139.471 5.76953L139.853 5.44723C139.595 5.14128 139.262 4.91932 138.872 4.77445L138.698 5.24316L138.524 5.71188C138.772 5.80399 138.954 5.93294 139.088 6.09183L139.471 5.76953ZM138.698 5.24316L138.878 4.77666C138.493 4.62824 138.073 4.55859 137.625 4.55859V5.05859V5.55859C137.97 5.55859 138.265 5.61199 138.518 5.70966L138.698 5.24316ZM137.625 5.05859V4.55859C137.142 4.55859 136.694 4.6383 136.293 4.81127L136.49 5.27051L136.688 5.72975C136.942 5.62016 137.251 5.55859 137.625 5.55859V5.05859ZM136.49 5.27051L136.298 4.80897C135.9 4.97475 135.567 5.21749 135.323 5.54711L135.725 5.84473L136.126 6.14234C136.247 5.97978 136.424 5.8397 136.683 5.73205L136.49 5.27051ZM135.725 5.84473L135.323 5.54711C135.075 5.88176 134.951 6.26701 134.951 6.68555H135.451H135.951C135.951 6.47518 136.01 6.29988 136.126 6.14234L135.725 5.84473ZM135.451 6.68555L134.951 6.6905C134.957 7.31146 135.226 7.82197 135.744 8.1627L136.019 7.74512L136.294 7.32753C136.064 7.17608 135.954 6.9802 135.951 6.6806L135.451 6.68555ZM136.019 7.74512L135.747 8.16504C136.177 8.44262 136.68 8.64651 137.247 8.78464L137.365 8.29883L137.484 7.81302C137.003 7.69594 136.608 7.53069 136.29 7.32519L136.019 7.74512ZM137.365 8.29883L137.231 8.78059L138.216 9.05402L138.35 8.57227L138.483 8.09051L137.499 7.81707L137.365 8.29883ZM138.35 8.57227L138.226 9.05665C138.939 9.23914 139.537 9.51519 140.029 9.87739L140.325 9.47461L140.621 9.07183C140.011 8.62283 139.292 8.29732 138.474 8.08788L138.35 8.57227ZM140.325 9.47461L140.029 9.87739C140.427 10.1701 140.652 10.6154 140.652 11.3066H141.152H141.652C141.652 10.3663 141.326 9.59036 140.621 9.07183L140.325 9.47461ZM141.152 11.3066H140.652C140.652 11.7569 140.537 12.1519 140.308 12.5051L140.729 12.7764L141.149 13.0476C141.486 12.5258 141.652 11.941 141.652 11.3066H141.152ZM140.729 12.7764L140.31 12.5031C140.086 12.8458 139.752 13.1304 139.281 13.3479L139.491 13.8018L139.701 14.2556C140.315 13.9718 140.806 13.5728 141.147 13.0496L140.729 12.7764ZM139.491 13.8018L139.281 13.3479C138.819 13.5615 138.249 13.6777 137.557 13.6777V14.1777V14.6777C138.359 14.6777 139.079 14.5433 139.701 14.2556L139.491 13.8018ZM137.557 14.1777V13.6777C136.908 13.6777 136.366 13.5724 135.917 13.3774L135.718 13.8359L135.518 14.2945C136.118 14.5552 136.801 14.6777 137.557 14.6777V14.1777ZM135.718 13.8359L135.922 13.3795C135.472 13.1784 135.138 12.9096 134.899 12.5793L134.494 12.8721L134.089 13.1648C134.443 13.6548 134.924 14.0286 135.514 14.2923L135.718 13.8359ZM134.494 12.8721L134.901 12.5815C134.662 12.2468 134.522 11.8552 134.487 11.3923L133.988 11.4297L133.49 11.4671C133.537 12.098 133.734 12.6679 134.087 13.1627L134.494 12.8721ZM133.988 11.4297V11.9297H135.246V11.4297V10.9297H133.988V11.4297ZM135.246 11.4297L134.748 11.4744C134.788 11.9244 134.948 12.3273 135.238 12.6603L135.615 12.332L135.992 12.0038C135.854 11.8446 135.768 11.6459 135.744 11.385L135.246 11.4297ZM135.615 12.332L135.238 12.6603C135.513 12.9764 135.862 13.2064 136.271 13.3555L136.442 12.8857L136.614 12.416C136.348 12.319 136.146 12.1798 135.992 12.0038L135.615 12.332ZM136.442 12.8857L136.279 13.3582C136.68 13.4975 137.11 13.5617 137.562 13.5566L137.557 13.0566L137.551 12.5567C137.201 12.5606 136.888 12.511 136.606 12.4133L136.442 12.8857ZM137.557 13.0566V13.5566C138.066 13.5566 138.539 13.4751 138.968 13.3013L138.78 12.8379L138.593 12.3745C138.302 12.4923 137.959 12.5566 137.557 12.5566V13.0566ZM138.78 12.8379L138.966 13.3021C139.401 13.1282 139.764 12.8706 140.032 12.519L139.635 12.2158L139.237 11.9126C139.095 12.0988 138.889 12.2559 138.595 12.3737L138.78 12.8379ZM139.635 12.2158L140.032 12.52C140.309 12.1576 140.449 11.738 140.449 11.2793H139.949H139.449C139.449 11.5224 139.379 11.7272 139.238 11.9116L139.635 12.2158ZM139.949 11.2793H140.449C140.449 10.8731 140.331 10.4987 140.071 10.1911L139.689 10.5137L139.307 10.8363C139.394 10.9388 139.449 11.0748 139.449 11.2793H139.949ZM139.689 10.5137L140.076 10.1961C139.852 9.92427 139.564 9.71462 139.228 9.56023L139.02 10.0146L138.811 10.4691C139.031 10.5699 139.19 10.6929 139.303 10.8312L139.689 10.5137ZM139.02 10.0146L139.228 9.56023C138.919 9.41855 138.551 9.28953 138.129 9.17097L137.994 9.65234L137.859 10.1337C138.248 10.243 138.564 10.3555 138.811 10.4691L139.02 10.0146ZM137.994 9.65234L138.124 9.16959L136.908 8.84146L136.777 9.32422L136.647 9.80697L137.864 10.1351L137.994 9.65234ZM136.777 9.32422L136.918 8.84428C136.155 8.62144 135.611 8.32496 135.25 7.97885L134.904 8.33984L134.558 8.70084C135.072 9.19327 135.778 9.55303 136.637 9.80416L136.777 9.32422ZM134.904 8.33984L135.252 7.98066C134.925 7.66397 134.758 7.26551 134.762 6.74376L134.262 6.74023L133.762 6.73671C133.756 7.50923 134.018 8.17717 134.556 8.69902L134.904 8.33984ZM134.262 6.74023H134.762C134.762 6.28956 134.882 5.90876 135.114 5.57953L134.706 5.29102L134.298 5.0025C133.938 5.51181 133.762 6.09716 133.762 6.74023H134.262ZM134.706 5.29102L135.116 5.57745C135.354 5.23609 135.687 4.96606 136.131 4.77137L135.93 4.31348L135.729 3.85558C135.134 4.11663 134.65 4.49829 134.296 5.00458L134.706 5.29102ZM135.93 4.31348L136.134 4.76989C136.582 4.56949 137.09 4.46484 137.666 4.46484V3.96484V3.46484C136.966 3.46484 136.317 3.59262 135.726 3.85707L135.93 4.31348ZM137.666 3.96484V4.46484C138.234 4.46484 138.727 4.56742 139.154 4.76182L139.361 4.30664L139.568 3.85146C138.993 3.59014 138.356 3.46484 137.666 3.46484V3.96484ZM139.361 4.30664L139.156 4.76252C139.592 4.95901 139.919 5.22143 140.153 5.54409L140.558 5.25L140.962 4.95591C140.613 4.47649 140.142 4.11 139.567 3.85076L139.361 4.30664ZM140.558 5.25L140.155 5.54628C140.386 5.85984 140.505 6.20767 140.516 6.6036L141.016 6.58984L141.515 6.57609C141.499 5.97852 141.313 5.43313 140.96 4.95372L140.558 5.25ZM141.016 6.58984V6.08984H139.812V6.58984V7.08984H141.016V6.58984ZM150.627 4.10156H151.127L150.627 3.60156V4.10156ZM150.148 12.4688L150.578 12.7255L150.578 12.7239L150.148 12.4688ZM148.795 13.7266L149.024 14.171L149.027 14.1695L148.795 13.7266ZM144.748 13.7266L144.516 14.1696L144.519 14.171L144.748 13.7266ZM143.395 12.4688L142.965 12.7239L142.965 12.7255L143.395 12.4688ZM142.916 4.10156V3.60156L142.416 4.10156H142.916ZM144.146 4.10156H144.646L144.146 3.60156V4.10156ZM145.37 12.7148L145.132 13.1548L145.138 13.158L145.37 12.7148ZM148.166 12.7148L148.4 13.1569L148.404 13.1548L148.166 12.7148ZM149.396 10.5547L149.896 10.5594V10.5547H149.396ZM149.396 4.10156V3.60156L148.896 4.10156H149.396ZM150.627 4.10156H150.127V10.6504H150.627H151.127V4.10156H150.627ZM150.627 10.6504H150.127C150.127 11.2424 149.988 11.7592 149.718 12.2136L150.148 12.4688L150.578 12.7239C150.947 12.1028 151.127 11.4073 151.127 10.6504H150.627ZM150.148 12.4688L149.719 12.212C149.451 12.6614 149.07 13.0183 148.563 13.2836L148.795 13.7266L149.027 14.1695C149.687 13.8241 150.208 13.3425 150.578 12.7255L150.148 12.4688ZM148.795 13.7266L148.566 13.2822C148.064 13.5408 147.471 13.6777 146.771 13.6777V14.1777V14.6777C147.604 14.6777 148.359 14.5139 149.024 14.171L148.795 13.7266ZM146.771 14.1777V13.6777C146.072 13.6777 145.479 13.5408 144.977 13.2822L144.748 13.7266L144.519 14.171C145.184 14.5139 145.939 14.6777 146.771 14.6777V14.1777ZM144.748 13.7266L144.98 13.2836C144.473 13.0183 144.092 12.6614 143.824 12.212L143.395 12.4688L142.965 12.7255C143.335 13.3425 143.856 13.8241 144.516 14.1695L144.748 13.7266ZM143.395 12.4688L143.825 12.2136C143.555 11.7592 143.416 11.2424 143.416 10.6504H142.916H142.416C142.416 11.4073 142.596 12.1028 142.965 12.7239L143.395 12.4688ZM142.916 10.6504H143.416V4.10156H142.916H142.416V10.6504H142.916ZM142.916 4.10156V4.60156H144.146V4.10156V3.60156H142.916V4.10156ZM144.146 4.10156H143.646V10.5547H144.146H144.646V4.10156H144.146ZM144.146 10.5547H143.646C143.646 11.1087 143.769 11.6208 144.025 12.0776L144.461 11.833L144.897 11.5884C144.734 11.2978 144.646 10.9577 144.646 10.5547H144.146ZM144.461 11.833L144.025 12.0776C144.283 12.5383 144.657 12.898 145.132 13.1548L145.37 12.7148L145.608 12.2749C145.29 12.1033 145.058 11.8751 144.897 11.5884L144.461 11.833ZM145.37 12.7148L145.138 13.158C145.623 13.4111 146.172 13.5293 146.771 13.5293V13.0293V12.5293C146.305 12.5293 145.92 12.4379 145.602 12.2717L145.37 12.7148ZM146.771 13.0293V13.5293C147.371 13.5293 147.919 13.4111 148.4 13.1569L148.166 12.7148L147.932 12.2728C147.62 12.4378 147.239 12.5293 146.771 12.5293V13.0293ZM148.166 12.7148L148.404 13.1548C148.879 12.898 149.253 12.5383 149.511 12.0776L149.075 11.833L148.639 11.5884C148.478 11.8751 148.246 12.1033 147.928 12.2749L148.166 12.7148ZM149.075 11.833L149.511 12.0776C149.767 11.6224 149.891 11.112 149.896 10.5594L149.396 10.5547L148.897 10.5499C148.893 10.9544 148.803 11.2962 148.639 11.5884L149.075 11.833ZM149.396 10.5547H149.896V4.10156H149.396H148.896V10.5547H149.396ZM149.396 4.10156V4.60156H150.627V4.10156V3.60156H149.396V4.10156ZM160.676 14V14.5L161.176 14H160.676ZM159.5 14L159.089 14.2854L159.5 14.5V14ZM154.141 6.28906L154.551 6.0037L154.141 5.78906V6.28906ZM154.045 6.28906V5.78906L153.545 6.28906H154.045ZM154.045 14V14.5L154.545 14H154.045ZM152.814 14H152.314L152.814 14.5V14ZM152.814 4.10156V3.60156L152.314 4.10156H152.814ZM154.004 4.10156L154.415 3.81654L154.004 3.60156V4.10156ZM159.363 11.8262L158.952 12.1112L159.363 12.3262V11.8262ZM159.459 11.8262V12.3262L159.959 11.8262H159.459ZM159.459 4.10156V3.60156L158.959 4.10156H159.459ZM160.676 4.10156H161.176L160.676 3.60156V4.10156ZM160.676 14V13.5H159.5V14V14.5H160.676V14ZM159.5 14L159.911 13.7146L154.551 6.0037L154.141 6.28906L153.73 6.57442L159.089 14.2854L159.5 14ZM154.141 6.28906V5.78906H154.045V6.28906V6.78906H154.141V6.28906ZM154.045 6.28906H153.545V14H154.045H154.545V6.28906H154.045ZM154.045 14V13.5H152.814V14V14.5H154.045V14ZM152.814 14H153.314V4.10156H152.814H152.314V14H152.814ZM152.814 4.10156V4.60156H154.004V4.10156V3.60156H152.814V4.10156ZM154.004 4.10156L153.593 4.38658L158.952 12.1112L159.363 11.8262L159.774 11.5412L154.415 3.81654L154.004 4.10156ZM159.363 11.8262V12.3262H159.459V11.8262V11.3262H159.363V11.8262ZM159.459 11.8262H159.959V4.10156H159.459H158.959V11.8262H159.459ZM159.459 4.10156V4.60156H160.676V4.10156V3.60156H159.459V4.10156ZM160.676 4.10156H160.176V14H160.676H161.176V4.10156H160.676ZM162.863 4.10156V3.60156L162.363 4.10156H162.863ZM168.865 4.10156H169.365L168.865 3.60156V4.10156ZM168.865 5.19531V5.69531L169.365 5.19531H168.865ZM164.094 5.19531V4.69531L163.594 5.19531H164.094ZM164.094 8.50391H163.594L164.094 9.00391V8.50391ZM168.551 8.50391H169.051L168.551 8.00391V8.50391ZM168.551 9.58398V10.084L169.051 9.58398H168.551ZM164.094 9.58398V9.08398L163.594 9.58398H164.094ZM164.094 12.9062H163.594L164.094 13.4062V12.9062ZM168.934 12.9062H169.434L168.934 12.4062V12.9062ZM168.934 14V14.5L169.434 14H168.934ZM162.863 14H162.363L162.863 14.5V14ZM162.863 4.10156V4.60156H168.865V4.10156V3.60156H162.863V4.10156ZM168.865 4.10156H168.365V5.19531H168.865H169.365V4.10156H168.865ZM168.865 5.19531V4.69531H164.094V5.19531V5.69531H168.865V5.19531ZM164.094 5.19531H163.594V8.50391H164.094H164.594V5.19531H164.094ZM164.094 8.50391V9.00391H168.551V8.50391V8.00391H164.094V8.50391ZM168.551 8.50391H168.051V9.58398H168.551H169.051V8.50391H168.551ZM168.551 9.58398V9.08398H164.094V9.58398V10.084H168.551V9.58398ZM164.094 9.58398H163.594V12.9062H164.094H164.594V9.58398H164.094ZM164.094 12.9062V13.4062H168.934V12.9062V12.4062H164.094V12.9062ZM168.934 12.9062H168.434V14H168.934H169.434V12.9062H168.934ZM168.934 14V13.5H162.863V14V14.5H168.934V14ZM162.863 14H163.363V4.10156H162.863H162.363V14H162.863ZM175.797 4.10156L176.26 3.91213L175.797 3.60156V4.10156ZM179.133 12.25L178.67 12.4394L179.133 12.75V12.25ZM179.256 12.25V12.75L179.719 12.4394L179.256 12.25ZM182.592 4.10156V3.60156L182.129 3.91213L182.592 4.10156ZM184.068 4.10156H184.568L184.068 3.60156V4.10156ZM184.068 14V14.5L184.568 14H184.068ZM182.906 14H182.406L182.906 14.5V14ZM182.906 6.52148H183.406L182.906 6.02148V6.52148ZM182.811 6.52148V6.02148L182.348 6.33128L182.811 6.52148ZM179.734 14V14.5L180.197 14.1902L179.734 14ZM178.641 14L178.178 14.1902L178.641 14.5V14ZM175.564 6.52148L176.027 6.33128L175.564 6.02148V6.52148ZM175.482 6.52148V6.02148L174.982 6.52148H175.482ZM175.482 14V14.5L175.982 14H175.482ZM174.32 14H173.82L174.32 14.5V14ZM174.32 4.10156V3.60156L173.82 4.10156H174.32ZM175.797 4.10156L175.334 4.291L178.67 12.4394L179.133 12.25L179.596 12.0606L176.26 3.91213L175.797 4.10156ZM179.133 12.25V12.75H179.256V12.25V11.75H179.133V12.25ZM179.256 12.25L179.719 12.4394L183.055 4.291L182.592 4.10156L182.129 3.91213L178.793 12.0606L179.256 12.25ZM182.592 4.10156V4.60156H184.068V4.10156V3.60156H182.592V4.10156ZM184.068 4.10156H183.568V14H184.068H184.568V4.10156H184.068ZM184.068 14V13.5H182.906V14V14.5H184.068V14ZM182.906 14H183.406V6.52148H182.906H182.406V14H182.906ZM182.906 6.52148V6.02148H182.811V6.52148V7.02148H182.906V6.52148ZM182.811 6.52148L182.348 6.33128L179.272 13.8098L179.734 14L180.197 14.1902L183.273 6.71169L182.811 6.52148ZM179.734 14V13.5H178.641V14V14.5H179.734V14ZM178.641 14L179.103 13.8098L176.027 6.33128L175.564 6.52148L175.102 6.71169L178.178 14.1902L178.641 14ZM175.564 6.52148V6.02148H175.482V6.52148V7.02148H175.564V6.52148ZM175.482 6.52148H174.982V14H175.482H175.982V6.52148H175.482ZM175.482 14V13.5H174.32V14V14.5H175.482V14ZM174.32 14H174.82V4.10156H174.32H173.82V14H174.32ZM174.32 4.10156V4.60156H175.797V4.10156V3.60156H174.32V4.10156ZM187.486 14V14.5L187.986 14H187.486ZM186.256 14H185.756L186.256 14.5V14ZM186.256 4.10156V3.60156L185.756 4.10156H186.256ZM187.486 4.10156H187.986L187.486 3.60156V4.10156ZM187.486 14V13.5H186.256V14V14.5H187.486V14ZM186.256 14H186.756V4.10156H186.256H185.756V14H186.256ZM186.256 4.10156V4.60156H187.486V4.10156V3.60156H186.256V4.10156ZM187.486 4.10156H186.986V14H187.486H187.986V4.10156H187.486ZM189.674 4.10156V3.60156L189.174 4.10156H189.674ZM190.904 4.10156H191.404L190.904 3.60156V4.10156ZM190.904 8.99609H190.404L190.904 9.49609V8.99609ZM191.027 8.99609V9.49609L191.399 9.33046L191.027 8.99609ZM195.43 4.10156V3.60156L195.058 3.76719L195.43 4.10156ZM197.043 4.10156L197.41 4.4414L197.043 3.60156V4.10156ZM192.9 8.57227L192.534 8.23243L192.503 8.87562L192.9 8.57227ZM197.043 14V14.5L197.44 13.6966L197.043 14ZM195.539 14L195.138 14.2983L195.539 14.5V14ZM192.135 9.41992L192.536 9.12165L191.76 9.08911L192.135 9.41992ZM190.904 10.8145L190.529 10.4836L190.404 10.8145H190.904ZM190.904 14V14.5L191.404 14H190.904ZM189.674 14H189.174L189.674 14.5V14ZM189.674 4.10156V4.60156H190.904V4.10156V3.60156H189.674V4.10156ZM190.904 4.10156H190.404V8.99609H190.904H191.404V4.10156H190.904ZM190.904 8.99609V9.49609H191.027V8.99609V8.49609H190.904V8.99609ZM191.027 8.99609L191.399 9.33046L195.801 4.43593L195.43 4.10156L195.058 3.76719L190.656 8.66173L191.027 8.99609ZM195.43 4.10156V4.60156H197.043V4.10156V3.60156H195.43V4.10156ZM197.043 4.10156L196.676 3.76172L192.534 8.23243L192.9 8.57227L193.267 8.9121L197.41 4.4414L197.043 4.10156ZM192.9 8.57227L192.503 8.87562L196.646 14.3034L197.043 14L197.44 13.6966L193.298 8.26891L192.9 8.57227ZM197.043 14V13.5H195.539V14V14.5H197.043V14ZM195.539 14L195.94 13.7017L192.536 9.12165L192.135 9.41992L191.733 9.71819L195.138 14.2983L195.539 14ZM192.135 9.41992L191.76 9.08911L190.529 10.4836L190.904 10.8145L191.279 11.1453L192.51 9.75073L192.135 9.41992ZM190.904 10.8145H190.404V14H190.904H191.404V10.8145H190.904ZM190.904 14V13.5H189.674V14V14.5H190.904V14ZM189.674 14H190.174V4.10156H189.674H189.174V14H189.674ZM206.08 4.10156H206.58L206.08 3.60156V4.10156ZM205.602 12.4688L206.031 12.7255L206.032 12.7239L205.602 12.4688ZM204.248 13.7266L204.477 14.171L204.48 14.1695L204.248 13.7266ZM200.201 13.7266L199.969 14.1696L199.972 14.171L200.201 13.7266ZM198.848 12.4688L198.418 12.7239L198.419 12.7255L198.848 12.4688ZM198.369 4.10156V3.60156L197.869 4.10156H198.369ZM199.6 4.10156H200.1L199.6 3.60156V4.10156ZM200.823 12.7148L200.586 13.1548L200.592 13.158L200.823 12.7148ZM203.619 12.7148L203.853 13.1569L203.857 13.1548L203.619 12.7148ZM204.85 10.5547L205.35 10.5594V10.5547H204.85ZM204.85 4.10156V3.60156L204.35 4.10156H204.85ZM206.08 4.10156H205.58V10.6504H206.08H206.58V4.10156H206.08ZM206.08 10.6504H205.58C205.58 11.2424 205.441 11.7592 205.172 12.2136L205.602 12.4688L206.032 12.7239C206.4 12.1028 206.58 11.4073 206.58 10.6504H206.08ZM205.602 12.4688L205.172 12.212C204.904 12.6614 204.523 13.0183 204.016 13.2836L204.248 13.7266L204.48 14.1695C205.14 13.8241 205.661 13.3425 206.031 12.7255L205.602 12.4688ZM204.248 13.7266L204.019 13.2822C203.517 13.5408 202.924 13.6777 202.225 13.6777V14.1777V14.6777C203.057 14.6777 203.812 14.5139 204.477 14.171L204.248 13.7266ZM202.225 14.1777V13.6777C201.525 13.6777 200.932 13.5408 200.43 13.2822L200.201 13.7266L199.972 14.171C200.637 14.5139 201.393 14.6777 202.225 14.6777V14.1777ZM200.201 13.7266L200.433 13.2836C199.926 13.0183 199.546 12.6614 199.277 12.212L198.848 12.4688L198.419 12.7255C198.788 13.3425 199.309 13.8241 199.969 14.1695L200.201 13.7266ZM198.848 12.4688L199.278 12.2136C199.008 11.7592 198.869 11.2424 198.869 10.6504H198.369H197.869C197.869 11.4073 198.049 12.1028 198.418 12.7239L198.848 12.4688ZM198.369 10.6504H198.869V4.10156H198.369H197.869V10.6504H198.369ZM198.369 4.10156V4.60156H199.6V4.10156V3.60156H198.369V4.10156ZM199.6 4.10156H199.1V10.5547H199.6H200.1V4.10156H199.6ZM199.6 10.5547H199.1C199.1 11.1087 199.222 11.6208 199.478 12.0776L199.914 11.833L200.35 11.5884C200.187 11.2978 200.1 10.9577 200.1 10.5547H199.6ZM199.914 11.833L199.478 12.0776C199.736 12.5383 200.11 12.898 200.586 13.1548L200.823 12.7148L201.061 12.2749C200.743 12.1033 200.511 11.8751 200.35 11.5884L199.914 11.833ZM200.823 12.7148L200.592 13.158C201.076 13.4111 201.625 13.5293 202.225 13.5293V13.0293V12.5293C201.758 12.5293 201.373 12.4379 201.055 12.2717L200.823 12.7148ZM202.225 13.0293V13.5293C202.824 13.5293 203.372 13.4111 203.853 13.1569L203.619 12.7148L203.385 12.2728C203.073 12.4378 202.692 12.5293 202.225 12.5293V13.0293ZM203.619 12.7148L203.857 13.1548C204.332 12.898 204.706 12.5383 204.964 12.0776L204.528 11.833L204.092 11.5884C203.931 11.8751 203.699 12.1033 203.381 12.2749L203.619 12.7148ZM204.528 11.833L204.964 12.0776C205.22 11.6224 205.344 11.112 205.35 10.5594L204.85 10.5547L204.35 10.5499C204.346 10.9544 204.256 11.2962 204.092 11.5884L204.528 11.833ZM204.85 10.5547H205.35V4.10156H204.85H204.35V10.5547H204.85ZM204.85 4.10156V4.60156H206.08V4.10156V3.60156H204.85V4.10156Z" fill="#FF0091"/>
<path d="M97.2383 8.18945L96.8125 8.4515L97.2383 8.68945V8.18945ZM97.3203 8.18945V8.68945L97.7455 8.45253L97.3203 8.18945ZM99.8496 4.10156V3.60156L99.4244 3.83848L99.8496 4.10156ZM101.299 4.10156L101.722 4.36719L101.299 3.60156V4.10156ZM98.1953 9.05078L97.7717 8.78515V9.31641L98.1953 9.05078ZM101.299 14V14.5L101.722 13.7344L101.299 14ZM99.8496 14L99.4268 14.2669L99.8496 14.5V14ZM97.3203 9.99414L97.7431 9.7272L97.3203 9.49414V9.99414ZM97.2383 9.99414V9.49414L96.8155 9.7272L97.2383 9.99414ZM94.709 14V14.5L95.1318 14.2669L94.709 14ZM93.2598 14L92.8393 13.7294L93.2598 14.5V14ZM96.4453 9.05078L96.8658 9.32139V8.78017L96.4453 9.05078ZM93.2598 4.10156V3.60156L92.8393 4.37218L93.2598 4.10156ZM94.7227 4.10156L95.1485 3.83951L94.7227 3.60156V4.10156ZM97.2383 8.18945V8.68945H97.3203V8.18945V7.68945H97.2383V8.18945ZM97.3203 8.18945L97.7455 8.45253L100.275 4.36464L99.8496 4.10156L99.4244 3.83848L96.8951 7.92637L97.3203 8.18945ZM99.8496 4.10156V4.60156H101.299V4.10156V3.60156H99.8496V4.10156ZM101.299 4.10156L100.875 3.83593L97.7717 8.78515L98.1953 9.05078L98.6189 9.31641L101.722 4.36719L101.299 4.10156ZM98.1953 9.05078L97.7717 9.31641L100.875 14.2656L101.299 14L101.722 13.7344L98.6189 8.78515L98.1953 9.05078ZM101.299 14V13.5H99.8496V14V14.5H101.299V14ZM99.8496 14L100.272 13.7331L97.7431 9.7272L97.3203 9.99414L96.8975 10.2611L99.4268 14.2669L99.8496 14ZM97.3203 9.99414V9.49414H97.2383V9.99414V10.4941H97.3203V9.99414ZM97.2383 9.99414L96.8155 9.7272L94.2862 13.7331L94.709 14L95.1318 14.2669L97.6611 10.2611L97.2383 9.99414ZM94.709 14V13.5H93.2598V14V14.5H94.709V14ZM93.2598 14L93.6802 14.2706L96.8658 9.32139L96.4453 9.05078L96.0249 8.78017L92.8393 13.7294L93.2598 14ZM96.4453 9.05078L96.8658 8.78017L93.6802 3.83095L93.2598 4.10156L92.8393 4.37218L96.0249 9.32139L96.4453 9.05078ZM93.2598 4.10156V4.60156H94.7227V4.10156V3.60156H93.2598V4.10156ZM94.7227 4.10156L94.2968 4.36361L96.8125 8.4515L97.2383 8.18945L97.6641 7.9274L95.1485 3.83951L94.7227 4.10156Z" fill="white"/>
<defs>
<filter id="filter0_i_1919_9564" x="0.09375" y="2.96484" width="87.5571" height="16.2129" filterUnits="userSpaceOnUse" color-interpolation-filters="sRGB">
<feFlood flood-opacity="0" result="BackgroundImageFix"/>
<feBlend mode="normal" in="SourceGraphic" in2="BackgroundImageFix" result="shape"/>
<feColorMatrix in="SourceAlpha" type="matrix" values="0 0 0 0 0 0 0 0 0 0 0 0 0 0 0 0 0 0 127 0" result="hardAlpha"/>
<feOffset dy="4"/>
<feGaussianBlur stdDeviation="8.95"/>
<feComposite in2="hardAlpha" operator="arithmetic" k2="-1" k3="1"/>
<feColorMatrix type="matrix" values="0 0 0 0 1 0 0 0 0 1 0 0 0 0 1 0 0 0 0.37 0"/>
<feBlend mode="normal" in2="shape" result="effect1_innerShadow_1919_9564"/>
</filter>
</defs>
</svg>
