<svg width="22" height="22" viewBox="0 0 22 22" fill="none" xmlns="http://www.w3.org/2000/svg">
<g clip-path="url(#clip0_1927_10349)">
<path d="M21.5413 13.75C20.812 13.75 20.1125 13.4603 19.5968 12.9445C19.0811 12.4288 18.7913 11.7293 18.7913 11C18.7913 10.2707 19.0811 9.57118 19.5968 9.05546C20.1125 8.53973 20.812 8.25 21.5413 8.25V5.04167C21.5413 4.79855 21.4448 4.56539 21.2729 4.39349C21.1009 4.22158 20.8678 4.125 20.6247 4.125H1.37467C1.13156 4.125 0.898402 4.22158 0.726493 4.39349C0.554585 4.56539 0.458008 4.79855 0.458008 5.04167V8.25C1.18735 8.25 1.88683 8.53973 2.40255 9.05546C2.91828 9.57118 3.20801 10.2707 3.20801 11C3.20801 11.7293 2.91828 12.4288 2.40255 12.9445C1.88683 13.4603 1.18735 13.75 0.458008 13.75V16.9583C0.458008 17.2014 0.554585 17.4346 0.726493 17.6065C0.898402 17.7784 1.13156 17.875 1.37467 17.875H20.6247C20.8678 17.875 21.1009 17.7784 21.2729 17.6065C21.4448 17.4346 21.5413 17.2014 21.5413 16.9583V13.75Z" fill="white" stroke="white" stroke-linecap="round" stroke-linejoin="round"/>
<path d="M7.33301 14.6663L14.6663 7.33301L7.33301 14.6663Z" fill="#FFB43C"/>
<path d="M7.33301 14.6663L14.6663 7.33301" stroke="#FFB23D" stroke-linecap="round" stroke-linejoin="round"/>
<path d="M6.875 8.25C6.875 8.61467 7.01987 8.96441 7.27773 9.22227C7.53559 9.48013 7.88533 9.625 8.25 9.625C8.61467 9.625 8.96441 9.48013 9.22227 9.22227C9.48013 8.96441 9.625 8.61467 9.625 8.25C9.625 7.88533 9.48013 7.53559 9.22227 7.27773C8.96441 7.01987 8.61467 6.875 8.25 6.875C7.88533 6.875 7.53559 7.01987 7.27773 7.27773C7.01987 7.53559 6.875 7.88533 6.875 8.25Z" fill="#FFB43C"/>
<path d="M12.375 13.75C12.375 14.1147 12.5199 14.4644 12.7777 14.7223C13.0356 14.9801 13.3853 15.125 13.75 15.125C14.1147 15.125 14.4644 14.9801 14.7223 14.7223C14.9801 14.4644 15.125 14.1147 15.125 13.75C15.125 13.3853 14.9801 13.0356 14.7223 12.7777C14.4644 12.5199 14.1147 12.375 13.75 12.375C13.3853 12.375 13.0356 12.5199 12.7777 12.7777C12.5199 13.0356 12.375 13.3853 12.375 13.75Z" fill="#FFB43C"/>
</g>
<defs>
<clipPath id="clip0_1927_10349">
<rect width="22" height="22" fill="white"/>
</clipPath>
</defs>
</svg>
