<svg width="30" height="30" viewBox="0 0 30 30" fill="none" xmlns="http://www.w3.org/2000/svg">
<path d="M15.002 5.3125C15.002 5.3125 23.598 5.31244 25.7471 5.89453C26.9307 6.20983 27.8624 7.14558 28.1777 8.33887C28.7473 10.487 28.7451 14.9554 28.7451 14.999C28.7451 14.999 28.7453 19.5015 28.1729 21.6602C27.8574 22.8484 26.9257 23.7844 25.7422 24.1045C23.6069 24.6792 15.0712 24.6816 14.998 24.6816C14.998 24.6816 6.39732 24.6817 4.25293 24.1045C3.06943 23.7892 2.13768 22.8533 1.82227 21.6602C1.24985 19.5015 1.25 14.999 1.25 14.999C1.25001 14.9554 1.25271 10.4869 1.82715 8.33398C2.14249 7.14556 3.07422 6.2098 4.25781 5.88965C6.39294 5.31489 14.9288 5.31251 15.002 5.3125ZM12.1895 19.0889L19.3789 15L12.1895 10.9111V19.0889Z" fill="white"/>
</svg>
