<svg width="30" height="30" viewBox="0 0 30 30" fill="none" xmlns="http://www.w3.org/2000/svg">
<g clip-path="url(#clip0_2588_19797)">
<path d="M25.9426 8.75424V12.837C25.9426 12.837 22.414 13.0293 19.6206 10.6995V20.0526C19.6206 20.4145 19.5866 20.7651 19.5188 21.127C19.1795 22.7895 17.7658 26.9967 12.2014 27.483C11.9187 27.5057 11.6359 27.5057 11.3532 27.483C9.76984 27.3473 5.03109 26.4652 4.09239 20.7651C3.9793 20.1091 3.96799 19.4419 4.06977 18.7859C4.35251 16.8406 6.36563 11.4912 12.9818 12.1358V16.196C12.9818 16.196 10.1431 15.5174 8.76328 17.7115C8.03946 18.8651 7.96029 20.3127 8.57102 21.5228C9.03471 22.4502 9.97341 23.4003 11.8056 23.4681C12.5746 23.4681 15.0175 23.1967 15.5604 20.177V2.5H19.6206C19.6206 2.5 19.6206 8.3584 25.954 8.75424H25.9426Z" fill="white"/>
</g>
<defs>
<clipPath id="clip0_2588_19797">
<rect width="30" height="30" fill="white"/>
</clipPath>
</defs>
</svg>
