<svg width="123" height="58" viewBox="0 0 123 58" fill="none" xmlns="http://www.w3.org/2000/svg">
<path d="M3.64 44V9.68H10.696L22.12 28.832C22.44 29.376 22.792 30.048 23.176 30.848C23.592 31.648 23.912 32.32 24.136 32.864L24.52 33.632H24.616C24.488 31.264 24.424 29.28 24.424 27.68V9.68H31.288V44H24.568L12.856 25.04C12.536 24.496 12.168 23.84 11.752 23.072C11.336 22.272 11.016 21.6 10.792 21.056L10.408 20.288H10.312C10.44 22.688 10.504 24.688 10.504 26.288V44H3.64ZM62.1783 39.776C59.1703 43.104 55.1703 44.768 50.1783 44.768C45.1863 44.768 41.1703 43.104 38.1302 39.776C35.1222 36.416 33.6182 32.128 33.6182 26.912C33.6182 21.696 35.1222 17.408 38.1302 14.048C41.1703 10.688 45.1863 9.008 50.1783 9.008C55.1703 9.008 59.1703 10.688 62.1783 14.048C65.1863 17.408 66.6903 21.696 66.6903 26.912C66.6903 32.128 65.1863 36.416 62.1783 39.776ZM43.1702 35.648C44.8342 37.92 47.1862 39.056 50.2262 39.056C53.2663 39.056 55.5863 37.936 57.1863 35.696C58.7863 33.424 59.5862 30.496 59.5862 26.912C59.5862 23.328 58.7863 20.4 57.1863 18.128C55.5863 15.856 53.2663 14.72 50.2262 14.72C47.1862 14.72 44.8342 15.856 43.1702 18.128C41.5382 20.4 40.7222 23.328 40.7222 26.912C40.7222 30.464 41.5382 33.376 43.1702 35.648ZM76.3934 44L64.8254 9.68H72.1214L78.1694 29.552L79.6574 35.024H79.7534C80.2974 32.848 80.7934 31.024 81.2414 29.552L87.2414 9.68H94.2974L82.7294 44H76.3934ZM89.4959 44L101.448 9.68H108.648L120.744 44H113.496L111.192 36.704H98.8079L96.5519 44H89.4959ZM103.512 21.488L100.44 31.376H109.512L106.44 21.488L105.048 16.208H104.952C104.376 18.512 103.896 20.272 103.512 21.488Z" fill="black"/>
</svg>
