<svg width="168" height="48" viewBox="0 0 168 48" fill="none" xmlns="http://www.w3.org/2000/svg">
<path d="M2.63867 9.27427C2.63867 5.51649 5.68496 2.47021 9.44274 2.47021C13.2005 2.47021 16.2468 5.5165 16.2468 9.27428V38.4346C16.2468 42.1924 13.2005 45.2386 9.44274 45.2386C5.68496 45.2386 2.63867 42.1923 2.63867 38.4346V9.27427Z" fill="url(#paint0_linear_3663_9172)"/>
<path d="M29.8525 9.27427C29.8525 5.51649 32.8988 2.47021 36.6566 2.47021C40.4144 2.47021 43.4607 5.5165 43.4607 9.27428V38.4346C43.4607 42.1924 40.4144 45.2386 36.6566 45.2386C32.8988 45.2386 29.8525 42.1923 29.8525 38.4346V9.27427Z" fill="url(#paint1_linear_3663_9172)"/>
<path d="M4.37606 12.937C1.95923 10.2575 2.29793 6.27545 5.13257 4.04271C7.96721 1.80996 12.2244 2.17206 14.6412 4.85147L41.7091 34.8601C44.1259 37.5396 43.7872 41.5216 40.9525 43.7544C38.1179 45.9871 33.8607 45.625 31.4439 42.9456L4.37606 12.937Z" fill="url(#paint2_linear_3663_9172)"/>
<rect x="118.14" y="39.0723" width="13.9457" height="43.8295" rx="6.97287" transform="rotate(150 118.14 39.0723)" fill="url(#paint3_linear_3663_9172)"/>
<path d="M117.526 7.15293C119.452 3.81786 123.716 2.67519 127.051 4.60069C130.386 6.5262 131.529 10.7907 129.604 14.1258L114.662 40.0059C112.736 43.341 108.472 44.4836 105.137 42.5581C101.802 40.6326 100.659 36.3681 102.584 33.033L117.526 7.15293Z" fill="url(#paint4_linear_3663_9172)"/>
<path d="M134.594 39.9286C132.668 43.2637 128.404 44.4064 125.069 42.4809C121.734 40.5553 120.591 36.2908 122.516 32.9557L137.458 7.07565C139.384 3.74057 143.648 2.5979 146.983 4.52341C150.319 6.44891 151.461 10.7135 149.536 14.0485L134.594 39.9286Z" fill="url(#paint5_linear_3663_9172)"/>
<rect x="133.981" y="8.01025" width="13.9457" height="43.8295" rx="6.97287" transform="rotate(-30 133.981 8.01025)" fill="url(#paint6_linear_3663_9172)"/>
<path d="M66.9707 2.26416C78.4037 2.26428 87.6719 11.5324 87.6719 22.9653C87.6718 34.3982 78.4036 43.6664 66.9707 43.6665C55.5377 43.6665 46.2696 34.3983 46.2695 22.9653C46.2695 11.5323 55.5377 2.26416 66.9707 2.26416ZM66.9707 12.6147C62.5247 12.6147 58.9202 16.2186 58.9199 20.6646V26.4155C58.92 30.8617 62.5246 34.4663 66.9707 34.4663C71.4168 34.4663 75.0214 30.8616 75.0215 26.4155V20.6646C75.0212 16.2186 71.4167 12.6148 66.9707 12.6147Z" fill="url(#paint7_linear_3663_9172)"/>
<defs>
<linearGradient id="paint0_linear_3663_9172" x1="9.44274" y1="2.47021" x2="9.44274" y2="45.2386" gradientUnits="userSpaceOnUse">
<stop stop-color="#884DFF" stop-opacity="0.6"/>
<stop offset="1" stop-color="#41B4F7"/>
</linearGradient>
<linearGradient id="paint1_linear_3663_9172" x1="36.6566" y1="2.47021" x2="36.6566" y2="45.2386" gradientUnits="userSpaceOnUse">
<stop stop-color="#884DFF"/>
<stop offset="1" stop-color="#41B4F7" stop-opacity="0"/>
</linearGradient>
<linearGradient id="paint2_linear_3663_9172" x1="5.13257" y1="4.04271" x2="38.1505" y2="45.9615" gradientUnits="userSpaceOnUse">
<stop stop-color="#884DFF"/>
<stop offset="1" stop-color="#41B4F7" stop-opacity="0.2"/>
</linearGradient>
<linearGradient id="paint3_linear_3663_9172" x1="125.113" y1="39.0723" x2="125.113" y2="82.9017" gradientUnits="userSpaceOnUse">
<stop stop-color="#884DFF"/>
<stop offset="1" stop-color="#45B2F7"/>
</linearGradient>
<linearGradient id="paint4_linear_3663_9172" x1="127.051" y1="4.60069" x2="105.137" y2="42.5581" gradientUnits="userSpaceOnUse">
<stop stop-color="#884DFF" stop-opacity="0.6"/>
<stop offset="1" stop-color="#41B4F7"/>
</linearGradient>
<linearGradient id="paint5_linear_3663_9172" x1="125.069" y1="42.4809" x2="146.983" y2="4.52341" gradientUnits="userSpaceOnUse">
<stop stop-color="#884DFF" stop-opacity="0.6"/>
<stop offset="1" stop-color="#41B4F7"/>
</linearGradient>
<linearGradient id="paint6_linear_3663_9172" x1="140.954" y1="8.01025" x2="140.954" y2="51.8397" gradientUnits="userSpaceOnUse">
<stop stop-color="#884DFF"/>
<stop offset="1" stop-color="#41B4F7" stop-opacity="0.3"/>
</linearGradient>
<linearGradient id="paint7_linear_3663_9172" x1="50.5315" y1="8.35274" x2="83.4099" y2="38.7956" gradientUnits="userSpaceOnUse">
<stop stop-color="#8752FF"/>
<stop offset="0.519231" stop-color="#48B0F7"/>
<stop offset="1" stop-color="#CCE5F5"/>
</linearGradient>
</defs>
</svg>
