<svg width="18" height="18" viewBox="0 0 18 18" fill="none" xmlns="http://www.w3.org/2000/svg">
<path d="M7.30308 0.735106C8.22985 -0.245034 9.77015 -0.245036 10.6969 0.735105L11.6718 1.76616C12.0631 2.17999 12.5871 2.4371 13.1486 2.49077L14.5477 2.6245C15.8776 2.75162 16.838 3.97859 16.6637 5.32793L16.4804 6.74736C16.4068 7.31708 16.5362 7.89479 16.8451 8.37555L17.6148 9.57336C18.3464 10.712 18.0037 12.242 16.8596 12.9445L15.656 13.6834C15.173 13.98 14.8103 14.4433 14.634 14.9891L14.1948 16.3491C13.7772 17.6418 12.3894 18.3227 11.137 17.8493L9.81958 17.3514C9.2908 17.1515 8.7092 17.1515 8.18042 17.3514L6.86299 17.8493C5.6106 18.3227 4.22283 17.6418 3.80525 16.3491L3.36597 14.9891C3.18966 14.4433 2.82703 13.98 2.34397 13.6834L1.14043 12.9445C-0.0036742 12.242 -0.346426 10.712 0.385234 9.57336L1.1549 8.37555C1.46382 7.89479 1.59324 7.31708 1.51965 6.74736L1.3363 5.32793C1.162 3.97859 2.12236 2.75162 3.45232 2.6245L4.85135 2.49077C5.41288 2.4371 5.93689 2.17999 6.32818 1.76616L7.30308 0.735106Z" fill="#884DFF"/>
<path d="M7.85732 10.8134L11.8134 6.85732C11.9068 6.76397 12.0157 6.71729 12.1402 6.71729C12.2647 6.71729 12.3736 6.76397 12.467 6.85732C12.5603 6.95068 12.607 7.06163 12.607 7.19015C12.607 7.31868 12.5603 7.42946 12.467 7.52251L8.18408 11.8171C8.09072 11.9104 7.9818 11.9571 7.85732 11.9571C7.73284 11.9571 7.62392 11.9104 7.53056 11.8171L5.52333 9.80983C5.42997 9.71647 5.38515 9.60568 5.38889 9.47747C5.39262 9.34925 5.44132 9.23831 5.535 9.14464C5.62867 9.05097 5.73961 9.00429 5.86782 9.0046C5.99604 9.00491 6.10682 9.05159 6.20018 9.14464L7.85732 10.8134Z" fill="white"/>
</svg>
