<svg width="59" height="20" viewBox="0 0 59 20" fill="none" xmlns="http://www.w3.org/2000/svg">
<path d="M2.55604 6.91217C3.51369e-05 6.91217 0.108035 0.000173807 5.47204 1.11617C5.97604 1.22418 7.59604 1.36818 9.46804 1.36818H13.824C15.66 1.36818 17.28 1.22418 17.784 1.11617C23.148 0.000173807 23.256 6.91217 20.7 6.91217C18.324 6.91217 16.74 3.20418 14.724 3.20418H14.256C14.256 3.34818 14.292 3.49217 14.292 3.67218V12.3842C14.292 14.8322 15.372 15.7682 15.372 17.7482C15.372 19.3322 13.932 19.8722 11.628 19.8722C9.32404 19.8722 7.88404 19.3322 7.88404 17.7482C7.88404 15.7682 9.00004 14.8322 9.00004 12.3842V3.67218C9.00004 3.49217 9.00004 3.34818 9.03604 3.20418H8.56804C6.51604 3.20418 4.93204 6.91217 2.55604 6.91217ZM17.4924 12.3842C17.4924 10.7282 16.0884 10.7642 16.0884 9.50417C16.0884 8.13618 19.0764 7.84817 19.9044 7.84817C21.6324 7.84817 22.3524 8.78418 22.3524 9.93618V15.1562C22.3524 16.7042 22.7124 18.0722 23.6844 18.0722C25.6644 18.0722 26.9604 13.2842 25.5924 10.9442C25.1964 10.5122 24.7644 10.2242 24.7644 9.50417C24.7644 8.13618 27.7524 7.84817 28.5804 7.84817C30.2724 7.84817 30.9924 8.78418 30.9924 9.93618V15.1562C30.9924 16.3802 32.3244 16.4522 32.3244 17.5682C32.3244 18.9002 30.5244 19.8722 29.1564 19.8722C27.8604 19.8722 26.7804 19.1882 26.3484 18.0002C25.3764 19.1882 24.1884 19.8722 22.4244 19.8722C19.2564 19.8722 17.4924 18.1082 17.4924 15.3362V12.3842ZM33.2798 17.7482C33.2798 15.7682 34.3598 14.8322 34.3598 12.3842V8.89218C34.3598 6.44417 33.2798 5.50817 33.2798 3.52818C33.2798 1.94417 34.5038 1.36818 36.8078 1.36818C39.0758 1.36818 40.2998 1.94417 40.2998 3.52818C40.2998 5.50817 39.2198 6.44417 39.2198 8.89218V9.21618C40.3718 8.35217 41.8478 7.84817 43.5038 7.84817C47.1758 7.84817 50.1998 10.5482 50.1998 13.8602C50.1998 17.2082 47.1758 19.8722 43.5038 19.8722C42.1718 19.8722 40.9478 19.5482 39.9398 18.9722C39.3998 19.6202 38.3558 19.8722 36.8078 19.8722C34.5038 19.8722 33.2798 19.3322 33.2798 17.7482ZM41.7398 9.93618C40.3358 9.93618 39.2198 11.7002 39.2198 13.8602C39.2198 16.0202 40.3358 17.7842 41.7398 17.7842C43.1438 17.7842 44.2598 16.0202 44.2598 13.8602C44.2598 11.7002 43.1438 9.93618 41.7398 9.93618ZM51.0714 11.0522C51.0714 8.92817 58.3794 5.97618 58.3794 9.43217C58.3794 10.8722 57.2634 11.3042 57.2634 13.6082C57.2634 16.0202 58.3794 16.2002 58.3794 17.7482C58.3794 19.3322 57.1554 19.8722 54.8514 19.8722C52.5474 19.8722 51.3234 19.3322 51.3234 17.7482C51.3234 16.3442 52.4394 16.4882 52.4394 14.3642C52.4394 12.8162 51.0714 12.4202 51.0714 11.0522ZM55.0314 7.09217C53.3394 7.81218 51.5754 7.48818 51.0714 6.37218C50.6034 5.25617 51.5754 3.74417 53.2674 3.02418C54.9594 2.26817 56.7234 2.59217 57.2274 3.70818C57.6954 4.82418 56.7234 6.33617 55.0314 7.09217Z" fill="#5E84FF"/>
</svg>
